<svg id="Layer_1" data-name="Layer 1" xmlns="http://www.w3.org/2000/svg" xmlns:xlink="http://www.w3.org/1999/xlink" viewBox="0 0 800.69 184.19"><defs><style>.cls-1,.cls-3,.cls-30{fill:none;}.cls-2{isolation:isolate;}.cls-26,.cls-29,.cls-3,.cls-4,.cls-5,.cls-6{stroke-linejoin:round;}.cls-26,.cls-29,.cls-3,.cls-30,.cls-4,.cls-5,.cls-6{stroke-width:3px;}.cls-3{stroke:url(#linear-gradient);}.cls-26,.cls-29,.cls-4,.cls-5,.cls-6{fill:#fff;}.cls-28,.cls-4{stroke:#000;}.cls-5{stroke:url(#linear-gradient-2);}.cls-6{stroke:url(#linear-gradient-3);}.cls-7{clip-path:url(#clip-path);}.cls-8{clip-path:url(#clip-path-2);}.cls-9{clip-path:url(#clip-path-3);}.cls-10{clip-path:url(#clip-path-4);}.cls-11{clip-path:url(#clip-path-5);}.cls-12{clip-path:url(#clip-path-6);}.cls-13{clip-path:url(#clip-path-7);}.cls-14{clip-path:url(#clip-path-8);}.cls-15{clip-path:url(#clip-path-9);}.cls-16{clip-path:url(#clip-path-10);}.cls-17{clip-path:url(#clip-path-11);}.cls-18{clip-path:url(#clip-path-12);}.cls-19{clip-path:url(#clip-path-13);}.cls-20{clip-path:url(#clip-path-14);}.cls-21{clip-path:url(#clip-path-15);}.cls-22{clip-path:url(#clip-path-16);}.cls-23{clip-path:url(#clip-path-17);}.cls-24{clip-path:url(#clip-path-18);}.cls-25{clip-path:url(#clip-path-19);}.cls-26{stroke:#4d4d4d;opacity:0.5;}.cls-27{font-size:18.13px;fill:#3d3d3d;}.cls-27,.cls-28{font-family:InconsolataForPowerline, Inconsolata for Powerline;}.cls-28{font-size:40.79px;opacity:0.15;}.cls-28,.cls-30{stroke-miterlimit:10;}.cls-29{stroke:gray;}.cls-30{stroke:#3d3d3d;opacity:0.2;}</style><linearGradient id="linear-gradient" x1="95.24" y1="76.94" x2="288.62" y2="76.94" gradientTransform="matrix(1, 0, 0, -1, -95.24, 197.35)" gradientUnits="userSpaceOnUse"><stop offset="0" stop-color="#00d5a7"/><stop offset="1" stop-color="#4847db"/></linearGradient><linearGradient id="linear-gradient-2" x1="95.24" y1="124.57" x2="288.62" y2="124.57" xlink:href="#linear-gradient"/><linearGradient id="linear-gradient-3" x1="0" y1="121.54" x2="193.37" y2="121.54" gradientTransform="matrix(1, 0, 0, 1, 0, 0)" xlink:href="#linear-gradient"/><clipPath id="clip-path" transform="translate(-95.24 -4.65)"><path class="cls-1" d="M166,157.11l-1.5-1.42a.93.93,0,0,1-.17-.22l1.5,1.42A.93.93,0,0,0,166,157.11Z"/></clipPath><clipPath id="clip-path-2" transform="translate(-95.24 -4.65)"><path class="cls-1" d="M155.71,160.59l-1.5-1.42a.79.79,0,0,1-.15-.19,1.06,1.06,0,0,1,0-.89l1.5,1.42a1.06,1.06,0,0,0,0,.89A.79.79,0,0,0,155.71,160.59Z"/></clipPath><clipPath id="clip-path-3" transform="translate(-95.24 -4.65)"><path class="cls-1" d="M161.8,144.82l-1.5-1.42h.23l1.5,1.42Z"/></clipPath><clipPath id="clip-path-4" transform="translate(-95.24 -4.65)"><path class="cls-1" d="M173.74,151.42l-1.5-1.42a1.83,1.83,0,0,0,.35.26,2.4,2.4,0,0,0,2.08.11,4.23,4.23,0,0,0,2-1.51,3.53,3.53,0,0,0,.8-2.24L179,148a3.53,3.53,0,0,1-.8,2.24,4.23,4.23,0,0,1-2,1.51,2.4,2.4,0,0,1-2.08-.11A1.83,1.83,0,0,1,173.74,151.42Z"/></clipPath><clipPath id="clip-path-5" transform="translate(-95.24 -4.65)"><path class="cls-1" d="M171.8,153.4,170.3,152a3.5,3.5,0,0,1-1-2.56l1.5,1.42A3.5,3.5,0,0,0,171.8,153.4Z"/></clipPath><clipPath id="clip-path-6" transform="translate(-95.24 -4.65)"><path class="cls-1" d="M178.77,140.1l-1.5-1.42a1.47,1.47,0,0,1,.33-.93l1.5,1.42A1.47,1.47,0,0,0,178.77,140.1Z"/></clipPath><clipPath id="clip-path-7" transform="translate(-95.24 -4.65)"><path class="cls-1" d="M179.44,137.27l1.5,1.42-.14-.11a1,1,0,0,0-.89,0,1.76,1.76,0,0,0-.81.61l-1.5-1.42a1.76,1.76,0,0,1,.81-.61,1,1,0,0,1,.89,0Z"/></clipPath><clipPath id="clip-path-8" transform="translate(-95.24 -4.65)"><path class="cls-1" d="M171.21,140.07l1.5,1.42-.13-.1a1,1,0,0,0-.89,0l-1.5-1.42a1,1,0,0,1,.89,0Z"/></clipPath><clipPath id="clip-path-9" transform="translate(-95.24 -4.65)"><path class="cls-1" d="M170.53,142.9l-1.5-1.42a1.49,1.49,0,0,1,.33-.93,1.74,1.74,0,0,1,.81-.61l1.5,1.42a1.74,1.74,0,0,0-.81.61A1.49,1.49,0,0,0,170.53,142.9Z"/></clipPath><clipPath id="clip-path-10" transform="translate(-95.24 -4.65)"><path class="cls-1" d="M188.82,149.29l-1.5-1.42a.82.82,0,0,1-.24-.59l1.5,1.42A.82.82,0,0,0,188.82,149.29Z"/></clipPath><clipPath id="clip-path-11" transform="translate(-95.24 -4.65)"><path class="cls-1" d="M193.28,132.55l1.5,1.42-.14-.1a1,1,0,0,0-.88-.06l-1.5-1.42a1,1,0,0,1,.88.06Z"/></clipPath><clipPath id="clip-path-12" transform="translate(-95.24 -4.65)"><path class="cls-1" d="M184.15,138.93l-1.5-1.42a.82.82,0,0,1-.24-.59l1.5,1.42A.82.82,0,0,0,184.15,138.93Z"/></clipPath><clipPath id="clip-path-13" transform="translate(-95.24 -4.65)"><path class="cls-1" d="M183.91,138.34l-1.5-1.42a1.49,1.49,0,0,1,.33-.94,1.83,1.83,0,0,1,.86-.64l1.5,1.42a1.83,1.83,0,0,0-.86.64A1.49,1.49,0,0,0,183.91,138.34Z"/></clipPath><clipPath id="clip-path-14" transform="translate(-95.24 -4.65)"><path class="cls-1" d="M207.2,143l-1.5-1.42a.83.83,0,0,1-.24-.6l1.5,1.42A.83.83,0,0,0,207.2,143Z"/></clipPath><clipPath id="clip-path-15" transform="translate(-95.24 -4.65)"><path class="cls-1" d="M198.32,146l-1.5-1.42a.8.8,0,0,1-.23-.59l1.5,1.42A.8.8,0,0,0,198.32,146Z"/></clipPath><clipPath id="clip-path-16" transform="translate(-95.24 -4.65)"><path class="cls-1" d="M207.35,127.79l1.5,1.42-.15-.11a1,1,0,0,0-.89,0l-1.5-1.42a1,1,0,0,1,.89,0Z"/></clipPath><clipPath id="clip-path-17" transform="translate(-95.24 -4.65)"><path class="cls-1" d="M206.61,130.65l-1.5-1.42a1.47,1.47,0,0,1,.34-1,1.83,1.83,0,0,1,.86-.64l1.5,1.42a1.83,1.83,0,0,0-.86.64A1.47,1.47,0,0,0,206.61,130.65Z"/></clipPath><clipPath id="clip-path-18" transform="translate(-95.24 -4.65)"><path class="cls-1" d="M198.46,130.81l1.5,1.42-.13-.1a1,1,0,0,0-.89-.05l-1.5-1.42a1,1,0,0,1,.89.05Z"/></clipPath><clipPath id="clip-path-19" transform="translate(-95.24 -4.65)"><path class="cls-1" d="M197.74,133.67l-1.5-1.42a1.47,1.47,0,0,1,.33-.95,1.82,1.82,0,0,1,.87-.65l1.5,1.42a1.82,1.82,0,0,0-.87.65A1.47,1.47,0,0,0,197.74,133.67Z"/></clipPath></defs><title>auth</title><polygon class="cls-3" points="1.5 114.68 142.32 66.98 191.87 125.64 51.48 173.84 1.5 114.68"/><text x="-95.24" y="-4.65"></text><path class="cls-4" d="M126.91,177.86" transform="translate(-95.24 -4.65)"/><polygon class="cls-5" points="191.87 78.51 51.05 126.21 1.5 67.55 141.9 19.34 191.87 78.51"/><polygon class="cls-6" points="1.5 67.83 51.05 126.49 191.87 78.79 191.87 127.05 51.48 175.26 1.5 116.09 1.5 67.83"/><g class="cls-2"><g class="cls-2"><g class="cls-7"><g class="cls-2"><path d="M166,157.11l-1.5-1.42a.93.93,0,0,1-.17-.22l1.5,1.42a.93.93,0,0,0,.17.22" transform="translate(-95.24 -4.65)"/></g></g></g><polygon points="70.6 152.24 69.11 150.82 68.04 148.88 69.54 150.29 70.6 152.24"/><g class="cls-2"><g class="cls-8"><g class="cls-2"><path d="M155.71,160.59l-1.5-1.42a.79.79,0,0,1-.15-.19,1.06,1.06,0,0,1,0-.89l1.5,1.42a1.06,1.06,0,0,0,0,.89.79.79,0,0,0,.15.19" transform="translate(-95.24 -4.65)"/></g></g></g><polygon points="64.45 149.68 62.96 148.27 66.97 146.9 68.46 148.32 64.45 149.68"/><polygon points="60.29 154.86 58.79 153.44 60.02 149.99 61.52 151.41 60.29 154.86"/><polygon points="68.46 148.32 66.97 146.9 64.82 143.01 66.32 144.43 68.46 148.32"/><polygon points="67.19 140.37 65.69 138.96 65.73 139 67.23 140.41 67.19 140.37"/><polygon points="67.15 140.34 65.66 138.93 65.69 138.96 67.19 140.37 67.15 140.34"/><polygon points="67.11 140.31 65.62 138.89 65.66 138.93 67.15 140.34 67.11 140.31"/><polygon points="67.08 140.28 65.58 138.87 65.62 138.89 67.11 140.31 67.08 140.28"/><polygon points="67.02 140.26 65.53 138.85 65.58 138.87 67.08 140.28 67.02 140.26"/><polygon points="66.98 140.24 65.49 138.82 65.53 138.85 67.02 140.26 66.98 140.24"/><polygon points="66.93 140.22 65.43 138.81 65.49 138.82 66.98 140.24 66.93 140.22"/><polygon points="66.89 140.2 65.39 138.79 65.43 138.81 66.93 140.22 66.89 140.2"/><polygon points="66.82 140.19 65.33 138.77 65.39 138.79 66.89 140.2 66.82 140.19"/><polygon points="66.78 140.18 65.29 138.76 65.33 138.77 66.82 140.19 66.78 140.18"/><g class="cls-2"><g class="cls-9"><g class="cls-2"><path d="M161.8,144.82l-1.5-1.42h.14l1.5,1.42h-.14" transform="translate(-95.24 -4.65)"/><path d="M161.94,144.82l-1.5-1.42h.09l1.5,1.42h-.09" transform="translate(-95.24 -4.65)"/></g></g></g><polygon points="66.51 140.18 65.01 138.76 65.06 138.75 66.55 140.17 66.51 140.18"/><polygon points="66.44 140.18 64.94 138.77 65.01 138.76 66.51 140.18 66.44 140.18"/><polygon points="66.38 140.19 64.88 138.78 64.94 138.77 66.44 140.18 66.38 140.19"/><polygon points="66.32 140.2 64.82 138.78 64.88 138.78 66.38 140.19 66.32 140.2"/><polygon points="66.25 140.22 64.76 138.81 64.82 138.78 66.32 140.2 66.25 140.22"/><polygon points="66.19 140.24 64.7 138.83 64.76 138.81 66.25 140.22 66.19 140.24"/><polygon points="66.15 140.26 64.65 138.84 64.7 138.83 66.19 140.24 66.15 140.26"/><polygon points="61.52 151.41 60.02 149.99 63.59 139.92 65.09 141.34 61.52 151.41"/><polygon points="66.08 140.28 64.59 138.87 64.65 138.84 66.15 140.26 66.08 140.28"/><polygon points="66.03 140.31 64.53 138.89 64.59 138.87 66.08 140.28 66.03 140.31"/><polygon points="65.09 141.34 63.59 139.92 63.64 139.8 65.14 141.22 65.09 141.34"/><polygon points="65.96 140.34 64.46 138.92 64.53 138.89 66.03 140.31 65.96 140.34"/><polygon points="65.91 140.37 64.42 138.96 64.46 138.92 65.96 140.34 65.91 140.37"/><polygon points="65.14 141.22 63.64 139.8 63.67 139.75 65.16 141.16 65.14 141.22"/><polygon points="65.16 141.16 63.67 139.75 63.7 139.68 65.2 141.1 65.16 141.16"/><polygon points="65.84 140.41 64.35 139 64.42 138.96 65.91 140.37 65.84 140.41"/><polygon points="65.2 141.1 63.7 139.68 63.73 139.63 65.23 141.04 65.2 141.1"/><polygon points="65.23 141.04 63.73 139.63 63.78 139.57 65.27 140.99 65.23 141.04"/><polygon points="65.78 140.46 64.28 139.04 64.35 139 65.84 140.41 65.78 140.46"/><polygon points="65.7 140.52 64.2 139.11 64.28 139.04 65.78 140.46 65.7 140.52"/><polygon points="65.27 140.99 63.78 139.57 63.81 139.52 65.3 140.93 65.27 140.99"/><polygon points="65.63 140.58 64.13 139.16 64.2 139.11 65.7 140.52 65.63 140.58"/><polygon points="65.34 140.87 63.84 139.46 63.89 139.41 65.39 140.83 65.34 140.87"/><polygon points="65.3 140.93 63.81 139.52 63.84 139.46 65.34 140.87 65.3 140.93"/><polygon points="65.43 140.77 63.94 139.36 63.98 139.31 65.48 140.73 65.43 140.77"/><polygon points="65.39 140.83 63.89 139.41 63.94 139.36 65.43 140.77 65.39 140.83"/><polygon points="65.57 140.63 64.07 139.21 64.13 139.16 65.63 140.58 65.57 140.63"/><path d="M168.09,155.23a1.06,1.06,0,0,1,0,.89,1.82,1.82,0,0,1-.65.85,1.75,1.75,0,0,1-.46.25.86.86,0,0,1-1.16-.33l-1.06-1.95-6,2.05-.94,2.63a1.7,1.7,0,0,1-1.09,1.1l-.27.09h-.23a.77.77,0,0,1-.68-.4,1.06,1.06,0,0,1,0-.89l1.23-3.45L160.33,146l.05-.12,0-.05,0-.07,0-.06,0-.05,0-.06,0-.06,0,0,0-.05,0,0,0-.05,0,0,.06-.05.07-.05.08-.06.07,0,.07,0,0,0,.07,0,.05,0,.06,0,0,0,.06,0,.06,0h.51l.06,0,0,0,.06,0,0,0,.06,0,0,0,0,0,0,0,0,0,0,0,0,0,.06.08,4.09,7.45Zm-8.39-.9,4-1.36-2.14-3.89-1.86,5.25" transform="translate(-95.24 -4.65)"/><polygon points="65.48 140.73 63.98 139.31 64.03 139.26 65.52 140.67 65.48 140.73"/><polygon points="65.52 140.67 64.03 139.26 64.07 139.21 65.57 140.63 65.52 140.67"/></g><g class="cls-2"><g class="cls-2"><g class="cls-10"><g class="cls-2"><path d="M173.74,151.42l-1.5-1.42.06.05,1.5,1.42-.06-.05" transform="translate(-95.24 -4.65)"/><path d="M173.8,151.47l-1.5-1.42.14.11,1.5,1.42-.14-.11" transform="translate(-95.24 -4.65)"/><path d="M173.94,151.58l-1.5-1.42.16.1,0,0,1.5,1.42,0,0-.16-.1" transform="translate(-95.24 -4.65)"/><path d="M174.13,151.7l-1.5-1.42.18.09,1.5,1.42-.18-.09" transform="translate(-95.24 -4.65)"/><path d="M174.32,151.79l-1.5-1.42.2.08,1.5,1.42-.2-.08" transform="translate(-95.24 -4.65)"/><path d="M174.52,151.87l-1.5-1.42.22.06,1.5,1.42-.22-.06" transform="translate(-95.24 -4.65)"/><path d="M174.74,151.93l-1.5-1.42.29,0L175,152l-.29,0" transform="translate(-95.24 -4.65)"/><path d="M175,152l-1.5-1.42a2.61,2.61,0,0,0,.62,0l1.5,1.42a2.61,2.61,0,0,1-.62,0" transform="translate(-95.24 -4.65)"/><path d="M175.64,151.93l-1.5-1.42.28-.06,1.5,1.42-.28.06" transform="translate(-95.24 -4.65)"/><path d="M175.92,151.87l-1.5-1.42.26-.08a4.27,4.27,0,0,0,.46-.19l1.5,1.42a4.27,4.27,0,0,1-.46.19l-.26.08" transform="translate(-95.24 -4.65)"/><path d="M176.64,151.6l-1.5-1.42.33-.18,1.5,1.42-.33.18" transform="translate(-95.24 -4.65)"/><path d="M177,151.42l-1.5-1.42.24-.16,1.5,1.42-.24.16" transform="translate(-95.24 -4.65)"/><path d="M177.21,151.26l-1.5-1.42.2-.15,1.5,1.42-.2.15" transform="translate(-95.24 -4.65)"/><path d="M177.41,151.11l-1.5-1.42.18-.15,1.5,1.42-.18.15" transform="translate(-95.24 -4.65)"/><path d="M177.59,151l-1.5-1.42.17-.16,1.5,1.42-.17.16" transform="translate(-95.24 -4.65)"/><path d="M177.76,150.79l-1.5-1.42.17-.17,1.5,1.42-.17.17" transform="translate(-95.24 -4.65)"/><path d="M177.92,150.62l-1.5-1.42.17-.2,1.5,1.42-.17.2" transform="translate(-95.24 -4.65)"/><path d="M178.09,150.42l-1.5-1.42.11-.14.06-.08,1.5,1.42-.06.08-.11.14" transform="translate(-95.24 -4.65)"/><path d="M178.26,150.2l-1.5-1.42.16-.23,1.5,1.42-.16.23" transform="translate(-95.24 -4.65)"/><path d="M178.42,150l-1.5-1.42.14-.24,1.5,1.42-.14.24" transform="translate(-95.24 -4.65)"/><path d="M178.56,149.74l-1.5-1.42.13-.26,1.5,1.42-.13.26" transform="translate(-95.24 -4.65)"/><path d="M178.69,149.48l-1.5-1.42q.07-.16.13-.32l1.5,1.42q-.06.16-.13.32" transform="translate(-95.24 -4.65)"/><path d="M178.82,149.16l-1.5-1.42a3.09,3.09,0,0,0,.18-1.13L179,148a3.09,3.09,0,0,1-.18,1.13" transform="translate(-95.24 -4.65)"/></g></g></g><g class="cls-2"><g class="cls-11"><g class="cls-2"><path d="M171.8,153.4,170.3,152a3.5,3.5,0,0,1-1-2.56l1.5,1.42a3.5,3.5,0,0,0,1,2.56" transform="translate(-95.24 -4.65)"/></g></g></g><polygon points="83.76 143.38 82.26 141.97 82.03 134.03 83.52 135.44 83.76 143.38"/><g class="cls-2"><g class="cls-12"><g class="cls-2"><path d="M178.77,140.1l-1.5-1.42a1.24,1.24,0,0,1,.07-.47l1.5,1.42a1.24,1.24,0,0,0-.07.47" transform="translate(-95.24 -4.65)"/><path d="M178.84,139.63l-1.5-1.42.05-.13,1.5,1.42-.05.13" transform="translate(-95.24 -4.65)"/><path d="M178.89,139.5l-1.5-1.42.06-.11,1.5,1.42-.06.11" transform="translate(-95.24 -4.65)"/><path d="M179,139.38l-1.5-1.42.06-.1,1.5,1.42-.06.1" transform="translate(-95.24 -4.65)"/><path d="M179,139.28l-1.5-1.42.07-.1,1.5,1.42-.07.1" transform="translate(-95.24 -4.65)"/><path d="M179.08,139.18l-1.5-1.42v0l1.5,1.42v0" transform="translate(-95.24 -4.65)"/></g></g></g><g class="cls-2"><g class="cls-13"><g class="cls-2"><path d="M179.09,139.16l-1.5-1.42,0,0,1.5,1.42,0,0" transform="translate(-95.24 -4.65)"/><path d="M179.12,139.13l-1.5-1.42.08-.09,1.5,1.42-.08.09" transform="translate(-95.24 -4.65)"/><path d="M179.2,139l-1.5-1.42.07-.08,1.5,1.42-.07.08" transform="translate(-95.24 -4.65)"/><path d="M179.27,139l-1.5-1.42.07-.07,1.5,1.42-.07.07" transform="translate(-95.24 -4.65)"/><path d="M179.35,138.89l-1.5-1.42.08-.07,1.5,1.42-.08.07" transform="translate(-95.24 -4.65)"/><path d="M179.42,138.82l-1.5-1.42.08-.06,1.5,1.42-.08.06" transform="translate(-95.24 -4.65)"/><path d="M179.51,138.76l-1.5-1.42.1-.06,1.5,1.42-.1.06" transform="translate(-95.24 -4.65)"/><path d="M179.6,138.7l-1.5-1.42.13-.07,1.5,1.42-.13.07" transform="translate(-95.24 -4.65)"/><path d="M179.73,138.63l-1.5-1.42.17-.07.14,0,1.5,1.42-.14,0-.17.07" transform="translate(-95.24 -4.65)"/><path d="M180,138.51l-1.5-1.42.13,0,1.5,1.42-.13,0" transform="translate(-95.24 -4.65)"/><path d="M180.17,138.48l-1.5-1.42a1.09,1.09,0,0,1,.25,0l1.5,1.42a1.09,1.09,0,0,0-.25,0" transform="translate(-95.24 -4.65)"/><path d="M180.43,138.47l-1.5-1.42.12,0,1.5,1.42-.12,0" transform="translate(-95.24 -4.65)"/><path d="M180.54,138.48l-1.5-1.42.09,0,1.5,1.42-.09,0" transform="translate(-95.24 -4.65)"/><path d="M180.63,138.51l-1.5-1.42.08,0,1.5,1.42-.08,0" transform="translate(-95.24 -4.65)"/><path d="M180.71,138.54l-1.5-1.42.07,0,1.5,1.42-.07,0" transform="translate(-95.24 -4.65)"/><path d="M180.78,138.57l-1.5-1.42h0l0,0,1.5,1.42,0,0h0" transform="translate(-95.24 -4.65)"/><path d="M180.85,138.62l-1.5-1.42.06.05,1.5,1.42-.06-.05" transform="translate(-95.24 -4.65)"/><path d="M180.91,138.67l-1.5-1.42,0,0,1.5,1.42,0,0" transform="translate(-95.24 -4.65)"/></g></g></g><polygon points="75.52 146.19 74.03 144.77 73.79 136.83 75.29 138.25 75.52 146.19"/><g class="cls-2"><g class="cls-14"><g class="cls-2"><path d="M171.68,141.36l-1.5-1.42.14,0,1.5,1.42-.14,0" transform="translate(-95.24 -4.65)"/><path d="M171.82,141.32l-1.5-1.42.13,0,1.5,1.42-.13,0" transform="translate(-95.24 -4.65)"/><path d="M171.94,141.29l-1.5-1.42a1.11,1.11,0,0,1,.26,0l1.5,1.42a1.11,1.11,0,0,0-.26,0" transform="translate(-95.24 -4.65)"/><path d="M172.2,141.27l-1.5-1.42.12,0,1.5,1.42-.12,0" transform="translate(-95.24 -4.65)"/><path d="M172.32,141.29l-1.5-1.42.09,0,1.5,1.42-.09,0" transform="translate(-95.24 -4.65)"/><path d="M172.41,141.31l-1.5-1.42.08,0,1.5,1.42-.08,0" transform="translate(-95.24 -4.65)"/><path d="M172.49,141.34l-1.5-1.42.07,0,1.5,1.42-.07,0" transform="translate(-95.24 -4.65)"/><path d="M172.56,141.38l-1.5-1.42h0l0,0,1.5,1.42,0,0h0" transform="translate(-95.24 -4.65)"/><path d="M172.62,141.42l-1.5-1.42.06,0,1.5,1.42-.06,0" transform="translate(-95.24 -4.65)"/><path d="M172.68,141.46l-1.5-1.42,0,0,1.5,1.42,0,0" transform="translate(-95.24 -4.65)"/></g></g></g><g class="cls-2"><g class="cls-15"><g class="cls-2"><path d="M170.53,142.9l-1.5-1.42a1.33,1.33,0,0,1,.08-.47l1.5,1.42a1.33,1.33,0,0,0-.08.47" transform="translate(-95.24 -4.65)"/><path d="M170.61,142.43l-1.5-1.42.05-.13,1.5,1.42-.05.13" transform="translate(-95.24 -4.65)"/><path d="M170.66,142.3l-1.5-1.42.05-.11,1.5,1.42-.05.11" transform="translate(-95.24 -4.65)"/><path d="M170.72,142.19l-1.5-1.42.06-.1,1.5,1.42-.06.1" transform="translate(-95.24 -4.65)"/><path d="M170.78,142.1l-1.5-1.42.06-.09,1.5,1.42-.06.09" transform="translate(-95.24 -4.65)"/><path d="M170.84,142l-1.5-1.42,0,0,0-.05,1.5,1.42,0,.05,0,0" transform="translate(-95.24 -4.65)"/><path d="M170.91,141.91l-1.5-1.42.07-.08,1.5,1.42-.07.08" transform="translate(-95.24 -4.65)"/><path d="M171,141.83l-1.5-1.42.07-.07,1.5,1.42-.07.07" transform="translate(-95.24 -4.65)"/><path d="M171,141.76l-1.5-1.42.07-.07,1.5,1.42-.07.07" transform="translate(-95.24 -4.65)"/><path d="M171.12,141.69l-1.5-1.42.08-.06,1.5,1.42-.08.06" transform="translate(-95.24 -4.65)"/><path d="M171.19,141.63l-1.5-1.42.08-.06,1.5,1.42-.08.06" transform="translate(-95.24 -4.65)"/><path d="M171.28,141.57l-1.5-1.42.1-.06,1.5,1.42-.1.06" transform="translate(-95.24 -4.65)"/><path d="M171.37,141.5l-1.5-1.42L170,140l1.5,1.42-.13.07" transform="translate(-95.24 -4.65)"/><path d="M171.51,141.43,170,140l.17-.07,1.5,1.42-.17.07" transform="translate(-95.24 -4.65)"/></g></g></g><path d="M171.68,141.36a1,1,0,0,1,.89,0,.79.79,0,0,1,.37.69l.23,7.94a1.83,1.83,0,0,0,.91,1.66,2.4,2.4,0,0,0,2.08.11,4.23,4.23,0,0,0,2-1.51A3.53,3.53,0,0,0,179,148l-.23-7.94a1.47,1.47,0,0,1,.33-.93,1.76,1.76,0,0,1,.81-.61,1,1,0,0,1,.89,0,.77.77,0,0,1,.37.69l.23,7.94a6.4,6.4,0,0,1-1.45,4.1,7.76,7.76,0,0,1-3.68,2.75,4.44,4.44,0,0,1-3.84-.19,3.38,3.38,0,0,1-1.67-3l-.23-7.94a1.49,1.49,0,0,1,.33-.93A1.74,1.74,0,0,1,171.68,141.36Z" transform="translate(-95.24 -4.65)"/></g><g class="cls-2"><g class="cls-2"><g class="cls-16"><g class="cls-2"><path d="M188.82,149.29l-1.5-1.42a.82.82,0,0,1-.24-.59l1.5,1.42a.82.82,0,0,0,.24.59" transform="translate(-95.24 -4.65)"/></g></g></g><g class="cls-2"><g class="cls-17"><g class="cls-2"><path d="M193.75,133.81l-1.5-1.42.09,0,1.5,1.42-.09,0" transform="translate(-95.24 -4.65)"/><path d="M193.84,133.78l-1.5-1.42.12,0,1.5,1.42-.12,0" transform="translate(-95.24 -4.65)"/><path d="M194,133.76l-1.5-1.42a1.12,1.12,0,0,1,.26,0l1.5,1.42a1.12,1.12,0,0,0-.26,0" transform="translate(-95.24 -4.65)"/><path d="M194.23,133.74l-1.5-1.42.13,0,1.5,1.42-.13,0" transform="translate(-95.24 -4.65)"/><path d="M194.35,133.76l-1.5-1.42.1,0,1.5,1.42-.1,0" transform="translate(-95.24 -4.65)"/><path d="M194.45,133.78l-1.5-1.42.09,0,1.5,1.42-.09,0" transform="translate(-95.24 -4.65)"/><path d="M194.54,133.82,193,132.4l.08,0,1.5,1.42-.08,0" transform="translate(-95.24 -4.65)"/><path d="M194.62,133.86l-1.5-1.42h0l.06,0,1.5,1.42-.06,0h0" transform="translate(-95.24 -4.65)"/><path d="M194.69,133.9l-1.5-1.42.06,0,1.5,1.42-.06,0" transform="translate(-95.24 -4.65)"/><path d="M194.75,133.95l-1.5-1.42,0,0,1.5,1.42,0,0" transform="translate(-95.24 -4.65)"/></g></g></g><polygon points="93.34 144.04 91.84 142.63 91.53 131.96 93.03 133.38 93.34 144.04"/><g class="cls-2"><g class="cls-18"><g class="cls-2"><path d="M184.15,138.93l-1.5-1.42a.82.82,0,0,1-.24-.59l1.5,1.42a.82.82,0,0,0,.24.59" transform="translate(-95.24 -4.65)"/></g></g></g><polygon points="89.86 132.11 88.37 130.69 97.01 127.74 98.51 129.16 89.86 132.11"/><path d="M185.11,136.76l8.65-2.95a1,1,0,0,1,.88.06.77.77,0,0,1,.37.69,1.46,1.46,0,0,1-.33.94,1.76,1.76,0,0,1-.83.63l-3.13,1.07.31,10.67a1.45,1.45,0,0,1-.34,1,1.75,1.75,0,0,1-.85.63,1,1,0,0,1-.87,0,.79.79,0,0,1-.39-.7L188.27,138l-3.1,1.05a1,1,0,0,1-.88,0,.79.79,0,0,1-.38-.7,1.49,1.49,0,0,1,.33-.94A1.83,1.83,0,0,1,185.11,136.76Z" transform="translate(-95.24 -4.65)"/><g class="cls-2"><g class="cls-19"><g class="cls-2"><path d="M183.91,138.34l-1.5-1.42a1.36,1.36,0,0,1,.08-.48l1.5,1.42a1.36,1.36,0,0,0-.08.48" transform="translate(-95.24 -4.65)"/><path d="M184,137.86l-1.5-1.42.05-.13,1.5,1.42-.05.13" transform="translate(-95.24 -4.65)"/><path d="M184,137.73l-1.5-1.42.05-.11,1.5,1.42-.05.11" transform="translate(-95.24 -4.65)"/><path d="M184.1,137.63l-1.5-1.42.06-.1,1.5,1.42-.06.1" transform="translate(-95.24 -4.65)"/><path d="M184.16,137.53l-1.5-1.42.06-.09,1.5,1.42-.06.09" transform="translate(-95.24 -4.65)"/><path d="M184.22,137.43l-1.5-1.42,0,0,0-.06,1.5,1.42,0,.06,0,0" transform="translate(-95.24 -4.65)"/><path d="M184.29,137.34l-1.5-1.42.07-.08,1.5,1.42-.07.08" transform="translate(-95.24 -4.65)"/><path d="M184.36,137.26l-1.5-1.42.07-.07,1.5,1.42-.07.07" transform="translate(-95.24 -4.65)"/><path d="M184.43,137.19l-1.5-1.42.07-.07,1.5,1.42-.07.07" transform="translate(-95.24 -4.65)"/><path d="M184.5,137.12,183,135.7l.08-.07,1.5,1.42-.08.07" transform="translate(-95.24 -4.65)"/><path d="M184.58,137l-1.5-1.42.09-.07,1.5,1.42-.09.07" transform="translate(-95.24 -4.65)"/><path d="M184.67,137l-1.5-1.42.1-.07,1.5,1.42-.1.07" transform="translate(-95.24 -4.65)"/><path d="M184.78,136.91l-1.5-1.42.14-.08,1.5,1.42-.14.08" transform="translate(-95.24 -4.65)"/><path d="M184.92,136.84l-1.5-1.42.19-.08,1.5,1.42-.19.08" transform="translate(-95.24 -4.65)"/></g></g></g></g><g class="cls-2"><g class="cls-2"><g class="cls-20"><g class="cls-2"><path d="M207.2,143l-1.5-1.42a.83.83,0,0,1-.24-.6l1.5,1.42a.83.83,0,0,0,.24.6" transform="translate(-95.24 -4.65)"/></g></g></g><polygon points="111.71 137.77 110.22 136.35 110.08 131.63 111.58 133.05 111.71 137.77"/><g class="cls-2"><g class="cls-21"><g class="cls-2"><path d="M198.32,146l-1.5-1.42a.8.8,0,0,1-.23-.59l1.5,1.42a.8.8,0,0,0,.23.59" transform="translate(-95.24 -4.65)"/></g></g></g><polygon points="105.1 132.9 103.6 131.48 110.01 129.3 111.51 130.71 105.1 132.9"/><polygon points="111.51 130.71 110.01 129.3 109.87 124.58 111.37 126 111.51 130.71"/><g class="cls-2"><g class="cls-22"><g class="cls-2"><path d="M207.81,129l-1.5-1.42.1,0,1.5,1.42-.1,0" transform="translate(-95.24 -4.65)"/><path d="M207.91,129l-1.5-1.42.13,0L208,129l-.13,0" transform="translate(-95.24 -4.65)"/><path d="M208,129l-1.5-1.42a1.14,1.14,0,0,1,.27,0l1.5,1.42a1.14,1.14,0,0,0-.27,0" transform="translate(-95.24 -4.65)"/><path d="M208.31,129l-1.5-1.42.12,0,1.5,1.42-.12,0" transform="translate(-95.24 -4.65)"/><path d="M208.43,129l-1.5-1.42.1,0,1.5,1.42-.1,0" transform="translate(-95.24 -4.65)"/><path d="M208.53,129,207,127.6l.08,0,1.5,1.42-.08,0" transform="translate(-95.24 -4.65)"/><path d="M208.61,129l-1.5-1.42.08,0,1.5,1.42-.08,0" transform="translate(-95.24 -4.65)"/><path d="M208.69,129.09l-1.5-1.42h0l.06,0,1.5,1.42-.06,0h0" transform="translate(-95.24 -4.65)"/><path d="M208.76,129.14l-1.5-1.42.06,0,1.5,1.42-.06,0" transform="translate(-95.24 -4.65)"/><path d="M208.82,129.18l-1.5-1.42,0,0,1.5,1.42,0,0" transform="translate(-95.24 -4.65)"/></g></g></g><g class="cls-2"><g class="cls-23"><g class="cls-2"><path d="M206.61,130.65l-1.5-1.42a1.26,1.26,0,0,1,.07-.48l1.5,1.42a1.26,1.26,0,0,0-.07.48" transform="translate(-95.24 -4.65)"/><path d="M206.68,130.17l-1.5-1.42.05-.13,1.5,1.42-.05.13" transform="translate(-95.24 -4.65)"/><path d="M206.74,130l-1.5-1.42.06-.11,1.5,1.42-.06.11" transform="translate(-95.24 -4.65)"/><path d="M206.79,129.93l-1.5-1.42.06-.1,1.5,1.42-.06.1" transform="translate(-95.24 -4.65)"/><path d="M206.86,129.83l-1.5-1.42.07-.1,1.5,1.42-.07.1" transform="translate(-95.24 -4.65)"/><path d="M206.92,129.73l-1.5-1.42,0,0,0-.06,1.5,1.42,0,.06,0,0" transform="translate(-95.24 -4.65)"/><path d="M207,129.63l-1.5-1.42.07-.08,1.5,1.42-.07.08" transform="translate(-95.24 -4.65)"/><path d="M207.07,129.55l-1.5-1.42.07-.07,1.5,1.42-.07.07" transform="translate(-95.24 -4.65)"/><path d="M207.14,129.48l-1.5-1.42.07-.07,1.5,1.42-.07.07" transform="translate(-95.24 -4.65)"/><path d="M207.21,129.41l-1.5-1.42.08-.07,1.5,1.42-.08.07" transform="translate(-95.24 -4.65)"/><path d="M207.29,129.34l-1.5-1.42.09-.07,1.5,1.42-.09.07" transform="translate(-95.24 -4.65)"/><path d="M207.38,129.27l-1.5-1.42.1-.07,1.5,1.42-.1.07" transform="translate(-95.24 -4.65)"/><path d="M207.48,129.2l-1.5-1.42.14-.08,1.5,1.42-.14.08" transform="translate(-95.24 -4.65)"/><path d="M207.62,129.13l-1.5-1.42.19-.08,1.5,1.42-.19.08" transform="translate(-95.24 -4.65)"/></g></g></g><polygon points="102.84 140.79 101.34 139.38 101 127.6 102.5 129.02 102.84 140.79"/><g class="cls-2"><g class="cls-24"><g class="cls-2"><path d="M198.94,132.07l-1.5-1.42.09,0L199,132l-.09,0" transform="translate(-95.24 -4.65)"/><path d="M199,132l-1.5-1.42.12,0,1.5,1.42-.12,0" transform="translate(-95.24 -4.65)"/><path d="M199.15,132l-1.5-1.42a1.13,1.13,0,0,1,.27,0l1.5,1.42a1.13,1.13,0,0,0-.27,0" transform="translate(-95.24 -4.65)"/><path d="M199.42,132l-1.5-1.42.12,0,1.5,1.42-.12,0" transform="translate(-95.24 -4.65)"/><path d="M199.55,132,198,130.6l.1,0,1.5,1.42-.1,0" transform="translate(-95.24 -4.65)"/><path d="M199.65,132l-1.5-1.42.09,0,1.5,1.42-.09,0" transform="translate(-95.24 -4.65)"/><path d="M199.73,132.08l-1.5-1.42.07,0,1.5,1.42-.07,0" transform="translate(-95.24 -4.65)"/><path d="M199.81,132.11l-1.5-1.42h0l0,0,1.5,1.42,0,0h0" transform="translate(-95.24 -4.65)"/><path d="M199.87,132.15l-1.5-1.42.06,0,1.5,1.42-.06,0" transform="translate(-95.24 -4.65)"/><path d="M199.93,132.2l-1.5-1.42,0,0,1.5,1.42,0,0" transform="translate(-95.24 -4.65)"/></g></g></g><g class="cls-2"><g class="cls-25"><g class="cls-2"><path d="M197.74,133.67l-1.5-1.42a1.28,1.28,0,0,1,.07-.48l1.5,1.42a1.28,1.28,0,0,0-.07.48" transform="translate(-95.24 -4.65)"/><path d="M197.81,133.19l-1.5-1.42.05-.13,1.5,1.42-.05.13" transform="translate(-95.24 -4.65)"/><path d="M197.87,133.06l-1.5-1.42.06-.11,1.5,1.42-.06.11" transform="translate(-95.24 -4.65)"/><path d="M197.92,133l-1.5-1.42.06-.1,1.5,1.42-.06.1" transform="translate(-95.24 -4.65)"/><path d="M198,132.85l-1.5-1.42.06-.1,1.5,1.42-.06.1" transform="translate(-95.24 -4.65)"/><path d="M198,132.76l-1.5-1.42,0,0,0-.06,1.5,1.42,0,.06,0,0" transform="translate(-95.24 -4.65)"/><path d="M198.12,132.66l-1.5-1.42.07-.09,1.5,1.42-.07.09" transform="translate(-95.24 -4.65)"/><path d="M198.2,132.57l-1.5-1.42.07-.08,1.5,1.42-.07.08" transform="translate(-95.24 -4.65)"/><path d="M198.27,132.5l-1.5-1.42.07-.07,1.5,1.42-.07.07" transform="translate(-95.24 -4.65)"/><path d="M198.34,132.42l-1.5-1.42.08-.07,1.5,1.42-.08.07" transform="translate(-95.24 -4.65)"/><path d="M198.42,132.36l-1.5-1.42.09-.07,1.5,1.42-.09.07" transform="translate(-95.24 -4.65)"/><path d="M198.51,132.29l-1.5-1.42.1-.07,1.5,1.42-.1.07" transform="translate(-95.24 -4.65)"/><path d="M198.61,132.23l-1.5-1.42.14-.08,1.5,1.42-.14.08" transform="translate(-95.24 -4.65)"/><path d="M198.75,132.15l-1.5-1.42.19-.08,1.5,1.42-.19.08" transform="translate(-95.24 -4.65)"/></g></g></g><path d="M198.94,132.07a1,1,0,0,1,.89.05.81.81,0,0,1,.38.71l.14,4.72,6.41-2.18-.14-4.72a1.47,1.47,0,0,1,.34-1,1.83,1.83,0,0,1,.86-.64,1,1,0,0,1,.89,0,.79.79,0,0,1,.39.71l.35,11.77a1.55,1.55,0,0,1-.34,1,1.85,1.85,0,0,1-.87.64,1,1,0,0,1-.88,0,.79.79,0,0,1-.39-.71l-.14-4.72-6.41,2.18.14,4.73a1.51,1.51,0,0,1-.33.95,1.74,1.74,0,0,1-.83.63,1,1,0,0,1-.92,0,.77.77,0,0,1-.38-.7l-.35-11.78a1.47,1.47,0,0,1,.33-.95A1.82,1.82,0,0,1,198.94,132.07Z" transform="translate(-95.24 -4.65)"/></g><text x="-95.24" y="-4.65"></text><path class="cls-4" d="M175.09,44.17" transform="translate(-95.24 -4.65)"/><polygon class="cls-26" points="76.54 159.58 56.73 166.48 56.56 173.22 64.86 182.69 84.67 175.79 84.67 169.06 76.54 159.58"/><text class="cls-27" transform="translate(479.49 77.13) scale(1.01 1)">setPermission(address,bytes32,bool)<tspan x="0" y="21.75">getPermission(address,bytes32)</tspan></text><text class="cls-28" transform="translate(209.9 77.13) scale(1.01 1)">permission[]</text><polygon class="cls-29" points="76.54 159.58 56.73 166.48 56.56 173.22 64.86 182.69 84.67 175.79 84.67 169.06 76.54 159.58"/><polyline class="cls-30" points="453.48 90.92 209.14 90.35 208.56 129.44 85.24 170.79"/></svg>