<svg id="Layer_1" data-name="Layer 1" xmlns="http://www.w3.org/2000/svg" xmlns:xlink="http://www.w3.org/1999/xlink" viewBox="0 0 710.07 228.66"><defs><style>.cls-1,.cls-2,.cls-69{fill:none;}.cls-2,.cls-3,.cls-4,.cls-68{stroke-linejoin:round;}.cls-2,.cls-3,.cls-4,.cls-68,.cls-69{stroke-width:3px;}.cls-2{stroke:url(#linear-gradient);}.cls-3,.cls-4,.cls-68{fill:#fff;}.cls-3{stroke:url(#linear-gradient-2);}.cls-4{stroke:url(#linear-gradient-3);}.cls-5{isolation:isolate;}.cls-6{clip-path:url(#clip-path);}.cls-7{clip-path:url(#clip-path-2);}.cls-8{clip-path:url(#clip-path-3);}.cls-9{clip-path:url(#clip-path-4);}.cls-10{clip-path:url(#clip-path-5);}.cls-11{clip-path:url(#clip-path-6);}.cls-12{clip-path:url(#clip-path-7);}.cls-13{clip-path:url(#clip-path-8);}.cls-14{clip-path:url(#clip-path-9);}.cls-15{clip-path:url(#clip-path-10);}.cls-16{clip-path:url(#clip-path-11);}.cls-17{clip-path:url(#clip-path-12);}.cls-18{clip-path:url(#clip-path-13);}.cls-19{clip-path:url(#clip-path-14);}.cls-20{clip-path:url(#clip-path-15);}.cls-21{clip-path:url(#clip-path-16);}.cls-22{clip-path:url(#clip-path-17);}.cls-23{clip-path:url(#clip-path-18);}.cls-24{clip-path:url(#clip-path-19);}.cls-25{clip-path:url(#clip-path-20);}.cls-26{clip-path:url(#clip-path-21);}.cls-27{clip-path:url(#clip-path-22);}.cls-28{clip-path:url(#clip-path-23);}.cls-29{clip-path:url(#clip-path-24);}.cls-30{clip-path:url(#clip-path-25);}.cls-31{clip-path:url(#clip-path-26);}.cls-32{clip-path:url(#clip-path-27);}.cls-33{clip-path:url(#clip-path-28);}.cls-34{clip-path:url(#clip-path-29);}.cls-35{clip-path:url(#clip-path-30);}.cls-36{clip-path:url(#clip-path-31);}.cls-37{clip-path:url(#clip-path-32);}.cls-38{clip-path:url(#clip-path-33);}.cls-39{clip-path:url(#clip-path-34);}.cls-40{clip-path:url(#clip-path-35);}.cls-41{clip-path:url(#clip-path-36);}.cls-42{clip-path:url(#clip-path-37);}.cls-43{clip-path:url(#clip-path-38);}.cls-44{clip-path:url(#clip-path-39);}.cls-45{clip-path:url(#clip-path-40);}.cls-46{clip-path:url(#clip-path-41);}.cls-47{clip-path:url(#clip-path-42);}.cls-48{clip-path:url(#clip-path-43);}.cls-49{clip-path:url(#clip-path-44);}.cls-50{clip-path:url(#clip-path-45);}.cls-51{clip-path:url(#clip-path-46);}.cls-52{clip-path:url(#clip-path-47);}.cls-53{clip-path:url(#clip-path-48);}.cls-54{clip-path:url(#clip-path-49);}.cls-55{clip-path:url(#clip-path-50);}.cls-56{clip-path:url(#clip-path-51);}.cls-57{clip-path:url(#clip-path-52);}.cls-58{clip-path:url(#clip-path-53);}.cls-59{clip-path:url(#clip-path-54);}.cls-60{clip-path:url(#clip-path-55);}.cls-61{clip-path:url(#clip-path-56);}.cls-62{clip-path:url(#clip-path-57);}.cls-63{clip-path:url(#clip-path-58);}.cls-64{clip-path:url(#clip-path-59);}.cls-65{clip-path:url(#clip-path-60);}.cls-66{clip-path:url(#clip-path-61);}.cls-67{clip-path:url(#clip-path-62);}.cls-68{stroke:gray;}.cls-69{stroke:#3d3d3d;opacity:0.2;}.cls-69,.cls-70{stroke-miterlimit:10;}.cls-70{font-size:40.79px;stroke:#000;opacity:0.15;}.cls-70,.cls-71{font-family:InconsolataForPowerline, Inconsolata for Powerline;}.cls-71{font-size:18.13px;fill:#3d3d3d;}</style><linearGradient id="linear-gradient" x1="140.5" y1="103.58" x2="437.12" y2="103.58" gradientTransform="matrix(1, 0, 0, -1, -140.5, 239)" gradientUnits="userSpaceOnUse"><stop offset="0" stop-color="#00d5a7"/><stop offset="1" stop-color="#4847db"/></linearGradient><linearGradient id="linear-gradient-2" x1="140.5" y1="152.35" x2="437.12" y2="152.35" xlink:href="#linear-gradient"/><linearGradient id="linear-gradient-3" x1="0" y1="147.32" x2="296.62" y2="147.32" gradientTransform="matrix(1, 0, 0, 1, 0, 0)" xlink:href="#linear-gradient"/><clipPath id="clip-path" transform="translate(-140.5 -13)"><path class="cls-1" d="M239.19,208.94l-1.5-1.42a3.23,3.23,0,0,0,.59.44,4.12,4.12,0,0,0,3.55.19l.07,0a7.23,7.23,0,0,0,3.24-2.34,1.76,1.76,0,0,1,.81-.59l.07,0a1,1,0,0,1,.86.09l.1.08,1.5,1.42-.1-.08a1,1,0,0,0-.86-.09l-.07,0a1.76,1.76,0,0,0-.81.59,7.23,7.23,0,0,1-3.24,2.34l-.07,0a4.12,4.12,0,0,1-3.55-.19A3.23,3.23,0,0,1,239.19,208.94Z"/></clipPath><clipPath id="clip-path-2" transform="translate(-140.5 -13)"><path class="cls-1" d="M246.32,196.48l1.5,1.42a.83.83,0,0,0-.25-.16l-1.5-1.42A.83.83,0,0,1,246.32,196.48Z"/></clipPath><clipPath id="clip-path-3" transform="translate(-140.5 -13)"><path class="cls-1" d="M242.89,197.86l-1.5-1.42.1,0a6.67,6.67,0,0,1,4.58-.09l1.5,1.42a6.67,6.67,0,0,0-4.58.09Z"/></clipPath><clipPath id="clip-path-4" transform="translate(-140.5 -13)"><path class="cls-1" d="M237.21,211l-1.5-1.42a4.88,4.88,0,0,1-1.45-3.58,9,9,0,0,1,2-5.72,10.83,10.83,0,0,1,5.1-3.82l1.5,1.42a10.83,10.83,0,0,0-5.1,3.82,9,9,0,0,0-2,5.72A4.88,4.88,0,0,0,237.21,211Z"/></clipPath><clipPath id="clip-path-5" transform="translate(-140.5 -13)"><path class="cls-1" d="M258.74,204.33l-1.5-1.42h0a7.34,7.34,0,0,0,3.47-2.6l1.5,1.42a7.34,7.34,0,0,1-3.47,2.6Z"/></clipPath><clipPath id="clip-path-6" transform="translate(-140.5 -13)"><path class="cls-1" d="M261.15,194l1.5,1.42a3.31,3.31,0,0,1,1,2.42,6.06,6.06,0,0,1-1.37,3.86l-1.5-1.42a6.06,6.06,0,0,0,1.37-3.86A3.31,3.31,0,0,0,261.15,194Z"/></clipPath><clipPath id="clip-path-7" transform="translate(-140.5 -13)"><path class="cls-1" d="M254.56,203.67l-1.5-1.42a3.26,3.26,0,0,0,.61.45,4.11,4.11,0,0,0,3.57.2l1.5,1.42a4.11,4.11,0,0,1-3.57-.2A3.26,3.26,0,0,1,254.56,203.67Z"/></clipPath><clipPath id="clip-path-8" transform="translate(-140.5 -13)"><path class="cls-1" d="M263.12,192l1.5,1.42a4.92,4.92,0,0,0-.87-.65l-1.5-1.42A4.92,4.92,0,0,1,263.12,192Z"/></clipPath><clipPath id="clip-path-9" transform="translate(-140.5 -13)"><path class="cls-1" d="M252.59,205.7l-1.5-1.42a4.92,4.92,0,0,1-1.45-3.58,9,9,0,0,1,2-5.75,10.88,10.88,0,0,1,5.15-3.85l.07,0a6.23,6.23,0,0,1,5.34.27l1.5,1.42a6.23,6.23,0,0,0-5.34-.27l-.07,0a10.88,10.88,0,0,0-5.15,3.85,9,9,0,0,0-2,5.75A4.92,4.92,0,0,0,252.59,205.7Z"/></clipPath><clipPath id="clip-path-10" transform="translate(-140.5 -13)"><path class="cls-1" d="M282.52,198.07l-1.5-1.42a.8.8,0,0,1-.23-.59l1.5,1.42A.8.8,0,0,0,282.52,198.07Z"/></clipPath><clipPath id="clip-path-11" transform="translate(-140.5 -13)"><path class="cls-1" d="M270.17,202.26l-1.5-1.42a.77.77,0,0,1-.22-.58l1.5,1.42A.77.77,0,0,0,270.17,202.26Z"/></clipPath><clipPath id="clip-path-12" transform="translate(-140.5 -13)"><path class="cls-1" d="M283.47,184l-1.5-1.42a.88.88,0,0,1,.66.2l1.5,1.42A.88.88,0,0,0,283.47,184Z"/></clipPath><clipPath id="clip-path-13" transform="translate(-140.5 -13)"><path class="cls-1" d="M282.65,182.78l1.5,1.42,0,0-1.5-1.42Z"/></clipPath><clipPath id="clip-path-14" transform="translate(-140.5 -13)"><path class="cls-1" d="M283.06,184l-1.5-1.42.41,0,1.5,1.42Z"/></clipPath><clipPath id="clip-path-15" transform="translate(-140.5 -13)"><path class="cls-1" d="M282.68,184.28l-1.5-1.42.38-.27,1.5,1.42Z"/></clipPath><clipPath id="clip-path-16" transform="translate(-140.5 -13)"><path class="cls-1" d="M282.1,185l-1.5-1.42a1.85,1.85,0,0,1,.58-.69l1.5,1.42A1.85,1.85,0,0,0,282.1,185Z"/></clipPath><clipPath id="clip-path-17" transform="translate(-140.5 -13)"><path class="cls-1" d="M270.31,187l1.5,1.42a.86.86,0,0,0-.56-.22l-1.5-1.42A.86.86,0,0,1,270.31,187Z"/></clipPath><clipPath id="clip-path-18" transform="translate(-140.5 -13)"><path class="cls-1" d="M270.78,188.26l-1.5-1.42a1.37,1.37,0,0,1,.47-.08l1.5,1.42A1.37,1.37,0,0,0,270.78,188.26Z"/></clipPath><clipPath id="clip-path-19" transform="translate(-140.5 -13)"><path class="cls-1" d="M270.46,188.41,269,187a1.85,1.85,0,0,1,.32-.15l1.5,1.42A1.85,1.85,0,0,0,270.46,188.41Z"/></clipPath><clipPath id="clip-path-20" transform="translate(-140.5 -13)"><path class="cls-1" d="M269.59,189.84l-1.5-1.42a1.36,1.36,0,0,1,.23-.78l1.5,1.42A1.36,1.36,0,0,0,269.59,189.84Z"/></clipPath><clipPath id="clip-path-21" transform="translate(-140.5 -13)"><path class="cls-1" d="M269.82,189.05l-1.5-1.42A1.88,1.88,0,0,1,269,187l1.5,1.42A1.88,1.88,0,0,0,269.82,189.05Z"/></clipPath><clipPath id="clip-path-22" transform="translate(-140.5 -13)"><path class="cls-1" d="M295.06,191.95l-1.5-1.42h0a3.41,3.41,0,0,0,1.51-1l1.5,1.42a3.41,3.41,0,0,1-1.51,1Z"/></clipPath><clipPath id="clip-path-23" transform="translate(-140.5 -13)"><path class="cls-1" d="M295.4,187.19l1.5,1.42a1.08,1.08,0,0,1,.32.79,2.24,2.24,0,0,1-.61,1.49l-1.5-1.42a2.24,2.24,0,0,0,.61-1.49A1.08,1.08,0,0,0,295.4,187.19Z"/></clipPath><clipPath id="clip-path-24" transform="translate(-140.5 -13)"><path class="cls-1" d="M297.38,185.16l1.5,1.42A2.86,2.86,0,0,0,298,186l-1.5-1.42A2.86,2.86,0,0,1,297.38,185.16Z"/></clipPath><clipPath id="clip-path-25" transform="translate(-140.5 -13)"><path class="cls-1" d="M289.5,195.69l-1.5-1.42a.78.78,0,0,1-.24-.59l1.5,1.42A.78.78,0,0,0,289.5,195.69Z"/></clipPath><clipPath id="clip-path-26" transform="translate(-140.5 -13)"><path class="cls-1" d="M294.65,186.15l-1.5-1.42h0a3.43,3.43,0,0,0,1.49-1l1.5,1.42a3.43,3.43,0,0,1-1.49,1Z"/></clipPath><clipPath id="clip-path-27" transform="translate(-140.5 -13)"><path class="cls-1" d="M295,181.35l1.5,1.42a1.09,1.09,0,0,1,.33.8,2.28,2.28,0,0,1-.6,1.53l-1.5-1.42a2.28,2.28,0,0,0,.6-1.53A1.09,1.09,0,0,0,295,181.35Z"/></clipPath><clipPath id="clip-path-28" transform="translate(-140.5 -13)"><path class="cls-1" d="M296.93,179.31l1.5,1.42a2.8,2.8,0,0,0-.62-.44,4.19,4.19,0,0,0-3.34-.05l-1.5-1.42a4.19,4.19,0,0,1,3.34.05A2.8,2.8,0,0,1,296.93,179.31Z"/></clipPath><clipPath id="clip-path-29" transform="translate(-140.5 -13)"><path class="cls-1" d="M288.92,183.33l-1.5-1.42a1.49,1.49,0,0,1,.33-.94l1.5,1.42A1.49,1.49,0,0,0,288.92,183.33Z"/></clipPath><clipPath id="clip-path-30" transform="translate(-140.5 -13)"><path class="cls-1" d="M289.24,182.39l-1.5-1.42a1.84,1.84,0,0,1,.85-.64l1.5,1.42A1.84,1.84,0,0,0,289.24,182.39Z"/></clipPath><clipPath id="clip-path-31" transform="translate(-140.5 -13)"><path class="cls-1" d="M304,190.75l-1.5-1.42a.79.79,0,0,1-.24-.59l1.5,1.42A.79.79,0,0,0,304,190.75Z"/></clipPath><clipPath id="clip-path-32" transform="translate(-140.5 -13)"><path class="cls-1" d="M304.14,175.57l1.5,1.42-.16-.11-1.5-1.42Z"/></clipPath><clipPath id="clip-path-33" transform="translate(-140.5 -13)"><path class="cls-1" d="M304.57,176.84l-1.5-1.42a1,1,0,0,1,.9,0l1.5,1.42A1,1,0,0,0,304.57,176.84Z"/></clipPath><clipPath id="clip-path-34" transform="translate(-140.5 -13)"><path class="cls-1" d="M303.41,178.41l-1.5-1.42a1.42,1.42,0,0,1,.34-.94l1.5,1.42A1.42,1.42,0,0,0,303.41,178.41Z"/></clipPath><clipPath id="clip-path-35" transform="translate(-140.5 -13)"><path class="cls-1" d="M303.75,177.46l-1.5-1.42a1.68,1.68,0,0,1,.82-.63l1.5,1.42A1.68,1.68,0,0,0,303.75,177.46Z"/></clipPath><clipPath id="clip-path-36" transform="translate(-140.5 -13)"><path class="cls-1" d="M310.94,188.37l-1.5-1.42a.81.81,0,0,1-.24-.58l1.5,1.42A.81.81,0,0,0,310.94,188.37Z"/></clipPath><clipPath id="clip-path-37" transform="translate(-140.5 -13)"><path class="cls-1" d="M320.77,169.85l1.5,1.42-.15-.11-1.5-1.42Z"/></clipPath><clipPath id="clip-path-38" transform="translate(-140.5 -13)"><path class="cls-1" d="M320,172.69l-1.5-1.42a1.49,1.49,0,0,1,.33-.94,1.83,1.83,0,0,1,.86-.64,1,1,0,0,1,.88,0l1.5,1.42a1,1,0,0,0-.88,0,1.83,1.83,0,0,0-.86.64A1.49,1.49,0,0,0,320,172.69Z"/></clipPath><clipPath id="clip-path-39" transform="translate(-140.5 -13)"><path class="cls-1" d="M311.56,174.4l-1.5-1.42a1.31,1.31,0,0,1,.36-.07.86.86,0,0,1,.62.2l1.5,1.42a.86.86,0,0,0-.62-.2A1.31,1.31,0,0,0,311.56,174.4Z"/></clipPath><clipPath id="clip-path-40" transform="translate(-140.5 -13)"><path class="cls-1" d="M310.36,176l-1.5-1.42a1.42,1.42,0,0,1,.22-.75l1.5,1.42A1.42,1.42,0,0,0,310.36,176Z"/></clipPath><clipPath id="clip-path-41" transform="translate(-140.5 -13)"><path class="cls-1" d="M311.16,174.61l-1.5-1.42a1.69,1.69,0,0,1,.4-.21l1.5,1.42A1.69,1.69,0,0,0,311.16,174.61Z"/></clipPath><clipPath id="clip-path-42" transform="translate(-140.5 -13)"><path class="cls-1" d="M310.57,175.24l-1.5-1.42a1.77,1.77,0,0,1,.58-.63l1.5,1.42A1.77,1.77,0,0,0,310.57,175.24Z"/></clipPath><clipPath id="clip-path-43" transform="translate(-140.5 -13)"><path class="cls-1" d="M335.59,176.71l1.5,1.42-.14-.11a1,1,0,0,0-.88,0l-1.5-1.42a1,1,0,0,1,.88,0Z"/></clipPath><clipPath id="clip-path-44" transform="translate(-140.5 -13)"><path class="cls-1" d="M327.58,182.7l-1.5-1.42a.81.81,0,0,1-.24-.58l1.5,1.42A.81.81,0,0,0,327.58,182.7Z"/></clipPath><clipPath id="clip-path-45" transform="translate(-140.5 -13)"><path class="cls-1" d="M333.68,171.39l1.5,1.42-.15-.11a1.07,1.07,0,0,0-.89,0l-1.5-1.42a1.07,1.07,0,0,1,.89,0Z"/></clipPath><clipPath id="clip-path-46" transform="translate(-140.5 -13)"><path class="cls-1" d="M335.25,164.9l1.5,1.42-.13-.1a1,1,0,0,0-.89,0l-1.5-1.42a1,1,0,0,1,.89,0Z"/></clipPath><clipPath id="clip-path-47" transform="translate(-140.5 -13)"><path class="cls-1" d="M327,170.31l-1.5-1.42a1.49,1.49,0,0,1,.34-1l1.5,1.42A1.49,1.49,0,0,0,327,170.31Z"/></clipPath><clipPath id="clip-path-48" transform="translate(-140.5 -13)"><path class="cls-1" d="M327.34,169.36l-1.5-1.42a1.7,1.7,0,0,1,.82-.63l1.5,1.42A1.7,1.7,0,0,0,327.34,169.36Z"/></clipPath><clipPath id="clip-path-49" transform="translate(-140.5 -13)"><path class="cls-1" d="M348,175.81l-1.5-1.42a.91.91,0,0,1-.14-.17l1.5,1.42A.91.91,0,0,0,348,175.81Z"/></clipPath><clipPath id="clip-path-50" transform="translate(-140.5 -13)"><path class="cls-1" d="M340.79,178.13l-1.5-1.42a.79.79,0,0,1-.24-.59l1.5,1.42A.79.79,0,0,0,340.79,178.13Z"/></clipPath><clipPath id="clip-path-51" transform="translate(-140.5 -13)"><path class="cls-1" d="M346,168.62l-1.5-1.42a3.55,3.55,0,0,0,1.48-1.06l1.5,1.42A3.55,3.55,0,0,1,346,168.62Z"/></clipPath><clipPath id="clip-path-52" transform="translate(-140.5 -13)"><path class="cls-1" d="M346.18,163.87l1.5,1.42a1.12,1.12,0,0,1,.33.83,2.19,2.19,0,0,1-.58,1.45l-1.5-1.42a2.19,2.19,0,0,0,.58-1.45A1.12,1.12,0,0,0,346.18,163.87Z"/></clipPath><clipPath id="clip-path-53" transform="translate(-140.5 -13)"><path class="cls-1" d="M348.14,161.86l1.5,1.42a2.91,2.91,0,0,0-.63-.45,4.08,4.08,0,0,0-3.31-.09l-1.5-1.42a4.08,4.08,0,0,1,3.31.09A2.91,2.91,0,0,1,348.14,161.86Z"/></clipPath><clipPath id="clip-path-54" transform="translate(-140.5 -13)"><path class="cls-1" d="M340.2,165.79l-1.5-1.42a1.44,1.44,0,0,1,.33-.93,1.81,1.81,0,0,1,.85-.65l1.5,1.42a1.81,1.81,0,0,0-.85.65A1.44,1.44,0,0,0,340.2,165.79Z"/></clipPath><clipPath id="clip-path-55" transform="translate(-140.5 -13)"><path class="cls-1" d="M356.17,170.21l-1.5-1.42a1.36,1.36,0,0,0,.81.32,4.05,4.05,0,0,0,1.71-.26,3.68,3.68,0,0,0,1.66-1.15,2.67,2.67,0,0,0,.71-1.68.87.87,0,0,0-.26-.67l1.5,1.42a.87.87,0,0,1,.26.67,2.67,2.67,0,0,1-.71,1.68,3.68,3.68,0,0,1-1.66,1.15,4.05,4.05,0,0,1-1.71.26A1.36,1.36,0,0,1,356.17,170.21Z"/></clipPath><clipPath id="clip-path-56" transform="translate(-140.5 -13)"><path class="cls-1" d="M354.22,172.25l-1.5-1.42a2.47,2.47,0,0,1-.64-1,1.21,1.21,0,0,1,.1-.92l1.5,1.42a1.21,1.21,0,0,0-.1.92A2.47,2.47,0,0,0,354.22,172.25Z"/></clipPath><clipPath id="clip-path-57" transform="translate(-140.5 -13)"><path class="cls-1" d="M354.23,168.1l1.5,1.42a.77.77,0,0,0-.39-.19,1.12,1.12,0,0,0-.61,0,1.81,1.81,0,0,0-.31.15,1.87,1.87,0,0,0-.74.79l-1.5-1.42a1.87,1.87,0,0,1,.74-.79,1.81,1.81,0,0,1,.31-.15,1.12,1.12,0,0,1,.61,0A.77.77,0,0,1,354.23,168.1Z"/></clipPath><clipPath id="clip-path-58" transform="translate(-140.5 -13)"><path class="cls-1" d="M361.27,163.35l1.5,1.42a2.59,2.59,0,0,0-.38-.3q-1.4-.9-3.95-.07l-1.5-1.42q2.55-.84,3.95.07A2.59,2.59,0,0,1,361.27,163.35Z"/></clipPath><clipPath id="clip-path-59" transform="translate(-140.5 -13)"><path class="cls-1" d="M361.12,161.63l-1.5-1.42a.76.76,0,0,1-.2-.33.88.88,0,0,0-.23-.36l1.5,1.42a.88.88,0,0,1,.23.36A.76.76,0,0,0,361.12,161.63Z"/></clipPath><clipPath id="clip-path-60" transform="translate(-140.5 -13)"><path class="cls-1" d="M356.06,164.38l-1.5-1.42.14.11a2.68,2.68,0,0,0,2.19-.08l1.5,1.42a2.68,2.68,0,0,1-2.19.08Z"/></clipPath><clipPath id="clip-path-61" transform="translate(-140.5 -13)"><path class="cls-1" d="M361.14,157.48l1.5,1.42a2.78,2.78,0,0,0-1.49-.69,6.4,6.4,0,0,0-3.1.36l-1.5-1.42a6.4,6.4,0,0,1,3.1-.36A2.78,2.78,0,0,1,361.14,157.48Z"/></clipPath><clipPath id="clip-path-62" transform="translate(-140.5 -13)"><path class="cls-1" d="M354.09,166.39l-1.5-1.42a2.48,2.48,0,0,1-.73-2,5.66,5.66,0,0,1,1.39-3.5,7.24,7.24,0,0,1,3.3-2.36l1.5,1.42a7.24,7.24,0,0,0-3.3,2.36,5.66,5.66,0,0,0-1.39,3.5A2.48,2.48,0,0,0,354.09,166.39Z"/></clipPath></defs><title>combiners</title><polygon class="cls-2" points="1.5 121.76 210 50.27 295.12 148.58 87.04 220.58 1.5 121.76"/><polygon class="cls-3" points="295.12 100.32 86.61 171.81 1.5 73.5 209.58 1.5 295.12 100.32"/><polygon class="cls-4" points="1.5 73.78 86.61 172.09 295.12 100.6 295.12 148.86 87.04 220.86 1.5 122.04 1.5 73.78"/><g class="cls-5"><g class="cls-5"><g class="cls-6"><g class="cls-5"><path d="M239.19,208.94l-1.5-1.42.1.09,1.5,1.42-.1-.09" transform="translate(-140.5 -13)"/><path d="M239.29,209l-1.5-1.42.24.19,1.5,1.42-.24-.19" transform="translate(-140.5 -13)"/><path d="M239.53,209.22l-1.5-1.42.25.16,0,0,1.5,1.42,0,0-.25-.16" transform="translate(-140.5 -13)"/><path d="M239.82,209.41l-1.5-1.42.33.17,1.5,1.42-.33-.17" transform="translate(-140.5 -13)"/><path d="M240.15,209.58l-1.5-1.42.34.13,1.5,1.42-.34-.13" transform="translate(-140.5 -13)"/><path d="M240.49,209.7l-1.5-1.42.39.1,1.5,1.42-.39-.1" transform="translate(-140.5 -13)"/><path d="M240.88,209.81l-1.5-1.42a3.72,3.72,0,0,0,.49.06l1.5,1.42a3.72,3.72,0,0,1-.49-.06" transform="translate(-140.5 -13)"/><path d="M241.37,209.87l-1.5-1.42a4.47,4.47,0,0,0,1.06-.06l1.5,1.42a4.47,4.47,0,0,1-1.06.06" transform="translate(-140.5 -13)"/><path d="M242.43,209.8l-1.5-1.42.48-.11,1.5,1.42-.48.11" transform="translate(-140.5 -13)"/><path d="M242.9,209.7l-1.5-1.42.42-.13.07,0a6.84,6.84,0,0,0,.74-.31l1.5,1.42a6.84,6.84,0,0,1-.74.31l-.07,0-.42.13" transform="translate(-140.5 -13)"/><path d="M244.14,209.24l-1.5-1.42q.28-.14.55-.3l1.5,1.42q-.27.16-.55.3" transform="translate(-140.5 -13)"/><path d="M244.68,208.94l-1.5-1.42.41-.27,1.5,1.42-.41.27" transform="translate(-140.5 -13)"/><path d="M245.1,208.67l-1.5-1.42L244,207l1.5,1.42-.35.27" transform="translate(-140.5 -13)"/><path d="M245.45,208.4,244,207l.32-.27,1.5,1.42-.32.27" transform="translate(-140.5 -13)"/><path d="M245.77,208.13l-1.5-1.42.3-.29,1.5,1.42-.3.29" transform="translate(-140.5 -13)"/><path d="M246.07,207.85l-1.5-1.42.29-.31,1.5,1.42-.29.31" transform="translate(-140.5 -13)"/><path d="M246.36,207.54l-1.5-1.42.24-.28,1.5,1.42-.24.28" transform="translate(-140.5 -13)"/><path d="M246.61,207.25l-1.5-1.42,0,0v0l1.5,1.42v0l0,0" transform="translate(-140.5 -13)"/><path d="M246.65,207.2l-1.5-1.42.07-.08,1.5,1.42-.07.08" transform="translate(-140.5 -13)"/><path d="M246.72,207.11l-1.5-1.42.07-.07,1.5,1.42-.07.07" transform="translate(-140.5 -13)"/><path d="M246.79,207l-1.5-1.42.07-.07,1.5,1.42-.07.07" transform="translate(-140.5 -13)"/><path d="M246.87,207l-1.5-1.42.08-.07,1.5,1.42-.08.07" transform="translate(-140.5 -13)"/><path d="M246.94,206.91l-1.5-1.42.09-.06,1.5,1.42-.09.06" transform="translate(-140.5 -13)"/><path d="M247,206.84l-1.5-1.42.1-.07,1.5,1.42-.1.07" transform="translate(-140.5 -13)"/><path d="M247.13,206.78l-1.5-1.42.14-.07,1.5,1.42-.14.07" transform="translate(-140.5 -13)"/><path d="M247.26,206.7l-1.5-1.42.19-.08.07,0,.06,0,1.5,1.42-.06,0-.07,0-.19.08" transform="translate(-140.5 -13)"/><path d="M247.58,206.59l-1.5-1.42.12,0,1.5,1.42-.12,0" transform="translate(-140.5 -13)"/><path d="M247.69,206.56l-1.5-1.42a1.1,1.1,0,0,1,.26,0l1.5,1.42a1.1,1.1,0,0,0-.26,0" transform="translate(-140.5 -13)"/><path d="M248,206.54l-1.5-1.42.12,0,1.5,1.42-.12,0" transform="translate(-140.5 -13)"/><path d="M248.07,206.56l-1.5-1.42.09,0,1.5,1.42-.09,0" transform="translate(-140.5 -13)"/><path d="M248.16,206.58l-1.5-1.42.08,0,1.5,1.42-.08,0" transform="translate(-140.5 -13)"/><path d="M248.24,206.61l-1.5-1.42.07,0,1.5,1.42-.07,0" transform="translate(-140.5 -13)"/><path d="M248.31,206.65l-1.5-1.42.07,0h0l1.5,1.42h0l-.07,0" transform="translate(-140.5 -13)"/><path d="M248.4,206.7l-1.5-1.42.06,0,1.5,1.42-.06,0" transform="translate(-140.5 -13)"/><path d="M248.46,206.75l-1.5-1.42,0,0,1.5,1.42,0,0" transform="translate(-140.5 -13)"/></g></g></g><g class="cls-5"><g class="cls-7"><g class="cls-5"><path d="M247.56,197.73l-1.5-1.42h0l1.5,1.42h0" transform="translate(-140.5 -13)"/><path d="M247.58,197.74l-1.5-1.42.08,0,1.5,1.42-.08,0" transform="translate(-140.5 -13)"/><path d="M247.66,197.78l-1.5-1.42.07,0,1.5,1.42-.07,0" transform="translate(-140.5 -13)"/><path d="M247.73,197.82l-1.5-1.42.06,0,1.5,1.42-.06,0" transform="translate(-140.5 -13)"/><path d="M247.79,197.87l-1.5-1.42,0,0,1.5,1.42,0,0" transform="translate(-140.5 -13)"/></g></g></g><g class="cls-5"><g class="cls-8"><g class="cls-5"><path d="M242.89,197.86l-1.5-1.42.1,0,.64-.19,1.5,1.42-.64.19-.1,0" transform="translate(-140.5 -13)"/><path d="M243.62,197.63l-1.5-1.42q.35-.09.7-.15l1.5,1.42q-.34.06-.7.15" transform="translate(-140.5 -13)"/><path d="M244.32,197.48l-1.5-1.42a6.76,6.76,0,0,1,1.59-.09l1.5,1.42a6.76,6.76,0,0,0-1.59.09" transform="translate(-140.5 -13)"/><path d="M245.91,197.38l-1.5-1.42a5.88,5.88,0,0,1,.78.1l1.5,1.42a5.88,5.88,0,0,0-.78-.1" transform="translate(-140.5 -13)"/><path d="M246.69,197.48l-1.5-1.42a5.71,5.71,0,0,1,.63.16l1.5,1.42a5.71,5.71,0,0,0-.63-.16" transform="translate(-140.5 -13)"/><path d="M247.32,197.65l-1.5-1.42.24.08,1.5,1.42-.24-.08" transform="translate(-140.5 -13)"/></g></g></g><path d="M242.89,197.86l.1,0a6.67,6.67,0,0,1,4.58-.09.8.8,0,0,1,.49.61,1.35,1.35,0,0,1-.22.95,1.79,1.79,0,0,1-.8.73l-.16.06a1.1,1.1,0,0,1-.76,0,4.42,4.42,0,0,0-3.06.06,7.29,7.29,0,0,0-3.47,2.58,6,6,0,0,0-1.36,3.82,3.15,3.15,0,0,0,1.56,2.82,4.12,4.12,0,0,0,3.55.19l.07,0a7.23,7.23,0,0,0,3.24-2.34,1.76,1.76,0,0,1,.81-.59l.07,0a1,1,0,0,1,.86.09.82.82,0,0,1,.34.73,1.49,1.49,0,0,1-.37.94,10.79,10.79,0,0,1-4.85,3.5l-.1,0a6.16,6.16,0,0,1-5.31-.26,4.72,4.72,0,0,1-2.32-4.24,9,9,0,0,1,2-5.72A10.83,10.83,0,0,1,242.89,197.86Z" transform="translate(-140.5 -13)"/><g class="cls-5"><g class="cls-9"><g class="cls-5"><path d="M237.21,211l-1.5-1.42a4.88,4.88,0,0,1-1.45-3.58,7.83,7.83,0,0,1,.46-2.87l1.5,1.42a7.83,7.83,0,0,0-.46,2.87,4.88,4.88,0,0,0,1.45,3.58" transform="translate(-140.5 -13)"/><path d="M236.22,204.53l-1.5-1.42q.14-.4.33-.8l1.5,1.42q-.19.4-.33.8" transform="translate(-140.5 -13)"/><path d="M236.55,203.72l-1.5-1.42q.15-.33.34-.66l1.5,1.42q-.18.33-.34.66" transform="translate(-140.5 -13)"/><path d="M236.88,203.06l-1.5-1.42q.17-.3.36-.6l1.5,1.42q-.19.3-.36.6" transform="translate(-140.5 -13)"/><path d="M237.24,202.46l-1.5-1.42q.18-.29.39-.57l1.5,1.42q-.21.29-.39.57" transform="translate(-140.5 -13)"/><path d="M237.63,201.89l-1.5-1.42.15-.21.26-.34,1.5,1.42-.26.34-.15.21" transform="translate(-140.5 -13)"/><path d="M238.05,201.34l-1.5-1.42.44-.51,1.5,1.42-.44.51" transform="translate(-140.5 -13)"/><path d="M238.49,200.83l-1.5-1.42.43-.46,1.5,1.42-.43.46" transform="translate(-140.5 -13)"/><path d="M238.92,200.38l-1.5-1.42.44-.42,1.5,1.42-.44.42" transform="translate(-140.5 -13)"/><path d="M239.36,200l-1.5-1.42.47-.4,1.5,1.42-.47.4" transform="translate(-140.5 -13)"/><path d="M239.83,199.56l-1.5-1.42.52-.39,1.5,1.42-.52.39" transform="translate(-140.5 -13)"/><path d="M240.35,199.16l-1.5-1.42q.3-.21.61-.4l1.5,1.42q-.31.19-.61.4" transform="translate(-140.5 -13)"/><path d="M241,198.76l-1.5-1.42q.4-.24.82-.44l1.5,1.42q-.42.2-.82.44" transform="translate(-140.5 -13)"/><path d="M241.78,198.32l-1.5-1.42a10.26,10.26,0,0,1,1.1-.46l1.5,1.42a10.26,10.26,0,0,0-1.1.46" transform="translate(-140.5 -13)"/></g></g></g></g><g class="cls-5"><g class="cls-5"><g class="cls-10"><g class="cls-5"><path d="M258.74,204.33l-1.5-1.42h0a7.12,7.12,0,0,0,.77-.32l1.5,1.42a7.12,7.12,0,0,1-.77.32h0" transform="translate(-140.5 -13)"/><path d="M259.54,204l-1.5-1.42q.29-.14.56-.3l1.5,1.42q-.27.17-.56.3" transform="translate(-140.5 -13)"/><path d="M260.1,203.69l-1.5-1.42L259,202l1.5,1.42-.42.27" transform="translate(-140.5 -13)"/><path d="M260.52,203.42,259,202l.35-.27,1.5,1.42-.35.27" transform="translate(-140.5 -13)"/><path d="M260.87,203.15l-1.5-1.42.32-.27,1.5,1.42-.32.27" transform="translate(-140.5 -13)"/><path d="M261.19,202.88l-1.5-1.42.3-.28,1.5,1.42-.3.28" transform="translate(-140.5 -13)"/><path d="M261.49,202.6l-1.5-1.42.29-.31,1.5,1.42-.29.31" transform="translate(-140.5 -13)"/><path d="M261.78,202.3l-1.5-1.42.29-.34,1.5,1.42-.29.34" transform="translate(-140.5 -13)"/><path d="M262.07,202l-1.5-1.42.19-.24,1.5,1.42-.19.24" transform="translate(-140.5 -13)"/></g></g></g><g class="cls-5"><g class="cls-11"><g class="cls-5"><path d="M262.25,201.72l-1.5-1.42.11-.14,1.5,1.42-.11.14" transform="translate(-140.5 -13)"/><path d="M262.36,201.58l-1.5-1.42.27-.39,1.5,1.42-.27.39" transform="translate(-140.5 -13)"/><path d="M262.63,201.18l-1.5-1.42.24-.4,1.5,1.42-.24.4" transform="translate(-140.5 -13)"/><path d="M262.87,200.78l-1.5-1.42q.12-.22.23-.44l1.5,1.42q-.1.22-.23.44" transform="translate(-140.5 -13)"/><path d="M263.09,200.34l-1.5-1.42q.13-.27.22-.54l1.5,1.42q-.1.27-.22.54" transform="translate(-140.5 -13)"/><path d="M263.31,199.8l-1.5-1.42a5.33,5.33,0,0,0,.31-1.93,3.31,3.31,0,0,0-1-2.42l1.5,1.42a3.31,3.31,0,0,1,1,2.42,5.33,5.33,0,0,1-.31,1.93" transform="translate(-140.5 -13)"/></g></g></g><g class="cls-5"><g class="cls-12"><g class="cls-5"><path d="M254.56,203.67l-1.5-1.42.1.09,1.5,1.42-.1-.09" transform="translate(-140.5 -13)"/><path d="M254.66,203.76l-1.5-1.42.24.19,1.5,1.42-.24-.19" transform="translate(-140.5 -13)"/><path d="M254.9,204l-1.5-1.42.27.17,0,0,1.5,1.42,0,0-.27-.17" transform="translate(-140.5 -13)"/><path d="M255.2,204.15l-1.5-1.42.36.19,1.5,1.42-.36-.19" transform="translate(-140.5 -13)"/><path d="M255.57,204.33l-1.5-1.42.34.13,1.5,1.42-.34-.13" transform="translate(-140.5 -13)"/><path d="M255.91,204.46l-1.5-1.42.39.1,1.5,1.42-.39-.1" transform="translate(-140.5 -13)"/><path d="M256.3,204.56l-1.5-1.42a3.71,3.71,0,0,0,.49.06l1.5,1.42a3.71,3.71,0,0,1-.49-.06" transform="translate(-140.5 -13)"/><path d="M256.79,204.63l-1.5-1.42a4.45,4.45,0,0,0,1.05-.06l1.5,1.42a4.45,4.45,0,0,1-1.05.06" transform="translate(-140.5 -13)"/><path d="M257.84,204.56l-1.5-1.42.48-.11,1.5,1.42-.48.11" transform="translate(-140.5 -13)"/><path d="M258.32,204.46l-1.5-1.42.43-.13,1.5,1.42-.43.13" transform="translate(-140.5 -13)"/></g></g></g><g class="cls-5"><g class="cls-13"><g class="cls-5"><path d="M263.75,192.76l-1.5-1.42.35.23,1.5,1.42-.35-.23" transform="translate(-140.5 -13)"/><path d="M264.1,193l-1.5-1.42.37.29,1.5,1.42-.37-.29" transform="translate(-140.5 -13)"/><path d="M264.47,193.28l-1.5-1.42.15.14,1.5,1.42-.15-.14" transform="translate(-140.5 -13)"/></g></g></g><path d="M263.75,192.76a4.77,4.77,0,0,1,2.33,4.26,9,9,0,0,1-2,5.75,10.86,10.86,0,0,1-5.15,3.86l-.07,0a6.14,6.14,0,0,1-5.34-.29,4.74,4.74,0,0,1-2.35-4.25,9,9,0,0,1,2-5.75,10.88,10.88,0,0,1,5.15-3.85l.07,0A6.23,6.23,0,0,1,263.75,192.76Zm-1.5,9a6.06,6.06,0,0,0,1.37-3.86,3.21,3.21,0,0,0-1.57-2.86,4.18,4.18,0,0,0-3.59-.18h0a7.32,7.32,0,0,0-3.47,2.59,6.09,6.09,0,0,0-1.38,3.86,3.16,3.16,0,0,0,1.58,2.85,4.11,4.11,0,0,0,3.57.2h0a7.34,7.34,0,0,0,3.47-2.6" transform="translate(-140.5 -13)"/><g class="cls-5"><g class="cls-14"><g class="cls-5"><path d="M252.59,205.7l-1.5-1.42a4.92,4.92,0,0,1-1.45-3.58,7.93,7.93,0,0,1,.46-2.88l1.5,1.42a7.93,7.93,0,0,0-.46,2.88,4.92,4.92,0,0,0,1.45,3.58" transform="translate(-140.5 -13)"/><path d="M251.6,199.24l-1.5-1.42q.14-.41.33-.81l1.5,1.42q-.19.4-.33.81" transform="translate(-140.5 -13)"/><path d="M251.93,198.43l-1.5-1.42q.15-.33.34-.66l1.5,1.42q-.18.33-.34.66" transform="translate(-140.5 -13)"/><path d="M252.27,197.77l-1.5-1.42q.17-.3.36-.6l1.5,1.42q-.19.3-.36.6" transform="translate(-140.5 -13)"/><path d="M252.63,197.17l-1.5-1.42q.19-.29.4-.58l1.5,1.42q-.21.29-.4.58" transform="translate(-140.5 -13)"/><path d="M253,196.58l-1.5-1.42.16-.21.28-.35,1.5,1.42-.28.35-.16.21" transform="translate(-140.5 -13)"/><path d="M253.46,196,252,194.6l.43-.5,1.5,1.42-.43.5" transform="translate(-140.5 -13)"/><path d="M253.89,195.52l-1.5-1.42.43-.45,1.5,1.42-.43.45" transform="translate(-140.5 -13)"/><path d="M254.32,195.06l-1.5-1.42.44-.42,1.5,1.42-.44.42" transform="translate(-140.5 -13)"/><path d="M254.76,194.65l-1.5-1.42.47-.4,1.5,1.42-.47.4" transform="translate(-140.5 -13)"/><path d="M255.23,194.25l-1.5-1.42.52-.39,1.5,1.42-.52.39" transform="translate(-140.5 -13)"/><path d="M255.75,193.85l-1.5-1.42q.3-.21.62-.41l1.5,1.42q-.32.19-.62.41" transform="translate(-140.5 -13)"/><path d="M256.37,193.45l-1.5-1.42q.4-.25.83-.45l1.5,1.42q-.43.21-.83.45" transform="translate(-140.5 -13)"/><path d="M257.2,193l-1.5-1.42a10.59,10.59,0,0,1,1.14-.47l.07,0,.65-.2,1.5,1.42-.65.2-.07,0a10.59,10.59,0,0,0-1.14.47" transform="translate(-140.5 -13)"/><path d="M259.05,192.3l-1.5-1.42q.37-.1.72-.16l1.5,1.42q-.35.06-.72.16" transform="translate(-140.5 -13)"/><path d="M259.77,192.14l-1.5-1.42a6.74,6.74,0,0,1,1.59-.1l1.5,1.42a6.74,6.74,0,0,0-1.59.1" transform="translate(-140.5 -13)"/><path d="M261.36,192l-1.5-1.42a5.61,5.61,0,0,1,.74.1l1.5,1.42a5.61,5.61,0,0,0-.74-.1" transform="translate(-140.5 -13)"/><path d="M262.11,192.14l-1.5-1.42a5.3,5.3,0,0,1,.58.15l1.5,1.42a5.3,5.3,0,0,0-.58-.15" transform="translate(-140.5 -13)"/><path d="M262.69,192.29l-1.5-1.42a5.25,5.25,0,0,1,.52.2l1.5,1.42a5.25,5.25,0,0,0-.52-.2" transform="translate(-140.5 -13)"/><path d="M263.21,192.49l-1.5-1.42a5.37,5.37,0,0,1,.48.24l1.5,1.42a5.37,5.37,0,0,0-.48-.24" transform="translate(-140.5 -13)"/><path d="M263.69,192.73l-1.5-1.42.06,0,1.5,1.42-.06,0" transform="translate(-140.5 -13)"/></g></g></g></g><g class="cls-5"><g class="cls-5"><g class="cls-15"><g class="cls-5"><path d="M282.52,198.07l-1.5-1.42a.8.8,0,0,1-.23-.59l1.5,1.42a.8.8,0,0,0,.23.59" transform="translate(-140.5 -13)"/></g></g></g><polygon points="135.83 185.05 134.34 183.63 134.32 183.59 135.81 185.01 135.83 185.05"/><polygon points="141.79 184.48 140.29 183.06 140.06 175.4 141.56 176.81 141.79 184.48"/><g class="cls-5"><g class="cls-16"><g class="cls-5"><path d="M270.17,202.26l-1.5-1.42a.77.77,0,0,1-.22-.58l1.5,1.42a.77.77,0,0,0,.22.58" transform="translate(-140.5 -13)"/></g></g></g><g class="cls-5"><g class="cls-17"><g class="cls-5"><path d="M283.47,184l-1.5-1.42h.16l1.5,1.42h-.16" transform="translate(-140.5 -13)"/><path d="M283.62,184l-1.5-1.42.13,0,1.5,1.42-.13,0" transform="translate(-140.5 -13)"/><path d="M283.76,184l-1.5-1.42.1,0,1.5,1.42-.1,0" transform="translate(-140.5 -13)"/><path d="M283.85,184l-1.5-1.42.08,0,1.5,1.42-.08,0" transform="translate(-140.5 -13)"/><path d="M283.93,184l-1.5-1.42.07,0,1.5,1.42-.07,0" transform="translate(-140.5 -13)"/><path d="M284,184.08l-1.5-1.42.06,0,1.5,1.42-.06,0" transform="translate(-140.5 -13)"/><path d="M284.06,184.13l-1.5-1.42.06,0,1.5,1.42-.06,0" transform="translate(-140.5 -13)"/><polyline points="143.63 171.17 142.13 169.76 142.13 169.76 143.63 171.18 143.63 171.17"/></g></g></g><g class="cls-5"><g class="cls-18"><g class="cls-5"><path d="M284.13,184.18l-1.5-1.42,0,0,1.5,1.42,0,0" transform="translate(-140.5 -13)"/></g></g></g><g class="cls-5"><g class="cls-19"><g class="cls-5"><path d="M283.06,184l-1.5-1.42.41,0,1.5,1.42-.41,0" transform="translate(-140.5 -13)"/></g></g></g><polygon points="136.71 181.73 135.22 180.31 140.1 170.56 141.6 171.97 136.71 181.73"/><g class="cls-5"><g class="cls-20"><g class="cls-5"><path d="M282.68,184.28l-1.5-1.42h0l1.5,1.42h0" transform="translate(-140.5 -13)"/><path d="M282.7,184.27l-1.5-1.42.36-.26,1.5,1.42-.36.26" transform="translate(-140.5 -13)"/></g></g></g><g class="cls-5"><g class="cls-21"><g class="cls-5"><path d="M282.1,185l-1.5-1.42,0-.09,1.5,1.42,0,.09" transform="translate(-140.5 -13)"/><path d="M282.15,184.88l-1.5-1.42.06-.09,1.5,1.42-.06.09" transform="translate(-140.5 -13)"/><path d="M282.2,184.79l-1.5-1.42.06-.08,1.5,1.42-.06.08" transform="translate(-140.5 -13)"/><path d="M282.26,184.7l-1.5-1.42.06-.08,1.5,1.42-.06.08" transform="translate(-140.5 -13)"/><path d="M282.32,184.63l-1.5-1.42.06-.07,1.5,1.42-.06.07" transform="translate(-140.5 -13)"/><path d="M282.38,184.56l-1.5-1.42.07-.07,1.5,1.42-.07.07" transform="translate(-140.5 -13)"/><path d="M282.44,184.49l-1.5-1.42L281,183l1.5,1.42-.08.07" transform="translate(-140.5 -13)"/><path d="M282.52,184.41,281,183l.09-.07,1.5,1.42-.09.07" transform="translate(-140.5 -13)"/><path d="M282.61,184.34l-1.5-1.42.07-.06,1.5,1.42-.07.06" transform="translate(-140.5 -13)"/></g></g></g><polygon points="135.76 184.96 134.26 183.55 130.18 178.76 131.68 180.18 135.76 184.96"/><g class="cls-5"><g class="cls-22"><g class="cls-5"><polyline points="130.74 175.18 129.25 173.76 129.26 173.77 130.75 175.18 130.74 175.18"/><path d="M271.25,188.18l-1.5-1.42.15,0,1.5,1.42-.15,0" transform="translate(-140.5 -13)"/><path d="M271.4,188.2l-1.5-1.42.1,0,1.5,1.42-.1,0" transform="translate(-140.5 -13)"/><path d="M271.5,188.23l-1.5-1.42.08,0,1.5,1.42-.08,0" transform="translate(-140.5 -13)"/><path d="M271.59,188.26l-1.5-1.42.07,0,1.5,1.42-.07,0" transform="translate(-140.5 -13)"/><path d="M271.66,188.29l-1.5-1.42.06,0,1.5,1.42-.06,0" transform="translate(-140.5 -13)"/><path d="M271.72,188.33l-1.5-1.42.06,0,1.5,1.42-.06,0" transform="translate(-140.5 -13)"/><path d="M271.78,188.38l-1.5-1.42,0,0,1.5,1.42,0,0" transform="translate(-140.5 -13)"/></g></g></g><polygon points="129.44 188.69 127.94 187.28 127.59 175.42 129.09 176.84 129.44 188.69"/><g class="cls-5"><g class="cls-23"><g class="cls-5"><path d="M270.78,188.26l-1.5-1.42.11,0,1.5,1.42-.11,0" transform="translate(-140.5 -13)"/><path d="M270.89,188.23l-1.5-1.42.13,0,1.5,1.42-.13,0" transform="translate(-140.5 -13)"/><path d="M271,188.2l-1.5-1.42.23,0,1.5,1.42-.23,0" transform="translate(-140.5 -13)"/></g></g></g><g class="cls-5"><g class="cls-24"><g class="cls-5"><path d="M270.46,188.41,269,187l.13-.07,1.5,1.42-.13.07" transform="translate(-140.5 -13)"/><path d="M270.59,188.34l-1.5-1.42.19-.08,1.5,1.42-.19.08" transform="translate(-140.5 -13)"/></g></g></g><g class="cls-5"><g class="cls-25"><g class="cls-5"><path d="M269.59,189.84l-1.5-1.42a1.23,1.23,0,0,1,.07-.46l1.5,1.42a1.23,1.23,0,0,0-.07.46" transform="translate(-140.5 -13)"/><path d="M269.66,189.38l-1.5-1.42.05-.13,1.5,1.42-.05.13" transform="translate(-140.5 -13)"/><path d="M269.72,189.24l-1.5-1.42.06-.11,1.5,1.42-.06.11" transform="translate(-140.5 -13)"/><path d="M269.77,189.14l-1.5-1.42,0-.08,1.5,1.42,0,.08" transform="translate(-140.5 -13)"/></g></g></g><g class="cls-5"><g class="cls-26"><g class="cls-5"><path d="M269.82,189.05l-1.5-1.42,0-.06,1.5,1.42,0,.06" transform="translate(-140.5 -13)"/><path d="M269.86,189l-1.5-1.42.06-.08,1.5,1.42-.06.08" transform="translate(-140.5 -13)"/><path d="M269.92,188.91l-1.5-1.42.06-.08,1.5,1.42-.06.08" transform="translate(-140.5 -13)"/><path d="M270,188.83l-1.5-1.42.06-.07,1.5,1.42-.06.07" transform="translate(-140.5 -13)"/><path d="M270,188.76l-1.5-1.42.07-.07,1.5,1.42-.07.07" transform="translate(-140.5 -13)"/><path d="M270.1,188.69l-1.5-1.42.07-.07,1.5,1.42-.07.07" transform="translate(-140.5 -13)"/><path d="M270.17,188.62l-1.5-1.42.08-.07,1.5,1.42-.08.07" transform="translate(-140.5 -13)"/><path d="M270.26,188.55l-1.5-1.42.1-.08,1.5,1.42-.1.08" transform="translate(-140.5 -13)"/><path d="M270.36,188.47l-1.5-1.42.1-.07,1.5,1.42-.1.07" transform="translate(-140.5 -13)"/></g></g></g><path d="M270.78,188.26a1.37,1.37,0,0,1,.47-.08.84.84,0,0,1,.62.28l5.35,6.26L282.1,185a1.85,1.85,0,0,1,.58-.69l.38-.27.41,0a.88.88,0,0,1,.66.2.82.82,0,0,1,.27.62l.35,11.85a1.47,1.47,0,0,1-.33.94,1.74,1.74,0,0,1-.83.63,1,1,0,0,1-.92,0,.77.77,0,0,1-.38-.7l-.23-7.66-3.7,7.39-.07.14,0,0,0,.06,0,.06,0,.05-.06.07-.11.11-.1.1-.09.07a1.58,1.58,0,0,1-.44.25l-.05,0a1.92,1.92,0,0,1-.34.05l-.09,0h-.07l-.1,0-.1,0-.1,0,0,0,0,0-.06,0,0,0-.06,0-4.08-4.78.22,7.67a1.43,1.43,0,0,1-.34.94,1.83,1.83,0,0,1-.86.64,1,1,0,0,1-.88-.06.74.74,0,0,1-.38-.69l-.35-11.85a1.36,1.36,0,0,1,.23-.78,1.88,1.88,0,0,1,.64-.65A1.85,1.85,0,0,1,270.78,188.26Z" transform="translate(-140.5 -13)"/></g><g class="cls-5"><g class="cls-5"><g class="cls-27"><g class="cls-5"><path d="M295.06,191.95l-1.5-1.42h0l.37-.16,1.5,1.42-.37.16h0" transform="translate(-140.5 -13)"/><path d="M295.48,191.78l-1.5-1.42.27-.15,1.5,1.42-.27.15" transform="translate(-140.5 -13)"/><path d="M295.75,191.63l-1.5-1.42.2-.13,1.5,1.42-.2.13" transform="translate(-140.5 -13)"/><path d="M295.94,191.5l-1.5-1.42.17-.12,1.5,1.42-.17.12" transform="translate(-140.5 -13)"/><path d="M296.11,191.38l-1.5-1.42.15-.13,1.5,1.42-.15.13" transform="translate(-140.5 -13)"/><path d="M296.26,191.25l-1.5-1.42.14-.13,1.5,1.42-.14.13" transform="translate(-140.5 -13)"/><path d="M296.39,191.12l-1.5-1.42.13-.14,1.5,1.42-.13.14" transform="translate(-140.5 -13)"/><path d="M296.53,191l-1.5-1.42.08-.1,1.5,1.42-.08.1" transform="translate(-140.5 -13)"/></g></g></g><g class="cls-5"><g class="cls-28"><g class="cls-5"><path d="M296.61,190.89l-1.5-1.42,0-.05,1.5,1.42,0,.05" transform="translate(-140.5 -13)"/><path d="M296.66,190.83l-1.5-1.42.11-.14,1.5,1.42-.11.14" transform="translate(-140.5 -13)"/><path d="M296.77,190.69l-1.5-1.42.1-.14,1.5,1.42-.1.14" transform="translate(-140.5 -13)"/><path d="M296.86,190.55l-1.5-1.42.09-.15,1.5,1.42-.09.15" transform="translate(-140.5 -13)"/><path d="M296.95,190.4l-1.5-1.42.08-.16,1.5,1.42-.08.16" transform="translate(-140.5 -13)"/><path d="M297,190.24l-1.5-1.42.08-.19,1.5,1.42-.08.19" transform="translate(-140.5 -13)"/><path d="M297.11,190.05l-1.5-1.42a1.82,1.82,0,0,0,.11-.65,1.08,1.08,0,0,0-.32-.79l1.5,1.42a1.08,1.08,0,0,1,.32.79,1.82,1.82,0,0,1-.11.65" transform="translate(-140.5 -13)"/></g></g></g><polygon points="151.18 180.1 149.68 178.69 153.07 177.53 154.56 178.95 151.18 180.1"/><g class="cls-5"><g class="cls-29"><g class="cls-5"><path d="M298,186l-1.5-1.42h0l1.5,1.42h0" transform="translate(-140.5 -13)"/><path d="M298.07,186l-1.5-1.42.29.15,1.5,1.42-.29-.15" transform="translate(-140.5 -13)"/><path d="M298.36,186.19l-1.5-1.42.24.15,1.5,1.42-.24-.15" transform="translate(-140.5 -13)"/><path d="M298.6,186.35l-1.5-1.42.2.16,1.5,1.42-.2-.16" transform="translate(-140.5 -13)"/><path d="M298.8,186.5l-1.5-1.42.08.07,1.5,1.42-.08-.07" transform="translate(-140.5 -13)"/></g></g></g><g class="cls-5"><g class="cls-30"><g class="cls-5"><path d="M289.5,195.69l-1.5-1.42a.78.78,0,0,1-.24-.59l1.5,1.42a.78.78,0,0,0,.24.59" transform="translate(-140.5 -13)"/></g></g></g><g class="cls-5"><g class="cls-31"><g class="cls-5"><path d="M294.65,186.15l-1.5-1.42h0l.34-.14L295,186l-.34.14h0" transform="translate(-140.5 -13)"/><path d="M295,186l-1.5-1.42.26-.14,1.5,1.42L295,186" transform="translate(-140.5 -13)"/><path d="M295.29,185.86l-1.5-1.42.2-.13,1.5,1.42-.2.13" transform="translate(-140.5 -13)"/><path d="M295.49,185.73l-1.5-1.42.17-.13,1.5,1.42-.17.13" transform="translate(-140.5 -13)"/><path d="M295.66,185.6l-1.5-1.42.15-.13,1.5,1.42-.15.13" transform="translate(-140.5 -13)"/><path d="M295.81,185.47l-1.5-1.42.15-.14,1.5,1.42-.15.14" transform="translate(-140.5 -13)"/><path d="M296,185.33l-1.5-1.42.14-.15,1.5,1.42-.14.15" transform="translate(-140.5 -13)"/><path d="M296.1,185.18l-1.5-1.42.08-.09,1.5,1.42-.08.09" transform="translate(-140.5 -13)"/></g></g></g><g class="cls-5"><g class="cls-32"><g class="cls-5"><polyline points="155.68 172.09 154.18 170.68 154.19 170.67 155.69 172.08 155.68 172.09"/><path d="M296.19,185.08l-1.5-1.42.12-.16,1.5,1.42-.12.16" transform="translate(-140.5 -13)"/><path d="M296.31,184.92l-1.5-1.42.11-.15,1.5,1.42-.11.15" transform="translate(-140.5 -13)"/><path d="M296.41,184.77l-1.5-1.42.09-.16,1.5,1.42-.09.16" transform="translate(-140.5 -13)"/><path d="M296.51,184.61,295,183.2l.09-.17,1.5,1.42-.09.17" transform="translate(-140.5 -13)"/><path d="M296.59,184.44,295.1,183l.08-.2,1.5,1.42-.08.2" transform="translate(-140.5 -13)"/><path d="M296.67,184.25l-1.5-1.42a1.81,1.81,0,0,0,.11-.68,1.09,1.09,0,0,0-.33-.8l1.5,1.42a1.09,1.09,0,0,1,.33.8,1.81,1.81,0,0,1-.11.68" transform="translate(-140.5 -13)"/></g></g></g><polygon points="151.01 174.22 149.51 172.81 152.66 171.74 154.15 173.16 151.01 174.22"/><g class="cls-5"><g class="cls-33"><g class="cls-5"><path d="M294.47,180.24l-1.5-1.42.45-.14,1.5,1.42-.45.14" transform="translate(-140.5 -13)"/><path d="M294.92,180.1l-1.5-1.42.5-.11,1.5,1.42-.5.11" transform="translate(-140.5 -13)"/><path d="M295.42,180l-1.5-1.42a4.48,4.48,0,0,1,1-.06l1.5,1.42a4.48,4.48,0,0,0-1,.06" transform="translate(-140.5 -13)"/><path d="M296.47,179.93l-1.5-1.42a3.62,3.62,0,0,1,.48.06l1.5,1.42a3.62,3.62,0,0,0-.48-.06" transform="translate(-140.5 -13)"/><path d="M296.95,180l-1.5-1.42.37.1,1.5,1.42-.37-.1" transform="translate(-140.5 -13)"/><path d="M297.32,180.08l-1.5-1.42.32.12,1.5,1.42-.32-.12" transform="translate(-140.5 -13)"/><path d="M297.64,180.21l-1.5-1.42.17.08.08,0,1.5,1.42-.08,0-.17-.08" transform="translate(-140.5 -13)"/><path d="M297.9,180.34l-1.5-1.42.25.16,1.5,1.42-.25-.16" transform="translate(-140.5 -13)"/><path d="M298.14,180.49l-1.5-1.42.21.16,1.5,1.42-.21-.16" transform="translate(-140.5 -13)"/><path d="M298.35,180.65l-1.5-1.42.08.07,1.5,1.42-.08-.07" transform="translate(-140.5 -13)"/></g></g></g><polygon points="148.76 182.1 147.27 180.69 146.92 168.91 148.42 170.33 148.76 182.1"/><polygon points="149.59 168.75 148.1 167.34 152.47 165.82 153.97 167.24 149.59 168.75"/><g class="cls-5"><g class="cls-34"><g class="cls-5"><path d="M288.92,183.33l-1.5-1.42a1.27,1.27,0,0,1,.08-.48l1.5,1.42a1.27,1.27,0,0,0-.08.48" transform="translate(-140.5 -13)"/><path d="M289,182.85l-1.5-1.42.06-.14,1.5,1.42-.06.14" transform="translate(-140.5 -13)"/><path d="M289,182.71l-1.5-1.42.06-.11,1.5,1.42-.06.11" transform="translate(-140.5 -13)"/><path d="M289.1,182.6l-1.5-1.42.06-.1,1.5,1.42-.06.1" transform="translate(-140.5 -13)"/><path d="M289.17,182.5l-1.5-1.42.07-.1,1.5,1.42-.07.1" transform="translate(-140.5 -13)"/><path d="M289.23,182.4l-1.5-1.42h0l1.5,1.42h0" transform="translate(-140.5 -13)"/></g></g></g><path d="M298,186a2.59,2.59,0,0,1,1.63,2.53,5.13,5.13,0,0,1-1.29,3.38,6.9,6.9,0,0,1-3.18,2.31l-.07,0-4.61,1.57a1,1,0,0,1-.88,0,.78.78,0,0,1-.38-.7l-.35-11.78a1.49,1.49,0,0,1,.33-.94,1.84,1.84,0,0,1,.85-.64l4.37-1.51a4.19,4.19,0,0,1,3.34.05,2.63,2.63,0,0,1,1.42,2.44A5.16,5.16,0,0,1,298,186Zm-1.43,4.85a2.24,2.24,0,0,0,.61-1.49,1.06,1.06,0,0,0-.67-1,2.07,2.07,0,0,0-1.56,0l-.09,0-.16,0-3.14,1.08.1,3.55,3.38-1.15h0a3.41,3.41,0,0,0,1.51-1m-5.21-7.24.11,3.57,3.14-1.07h0a3.43,3.43,0,0,0,1.49-1,2.28,2.28,0,0,0,.6-1.53,1.07,1.07,0,0,0-.66-1,2.07,2.07,0,0,0-1.57,0l-3.14,1.09" transform="translate(-140.5 -13)"/><g class="cls-5"><g class="cls-35"><g class="cls-5"><path d="M289.24,182.39l-1.5-1.42,0,0,1.5,1.42,0,0" transform="translate(-140.5 -13)"/><path d="M289.28,182.35l-1.5-1.42.08-.09,1.5,1.42-.08.09" transform="translate(-140.5 -13)"/><path d="M289.35,182.26l-1.5-1.42.08-.08,1.5,1.42-.08.08" transform="translate(-140.5 -13)"/><path d="M289.43,182.18l-1.5-1.42.08-.07,1.5,1.42-.08.07" transform="translate(-140.5 -13)"/><path d="M289.51,182.1l-1.5-1.42.08-.07,1.5,1.42-.08.07" transform="translate(-140.5 -13)"/><path d="M289.59,182l-1.5-1.42.09-.07,1.5,1.42-.09.07" transform="translate(-140.5 -13)"/><path d="M289.68,182l-1.5-1.42.1-.07,1.5,1.42-.1.07" transform="translate(-140.5 -13)"/><path d="M289.78,181.9l-1.5-1.42.14-.07,1.5,1.42-.14.07" transform="translate(-140.5 -13)"/><path d="M289.91,181.83l-1.5-1.42.18-.08,1.5,1.42-.18.08" transform="translate(-140.5 -13)"/></g></g></g></g><g class="cls-5"><g class="cls-5"><g class="cls-36"><g class="cls-5"><path d="M304,190.75l-1.5-1.42a.79.79,0,0,1-.24-.59l1.5,1.42a.79.79,0,0,0,.24.59" transform="translate(-140.5 -13)"/></g></g></g><g class="cls-5"><g class="cls-37"><g class="cls-5"><polyline points="164.98 163.88 163.48 162.46 163.49 162.47 164.99 163.88 164.98 163.88"/><path d="M305.49,176.88l-1.5-1.42.07,0,1.5,1.42-.07,0" transform="translate(-140.5 -13)"/><path d="M305.55,176.92l-1.5-1.42.06,0,1.5,1.42-.06,0" transform="translate(-140.5 -13)"/><path d="M305.61,177l-1.5-1.42,0,0,1.5,1.42,0,0" transform="translate(-140.5 -13)"/></g></g></g><polygon points="163.26 177.16 161.76 175.75 161.42 163.99 162.91 165.41 163.26 177.16"/><g class="cls-5"><g class="cls-38"><g class="cls-5"><path d="M304.57,176.84l-1.5-1.42.13,0,1.5,1.42-.13,0" transform="translate(-140.5 -13)"/><path d="M304.71,176.79l-1.5-1.42.12,0,1.5,1.42-.12,0" transform="translate(-140.5 -13)"/><path d="M304.83,176.77l-1.5-1.42a1.1,1.1,0,0,1,.26,0l1.5,1.42a1.1,1.1,0,0,0-.26,0" transform="translate(-140.5 -13)"/><path d="M305.09,176.75l-1.5-1.42.12,0,1.5,1.42-.12,0" transform="translate(-140.5 -13)"/><path d="M305.2,176.77l-1.5-1.42.09,0,1.5,1.42-.09,0" transform="translate(-140.5 -13)"/><path d="M305.3,176.79l-1.5-1.42.08,0,1.5,1.42-.08,0" transform="translate(-140.5 -13)"/><path d="M305.38,176.82l-1.5-1.42.08,0,1.5,1.42-.08,0" transform="translate(-140.5 -13)"/><path d="M305.45,176.86l-1.5-1.42h0l1.5,1.42h0" transform="translate(-140.5 -13)"/></g></g></g><g class="cls-5"><g class="cls-39"><g class="cls-5"><path d="M303.41,178.41l-1.5-1.42a1.25,1.25,0,0,1,.07-.47l1.5,1.42a1.25,1.25,0,0,0-.07.47" transform="translate(-140.5 -13)"/><path d="M303.48,177.94l-1.5-1.42.05-.13,1.5,1.42-.05.13" transform="translate(-140.5 -13)"/><path d="M303.54,177.81,302,176.4l.05-.1,1.5,1.42-.05.1" transform="translate(-140.5 -13)"/><path d="M303.59,177.71l-1.5-1.42.05-.09,1.5,1.42-.05.09" transform="translate(-140.5 -13)"/><path d="M303.64,177.62l-1.5-1.42.06-.09,1.5,1.42-.06.09" transform="translate(-140.5 -13)"/><path d="M303.7,177.53l-1.5-1.42.05-.07,1.5,1.42-.05.07" transform="translate(-140.5 -13)"/></g></g></g><path d="M304.57,176.84a1,1,0,0,1,.9,0,.77.77,0,0,1,.39.69l.34,11.76a1.51,1.51,0,0,1-.34.94,1.8,1.8,0,0,1-.85.64,1,1,0,0,1-.88,0,.77.77,0,0,1-.38-.7l-.34-11.76a1.42,1.42,0,0,1,.34-.94A1.68,1.68,0,0,1,304.57,176.84Z" transform="translate(-140.5 -13)"/><g class="cls-5"><g class="cls-40"><g class="cls-5"><polyline points="163.25 164.46 161.76 163.05 161.76 163.04 163.26 164.46 163.25 164.46"/><path d="M303.76,177.46l-1.5-1.42.07-.09,1.5,1.42-.07.09" transform="translate(-140.5 -13)"/><path d="M303.82,177.37l-1.5-1.42.06-.08,1.5,1.42-.06.08" transform="translate(-140.5 -13)"/><path d="M303.89,177.3l-1.5-1.42.06-.07,1.5,1.42-.06.07" transform="translate(-140.5 -13)"/><path d="M304,177.23l-1.5-1.42.07-.06,1.5,1.42-.07.06" transform="translate(-140.5 -13)"/><path d="M304,177.16l-1.5-1.42.07-.06,1.5,1.42-.07.06" transform="translate(-140.5 -13)"/><path d="M304.09,177.1l-1.5-1.42.08-.06,1.5,1.42-.08.06" transform="translate(-140.5 -13)"/><path d="M304.17,177l-1.5-1.42.1-.06,1.5,1.42-.1.06" transform="translate(-140.5 -13)"/><path d="M304.27,177l-1.5-1.42.13-.07,1.5,1.42-.13.07" transform="translate(-140.5 -13)"/><path d="M304.4,176.91l-1.5-1.42.18-.07,1.5,1.42-.18.07" transform="translate(-140.5 -13)"/></g></g></g></g><g class="cls-5"><polygon points="180.21 172.16 178.71 170.74 178.68 170.71 180.17 172.12 180.21 172.16"/><g class="cls-5"><g class="cls-41"><g class="cls-5"><path d="M310.94,188.37l-1.5-1.42a.81.81,0,0,1-.24-.58l1.5,1.42a.81.81,0,0,0,.24.58" transform="translate(-140.5 -13)"/></g></g></g><g class="cls-5"><g class="cls-42"><g class="cls-5"><polyline points="181.61 158.16 180.11 156.74 180.12 156.75 181.62 158.16 181.61 158.16"/><path d="M322.11,171.16l-1.5-1.42.07,0,1.5,1.42-.07,0" transform="translate(-140.5 -13)"/><path d="M322.18,171.2l-1.5-1.42.06,0,1.5,1.42-.06,0" transform="translate(-140.5 -13)"/><path d="M322.24,171.25l-1.5-1.42,0,0,1.5,1.42,0,0" transform="translate(-140.5 -13)"/></g></g></g><polygon points="179.79 168.11 178.29 166.69 178.04 158.28 179.53 159.69 179.79 168.11"/><g class="cls-5"><g class="cls-43"><g class="cls-5"><path d="M320,172.69l-1.5-1.42a1.36,1.36,0,0,1,.08-.48l1.5,1.42a1.36,1.36,0,0,0-.08.48" transform="translate(-140.5 -13)"/><path d="M320.11,172.21l-1.5-1.42.05-.13,1.5,1.42-.05.13" transform="translate(-140.5 -13)"/><path d="M320.17,172.08l-1.5-1.42.05-.11,1.5,1.42-.05.11" transform="translate(-140.5 -13)"/><path d="M320.22,172l-1.5-1.42.06-.1,1.5,1.42-.06.1" transform="translate(-140.5 -13)"/><path d="M320.28,171.88l-1.5-1.42.06-.09,1.5,1.42-.06.09" transform="translate(-140.5 -13)"/><path d="M320.34,171.78l-1.5-1.42,0,0,0-.06,1.5,1.42,0,.06,0,0" transform="translate(-140.5 -13)"/><path d="M320.41,171.69l-1.5-1.42.07-.08,1.5,1.42-.07.08" transform="translate(-140.5 -13)"/><path d="M320.48,171.61,319,170.2l.07-.07,1.5,1.42-.07.07" transform="translate(-140.5 -13)"/><path d="M320.55,171.54l-1.5-1.42.07-.07,1.5,1.42-.07.07" transform="translate(-140.5 -13)"/><path d="M320.63,171.47l-1.5-1.42.08-.07,1.5,1.42-.08.07" transform="translate(-140.5 -13)"/><path d="M320.71,171.4l-1.5-1.42.09-.07,1.5,1.42-.09.07" transform="translate(-140.5 -13)"/><path d="M320.79,171.33l-1.5-1.42.1-.07,1.5,1.42-.1.07" transform="translate(-140.5 -13)"/><path d="M320.9,171.26l-1.5-1.42.14-.08,1.5,1.42-.14.08" transform="translate(-140.5 -13)"/><path d="M321,171.19l-1.5-1.42.19-.08.12,0,1.5,1.42-.12,0-.19.08" transform="translate(-140.5 -13)"/><path d="M321.35,171.07l-1.5-1.42.11,0,1.5,1.42-.11,0" transform="translate(-140.5 -13)"/><path d="M321.46,171l-1.5-1.42a1.07,1.07,0,0,1,.25,0l1.5,1.42a1.07,1.07,0,0,0-.25,0" transform="translate(-140.5 -13)"/><path d="M321.71,171l-1.5-1.42.12,0,1.5,1.42-.12,0" transform="translate(-140.5 -13)"/><path d="M321.83,171l-1.5-1.42.09,0,1.5,1.42-.09,0" transform="translate(-140.5 -13)"/><path d="M321.92,171.07l-1.5-1.42.08,0,1.5,1.42-.08,0" transform="translate(-140.5 -13)"/><path d="M322,171.1l-1.5-1.42.08,0,1.5,1.42-.08,0" transform="translate(-140.5 -13)"/><path d="M322.08,171.14l-1.5-1.42h0l1.5,1.42h0" transform="translate(-140.5 -13)"/></g></g></g><polygon points="172.04 161.53 170.54 160.11 178.29 166.69 179.79 168.11 172.04 161.53"/><polygon points="170.21 174.79 168.71 173.38 168.36 161.57 169.86 162.99 170.21 174.79"/><g class="cls-5"><g class="cls-44"><g class="cls-5"><path d="M311.56,174.4l-1.5-1.42.1,0,1.5,1.42-.1,0" transform="translate(-140.5 -13)"/><path d="M311.66,174.37l-1.5-1.42.12,0,1.5,1.42-.12,0" transform="translate(-140.5 -13)"/><path d="M311.77,174.35l-1.5-1.42.14,0h.12l1.5,1.42h-.12l-.14,0" transform="translate(-140.5 -13)"/><path d="M312,174.33l-1.5-1.42.13,0,1.5,1.42-.13,0" transform="translate(-140.5 -13)"/><path d="M312.16,174.35l-1.5-1.42.09,0,1.5,1.42-.09,0" transform="translate(-140.5 -13)"/><path d="M312.26,174.37l-1.5-1.42.08,0,1.5,1.42-.08,0" transform="translate(-140.5 -13)"/><path d="M312.34,174.4l-1.5-1.42.07,0,1.5,1.42-.07,0" transform="translate(-140.5 -13)"/><path d="M312.41,174.44l-1.5-1.42.07,0,1.5,1.42-.07,0" transform="translate(-140.5 -13)"/><path d="M312.48,174.48l-1.5-1.42.06,0,1.5,1.42-.06,0" transform="translate(-140.5 -13)"/></g></g></g><g class="cls-5"><g class="cls-45"><g class="cls-5"><path d="M310.36,176l-1.5-1.42a1.34,1.34,0,0,1,.08-.46l1.5,1.42a1.34,1.34,0,0,0-.08.46" transform="translate(-140.5 -13)"/><path d="M310.44,175.53l-1.5-1.42L309,174l1.5,1.42-.05.13" transform="translate(-140.5 -13)"/><path d="M310.49,175.39,309,174l.06-.11,1.5,1.42-.06.11" transform="translate(-140.5 -13)"/><path d="M310.55,175.28l-1.5-1.42,0,0,1.5,1.42,0,0" transform="translate(-140.5 -13)"/></g></g></g><g class="cls-5"><g class="cls-46"><g class="cls-5"><path d="M311.16,174.61l-1.5-1.42.1-.06,1.5,1.42-.1.06" transform="translate(-140.5 -13)"/><path d="M311.25,174.55l-1.5-1.42.14-.08,1.5,1.42-.14.08" transform="translate(-140.5 -13)"/><path d="M311.39,174.47l-1.5-1.42.16-.07,1.5,1.42-.16.07" transform="translate(-140.5 -13)"/></g></g></g><g class="cls-5"><g class="cls-47"><g class="cls-5"><polyline points="170.07 162.24 168.58 160.82 168.58 160.82 170.07 162.24 170.07 162.24"/><path d="M310.57,175.23l-1.5-1.42.06-.1,1.5,1.42-.06.1" transform="translate(-140.5 -13)"/><path d="M310.63,175.14l-1.5-1.42.06-.08,1.5,1.42-.06.08" transform="translate(-140.5 -13)"/><path d="M310.69,175.05l-1.5-1.42.06-.07,1.5,1.42-.06.07" transform="translate(-140.5 -13)"/><path d="M310.75,175l-1.5-1.42.06-.07,1.5,1.42-.06.07" transform="translate(-140.5 -13)"/><path d="M310.81,174.91l-1.5-1.42.06-.07,1.5,1.42-.06.07" transform="translate(-140.5 -13)"/><path d="M310.87,174.84l-1.5-1.42.07-.07,1.5,1.42-.07.07" transform="translate(-140.5 -13)"/><path d="M310.94,174.78l-1.5-1.42.08-.07,1.5,1.42-.08.07" transform="translate(-140.5 -13)"/><path d="M311,174.71l-1.5-1.42.09-.07,1.5,1.42-.09.07" transform="translate(-140.5 -13)"/><path d="M311.1,174.64l-1.5-1.42.05,0,1.5,1.42-.05,0" transform="translate(-140.5 -13)"/></g></g></g><path d="M311.56,174.4a1.31,1.31,0,0,1,.36-.07.86.86,0,0,1,.62.2l7.75,6.58-.25-8.42a1.49,1.49,0,0,1,.33-.94,1.83,1.83,0,0,1,.86-.64,1,1,0,0,1,.88,0,.75.75,0,0,1,.38.7l.35,11.82V184l0,.07,0,.06,0,.07v.05l0,.06,0,.07,0,0,0,.07,0,.06,0,.05,0,.05,0,.05-.05.06-.17.17L322,185l-.19.12-.21.09-.13,0-.13,0H321l0,0-.07,0,0,0-.1,0-.06,0,0,0-7.76-6.57.24,8.41a1.42,1.42,0,0,1-.34.94,1.68,1.68,0,0,1-.82.63,1,1,0,0,1-.9,0,.77.77,0,0,1-.39-.69L310.36,176a1.42,1.42,0,0,1,.22-.75,1.77,1.77,0,0,1,.58-.63A1.69,1.69,0,0,1,311.56,174.4Z" transform="translate(-140.5 -13)"/></g><g class="cls-5"><g class="cls-5"><g class="cls-48"><g class="cls-5"><path d="M336.07,178l-1.5-1.42.12,0,1.5,1.42-.12,0" transform="translate(-140.5 -13)"/><path d="M336.19,177.93l-1.5-1.42.11,0,1.5,1.42-.11,0" transform="translate(-140.5 -13)"/><path d="M336.3,177.9l-1.5-1.42a1.07,1.07,0,0,1,.25,0l1.5,1.42a1.07,1.07,0,0,0-.25,0" transform="translate(-140.5 -13)"/><path d="M336.55,177.89l-1.5-1.42.12,0,1.5,1.42-.12,0" transform="translate(-140.5 -13)"/><path d="M336.67,177.9l-1.5-1.42.09,0,1.5,1.42-.09,0" transform="translate(-140.5 -13)"/><path d="M336.76,177.93l-1.5-1.42.08,0,1.5,1.42-.08,0" transform="translate(-140.5 -13)"/><path d="M336.85,178l-1.5-1.42.08,0,1.5,1.42-.08,0" transform="translate(-140.5 -13)"/><path d="M336.92,178l-1.5-1.42,0,0,0,0L337,178l0,0,0,0" transform="translate(-140.5 -13)"/><path d="M337,178l-1.5-1.42.07.05,1.5,1.42L337,178" transform="translate(-140.5 -13)"/><path d="M337.06,178.1l-1.5-1.42,0,0,1.5,1.42,0,0" transform="translate(-140.5 -13)"/></g></g></g><polygon points="189.28 167.11 187.78 165.69 194.07 163.55 195.57 164.97 189.28 167.11"/><g class="cls-5"><g class="cls-49"><g class="cls-5"><path d="M327.58,182.7l-1.5-1.42a.81.81,0,0,1-.24-.58l1.5,1.42a.81.81,0,0,0,.24.58" transform="translate(-140.5 -13)"/></g></g></g><g class="cls-5"><g class="cls-50"><g class="cls-5"><path d="M334.14,172.66l-1.5-1.42.1,0,1.5,1.42-.1,0" transform="translate(-140.5 -13)"/><path d="M334.24,172.63l-1.5-1.42.13,0,1.5,1.42-.13,0" transform="translate(-140.5 -13)"/><path d="M334.36,172.6l-1.5-1.42a1.16,1.16,0,0,1,.27,0l1.5,1.42a1.16,1.16,0,0,0-.27,0" transform="translate(-140.5 -13)"/><path d="M334.64,172.58l-1.5-1.42.13,0,1.5,1.42-.13,0" transform="translate(-140.5 -13)"/><path d="M334.76,172.6l-1.5-1.42.1,0,1.5,1.42-.1,0" transform="translate(-140.5 -13)"/><path d="M334.86,172.63l-1.5-1.42.09,0,1.5,1.42-.09,0" transform="translate(-140.5 -13)"/><path d="M335,172.66l-1.5-1.42.07,0,1.5,1.42-.07,0" transform="translate(-140.5 -13)"/><path d="M335,172.69l-1.5-1.42h0l.06,0,1.5,1.42-.06,0h0" transform="translate(-140.5 -13)"/><path d="M335.09,172.74l-1.5-1.42.06,0,1.5,1.42-.06,0" transform="translate(-140.5 -13)"/><path d="M335.15,172.78l-1.5-1.42,0,0,1.5,1.42,0,0" transform="translate(-140.5 -13)"/></g></g></g><polygon points="189.1 161.21 187.6 159.79 192.14 158.24 193.64 159.66 189.1 161.21"/><g class="cls-5"><g class="cls-51"><g class="cls-5"><path d="M335.72,166.17l-1.5-1.42.1,0,1.5,1.42-.1,0" transform="translate(-140.5 -13)"/><path d="M335.82,166.14l-1.5-1.42.13,0,1.5,1.42-.13,0" transform="translate(-140.5 -13)"/><path d="M335.95,166.11l-1.5-1.42a1.14,1.14,0,0,1,.27,0l1.5,1.42a1.14,1.14,0,0,0-.27,0" transform="translate(-140.5 -13)"/><path d="M336.22,166.09l-1.5-1.42.12,0,1.5,1.42-.12,0" transform="translate(-140.5 -13)"/><path d="M336.34,166.11l-1.5-1.42.1,0,1.5,1.42-.1,0" transform="translate(-140.5 -13)"/><path d="M336.44,166.13l-1.5-1.42.08,0,1.5,1.42-.08,0" transform="translate(-140.5 -13)"/><path d="M336.52,166.16l-1.5-1.42.07,0,1.5,1.42-.07,0" transform="translate(-140.5 -13)"/><path d="M336.59,166.2l-1.5-1.42h0l0,0,1.5,1.42,0,0h0" transform="translate(-140.5 -13)"/><path d="M336.66,166.24l-1.5-1.42.06,0,1.5,1.42-.06,0" transform="translate(-140.5 -13)"/><path d="M336.72,166.29l-1.5-1.42,0,0,1.5,1.42,0,0" transform="translate(-140.5 -13)"/></g></g></g><polygon points="186.84 169.12 185.35 167.71 185 155.89 186.5 157.31 186.84 169.12"/><polygon points="187.66 155.73 186.16 154.31 193.73 151.75 195.22 153.17 187.66 155.73"/><g class="cls-5"><g class="cls-52"><g class="cls-5"><path d="M327,170.31l-1.5-1.42a1.37,1.37,0,0,1,.08-.48l1.5,1.42a1.37,1.37,0,0,0-.08.48" transform="translate(-140.5 -13)"/><path d="M327.08,169.83l-1.5-1.42.05-.13,1.5,1.42-.05.13" transform="translate(-140.5 -13)"/><path d="M327.13,169.69l-1.5-1.42.05-.11,1.5,1.42-.05.11" transform="translate(-140.5 -13)"/><path d="M327.18,169.59l-1.5-1.42.06-.09,1.5,1.42-.06.09" transform="translate(-140.5 -13)"/><path d="M327.24,169.5l-1.5-1.42.06-.09,1.5,1.42-.06.09" transform="translate(-140.5 -13)"/><path d="M327.3,169.41,325.8,168l0-.05,1.5,1.42,0,.05" transform="translate(-140.5 -13)"/></g></g></g><g class="cls-5"><g class="cls-53"><g class="cls-5"><polyline points="186.84 156.36 185.34 154.94 185.35 154.94 186.84 156.35 186.84 156.36"/><path d="M327.34,169.35l-1.5-1.42.06-.08,1.5,1.42-.06.08" transform="translate(-140.5 -13)"/><path d="M327.41,169.27l-1.5-1.42.06-.07,1.5,1.42-.06.07" transform="translate(-140.5 -13)"/><path d="M327.47,169.19l-1.5-1.42.06-.07,1.5,1.42-.06.07" transform="translate(-140.5 -13)"/><path d="M327.53,169.12l-1.5-1.42.07-.06,1.5,1.42-.07.06" transform="translate(-140.5 -13)"/><path d="M327.6,169.06l-1.5-1.42.07-.06,1.5,1.42-.07.06" transform="translate(-140.5 -13)"/><path d="M327.68,169l-1.5-1.42.08-.06,1.5,1.42-.08.06" transform="translate(-140.5 -13)"/><path d="M327.76,168.94l-1.5-1.42.1-.06,1.5,1.42-.1.06" transform="translate(-140.5 -13)"/><path d="M327.85,168.87l-1.5-1.42.13-.07,1.5,1.42-.13.07" transform="translate(-140.5 -13)"/><path d="M328,168.8l-1.5-1.42.17-.07,1.5,1.42-.17.07" transform="translate(-140.5 -13)"/></g></g></g><path d="M328.16,168.73l7.56-2.56a1,1,0,0,1,.89,0,.8.8,0,0,1,.38.71,1.45,1.45,0,0,1-.33.94,1.81,1.81,0,0,1-.86.64l-6.29,2.12.1,3.58,4.54-1.55a1.07,1.07,0,0,1,.89,0,.79.79,0,0,1,.39.7,1.56,1.56,0,0,1-.34,1,1.83,1.83,0,0,1-.84.62l-4.57,1.56.11,3.57,6.29-2.14a1,1,0,0,1,.88,0,.79.79,0,0,1,.38.7,1.42,1.42,0,0,1-.34.94,1.68,1.68,0,0,1-.82.63l-7.56,2.58a1,1,0,0,1-.87-.05.77.77,0,0,1-.39-.69L327,170.31a1.49,1.49,0,0,1,.34-1A1.7,1.7,0,0,1,328.16,168.73Z" transform="translate(-140.5 -13)"/></g><g class="cls-5"><g class="cls-5"><g class="cls-54"><g class="cls-5"><path d="M348,175.81l-1.5-1.42a.91.91,0,0,1-.14-.17l1.5,1.42a.91.91,0,0,0,.14.17" transform="translate(-140.5 -13)"/></g></g></g><g class="cls-5"><g class="cls-55"><g class="cls-5"><path d="M340.79,178.13l-1.5-1.42a.79.79,0,0,1-.24-.59l1.5,1.42a.79.79,0,0,0,.24.59" transform="translate(-140.5 -13)"/></g></g></g><polygon points="207.38 162.64 205.88 161.23 202.97 156.87 204.47 158.29 207.38 162.64"/><g class="cls-5"><g class="cls-56"><g class="cls-5"><path d="M346,168.62l-1.5-1.42.31-.13,1.5,1.42-.31.13" transform="translate(-140.5 -13)"/><path d="M346.26,168.48l-1.5-1.42.28-.15,1.5,1.42-.28.15" transform="translate(-140.5 -13)"/><path d="M346.54,168.33l-1.5-1.42.21-.13,1.5,1.42-.21.13" transform="translate(-140.5 -13)"/><path d="M346.75,168.2l-1.5-1.42.17-.13,1.5,1.42-.17.13" transform="translate(-140.5 -13)"/><path d="M346.92,168.07l-1.5-1.42.15-.13,1.5,1.42-.15.13" transform="translate(-140.5 -13)"/><path d="M347.07,167.94l-1.5-1.42.14-.14,1.5,1.42-.14.14" transform="translate(-140.5 -13)"/><path d="M347.21,167.8l-1.5-1.42.14-.15,1.5,1.42-.14.15" transform="translate(-140.5 -13)"/><path d="M347.35,167.66l-1.5-1.42.08-.09,1.5,1.42-.08.09" transform="translate(-140.5 -13)"/></g></g></g><g class="cls-5"><g class="cls-57"><g class="cls-5"><path d="M347.43,167.56l-1.5-1.42v0l1.5,1.42v0" transform="translate(-140.5 -13)"/><path d="M347.45,167.54l-1.5-1.42.11-.15,1.5,1.42-.11.15" transform="translate(-140.5 -13)"/><path d="M347.56,167.4l-1.5-1.42.1-.14,1.5,1.42-.1.14" transform="translate(-140.5 -13)"/><path d="M347.66,167.26l-1.5-1.42.09-.15,1.5,1.42-.09.15" transform="translate(-140.5 -13)"/><path d="M347.74,167.11l-1.5-1.42.08-.16,1.5,1.42-.08.16" transform="translate(-140.5 -13)"/><path d="M347.82,167l-1.5-1.42.08-.19,1.5,1.42-.08.19" transform="translate(-140.5 -13)"/><path d="M347.9,166.76l-1.5-1.42a1.81,1.81,0,0,0,.11-.65,1.12,1.12,0,0,0-.33-.83l1.5,1.42a1.12,1.12,0,0,1,.33.83,1.81,1.81,0,0,1-.11.65" transform="translate(-140.5 -13)"/></g></g></g><polygon points="202.28 156.69 200.79 155.28 203.95 154.2 205.45 155.62 202.28 156.69"/><g class="cls-5"><g class="cls-58"><g class="cls-5"><path d="M345.7,162.75l-1.5-1.42.43-.13,1.5,1.42-.43.13" transform="translate(-140.5 -13)"/><path d="M346.12,162.62l-1.5-1.42.48-.11,1.5,1.42-.48.11" transform="translate(-140.5 -13)"/><path d="M346.61,162.51l-1.5-1.42a4.37,4.37,0,0,1,1-.06l1.5,1.42a4.37,4.37,0,0,0-1,.06" transform="translate(-140.5 -13)"/><path d="M347.63,162.45l-1.5-1.42a3.59,3.59,0,0,1,.48.06l1.5,1.42a3.59,3.59,0,0,0-.48-.06" transform="translate(-140.5 -13)"/><path d="M348.1,162.51l-1.5-1.42.37.1,1.5,1.42-.37-.1" transform="translate(-140.5 -13)"/><path d="M348.47,162.61l-1.5-1.42.32.12,1.5,1.42-.32-.12" transform="translate(-140.5 -13)"/><path d="M348.8,162.73l-1.5-1.42.21.1.07,0,1.5,1.42-.07,0-.21-.1" transform="translate(-140.5 -13)"/><path d="M349.08,162.87l-1.5-1.42.26.16,1.5,1.42-.26-.16" transform="translate(-140.5 -13)"/><path d="M349.34,163l-1.5-1.42.21.17,1.5,1.42-.21-.17" transform="translate(-140.5 -13)"/><path d="M349.55,163.2l-1.5-1.42.09.08,1.5,1.42-.09-.08" transform="translate(-140.5 -13)"/></g></g></g><polygon points="200.05 164.54 198.55 163.13 198.21 151.38 199.71 152.79 200.05 164.54"/><polygon points="200.88 151.22 199.39 149.8 203.7 148.33 205.19 149.75 200.88 151.22"/><g class="cls-5"><g class="cls-59"><g class="cls-5"><path d="M340.2,165.79l-1.5-1.42a1.26,1.26,0,0,1,.07-.47l1.5,1.42a1.26,1.26,0,0,0-.07.47" transform="translate(-140.5 -13)"/><path d="M340.28,165.32l-1.5-1.42.05-.13,1.5,1.42-.05.13" transform="translate(-140.5 -13)"/><path d="M340.33,165.19l-1.5-1.42.05-.11,1.5,1.42-.05.11" transform="translate(-140.5 -13)"/><path d="M340.38,165.09l-1.5-1.42.06-.1,1.5,1.42-.06.1" transform="translate(-140.5 -13)"/><path d="M340.44,165l-1.5-1.42.06-.09,1.5,1.42-.06.09" transform="translate(-140.5 -13)"/><path d="M340.51,164.9l-1.5-1.42,0,0,0-.06,1.5,1.42,0,.06,0,0" transform="translate(-140.5 -13)"/><path d="M340.58,164.8l-1.5-1.42.07-.09,1.5,1.42-.07.09" transform="translate(-140.5 -13)"/><path d="M340.66,164.71l-1.5-1.42.07-.08,1.5,1.42-.07.08" transform="translate(-140.5 -13)"/><path d="M340.73,164.63l-1.5-1.42.07-.07,1.5,1.42-.07.07" transform="translate(-140.5 -13)"/><path d="M340.8,164.56l-1.5-1.42.08-.07,1.5,1.42-.08.07" transform="translate(-140.5 -13)"/><path d="M340.88,164.49l-1.5-1.42.09-.07,1.5,1.42-.09.07" transform="translate(-140.5 -13)"/><path d="M341,164.43l-1.5-1.42.1-.07,1.5,1.42-.1.07" transform="translate(-140.5 -13)"/><path d="M341.07,164.36l-1.5-1.42.13-.07,1.5,1.42-.13.07" transform="translate(-140.5 -13)"/><path d="M341.2,164.29l-1.5-1.42.18-.07,1.5,1.42-.18.07" transform="translate(-140.5 -13)"/></g></g></g><path d="M347.55,170.15l2.49,3.73a1,1,0,0,1,.07.86,1.7,1.7,0,0,1-.59.88,1.72,1.72,0,0,1-.54.31.85.85,0,0,1-1.11-.28L345,171.29l-2.11.72.14,4.7a1.45,1.45,0,0,1-.33.94,1.75,1.75,0,0,1-.83.62,1,1,0,0,1-.9,0,.77.77,0,0,1-.38-.7l-.34-11.75a1.44,1.44,0,0,1,.33-.93,1.81,1.81,0,0,1,.85-.65l4.31-1.47a4.08,4.08,0,0,1,3.31.09,2.67,2.67,0,0,1,1.45,2.45,4.79,4.79,0,0,1-.79,2.65A7,7,0,0,1,347.55,170.15Zm-1.6-1.53a3.55,3.55,0,0,0,1.48-1.06,2.19,2.19,0,0,0,.58-1.45,1.1,1.1,0,0,0-.68-1.05,2.09,2.09,0,0,0-1.56,0l-3.08,1.05.1,3.58,3.17-1.08" transform="translate(-140.5 -13)"/></g><g class="cls-5"><g class="cls-5"><g class="cls-60"><g class="cls-5"><path d="M356.17,170.21l-1.5-1.42,0,0,1.5,1.42,0,0" transform="translate(-140.5 -13)"/><path d="M356.2,170.24l-1.5-1.42.07.06,1.5,1.42-.07-.06" transform="translate(-140.5 -13)"/><path d="M356.27,170.3l-1.5-1.42.09.05,1.5,1.42-.09-.05" transform="translate(-140.5 -13)"/><path d="M356.35,170.35l-1.5-1.42.1.05,1.5,1.42-.1-.05" transform="translate(-140.5 -13)"/><path d="M356.46,170.4,355,169l.13.05,1.5,1.42-.13-.05" transform="translate(-140.5 -13)"/><path d="M356.59,170.45,355.1,169l.19,0,1.5,1.42-.19,0" transform="translate(-140.5 -13)"/><path d="M356.78,170.5l-1.5-1.42.2,0h.09l1.5,1.42H357l-.2,0" transform="translate(-140.5 -13)"/><path d="M357.07,170.54l-1.5-1.42a3.43,3.43,0,0,0,.8,0l1.5,1.42a3.43,3.43,0,0,1-.8,0" transform="translate(-140.5 -13)"/><path d="M357.87,170.49l-1.5-1.42.41-.09,1.5,1.42-.41.09" transform="translate(-140.5 -13)"/><path d="M358.27,170.4l-1.5-1.42.42-.13.43-.18,1.5,1.42-.43.18-.42.13" transform="translate(-140.5 -13)"/><path d="M359.13,170.09l-1.5-1.42.3-.16,1.5,1.42-.3.16" transform="translate(-140.5 -13)"/><path d="M359.42,169.93l-1.5-1.42.21-.14,1.5,1.42-.21.14" transform="translate(-140.5 -13)"/><path d="M359.64,169.79l-1.5-1.42.18-.13,1.5,1.42-.18.13" transform="translate(-140.5 -13)"/><path d="M359.81,169.66l-1.5-1.42.16-.13,1.5,1.42-.16.13" transform="translate(-140.5 -13)"/><path d="M360,169.53l-1.5-1.42.14-.14,1.5,1.42-.14.14" transform="translate(-140.5 -13)"/><path d="M360.11,169.39l-1.5-1.42.14-.15,1.5,1.42-.14.15" transform="translate(-140.5 -13)"/><path d="M360.25,169.24l-1.5-1.42.1-.12,0-.06,1.5,1.42,0,.06-.1.12" transform="translate(-140.5 -13)"/><path d="M360.4,169.07l-1.5-1.42.13-.17,1.5,1.42-.13.17" transform="translate(-140.5 -13)"/><path d="M360.53,168.89l-1.5-1.42.11-.16,1.5,1.42-.11.16" transform="translate(-140.5 -13)"/><path d="M360.64,168.73l-1.5-1.42.1-.17,1.5,1.42-.1.17" transform="translate(-140.5 -13)"/><path d="M360.75,168.56l-1.5-1.42.09-.18,1.5,1.42-.09.18" transform="translate(-140.5 -13)"/><path d="M360.84,168.38l-1.5-1.42q.05-.11.09-.23l1.5,1.42q0,.11-.09.23" transform="translate(-140.5 -13)"/><path d="M360.93,168.15l-1.5-1.42a2.21,2.21,0,0,0,.13-.7.87.87,0,0,0-.26-.67l1.5,1.42a.87.87,0,0,1,.26.67,2.21,2.21,0,0,1-.13.7" transform="translate(-140.5 -13)"/></g></g></g><g class="cls-5"><g class="cls-61"><g class="cls-5"><path d="M354.22,172.25l-1.5-1.42a2.47,2.47,0,0,1-.64-1,1.14,1.14,0,0,1,0-.75l1.5,1.42a1.14,1.14,0,0,0,0,.75,2.47,2.47,0,0,0,.64,1" transform="translate(-140.5 -13)"/><path d="M353.61,170.48l-1.5-1.42.06-.15,1.5,1.42-.06.15" transform="translate(-140.5 -13)"/><path d="M353.67,170.33l-1.5-1.42v0l1.5,1.42v0" transform="translate(-140.5 -13)"/></g></g></g><g class="cls-5"><g class="cls-62"><g class="cls-5"><path d="M353.68,170.31l-1.5-1.42,0-.07,1.5,1.42,0,.07" transform="translate(-140.5 -13)"/><path d="M353.72,170.24l-1.5-1.42.07-.11,1.5,1.42-.07.11" transform="translate(-140.5 -13)"/><path d="M353.78,170.13l-1.5-1.42.06-.09,1.5,1.42-.06.09" transform="translate(-140.5 -13)"/><path d="M353.85,170l-1.5-1.42.06-.08,1.5,1.42-.06.08" transform="translate(-140.5 -13)"/><path d="M353.91,170l-1.5-1.42.06-.07,1.5,1.42-.06.07" transform="translate(-140.5 -13)"/><path d="M354,169.88l-1.5-1.42.07-.07,1.5,1.42-.07.07" transform="translate(-140.5 -13)"/><path d="M354,169.82l-1.5-1.42.07-.07,1.5,1.42-.07.07" transform="translate(-140.5 -13)"/><path d="M354.11,169.75l-1.5-1.42.08-.07,1.5,1.42-.08.07" transform="translate(-140.5 -13)"/><path d="M354.19,169.68l-1.5-1.42.09-.07,1.5,1.42-.09.07" transform="translate(-140.5 -13)"/><path d="M354.28,169.61l-1.5-1.42.11-.07,1.5,1.42-.11.07" transform="translate(-140.5 -13)"/><path d="M354.39,169.54l-1.5-1.42,0,0,.13-.07,1.5,1.42-.13.07,0,0" transform="translate(-140.5 -13)"/><path d="M354.55,169.45l-1.5-1.42.18-.07.1,0,1.5,1.42-.1,0-.18.07" transform="translate(-140.5 -13)"/><path d="M354.83,169.35l-1.5-1.42.11,0,1.5,1.42-.11,0" transform="translate(-140.5 -13)"/><path d="M354.94,169.32l-1.5-1.42a1.08,1.08,0,0,1,.25,0l1.5,1.42a1.08,1.08,0,0,0-.25,0" transform="translate(-140.5 -13)"/><path d="M355.19,169.31l-1.5-1.42.14,0,1.5,1.42-.14,0" transform="translate(-140.5 -13)"/><path d="M355.33,169.32l-1.5-1.42h0l.11,0,1.5,1.42-.11,0h0" transform="translate(-140.5 -13)"/><path d="M355.45,169.36l-1.5-1.42.08,0,1.5,1.42-.08,0" transform="translate(-140.5 -13)"/><path d="M355.53,169.39,354,168l.07,0,1.5,1.42-.07,0" transform="translate(-140.5 -13)"/><path d="M355.6,169.42,354.1,168l.06,0,1.5,1.42-.06,0" transform="translate(-140.5 -13)"/><path d="M355.66,169.46l-1.5-1.42.05,0,1.5,1.42-.05,0" transform="translate(-140.5 -13)"/><path d="M355.71,169.5l-1.5-1.42,0,0,1.5,1.42,0,0" transform="translate(-140.5 -13)"/></g></g></g><g class="cls-5"><g class="cls-63"><g class="cls-5"><path d="M358.44,164.4l-1.5-1.42.55-.16,1.5,1.42-.55.16" transform="translate(-140.5 -13)"/><path d="M359,164.24l-1.5-1.42q.35-.09.68-.15l1.5,1.42q-.33.06-.68.15" transform="translate(-140.5 -13)"/><path d="M359.67,164.09l-1.5-1.42a5.25,5.25,0,0,1,1.22-.08l1.5,1.42a5.25,5.25,0,0,0-1.22.08" transform="translate(-140.5 -13)"/><path d="M360.89,164l-1.5-1.42a3.68,3.68,0,0,1,.48.06l1.5,1.42a3.68,3.68,0,0,0-.48-.06" transform="translate(-140.5 -13)"/><path d="M361.37,164.07l-1.5-1.42.35.09,1.5,1.42-.35-.09" transform="translate(-140.5 -13)"/><path d="M361.72,164.16l-1.5-1.42.28.11,1.5,1.42-.28-.11" transform="translate(-140.5 -13)"/><path d="M362,164.27l-1.5-1.42.25.12,1.5,1.42-.25-.12" transform="translate(-140.5 -13)"/><path d="M362.25,164.39l-1.5-1.42.13.08.1.07,1.5,1.42-.1-.07-.13-.08" transform="translate(-140.5 -13)"/><path d="M362.49,164.54l-1.5-1.42.2.16,1.5,1.42-.2-.16" transform="translate(-140.5 -13)"/><path d="M362.68,164.7l-1.5-1.42.08.07,1.5,1.42-.08-.07" transform="translate(-140.5 -13)"/></g></g></g><polygon points="217.89 151.42 216.39 150 216.44 149.99 217.94 151.4 217.89 151.42"/><g class="cls-5"><g class="cls-64"><g class="cls-5"><path d="M361.12,161.63l-1.5-1.42a.76.76,0,0,1-.2-.33.88.88,0,0,0-.23-.36l1.5,1.42a.88.88,0,0,1,.23.36.76.76,0,0,0,.2.33" transform="translate(-140.5 -13)"/></g></g></g><g class="cls-5"><g class="cls-65"><g class="cls-5"><path d="M356.06,164.38l-1.5-1.42,0,0,1.5,1.42,0,0" transform="translate(-140.5 -13)"/><path d="M356.09,164.41,354.6,163l.08.06,1.5,1.42-.08-.06" transform="translate(-140.5 -13)"/><path d="M356.17,164.47l-1.5-1.42,0,0,.05,0,1.5,1.42-.05,0,0,0" transform="translate(-140.5 -13)"/><path d="M356.25,164.53l-1.5-1.42.09,0,1.5,1.42-.09,0" transform="translate(-140.5 -13)"/><path d="M356.35,164.57l-1.5-1.42.12,0,1.5,1.42-.12,0" transform="translate(-140.5 -13)"/><path d="M356.46,164.62,355,163.2l.15,0,1.5,1.42-.15,0" transform="translate(-140.5 -13)"/><path d="M356.62,164.65l-1.5-1.42.23,0,1.5,1.42-.23,0" transform="translate(-140.5 -13)"/><path d="M356.85,164.68l-1.5-1.42a3,3,0,0,0,.69,0l1.5,1.42a3,3,0,0,1-.69,0" transform="translate(-140.5 -13)"/><path d="M357.53,164.64l-1.5-1.42.45-.1,1.5,1.42-.45.1" transform="translate(-140.5 -13)"/><path d="M358,164.54l-1.5-1.42.4-.12,1.5,1.42-.4.12" transform="translate(-140.5 -13)"/></g></g></g><g class="cls-5"><g class="cls-66"><g class="cls-5"><path d="M358,158.57l-1.5-1.42.6-.18,1.5,1.42-.6.18" transform="translate(-140.5 -13)"/><path d="M358.65,158.39l-1.5-1.42q.35-.09.68-.15l1.5,1.42q-.33.06-.68.15" transform="translate(-140.5 -13)"/><path d="M359.32,158.24l-1.5-1.42a5.78,5.78,0,0,1,1.35-.08l1.5,1.42a5.78,5.78,0,0,0-1.35.08" transform="translate(-140.5 -13)"/><path d="M360.68,158.15l-1.5-1.42.47.05.11,0,1.5,1.42-.11,0-.47-.05" transform="translate(-140.5 -13)"/><path d="M361.26,158.23l-1.5-1.42.39.1,1.5,1.42-.39-.1" transform="translate(-140.5 -13)"/><path d="M361.65,158.33l-1.5-1.42.29.11,1.5,1.42-.29-.11" transform="translate(-140.5 -13)"/><path d="M361.94,158.44l-1.5-1.42.24.12,1.5,1.42-.24-.12" transform="translate(-140.5 -13)"/><path d="M362.18,158.56l-1.5-1.42.2.13,1.5,1.42-.2-.13" transform="translate(-140.5 -13)"/><path d="M362.38,158.69l-1.5-1.42.18.14,1.5,1.42-.18-.14" transform="translate(-140.5 -13)"/><path d="M362.56,158.83l-1.5-1.42.07.07,1.5,1.42-.07-.07" transform="translate(-140.5 -13)"/></g></g></g><g class="cls-5"><g class="cls-67"><g class="cls-5"><path d="M354.09,166.39l-1.5-1.42a2.48,2.48,0,0,1-.73-2,4.88,4.88,0,0,1,.28-1.57l1.5,1.42a4.88,4.88,0,0,0-.28,1.57,2.48,2.48,0,0,0,.73,2" transform="translate(-140.5 -13)"/><path d="M353.64,162.86l-1.5-1.42q.09-.25.2-.49l1.5,1.42q-.11.24-.2.49" transform="translate(-140.5 -13)"/><path d="M353.84,162.37l-1.5-1.42q.09-.2.2-.4L354,162q-.11.2-.2.4" transform="translate(-140.5 -13)"/><path d="M354,162l-1.5-1.42.22-.36,1.5,1.42L354,162" transform="translate(-140.5 -13)"/><path d="M354.26,161.61l-1.5-1.42.24-.35,1.5,1.42-.24.35" transform="translate(-140.5 -13)"/><path d="M354.5,161.26l-1.5-1.42.25-.33,0,0,1.5,1.42,0,0-.25.33" transform="translate(-140.5 -13)"/><path d="M354.77,160.9l-1.5-1.42.28-.33,1.5,1.42-.28.33" transform="translate(-140.5 -13)"/><path d="M355,160.58l-1.5-1.42.28-.3,1.5,1.42-.28.3" transform="translate(-140.5 -13)"/><path d="M355.33,160.28l-1.5-1.42.29-.28,1.5,1.42-.29.28" transform="translate(-140.5 -13)"/><path d="M355.62,160l-1.5-1.42.31-.27,1.5,1.42-.31.27" transform="translate(-140.5 -13)"/><path d="M355.93,159.74l-1.5-1.42.35-.26,1.5,1.42-.35.26" transform="translate(-140.5 -13)"/><path d="M356.29,159.47l-1.5-1.42.42-.27,1.5,1.42-.42.27" transform="translate(-140.5 -13)"/><path d="M356.7,159.2l-1.5-1.42q.28-.17.56-.31l1.5,1.42q-.29.14-.56.31" transform="translate(-140.5 -13)"/><path d="M357.27,158.89l-1.5-1.42a7.25,7.25,0,0,1,.78-.33l1.5,1.42a7.25,7.25,0,0,0-.78.33" transform="translate(-140.5 -13)"/></g></g></g><path d="M358,158.57a6.4,6.4,0,0,1,3.1-.36,2.49,2.49,0,0,1,2.12,1.71,1.19,1.19,0,0,1-.11.92,1.78,1.78,0,0,1-.72.79,1.76,1.76,0,0,1-.3.14,1.21,1.21,0,0,1-.63.06.75.75,0,0,1-.58-.52,1.11,1.11,0,0,0-1.06-.69,4.2,4.2,0,0,0-1.7.26,3.71,3.71,0,0,0-1.67,1.16,2.67,2.67,0,0,0-.69,1.67.87.87,0,0,0,.41.79,2.68,2.68,0,0,0,2.19-.08l0,0q2.55-.84,3.95.07a2.42,2.42,0,0,1,1.12,2.25,5.68,5.68,0,0,1-1.4,3.5,7.19,7.19,0,0,1-3.26,2.34l-.07,0a6.14,6.14,0,0,1-3.05.34,2.48,2.48,0,0,1-2.12-1.71,1.21,1.21,0,0,1,.1-.92,1.87,1.87,0,0,1,.74-.79,1.81,1.81,0,0,1,.31-.15,1.12,1.12,0,0,1,.61,0,.74.74,0,0,1,.59.51,1.1,1.1,0,0,0,1,.69,4.05,4.05,0,0,0,1.71-.26,3.68,3.68,0,0,0,1.66-1.15,2.67,2.67,0,0,0,.71-1.68.86.86,0,0,0-.41-.79,2.66,2.66,0,0,0-2.19.07c-1.76.57-3.07.55-4,0a2.42,2.42,0,0,1-1.12-2.25,5.66,5.66,0,0,1,1.39-3.5A7.24,7.24,0,0,1,358,158.57Z" transform="translate(-140.5 -13)"/></g><polygon class="cls-68" points="114.4 204.05 94.58 210.95 94.42 217.69 102.71 227.16 122.53 220.26 122.53 213.53 114.4 204.05"/><polyline class="cls-69" points="534.93 160.31 282.56 159.75 281.98 160.18 122.53 216.83"/><text class="cls-70" transform="translate(307.41 147.66) scale(1.01 1)">bestResult[]</text><text class="cls-71" transform="translate(563.23 147.66) scale(1.01 1)">open(bytes32)<tspan x="0" y="21.75">ready(bytes32)</tspan><tspan x="0" y="43.51">combine(bytes32)</tspan></text></svg>