<svg id="Layer_1" data-name="Layer 1" xmlns="http://www.w3.org/2000/svg" xmlns:xlink="http://www.w3.org/1999/xlink" viewBox="0 0 1941.89 339.18"><defs><style>.cls-1,.cls-2,.cls-3,.cls-4,.cls-5,.cls-6{fill:none;stroke-miterlimit:10;stroke-width:3px;}.cls-1{stroke:url(#linear-gradient);}.cls-2{stroke:url(#linear-gradient-2);}.cls-3{stroke:url(#linear-gradient-3);}.cls-4{stroke:url(#linear-gradient-4);}.cls-5{stroke:url(#linear-gradient-5);}.cls-6{stroke:url(#linear-gradient-6);}.cls-7{font-size:172.33px;fill:#fff;font-family:Moon-Light, Moon;letter-spacing:0.05em;}</style><linearGradient id="linear-gradient" x1="207.02" y1="132.27" x2="424.84" y2="132.27" gradientUnits="userSpaceOnUse"><stop offset="0" stop-color="#00d5a7"/><stop offset="1" stop-color="#4847db"/></linearGradient><linearGradient id="linear-gradient-2" x1="206.1" y1="133.87" x2="489.8" y2="133.87" xlink:href="#linear-gradient"/><linearGradient id="linear-gradient-3" x1="206.1" y1="152.66" x2="310.93" y2="152.66" xlink:href="#linear-gradient"/><linearGradient id="linear-gradient-4" x1="64.96" y1="206.91" x2="282.78" y2="206.91" xlink:href="#linear-gradient"/><linearGradient id="linear-gradient-5" x1="0" y1="205.31" x2="283.7" y2="205.31" xlink:href="#linear-gradient"/><linearGradient id="linear-gradient-6" x1="178.87" y1="186.52" x2="283.7" y2="186.52" xlink:href="#linear-gradient"/></defs><title>concurrenceMain</title><polygon class="cls-1" points="322.64 262.77 208.64 126.13 235.47 3.31 422.31 227.26 322.64 262.77"/><polygon class="cls-2" points="487.25 142.37 281.16 213.05 208.64 126.13 414.11 54.7 487.25 142.37"/><polygon class="cls-3" points="308.87 91.29 281.16 213.05 208.64 126.13 308.87 91.29"/><polygon class="cls-4" points="167.15 76.41 281.16 213.05 254.33 335.87 67.49 111.92 167.15 76.41"/><polygon class="cls-5" points="2.55 196.81 208.64 126.13 281.16 213.05 75.69 284.48 2.55 196.81"/><polygon class="cls-6" points="180.93 247.89 208.64 126.13 281.16 213.05 180.93 247.89"/><text class="cls-7" transform="translate(560.11 229.49)">concurrence</text></svg>