<svg id="Layer_1" data-name="Layer 1" xmlns="http://www.w3.org/2000/svg" xmlns:xlink="http://www.w3.org/1999/xlink" viewBox="0 0 820.2 230.93"><defs><style>.cls-1,.cls-37,.cls-4{fill:none;}.cls-2,.cls-33,.cls-34,.cls-5,.cls-6{fill:#fff;}.cls-2{stroke:#4d4d4d;opacity:0.5;}.cls-2,.cls-33,.cls-34,.cls-4,.cls-5,.cls-6{stroke-linejoin:round;}.cls-2,.cls-33,.cls-34,.cls-37,.cls-4,.cls-5,.cls-6{stroke-width:3px;}.cls-3{isolation:isolate;}.cls-4{stroke:url(#linear-gradient);}.cls-5{stroke:url(#linear-gradient-2);}.cls-6{stroke:url(#linear-gradient-3);}.cls-7{clip-path:url(#clip-path);}.cls-8{clip-path:url(#clip-path-2);}.cls-9{clip-path:url(#clip-path-3);}.cls-10{clip-path:url(#clip-path-4);}.cls-11{clip-path:url(#clip-path-5);}.cls-12{clip-path:url(#clip-path-6);}.cls-13{clip-path:url(#clip-path-7);}.cls-14{clip-path:url(#clip-path-8);}.cls-15{clip-path:url(#clip-path-9);}.cls-16{clip-path:url(#clip-path-10);}.cls-17{clip-path:url(#clip-path-11);}.cls-18{clip-path:url(#clip-path-12);}.cls-19{clip-path:url(#clip-path-13);}.cls-20{clip-path:url(#clip-path-14);}.cls-21{clip-path:url(#clip-path-15);}.cls-22{clip-path:url(#clip-path-16);}.cls-23{clip-path:url(#clip-path-17);}.cls-24{clip-path:url(#clip-path-18);}.cls-25{clip-path:url(#clip-path-19);}.cls-26{clip-path:url(#clip-path-20);}.cls-27{clip-path:url(#clip-path-21);}.cls-28{clip-path:url(#clip-path-22);}.cls-29{clip-path:url(#clip-path-23);}.cls-30{clip-path:url(#clip-path-24);}.cls-31{clip-path:url(#clip-path-25);}.cls-32{clip-path:url(#clip-path-26);}.cls-33,.cls-35{stroke:#000;}.cls-34{stroke:gray;}.cls-35{font-size:40.79px;opacity:0.15;}.cls-35,.cls-37{stroke-miterlimit:10;}.cls-35,.cls-36{font-family:InconsolataForPowerline, Inconsolata for Powerline;}.cls-36{font-size:18.13px;fill:#3d3d3d;}.cls-37{stroke:#3d3d3d;opacity:0.2;}</style><linearGradient id="linear-gradient" x1="85.5" y1="133.97" x2="382.12" y2="133.97" gradientTransform="matrix(1, 0, 0, -1, -85.5, 269.39)" gradientUnits="userSpaceOnUse"><stop offset="0" stop-color="#00d5a7"/><stop offset="1" stop-color="#4847db"/></linearGradient><linearGradient id="linear-gradient-2" x1="85.5" y1="182.74" x2="382.12" y2="182.74" xlink:href="#linear-gradient"/><linearGradient id="linear-gradient-3" x1="0" y1="147.32" x2="296.62" y2="147.32" gradientTransform="matrix(1, 0, 0, 1, 0, 0)" xlink:href="#linear-gradient"/><clipPath id="clip-path" transform="translate(-85.5 -32.61)"><path class="cls-1" d="M194.82,229.71l-1.5-1.42a.81.81,0,0,1-.24-.59l1.5,1.42A.81.81,0,0,0,194.82,229.71Z"/></clipPath><clipPath id="clip-path-2" transform="translate(-85.5 -32.61)"><path class="cls-1" d="M182.47,233.92,181,232.5a.8.8,0,0,1-.24-.58l1.5,1.42A.8.8,0,0,0,182.47,233.92Z"/></clipPath><clipPath id="clip-path-3" transform="translate(-85.5 -32.61)"><path class="cls-1" d="M195.77,215.62l-1.5-1.42a.86.86,0,0,1,.66.2l1.5,1.42A.86.86,0,0,0,195.77,215.62Z"/></clipPath><clipPath id="clip-path-4" transform="translate(-85.5 -32.61)"><path class="cls-1" d="M194.95,214.43l1.5,1.42,0,0-1.5-1.42Z"/></clipPath><clipPath id="clip-path-5" transform="translate(-85.5 -32.61)"><path class="cls-1" d="M195.36,215.66l-1.5-1.42.41,0,1.5,1.42Z"/></clipPath><clipPath id="clip-path-6" transform="translate(-85.5 -32.61)"><path class="cls-1" d="M195,215.93l-1.5-1.42.38-.27,1.5,1.42Z"/></clipPath><clipPath id="clip-path-7" transform="translate(-85.5 -32.61)"><path class="cls-1" d="M194.4,216.62l-1.5-1.42a1.85,1.85,0,0,1,.58-.69l1.5,1.42A1.85,1.85,0,0,0,194.4,216.62Z"/></clipPath><clipPath id="clip-path-8" transform="translate(-85.5 -32.61)"><path class="cls-1" d="M182.62,218.64l1.5,1.42a.83.83,0,0,0-.57-.23,1.32,1.32,0,0,0-.47.08l-1.5-1.42a1.32,1.32,0,0,1,.47-.08A.83.83,0,0,1,182.62,218.64Z"/></clipPath><clipPath id="clip-path-9" transform="translate(-85.5 -32.61)"><path class="cls-1" d="M182.76,220.05l-1.5-1.42a1.8,1.8,0,0,1,.31-.14l1.5,1.42A1.8,1.8,0,0,0,182.76,220.05Z"/></clipPath><clipPath id="clip-path-10" transform="translate(-85.5 -32.61)"><path class="cls-1" d="M181.89,221.49l-1.5-1.42a1.48,1.48,0,0,1,.23-.79,2,2,0,0,1,.65-.65l1.5,1.42a2,2,0,0,0-.65.65A1.48,1.48,0,0,0,181.89,221.49Z"/></clipPath><clipPath id="clip-path-11" transform="translate(-85.5 -32.61)"><path class="cls-1" d="M210.83,224.33l-1.5-1.42a.9.9,0,0,1-.17-.23l1.5,1.42A.9.9,0,0,0,210.83,224.33Z"/></clipPath><clipPath id="clip-path-12" transform="translate(-85.5 -32.61)"><path class="cls-1" d="M200.51,227.79l-1.5-1.42a.77.77,0,0,1-.14-.19,1.09,1.09,0,0,1,0-.89l1.5,1.42a1.09,1.09,0,0,0,0,.89A.77.77,0,0,0,200.51,227.79Z"/></clipPath><clipPath id="clip-path-13" transform="translate(-85.5 -32.61)"><path class="cls-1" d="M206.56,212l-1.5-1.42a.78.78,0,0,1,.27,0l1.5,1.42A.78.78,0,0,0,206.56,212Z"/></clipPath><clipPath id="clip-path-14" transform="translate(-85.5 -32.61)"><path class="cls-1" d="M216.15,222.44l-1.5-1.42a.81.81,0,0,1-.24-.58l1.5,1.42A.81.81,0,0,0,216.15,222.44Z"/></clipPath><clipPath id="clip-path-15" transform="translate(-85.5 -32.61)"><path class="cls-1" d="M216.3,207.27l1.5,1.42a.78.78,0,0,0-.16-.11l-1.5-1.42A.78.78,0,0,1,216.3,207.27Z"/></clipPath><clipPath id="clip-path-16" transform="translate(-85.5 -32.61)"><path class="cls-1" d="M216.74,208.53l-1.5-1.42a1,1,0,0,1,.9,0l1.5,1.42A1,1,0,0,0,216.74,208.53Z"/></clipPath><clipPath id="clip-path-17" transform="translate(-85.5 -32.61)"><path class="cls-1" d="M215.57,210.1l-1.5-1.42a1.42,1.42,0,0,1,.34-.94l1.5,1.42A1.42,1.42,0,0,0,215.57,210.1Z"/></clipPath><clipPath id="clip-path-18" transform="translate(-85.5 -32.61)"><path class="cls-1" d="M215.92,209.16l-1.5-1.42a1.68,1.68,0,0,1,.82-.63l1.5,1.42A1.68,1.68,0,0,0,215.92,209.16Z"/></clipPath><clipPath id="clip-path-19" transform="translate(-85.5 -32.61)"><path class="cls-1" d="M223.1,220.07l-1.5-1.42a.79.79,0,0,1-.23-.58l1.5,1.42A.79.79,0,0,0,223.1,220.07Z"/></clipPath><clipPath id="clip-path-20" transform="translate(-85.5 -32.61)"><path class="cls-1" d="M232.93,201.55l1.5,1.42-.16-.11-1.5-1.42Z"/></clipPath><clipPath id="clip-path-21" transform="translate(-85.5 -32.61)"><path class="cls-1" d="M232.2,204.38l-1.5-1.42A1.47,1.47,0,0,1,231,202l1.5,1.42A1.47,1.47,0,0,0,232.2,204.38Z"/></clipPath><clipPath id="clip-path-22" transform="translate(-85.5 -32.61)"><path class="cls-1" d="M232.53,203.44,231,202a1.82,1.82,0,0,1,.84-.63,1,1,0,0,1,.9,0l1.5,1.42a1,1,0,0,0-.9,0A1.82,1.82,0,0,0,232.53,203.44Z"/></clipPath><clipPath id="clip-path-23" transform="translate(-85.5 -32.61)"><path class="cls-1" d="M223.72,206.1l-1.5-1.42a1.31,1.31,0,0,1,.36-.07.86.86,0,0,1,.62.2l1.5,1.42a.86.86,0,0,0-.62-.2A1.31,1.31,0,0,0,223.72,206.1Z"/></clipPath><clipPath id="clip-path-24" transform="translate(-85.5 -32.61)"><path class="cls-1" d="M222.53,207.67l-1.5-1.42a1.34,1.34,0,0,1,.21-.75l1.5,1.42A1.34,1.34,0,0,0,222.53,207.67Z"/></clipPath><clipPath id="clip-path-25" transform="translate(-85.5 -32.61)"><path class="cls-1" d="M223.33,206.3l-1.5-1.42a1.62,1.62,0,0,1,.39-.2l1.5,1.42A1.62,1.62,0,0,0,223.33,206.3Z"/></clipPath><clipPath id="clip-path-26" transform="translate(-85.5 -32.61)"><path class="cls-1" d="M222.73,206.93l-1.5-1.42a1.85,1.85,0,0,1,.59-.63l1.5,1.42A1.85,1.85,0,0,0,222.73,206.93Z"/></clipPath></defs><title>main</title><polygon class="cls-2" points="112.1 206.32 92.29 213.22 92.13 219.95 100.42 229.43 120.23 222.53 120.23 215.79 112.1 206.32"/><polygon class="cls-4" points="1.5 121.76 210 50.27 295.12 148.58 87.04 220.58 1.5 121.76"/><polygon class="cls-5" points="295.12 100.32 86.61 171.81 1.5 73.5 209.58 1.5 295.12 100.32"/><polygon class="cls-6" points="1.5 73.78 86.61 172.09 295.12 100.6 295.12 148.86 87.04 220.86 1.5 122.04 1.5 73.78"/><g class="cls-3"><g class="cls-3"><g class="cls-7"><g class="cls-3"><path d="M194.82,229.71l-1.5-1.42a.81.81,0,0,1-.24-.59l1.5,1.42a.81.81,0,0,0,.24.59" transform="translate(-85.5 -32.61)"/></g></g></g><polygon points="103.13 197.08 101.64 195.67 101.62 195.63 103.12 197.04 103.13 197.08"/><polygon points="109.08 196.51 107.59 195.1 107.36 187.43 108.86 188.85 109.08 196.51"/><g class="cls-3"><g class="cls-8"><g class="cls-3"><path d="M182.47,233.92,181,232.5a.8.8,0,0,1-.24-.58l1.5,1.42a.8.8,0,0,0,.24.58" transform="translate(-85.5 -32.61)"/></g></g></g><g class="cls-3"><g class="cls-9"><g class="cls-3"><path d="M195.77,215.62l-1.5-1.42h.15l1.5,1.42h-.15" transform="translate(-85.5 -32.61)"/><path d="M195.92,215.62l-1.5-1.42.13,0,1.5,1.42-.13,0" transform="translate(-85.5 -32.61)"/><path d="M196,215.64l-1.5-1.42.09,0,1.5,1.42-.09,0" transform="translate(-85.5 -32.61)"/><path d="M196.14,215.66l-1.5-1.42.08,0,1.5,1.42-.08,0" transform="translate(-85.5 -32.61)"/><path d="M196.22,215.69l-1.5-1.42.07,0,1.5,1.42-.07,0" transform="translate(-85.5 -32.61)"/><path d="M196.29,215.73l-1.5-1.42.07,0,1.5,1.42-.07,0" transform="translate(-85.5 -32.61)"/><path d="M196.35,215.77l-1.5-1.42.06,0,1.5,1.42-.06,0" transform="translate(-85.5 -32.61)"/><polyline points="110.92 183.21 109.42 181.79 109.43 181.8 110.92 183.22 110.92 183.21"/></g></g></g><g class="cls-3"><g class="cls-10"><g class="cls-3"><path d="M196.42,215.82l-1.5-1.42,0,0,1.5,1.42,0,0" transform="translate(-85.5 -32.61)"/></g></g></g><g class="cls-3"><g class="cls-11"><g class="cls-3"><path d="M195.36,215.66l-1.5-1.42.41,0,1.5,1.42-.41,0" transform="translate(-85.5 -32.61)"/></g></g></g><polygon points="104.01 193.77 102.52 192.35 107.4 182.59 108.9 184.01 104.01 193.77"/><g class="cls-3"><g class="cls-12"><g class="cls-3"><path d="M195,215.93l-1.5-1.42h0l1.5,1.42h0" transform="translate(-85.5 -32.61)"/><path d="M195,215.92l-1.5-1.42.36-.26,1.5,1.42-.36.26" transform="translate(-85.5 -32.61)"/></g></g></g><g class="cls-3"><g class="cls-13"><g class="cls-3"><path d="M194.4,216.62l-1.5-1.42,0-.09,1.5,1.42,0,.09" transform="translate(-85.5 -32.61)"/><path d="M194.45,216.53l-1.5-1.42L193,215l1.5,1.42-.06.09" transform="translate(-85.5 -32.61)"/><path d="M194.5,216.43,193,215l.06-.08,1.5,1.42-.06.08" transform="translate(-85.5 -32.61)"/><path d="M194.56,216.35l-1.5-1.42.06-.08,1.5,1.42-.06.08" transform="translate(-85.5 -32.61)"/><path d="M194.62,216.27l-1.5-1.42.06-.07,1.5,1.42-.06.07" transform="translate(-85.5 -32.61)"/><path d="M194.68,216.2l-1.5-1.42.07-.07,1.5,1.42-.07.07" transform="translate(-85.5 -32.61)"/><path d="M194.75,216.13l-1.5-1.42.08-.07,1.5,1.42-.08.07" transform="translate(-85.5 -32.61)"/><path d="M194.82,216.06l-1.5-1.42.09-.07,1.5,1.42-.09.07" transform="translate(-85.5 -32.61)"/><path d="M194.91,216l-1.5-1.42.07-.06,1.5,1.42-.07.06" transform="translate(-85.5 -32.61)"/></g></g></g><polygon points="103.06 197 101.56 195.58 97.48 190.8 98.97 192.22 103.06 197"/><polygon points="96.73 200.73 95.24 199.31 94.89 187.47 96.39 188.88 96.73 200.73"/><g class="cls-3"><g class="cls-14"><g class="cls-3"><path d="M183.07,219.91l-1.5-1.42.11,0,1.5,1.42-.11,0" transform="translate(-85.5 -32.61)"/><path d="M183.18,219.88l-1.5-1.42.12,0,1.5,1.42-.12,0" transform="translate(-85.5 -32.61)"/><path d="M183.29,219.85l-1.5-1.42.25,0h0l1.5,1.42h0l-.25,0" transform="translate(-85.5 -32.61)"/><path d="M183.58,219.83l-1.5-1.42.13,0,1.5,1.42-.13,0" transform="translate(-85.5 -32.61)"/><path d="M183.71,219.85l-1.5-1.42.09,0,1.5,1.42-.09,0" transform="translate(-85.5 -32.61)"/><path d="M183.81,219.87l-1.5-1.42.08,0,1.5,1.42-.08,0" transform="translate(-85.5 -32.61)"/><path d="M183.89,219.9l-1.5-1.42.07,0,1.5,1.42-.07,0" transform="translate(-85.5 -32.61)"/><path d="M184,219.94l-1.5-1.42.07,0L184,220l-.07,0" transform="translate(-85.5 -32.61)"/><path d="M184,220l-1.5-1.42.06.05,1.5,1.42L184,220" transform="translate(-85.5 -32.61)"/><path d="M184.09,220l-1.5-1.42,0,0,1.5,1.42,0,0" transform="translate(-85.5 -32.61)"/></g></g></g><g class="cls-3"><g class="cls-15"><g class="cls-3"><path d="M182.76,220.05l-1.5-1.42.13-.07,1.5,1.42-.13.07" transform="translate(-85.5 -32.61)"/><path d="M182.89,220l-1.5-1.42.18-.08,1.5,1.42-.18.08" transform="translate(-85.5 -32.61)"/></g></g></g><g class="cls-3"><g class="cls-16"><g class="cls-3"><path d="M181.89,221.49l-1.5-1.42a1.38,1.38,0,0,1,.08-.48L182,221a1.38,1.38,0,0,0-.08.48" transform="translate(-85.5 -32.61)"/><path d="M182,221l-1.5-1.42.06-.14,1.5,1.42L182,221" transform="translate(-85.5 -32.61)"/><path d="M182,220.87l-1.5-1.42.06-.11,1.5,1.42-.06.11" transform="translate(-85.5 -32.61)"/><path d="M182.08,220.76l-1.5-1.42,0-.06,0,0,1.5,1.42,0,0,0,.06" transform="translate(-85.5 -32.61)"/><path d="M182.14,220.66l-1.5-1.42.06-.09,1.5,1.42-.06.09" transform="translate(-85.5 -32.61)"/><path d="M182.2,220.57l-1.5-1.42.06-.08,1.5,1.42-.06.08" transform="translate(-85.5 -32.61)"/><path d="M182.27,220.49l-1.5-1.42.06-.07,1.5,1.42-.06.07" transform="translate(-85.5 -32.61)"/><path d="M182.33,220.41l-1.5-1.42.07-.07,1.5,1.42-.07.07" transform="translate(-85.5 -32.61)"/><path d="M182.4,220.34l-1.5-1.42.07-.07,1.5,1.42-.07.07" transform="translate(-85.5 -32.61)"/><path d="M182.47,220.27l-1.5-1.42.09-.07,1.5,1.42-.09.07" transform="translate(-85.5 -32.61)"/><path d="M182.56,220.2l-1.5-1.42.1-.08,1.5,1.42-.1.08" transform="translate(-85.5 -32.61)"/><path d="M182.66,220.12l-1.5-1.42.1-.07,1.5,1.42-.1.07" transform="translate(-85.5 -32.61)"/></g></g></g><path d="M183.07,219.91a1.32,1.32,0,0,1,.47-.08.83.83,0,0,1,.62.27l5.35,6.27,4.89-9.76a1.85,1.85,0,0,1,.58-.69l.38-.27.41,0a.86.86,0,0,1,.66.2.79.79,0,0,1,.27.62l.35,11.85a1.44,1.44,0,0,1-.33.93,1.82,1.82,0,0,1-.87.65,1,1,0,0,1-.88-.06.78.78,0,0,1-.38-.7l-.22-7.67-3.7,7.39-.07.14,0,0-.05.07,0,.05,0,.05-.07.07-.1.11-.1.09-.09.08a1.74,1.74,0,0,1-.45.24l-.05,0h-.06l-.27,0h-.16l-.1,0-.11,0-.1,0,0,0,0,0-.06,0,0,0-.06,0-4.08-4.78.23,7.67a1.51,1.51,0,0,1-.34.94,1.85,1.85,0,0,1-.87.64,1,1,0,0,1-.87-.05.78.78,0,0,1-.39-.69l-.35-11.85a1.48,1.48,0,0,1,.23-.79,2,2,0,0,1,.65-.65A1.8,1.8,0,0,1,183.07,219.91Z" transform="translate(-85.5 -32.61)"/></g><g class="cls-3"><g class="cls-3"><g class="cls-17"><g class="cls-3"><path d="M210.83,224.33l-1.5-1.42a.9.9,0,0,1-.17-.23l1.5,1.42a.9.9,0,0,0,.17.23" transform="translate(-85.5 -32.61)"/></g></g></g><polygon points="125.16 191.49 123.66 190.07 122.6 188.13 124.09 189.54 125.16 191.49"/><g class="cls-3"><g class="cls-18"><g class="cls-3"><path d="M200.51,227.79l-1.5-1.42a.77.77,0,0,1-.14-.19,1.09,1.09,0,0,1,0-.89l1.5,1.42a1.09,1.09,0,0,0,0,.89.77.77,0,0,0,.14.19" transform="translate(-85.5 -32.61)"/></g></g></g><polygon points="119 188.93 117.51 187.52 121.52 186.15 123.01 187.57 119 188.93"/><polygon points="114.84 194.11 113.34 192.69 114.57 189.24 116.07 190.66 114.84 194.11"/><polygon points="123.01 187.57 121.52 186.15 119.38 182.26 120.87 183.68 123.01 187.57"/><polygon points="121.74 179.62 120.25 178.2 120.29 178.24 121.78 179.66 121.74 179.62"/><polygon points="121.71 179.59 120.21 178.18 120.25 178.2 121.74 179.62 121.71 179.59"/><polygon points="121.66 179.56 120.16 178.14 120.21 178.18 121.71 179.59 121.66 179.56"/><polygon points="121.63 179.53 120.13 178.12 120.16 178.14 121.66 179.56 121.63 179.53"/><polygon points="121.58 179.51 120.08 178.09 120.13 178.12 121.63 179.53 121.58 179.51"/><polygon points="121.54 179.49 120.04 178.08 120.08 178.09 121.58 179.51 121.54 179.49"/><polygon points="121.48 179.47 119.99 178.05 120.04 178.08 121.54 179.49 121.48 179.47"/><polygon points="121.44 179.45 119.95 178.04 119.99 178.05 121.48 179.47 121.44 179.45"/><polygon points="121.38 179.44 119.88 178.02 119.95 178.04 121.44 179.45 121.38 179.44"/><polygon points="121.33 179.43 119.83 178.01 119.88 178.02 121.38 179.44 121.33 179.43"/><g class="cls-3"><g class="cls-19"><g class="cls-3"><path d="M206.56,212l-1.5-1.42h.19l1.5,1.42h-.19" transform="translate(-85.5 -32.61)"/><path d="M206.75,212l-1.5-1.42h.07l1.5,1.42h-.07" transform="translate(-85.5 -32.61)"/><path d="M206.81,212l-1.5-1.42h0l1.5,1.42h0" transform="translate(-85.5 -32.61)"/></g></g></g><polygon points="120.99 179.43 119.5 178.01 119.57 178.01 121.06 179.43 120.99 179.43"/><polygon points="120.94 179.44 119.44 178.03 119.5 178.01 120.99 179.43 120.94 179.44"/><polygon points="120.87 179.45 119.38 178.03 119.44 178.03 120.94 179.44 120.87 179.45"/><polygon points="120.81 179.47 119.31 178.05 119.38 178.03 120.87 179.45 120.81 179.47"/><polygon points="120.75 179.49 119.25 178.08 119.31 178.05 120.81 179.47 120.75 179.49"/><polygon points="120.69 179.51 119.2 178.09 119.25 178.08 120.75 179.49 120.69 179.51"/><polygon points="116.07 190.66 114.57 189.24 118.15 179.16 119.65 180.58 116.07 190.66"/><polygon points="120.63 179.53 119.14 178.12 119.2 178.09 120.69 179.51 120.63 179.53"/><polygon points="120.58 179.56 119.08 178.14 119.14 178.12 120.63 179.53 120.58 179.56"/><polygon points="119.65 180.58 118.15 179.16 118.2 179.05 119.7 180.46 119.65 180.58"/><polygon points="120.47 179.62 118.97 178.2 119.08 178.14 120.58 179.56 120.47 179.62"/><polygon points="119.7 180.46 118.2 179.05 118.21 179 119.71 180.41 119.7 180.46"/><polygon points="119.71 180.41 118.21 179 118.26 178.93 119.75 180.34 119.71 180.41"/><polygon points="120.39 179.66 118.89 178.25 118.97 178.2 120.47 179.62 120.39 179.66"/><polygon points="119.75 180.34 118.26 178.93 118.29 178.87 119.78 180.29 119.75 180.34"/><polygon points="119.78 180.29 118.29 178.87 118.33 178.82 119.82 180.24 119.78 180.29"/><polygon points="120.25 179.77 118.76 178.35 118.89 178.25 120.39 179.66 120.25 179.77"/><polygon points="119.82 180.24 118.33 178.82 118.36 178.77 119.85 180.18 119.82 180.24"/><polygon points="120.18 179.83 118.68 178.41 118.76 178.35 120.25 179.77 120.18 179.83"/><polygon points="119.85 180.18 118.36 178.77 118.4 178.71 119.9 180.12 119.85 180.18"/><polygon points="119.9 180.12 118.4 178.71 118.44 178.66 119.93 180.08 119.9 180.12"/><polygon points="119.93 180.08 118.44 178.66 118.49 178.61 119.99 180.02 119.93 180.08"/><polygon points="119.99 180.02 118.49 178.61 118.53 178.56 120.03 179.98 119.99 180.02"/><polygon points="120.03 179.98 118.53 178.56 118.58 178.51 120.08 179.92 120.03 179.98"/><path d="M212.9,222.44a1.09,1.09,0,0,1,0,.89,1.86,1.86,0,0,1-.65.85,1.76,1.76,0,0,1-.47.26c-.55.18-.93.08-1.15-.34l-1.06-1.95-6,2.06-.93,2.63a1.7,1.7,0,0,1-1.09,1.09l-.27.09h-.23a.78.78,0,0,1-.69-.4,1.09,1.09,0,0,1,0-.89l1.23-3.45,3.58-10.08.05-.12V213l0-.07,0-.06,0-.05,0-.06,0-.06,0,0,.05-.06,0,0,.05-.06,0,0,.06-.05.08-.06.14-.11.08,0,.11-.06.05,0,.06,0,.05,0,.06,0,.06,0h.19a.78.78,0,0,1,.27,0h0l.06,0,0,0,.06,0,0,0,0,0,0,0,0,0,0,0,0,0,0,0,0,0,.05.08,4.09,7.45Zm-8.4-.89,4-1.36-2.14-3.89-1.87,5.26" transform="translate(-85.5 -32.61)"/><polygon points="120.08 179.92 118.58 178.51 118.62 178.46 120.12 179.88 120.08 179.92"/><polygon points="120.12 179.88 118.62 178.46 118.68 178.41 120.18 179.83 120.12 179.88"/></g><g class="cls-3"><g class="cls-3"><g class="cls-20"><g class="cls-3"><path d="M216.15,222.44l-1.5-1.42a.81.81,0,0,1-.24-.58l1.5,1.42a.81.81,0,0,0,.24.58" transform="translate(-85.5 -32.61)"/></g></g></g><g class="cls-3"><g class="cls-21"><g class="cls-3"><polyline points="132.14 175.96 130.64 174.54 130.65 174.55 132.15 175.96 132.14 175.96"/><path d="M217.65,208.57l-1.5-1.42.07,0,1.5,1.42-.07,0" transform="translate(-85.5 -32.61)"/><path d="M217.72,208.62l-1.5-1.42.06,0,1.5,1.42-.06,0" transform="translate(-85.5 -32.61)"/><path d="M217.77,208.66l-1.5-1.42,0,0,1.5,1.42,0,0" transform="translate(-85.5 -32.61)"/></g></g></g><polygon points="130.42 189.25 128.92 187.83 128.58 176.07 130.07 177.49 130.42 189.25"/><g class="cls-3"><g class="cls-22"><g class="cls-3"><path d="M216.74,208.53l-1.5-1.42.14,0,1.5,1.42-.14,0" transform="translate(-85.5 -32.61)"/><path d="M216.87,208.49l-1.5-1.42.12,0,1.5,1.42-.12,0" transform="translate(-85.5 -32.61)"/><path d="M217,208.46,215.5,207l.25,0,1.5,1.42-.25,0" transform="translate(-85.5 -32.61)"/><path d="M217.25,208.44l-1.5-1.42h.12l1.5,1.42h-.12" transform="translate(-85.5 -32.61)"/><path d="M217.36,208.46l-1.5-1.42.09,0,1.5,1.42-.09,0" transform="translate(-85.5 -32.61)"/><path d="M217.45,208.48l-1.5-1.42.08,0,1.5,1.42-.08,0" transform="translate(-85.5 -32.61)"/><path d="M217.53,208.51,216,207.1l.08,0,1.5,1.42-.08,0" transform="translate(-85.5 -32.61)"/><path d="M217.61,208.55l-1.5-1.42,0,0,1.5,1.42,0,0" transform="translate(-85.5 -32.61)"/></g></g></g><g class="cls-3"><g class="cls-23"><g class="cls-3"><path d="M215.57,210.1l-1.5-1.42a1.25,1.25,0,0,1,.07-.47l1.5,1.42a1.25,1.25,0,0,0-.07.47" transform="translate(-85.5 -32.61)"/><path d="M215.65,209.63l-1.5-1.42.05-.13,1.5,1.42-.05.13" transform="translate(-85.5 -32.61)"/><path d="M215.7,209.51l-1.5-1.42.05-.1,1.5,1.42-.05.1" transform="translate(-85.5 -32.61)"/><path d="M215.75,209.4l-1.5-1.42.05-.09,1.5,1.42-.05.09" transform="translate(-85.5 -32.61)"/><path d="M215.8,209.31l-1.5-1.42.06-.09,1.5,1.42-.06.09" transform="translate(-85.5 -32.61)"/><path d="M215.86,209.23l-1.5-1.42.05-.07,1.5,1.42-.05.07" transform="translate(-85.5 -32.61)"/></g></g></g><path d="M216.74,208.53a1,1,0,0,1,.9,0,.76.76,0,0,1,.39.69l.34,11.76a1.43,1.43,0,0,1-.34.94,1.76,1.76,0,0,1-.85.64,1,1,0,0,1-.87-.05.77.77,0,0,1-.39-.69l-.34-11.76a1.42,1.42,0,0,1,.34-.94A1.68,1.68,0,0,1,216.74,208.53Z" transform="translate(-85.5 -32.61)"/><g class="cls-3"><g class="cls-24"><g class="cls-3"><polyline points="130.41 176.55 128.92 175.13 128.92 175.13 130.42 176.54 130.41 176.55"/><path d="M215.92,209.15l-1.5-1.42.07-.09,1.5,1.42-.07.09" transform="translate(-85.5 -32.61)"/><path d="M216,209.06l-1.5-1.42.06-.08L216,209l-.06.08" transform="translate(-85.5 -32.61)"/><path d="M216,209l-1.5-1.42.06-.07,1.5,1.42L216,209" transform="translate(-85.5 -32.61)"/><path d="M216.11,208.92l-1.5-1.42.07-.06,1.5,1.42-.07.06" transform="translate(-85.5 -32.61)"/><path d="M216.18,208.86l-1.5-1.42.07-.06,1.5,1.42-.07.06" transform="translate(-85.5 -32.61)"/><path d="M216.25,208.8l-1.5-1.42.08-.06,1.5,1.42-.08.06" transform="translate(-85.5 -32.61)"/><path d="M216.33,208.74l-1.5-1.42.1-.06,1.5,1.42-.1.06" transform="translate(-85.5 -32.61)"/><path d="M216.43,208.67l-1.5-1.42.13-.07,1.5,1.42-.13.07" transform="translate(-85.5 -32.61)"/><path d="M216.56,208.6l-1.5-1.42.18-.07,1.5,1.42-.18.07" transform="translate(-85.5 -32.61)"/></g></g></g></g><g class="cls-3"><polygon points="147.37 184.24 145.87 182.82 145.84 182.79 147.34 184.21 147.37 184.24"/><g class="cls-3"><g class="cls-25"><g class="cls-3"><path d="M223.1,220.07l-1.5-1.42a.79.79,0,0,1-.23-.58l1.5,1.42a.79.79,0,0,0,.23.58" transform="translate(-85.5 -32.61)"/></g></g></g><g class="cls-3"><g class="cls-26"><g class="cls-3"><polyline points="148.77 170.24 147.27 168.82 147.28 168.83 148.78 170.25 148.77 170.24"/><path d="M234.28,202.85l-1.5-1.42.07,0,1.5,1.42-.07,0" transform="translate(-85.5 -32.61)"/><path d="M234.34,202.9l-1.5-1.42.06,0,1.5,1.42-.06,0" transform="translate(-85.5 -32.61)"/><path d="M234.4,202.94l-1.5-1.42,0,0,1.5,1.42,0,0" transform="translate(-85.5 -32.61)"/></g></g></g><polygon points="146.95 180.19 145.45 178.78 145.21 170.36 146.7 171.77 146.95 180.19"/><g class="cls-3"><g class="cls-27"><g class="cls-3"><path d="M232.2,204.38l-1.5-1.42a1.27,1.27,0,0,1,.07-.48l1.5,1.42a1.27,1.27,0,0,0-.07.48" transform="translate(-85.5 -32.61)"/><path d="M232.28,203.9l-1.5-1.42.05-.13,1.5,1.42-.05.13" transform="translate(-85.5 -32.61)"/><path d="M232.33,203.77l-1.5-1.42.06-.11,1.5,1.42-.06.11" transform="translate(-85.5 -32.61)"/><path d="M232.39,203.66l-1.5-1.42.06-.1,1.5,1.42-.06.1" transform="translate(-85.5 -32.61)"/><path d="M232.45,203.56l-1.5-1.42.07-.1,1.5,1.42-.07.1" transform="translate(-85.5 -32.61)"/><path d="M232.52,203.46,231,202v0l1.5,1.42v0" transform="translate(-85.5 -32.61)"/></g></g></g><g class="cls-3"><g class="cls-28"><g class="cls-3"><path d="M232.53,203.44,231,202l0,0,1.5,1.42,0,0" transform="translate(-85.5 -32.61)"/><path d="M232.56,203.4l-1.5-1.42.08-.09,1.5,1.42-.08.09" transform="translate(-85.5 -32.61)"/><path d="M232.64,203.31l-1.5-1.42.08-.08,1.5,1.42-.08.08" transform="translate(-85.5 -32.61)"/><path d="M232.72,203.22l-1.5-1.42.08-.07,1.5,1.42-.08.07" transform="translate(-85.5 -32.61)"/><path d="M232.8,203.15l-1.5-1.42.08-.07,1.5,1.42-.08.07" transform="translate(-85.5 -32.61)"/><path d="M232.88,203.08l-1.5-1.42.09-.07L233,203l-.09.07" transform="translate(-85.5 -32.61)"/><path d="M233,203l-1.5-1.42.1-.07,1.5,1.42-.1.07" transform="translate(-85.5 -32.61)"/><path d="M233.06,203l-1.5-1.42.13-.07,1.5,1.42-.13.07" transform="translate(-85.5 -32.61)"/><path d="M233.19,202.88l-1.5-1.42.17-.07.13,0,1.5,1.42-.13,0-.17.07" transform="translate(-85.5 -32.61)"/><path d="M233.5,202.77l-1.5-1.42.12,0,1.5,1.42-.12,0" transform="translate(-85.5 -32.61)"/><path d="M233.62,202.74l-1.5-1.42a1.09,1.09,0,0,1,.26,0l1.5,1.42a1.09,1.09,0,0,0-.26,0" transform="translate(-85.5 -32.61)"/><path d="M233.88,202.73l-1.5-1.42.12,0,1.5,1.42-.12,0" transform="translate(-85.5 -32.61)"/><path d="M234,202.74l-1.5-1.42.09,0,1.5,1.42-.09,0" transform="translate(-85.5 -32.61)"/><path d="M234.09,202.77l-1.5-1.42.08,0,1.5,1.42-.08,0" transform="translate(-85.5 -32.61)"/><path d="M234.17,202.8l-1.5-1.42.08,0,1.5,1.42-.08,0" transform="translate(-85.5 -32.61)"/><path d="M234.24,202.83l-1.5-1.42h0l1.5,1.42h0" transform="translate(-85.5 -32.61)"/></g></g></g><polygon points="139.2 173.61 137.7 172.2 145.45 178.78 146.95 180.19 139.2 173.61"/><polygon points="137.37 186.87 135.88 185.46 135.53 173.65 137.03 175.07 137.37 186.87"/><g class="cls-3"><g class="cls-29"><g class="cls-3"><path d="M223.72,206.1l-1.5-1.42.1,0,1.5,1.42-.1,0" transform="translate(-85.5 -32.61)"/><path d="M223.82,206.06l-1.5-1.42.12,0,1.5,1.42-.12,0" transform="translate(-85.5 -32.61)"/><path d="M223.93,206l-1.5-1.42.14,0h.12l1.5,1.42h-.12l-.14,0" transform="translate(-85.5 -32.61)"/><path d="M224.2,206l-1.5-1.42.13,0,1.5,1.42-.13,0" transform="translate(-85.5 -32.61)"/><path d="M224.32,206l-1.5-1.42.09,0,1.5,1.42-.09,0" transform="translate(-85.5 -32.61)"/><path d="M224.42,206.06l-1.5-1.42.08,0,1.5,1.42-.08,0" transform="translate(-85.5 -32.61)"/><path d="M224.5,206.1l-1.5-1.42.07,0,1.5,1.42-.07,0" transform="translate(-85.5 -32.61)"/><path d="M224.57,206.13l-1.5-1.42.07,0,1.5,1.42-.07,0" transform="translate(-85.5 -32.61)"/><path d="M224.64,206.17l-1.5-1.42.06,0,1.5,1.42-.06,0" transform="translate(-85.5 -32.61)"/></g></g></g><g class="cls-3"><g class="cls-30"><g class="cls-3"><path d="M222.53,207.67l-1.5-1.42a1.23,1.23,0,0,1,.07-.46l1.5,1.42a1.23,1.23,0,0,0-.07.46" transform="translate(-85.5 -32.61)"/><path d="M222.6,207.21l-1.5-1.42.05-.13,1.5,1.42-.05.13" transform="translate(-85.5 -32.61)"/><path d="M222.65,207.08l-1.5-1.42.05-.11,1.5,1.42-.05.11" transform="translate(-85.5 -32.61)"/><path d="M222.71,207l-1.5-1.42,0,0,1.5,1.42,0,0" transform="translate(-85.5 -32.61)"/></g></g></g><g class="cls-3"><g class="cls-31"><g class="cls-3"><path d="M223.33,206.3l-1.5-1.42.1-.07,1.5,1.42-.1.07" transform="translate(-85.5 -32.61)"/><path d="M223.43,206.23l-1.5-1.42.13-.07,1.5,1.42-.13.07" transform="translate(-85.5 -32.61)"/><path d="M223.56,206.16l-1.5-1.42.16-.07,1.5,1.42-.16.07" transform="translate(-85.5 -32.61)"/></g></g></g><g class="cls-3"><g class="cls-32"><g class="cls-3"><path d="M222.73,206.93l-1.5-1.42,0-.08,1.5,1.42,0,.08" transform="translate(-85.5 -32.61)"/><path d="M222.78,206.85l-1.5-1.42.06-.09,1.5,1.42-.06.09" transform="translate(-85.5 -32.61)"/><path d="M222.84,206.76l-1.5-1.42.06-.08,1.5,1.42-.06.08" transform="translate(-85.5 -32.61)"/><path d="M222.91,206.68l-1.5-1.42.06-.07,1.5,1.42-.06.07" transform="translate(-85.5 -32.61)"/><path d="M223,206.61l-1.5-1.42.07-.07,1.5,1.42-.07.07" transform="translate(-85.5 -32.61)"/><path d="M223,206.54l-1.5-1.42.07-.07,1.5,1.42-.07.07" transform="translate(-85.5 -32.61)"/><path d="M223.1,206.47l-1.5-1.42.08-.07,1.5,1.42-.08.07" transform="translate(-85.5 -32.61)"/><path d="M223.18,206.4l-1.5-1.42.09-.07,1.5,1.42-.09.07" transform="translate(-85.5 -32.61)"/><path d="M223.27,206.34l-1.5-1.42.05,0,1.5,1.42-.05,0" transform="translate(-85.5 -32.61)"/></g></g></g><path d="M223.72,206.1a1.31,1.31,0,0,1,.36-.07.86.86,0,0,1,.62.2l7.75,6.58-.25-8.42a1.47,1.47,0,0,1,.33-.94,1.82,1.82,0,0,1,.84-.63,1,1,0,0,1,.9,0,.77.77,0,0,1,.39.69l.35,11.82v.29l0,.07,0,.06v.07l0,.05,0,.06,0,.07,0,0,0,.07,0,.06,0,.05,0,.05,0,.05-.05.06-.17.17-.17.13-.2.12-.2.09-.14,0-.13,0h-.41l-.07,0,0,0-.1,0-.06,0,0,0-7.76-6.57.24,8.41a1.44,1.44,0,0,1-.33.94,1.72,1.72,0,0,1-.83.63,1,1,0,0,1-.9,0,.75.75,0,0,1-.38-.7l-.35-11.81a1.34,1.34,0,0,1,.21-.75,1.85,1.85,0,0,1,.59-.63A1.62,1.62,0,0,1,223.72,206.1Z" transform="translate(-85.5 -32.61)"/></g><text x="-85.5" y="-32.61"></text><path class="cls-33" d="M200.91,118.86" transform="translate(-85.5 -32.61)"/><polygon class="cls-34" points="112.1 206.32 92.29 213.22 92.13 219.95 100.42 229.43 120.23 222.53 120.23 215.79 112.1 206.32"/><text class="cls-35" transform="translate(312 100.08) scale(1.01 1)">contracts[]</text><text class="cls-36" transform="translate(563.23 100.08) scale(1.01 1)">setContract(bytes32,address)<tspan x="0" y="21.75">getContract(bytes32)</tspan></text><polyline class="cls-37" points="537.23 113.86 311.24 113.3 310.66 152.38 119.08 218.1"/></svg>