<svg id="Layer_1" data-name="Layer 1" xmlns="http://www.w3.org/2000/svg" xmlns:xlink="http://www.w3.org/1999/xlink" viewBox="0 0 1591 315.17"><defs><style>.cls-1{fill:#fff;}.cls-2,.cls-3,.cls-4,.cls-5,.cls-6,.cls-7{fill:none;stroke-miterlimit:10;stroke-width:7.15px;}.cls-2{stroke:url(#linear-gradient);}.cls-3{stroke:url(#linear-gradient-2);}.cls-4{stroke:url(#linear-gradient-3);}.cls-5{stroke:url(#linear-gradient-4);}.cls-6{stroke:url(#linear-gradient-5);}.cls-7{stroke:url(#linear-gradient-6);}</style><linearGradient id="linear-gradient" x1="187.73" y1="122.84" x2="389.98" y2="122.84" gradientUnits="userSpaceOnUse"><stop offset="0" stop-color="#4cbe9e"/><stop offset="1" stop-color="#5058a6"/></linearGradient><linearGradient id="linear-gradient-2" x1="185.54" y1="125.43" x2="448.48" y2="125.43" xlink:href="#linear-gradient"/><linearGradient id="linear-gradient-3" x1="185.54" y1="143.07" x2="286.74" y2="143.07" xlink:href="#linear-gradient"/><linearGradient id="linear-gradient-4" x1="58.5" y1="192.33" x2="260.75" y2="192.33" xlink:href="#linear-gradient"/><linearGradient id="linear-gradient-5" x1="0" y1="189.74" x2="262.94" y2="189.74" xlink:href="#linear-gradient"/><linearGradient id="linear-gradient-6" x1="161.74" y1="172.1" x2="262.94" y2="172.1" xlink:href="#linear-gradient"/></defs><title>rqc-logo-color</title><path class="cls-1" d="M554.11,119.52a31.39,31.39,0,0,1,22,8.4,27.1,27.1,0,0,1,1.63,38.87,30.41,30.41,0,0,1-18.36,9.66l21.18,43.18a4.15,4.15,0,0,1,.22,3.34,4.31,4.31,0,0,1-2.23,2.53,4.25,4.25,0,0,1-1.93.45,4.07,4.07,0,0,1-3.94-2.45l-23-46.6H524.9v43.92a4.44,4.44,0,0,1-4.46,4.39,4.32,4.32,0,0,1-4.39-4.39V123.9a4.24,4.24,0,0,1,1.26-3.12,4.4,4.4,0,0,1,3.12-1.26Zm22.3,28.69a18.11,18.11,0,0,0-6.54-14,22.77,22.77,0,0,0-15.76-5.87H524.9v39.76h29.73A22.5,22.5,0,0,0,570,162.11,18.12,18.12,0,0,0,576.4,148.21Z"/><path class="cls-1" d="M612.53,226a4.57,4.57,0,0,1-4.46-4.46V123.68a4.13,4.13,0,0,1,1.34-3.12,3.94,3.94,0,0,1,3.12-1.34l59,.15a4.13,4.13,0,0,1,3.12,1.34,4.28,4.28,0,0,1,1.34,3.12,4.36,4.36,0,0,1-1.34,3.19,4.24,4.24,0,0,1-3.12,1.26L617,128.14v40h40.8a4.46,4.46,0,0,1,0,8.92H617v40h54.55a4.46,4.46,0,0,1,0,8.92Z"/><path class="cls-1" d="M799.23,218.37a4.49,4.49,0,0,1,0,6.24A4.36,4.36,0,0,1,796,226a4.28,4.28,0,0,1-3.12-1.34l-12.19-12.19a53.4,53.4,0,0,1-88.82-39.84,53.36,53.36,0,1,1,106.73,0A52.18,52.18,0,0,1,786.89,206Zm-54-1.34a43.05,43.05,0,0,0,29.13-10.92L763.26,195a4.46,4.46,0,0,1,3.12-7.58,4.36,4.36,0,0,1,3.2,1.34l10.93,10.93a44.19,44.19,0,0,0-3.79-58.49,44.45,44.45,0,0,0-75.89,31.44A44.41,44.41,0,0,0,745.27,217Z"/><path class="cls-1" d="M891.76,119.59a4.4,4.4,0,0,1,3.12,1.26,4.24,4.24,0,0,1,1.26,3.12v65.48a36.49,36.49,0,0,1-73,0V124a4.32,4.32,0,0,1,4.39-4.38,4.16,4.16,0,0,1,3,1.26,4.24,4.24,0,0,1,1.26,3.12v65.48a27.8,27.8,0,0,0,55.59,0V124a4.24,4.24,0,0,1,1.26-3.12A4.15,4.15,0,0,1,891.76,119.59Z"/><path class="cls-1" d="M929.15,226a4.57,4.57,0,0,1-4.46-4.46V123.68a4.13,4.13,0,0,1,1.34-3.12,3.94,3.94,0,0,1,3.12-1.34l59,.15a4.13,4.13,0,0,1,3.12,1.34,4.28,4.28,0,0,1,1.34,3.12,4.36,4.36,0,0,1-1.34,3.19,4.24,4.24,0,0,1-3.12,1.26l-54.55-.15v40h40.8a4.46,4.46,0,0,1,0,8.92h-40.8v40h54.55a4.46,4.46,0,0,1,0,8.92Z"/><path class="cls-1" d="M1044.87,177q-17.84-.22-26.91-9.89a23.71,23.71,0,0,1-6.84-17.91A29.63,29.63,0,0,1,1021.31,128a32.64,32.64,0,0,1,22.82-8.7,43.93,43.93,0,0,1,21,4.91q11.07,5.8,14,16.87a4.31,4.31,0,0,1-3.2,5.35,4,4,0,0,1-3.34-.45,4.09,4.09,0,0,1-2-2.68q-2-7.73-10.41-11.74a35.94,35.94,0,0,0-16-3.42,24.24,24.24,0,0,0-16.72,6.24,21.23,21.23,0,0,0-7.43,15.31,14.93,14.93,0,0,0,4.46,11.37q6.47,6.92,20.59,7.14a4.44,4.44,0,0,1,4.39,4.53,4.44,4.44,0,0,1-4.46,4.31Zm-19.62,44.07q-11.07-5.87-14-16.95a4.43,4.43,0,0,1,.45-3.35,4.36,4.36,0,0,1,2.75-2,4.43,4.43,0,0,1,3.34.44,4.35,4.35,0,0,1,2,2.68q2,7.73,10.41,11.82a36.59,36.59,0,0,0,16,3.34,24.24,24.24,0,0,0,16.72-6.24,21.17,21.17,0,0,0,7.43-15.24,15,15,0,0,0-4.46-11.45q-6.47-6.91-20.59-7.13a4.12,4.12,0,0,1-3.12-1.34,4.31,4.31,0,0,1,.15-6.24,4.24,4.24,0,0,1,3.12-1.26q17.84.3,26.91,10a23.24,23.24,0,0,1,6.76,17.84A29.36,29.36,0,0,1,1069,217.25a32.65,32.65,0,0,1-22.82,8.7A44.44,44.44,0,0,1,1025.25,221.12Z"/><path class="cls-1" d="M1127.89,128.21h-29.36a4.49,4.49,0,0,1-3.2-1.26,4.49,4.49,0,0,1,0-6.24,4.36,4.36,0,0,1,3.2-1.34h67.56a4.42,4.42,0,0,1,3.12,7.58,4.24,4.24,0,0,1-3.12,1.26h-29.36v93.28a4.32,4.32,0,0,1-4.46,4.46,4.4,4.4,0,0,1-3.12-1.26,4.48,4.48,0,0,1-1.26-3.19Z"/><path class="cls-1" d="M1267.62,226a53,53,0,0,1-53.07-53.07,53.16,53.16,0,0,1,53.07-53.14,51.89,51.89,0,0,1,32.41,11,8.75,8.75,0,0,1,3.34,5.8,8.62,8.62,0,0,1-1.78,6.54,8.37,8.37,0,0,1-5.8,3.35,8.78,8.78,0,0,1-6.54-1.71,35.47,35.47,0,0,0-46.68,53.22,35.51,35.51,0,0,0,49,1.19,8.49,8.49,0,0,1,6.32-2.3,8.33,8.33,0,0,1,6.09,2.9,8.8,8.8,0,0,1-.52,12.41A51.59,51.59,0,0,1,1267.62,226Z"/><path class="cls-1" d="M1375,226a53.54,53.54,0,0,1-53.37-53.37,53.36,53.36,0,1,1,91.12,37.68A51.47,51.47,0,0,1,1375,226Zm0-89.19a35.91,35.91,0,0,0-35.82,35.82,35.82,35.82,0,0,0,71.65,0A35.78,35.78,0,0,0,1375,136.76Z"/><path class="cls-1" d="M1463.47,226a8.88,8.88,0,0,1-8.77-8.77V128.51a8.77,8.77,0,0,1,17.54,0v88.67a8.88,8.88,0,0,1-8.77,8.77Z"/><path class="cls-1" d="M1575.4,222.61h-.07v-.07l-53.44-68.75v63.4a8.77,8.77,0,0,1-17.54,0v-89a8.34,8.34,0,0,1,1.63-5.05,8.43,8.43,0,0,1,4.31-3.19,8.24,8.24,0,0,1,5.35-.15,8.54,8.54,0,0,1,4.38,3l53.44,68.82V128.14A8.4,8.4,0,0,1,1576,122a8.52,8.52,0,0,1,6.24-2.6,8.89,8.89,0,0,1,8.77,8.77v89.19a2.07,2.07,0,0,1-.07.45v.37a2,2,0,0,1-.07.45,1,1,0,0,1-.07.44l-.07.37a1.1,1.1,0,0,1-.15.44,1.33,1.33,0,0,1-.15.37,2.35,2.35,0,0,1-.15.45l-.15.37-.22.37-.22.44-.22.22a3.2,3.2,0,0,1-.3.45l-.22.3-.3.3c-.15.2-.25.3-.3.3s-.1.15-.3.3a1.61,1.61,0,0,1-.37.3c.15-.1.12-.07-.07.07l-.07.07a10.62,10.62,0,0,1-1.12.74h-.07a12.53,12.53,0,0,1-1.19.52l-.15.07a5.19,5.19,0,0,1-1.26.3l-.22.07a11,11,0,0,1-1.26.07,6.59,6.59,0,0,1-1-.07c.1.05,0,.05-.15,0s-.55-.1-.74-.15c0,.05-.05,0-.3-.07a4.53,4.53,0,0,1-.59-.15.73.73,0,0,1-.3-.15,1.63,1.63,0,0,1-.6-.22.42.42,0,0,1-.3-.15,4.53,4.53,0,0,0-.52-.22,2,2,0,0,1-.3-.22l-.52-.37a1.91,1.91,0,0,1-.3-.22,7.87,7.87,0,0,1-.67-.59l-.07-.07v-.07l-.3-.3Z"/><polygon class="cls-2" points="294.23 241.47 191.6 118.46 215.75 7.9 383.95 209.5 294.23 241.47"/><polygon class="cls-3" points="442.41 133.08 256.88 196.71 191.6 118.46 376.56 54.16 442.41 133.08"/><polygon class="cls-4" points="281.82 87.1 256.88 196.71 191.6 118.46 281.82 87.1"/><polygon class="cls-5" points="154.25 73.7 256.88 196.71 232.73 307.27 64.53 105.67 154.25 73.7"/><polygon class="cls-6" points="6.07 182.09 191.6 118.46 256.88 196.71 71.92 261.01 6.07 182.09"/><polygon class="cls-7" points="166.66 228.07 191.6 118.46 256.88 196.71 166.66 228.07"/></svg>