<svg id="Layer_1" data-name="Layer 1" xmlns="http://www.w3.org/2000/svg" xmlns:xlink="http://www.w3.org/1999/xlink" viewBox="0 0 913.12 210.53"><defs><style>.cls-1,.cls-3,.cls-65{fill:none;}.cls-2{isolation:isolate;}.cls-3,.cls-4,.cls-5,.cls-62{stroke-linejoin:round;}.cls-3,.cls-4,.cls-5,.cls-62,.cls-65{stroke-width:3px;}.cls-3{stroke:url(#linear-gradient);}.cls-4,.cls-5,.cls-62{fill:#fff;}.cls-4{stroke:url(#linear-gradient-2);}.cls-5{stroke:url(#linear-gradient-3);}.cls-6{clip-path:url(#clip-path);}.cls-7{clip-path:url(#clip-path-2);}.cls-8{clip-path:url(#clip-path-3);}.cls-9{clip-path:url(#clip-path-4);}.cls-10{clip-path:url(#clip-path-5);}.cls-11{clip-path:url(#clip-path-6);}.cls-12{clip-path:url(#clip-path-7);}.cls-13{clip-path:url(#clip-path-8);}.cls-14{clip-path:url(#clip-path-9);}.cls-15{clip-path:url(#clip-path-10);}.cls-16{clip-path:url(#clip-path-11);}.cls-17{clip-path:url(#clip-path-12);}.cls-18{clip-path:url(#clip-path-13);}.cls-19{clip-path:url(#clip-path-14);}.cls-20{clip-path:url(#clip-path-15);}.cls-21{clip-path:url(#clip-path-16);}.cls-22{clip-path:url(#clip-path-17);}.cls-23{clip-path:url(#clip-path-18);}.cls-24{clip-path:url(#clip-path-19);}.cls-25{clip-path:url(#clip-path-20);}.cls-26{clip-path:url(#clip-path-21);}.cls-27{clip-path:url(#clip-path-22);}.cls-28{clip-path:url(#clip-path-23);}.cls-29{clip-path:url(#clip-path-24);}.cls-30{clip-path:url(#clip-path-25);}.cls-31{clip-path:url(#clip-path-26);}.cls-32{clip-path:url(#clip-path-27);}.cls-33{clip-path:url(#clip-path-28);}.cls-34{clip-path:url(#clip-path-29);}.cls-35{clip-path:url(#clip-path-30);}.cls-36{clip-path:url(#clip-path-31);}.cls-37{clip-path:url(#clip-path-32);}.cls-38{clip-path:url(#clip-path-33);}.cls-39{clip-path:url(#clip-path-34);}.cls-40{clip-path:url(#clip-path-35);}.cls-41{clip-path:url(#clip-path-36);}.cls-42{clip-path:url(#clip-path-37);}.cls-43{clip-path:url(#clip-path-38);}.cls-44{clip-path:url(#clip-path-39);}.cls-45{clip-path:url(#clip-path-40);}.cls-46{clip-path:url(#clip-path-41);}.cls-47{clip-path:url(#clip-path-42);}.cls-48{clip-path:url(#clip-path-43);}.cls-49{clip-path:url(#clip-path-44);}.cls-50{clip-path:url(#clip-path-45);}.cls-51{clip-path:url(#clip-path-46);}.cls-52{clip-path:url(#clip-path-47);}.cls-53{clip-path:url(#clip-path-48);}.cls-54{clip-path:url(#clip-path-49);}.cls-55{clip-path:url(#clip-path-50);}.cls-56{clip-path:url(#clip-path-51);}.cls-57{clip-path:url(#clip-path-52);}.cls-58{clip-path:url(#clip-path-53);}.cls-59{clip-path:url(#clip-path-54);}.cls-60{clip-path:url(#clip-path-55);}.cls-61{clip-path:url(#clip-path-56);}.cls-62{stroke:gray;}.cls-63{font-size:40.79px;stroke:#000;opacity:0.15;}.cls-63,.cls-65{stroke-miterlimit:10;}.cls-63,.cls-64{font-family:InconsolataForPowerline, Inconsolata for Powerline;}.cls-64{font-size:18.13px;fill:#3d3d3d;}.cls-65{stroke:#3d3d3d;opacity:0.2;}</style><linearGradient id="linear-gradient" x1="80.06" y1="106.78" x2="317.03" y2="106.78" gradientTransform="matrix(1, 0, 0, -1, -80.06, 232)" gradientUnits="userSpaceOnUse"><stop offset="0" stop-color="#00d5a7"/><stop offset="1" stop-color="#4847db"/></linearGradient><linearGradient id="linear-gradient-2" x1="80.06" y1="155.55" x2="317.03" y2="155.55" xlink:href="#linear-gradient"/><linearGradient id="linear-gradient-3" x1="0" y1="126.93" x2="236.96" y2="126.93" gradientTransform="matrix(1, 0, 0, 1, 0, 0)" xlink:href="#linear-gradient"/><clipPath id="clip-path" transform="translate(-80.06 -20)"><path class="cls-1" d="M185,195.61l-1.5-1.42a.9.9,0,0,1-.13-.16l1.5,1.42A.9.9,0,0,0,185,195.61Z"/></clipPath><clipPath id="clip-path-2" transform="translate(-80.06 -20)"><path class="cls-1" d="M177.83,197.94l-1.5-1.42a.8.8,0,0,1-.24-.6l1.5,1.42A.8.8,0,0,0,177.83,197.94Z"/></clipPath><clipPath id="clip-path-3" transform="translate(-80.06 -20)"><path class="cls-1" d="M183,188.42l-1.5-1.42a3.53,3.53,0,0,0,1.48-1l1.5,1.42A3.53,3.53,0,0,1,183,188.42Z"/></clipPath><clipPath id="clip-path-4" transform="translate(-80.06 -20)"><path class="cls-1" d="M183.21,183.67l1.5,1.42a1.12,1.12,0,0,1,.34.82,2.21,2.21,0,0,1-.57,1.46L183,186a2.21,2.21,0,0,0,.57-1.46A1.12,1.12,0,0,0,183.21,183.67Z"/></clipPath><clipPath id="clip-path-5" transform="translate(-80.06 -20)"><path class="cls-1" d="M185.18,181.67l1.5,1.42a2.87,2.87,0,0,0-.63-.45,4.06,4.06,0,0,0-3.31-.09l-1.5-1.42a4.06,4.06,0,0,1,3.31.09A2.87,2.87,0,0,1,185.18,181.67Z"/></clipPath><clipPath id="clip-path-6" transform="translate(-80.06 -20)"><path class="cls-1" d="M177.24,185.6l-1.5-1.42a1.47,1.47,0,0,1,.33-.94,1.79,1.79,0,0,1,.82-.63l1.5,1.42a1.79,1.79,0,0,0-.82.63A1.47,1.47,0,0,0,177.24,185.6Z"/></clipPath><clipPath id="clip-path-7" transform="translate(-80.06 -20)"><path class="cls-1" d="M199.37,187.41l1.5,1.42-.15-.11-1.5-1.42Z"/></clipPath><clipPath id="clip-path-8" transform="translate(-80.06 -20)"><path class="cls-1" d="M199.84,188.65l-1.5-1.42a1,1,0,0,1,.87.06l1.5,1.42A1,1,0,0,0,199.84,188.65Z"/></clipPath><clipPath id="clip-path-9" transform="translate(-80.06 -20)"><path class="cls-1" d="M191.35,193.4l-1.5-1.42a.8.8,0,0,1-.24-.58l1.5,1.42A.8.8,0,0,0,191.35,193.4Z"/></clipPath><clipPath id="clip-path-10" transform="translate(-80.06 -20)"><path class="cls-1" d="M197.44,182.09l1.5,1.42-.15-.11a1,1,0,0,0-.88,0l-1.5-1.42a1,1,0,0,1,.88,0Z"/></clipPath><clipPath id="clip-path-11" transform="translate(-80.06 -20)"><path class="cls-1" d="M199,175.6l1.5,1.42-.14-.1a1,1,0,0,0-.88,0l-1.5-1.42a1,1,0,0,1,.88,0Z"/></clipPath><clipPath id="clip-path-12" transform="translate(-80.06 -20)"><path class="cls-1" d="M190.76,181l-1.5-1.42a1.51,1.51,0,0,1,.34-1,1.8,1.8,0,0,1,.85-.64l1.5,1.42a1.8,1.8,0,0,0-.85.64A1.51,1.51,0,0,0,190.76,181Z"/></clipPath><clipPath id="clip-path-13" transform="translate(-80.06 -20)"><path class="cls-1" d="M216.82,181.48l1.5,1.42a.81.81,0,0,0-.16-.12l-1.5-1.42A.81.81,0,0,1,216.82,181.48Z"/></clipPath><clipPath id="clip-path-14" transform="translate(-80.06 -20)"><path class="cls-1" d="M206.64,184.31l-1.5-1.42a3.29,3.29,0,0,0,.59.44,4.15,4.15,0,0,0,3.58.18l0,0a7.2,7.2,0,0,0,2.64-1.66l1.5,1.42a7.2,7.2,0,0,1-2.64,1.66l0,0a4.15,4.15,0,0,1-3.58-.18A3.28,3.28,0,0,1,206.64,184.31Z"/></clipPath><clipPath id="clip-path-15" transform="translate(-80.06 -20)"><path class="cls-1" d="M212.44,182.6l-1.5-1.42a.81.81,0,0,1-.24-.58l1.5,1.42A.81.81,0,0,0,212.44,182.6Z"/></clipPath><clipPath id="clip-path-16" transform="translate(-80.06 -20)"><path class="cls-1" d="M213.39,180.43,211.9,179a1,1,0,0,1,.88,0l1.5,1.42A1,1,0,0,0,213.39,180.43Z"/></clipPath><clipPath id="clip-path-17" transform="translate(-80.06 -20)"><path class="cls-1" d="M212.2,182l-1.5-1.42a1.54,1.54,0,0,1,.33-1l1.5,1.42A1.54,1.54,0,0,0,212.2,182Z"/></clipPath><clipPath id="clip-path-18" transform="translate(-80.06 -20)"><path class="cls-1" d="M212.53,181.06l-1.5-1.42a1.86,1.86,0,0,1,.86-.63l1.5,1.42A1.86,1.86,0,0,0,212.53,181.06Z"/></clipPath><clipPath id="clip-path-19" transform="translate(-80.06 -20)"><path class="cls-1" d="M213.2,174.66l1.5,1.42a3.29,3.29,0,0,1,1,2.41,5.55,5.55,0,0,1-.56,2.5l-1.5-1.42a5.55,5.55,0,0,0,.56-2.5A3.29,3.29,0,0,0,213.2,174.66Z"/></clipPath><clipPath id="clip-path-20" transform="translate(-80.06 -20)"><path class="cls-1" d="M204.66,186.33l-1.5-1.42a4.94,4.94,0,0,1-1.46-3.6,9,9,0,0,1,2-5.75,10.88,10.88,0,0,1,5.12-3.83l.1,0a6.18,6.18,0,0,1,5.34.27,4.87,4.87,0,0,1,.88.66l1.5,1.42a4.87,4.87,0,0,0-.88-.66,6.18,6.18,0,0,0-5.34-.27l-.1,0a10.88,10.88,0,0,0-5.12,3.83,9,9,0,0,0-2,5.75A4.94,4.94,0,0,0,204.66,186.33Z"/></clipPath><clipPath id="clip-path-21" transform="translate(-80.06 -20)"><path class="cls-1" d="M224.86,179l-1.5-1.42a1.83,1.83,0,0,0,.35.26,2.4,2.4,0,0,0,2.08.11,4.23,4.23,0,0,0,2-1.51,3.53,3.53,0,0,0,.8-2.24l1.5,1.42a3.53,3.53,0,0,1-.8,2.24,4.23,4.23,0,0,1-2,1.51,2.4,2.4,0,0,1-2.08-.11A1.83,1.83,0,0,1,224.86,179Z"/></clipPath><clipPath id="clip-path-22" transform="translate(-80.06 -20)"><path class="cls-1" d="M222.92,181l-1.5-1.42a3.5,3.5,0,0,1-1-2.56l1.5,1.42A3.5,3.5,0,0,0,222.92,181Z"/></clipPath><clipPath id="clip-path-23" transform="translate(-80.06 -20)"><path class="cls-1" d="M230.56,164.84l1.5,1.42-.14-.11a1,1,0,0,0-.86,0l-1.5-1.42a1,1,0,0,1,.86,0Z"/></clipPath><clipPath id="clip-path-24" transform="translate(-80.06 -20)"><path class="cls-1" d="M229.88,167.66l-1.5-1.42a1.47,1.47,0,0,1,.33-.93l1.5,1.42A1.47,1.47,0,0,0,229.88,167.66Z"/></clipPath><clipPath id="clip-path-25" transform="translate(-80.06 -20)"><path class="cls-1" d="M230.21,166.73l-1.5-1.42a1.81,1.81,0,0,1,.84-.63l1.5,1.42A1.81,1.81,0,0,0,230.21,166.73Z"/></clipPath><clipPath id="clip-path-26" transform="translate(-80.06 -20)"><path class="cls-1" d="M222.33,167.64l1.5,1.42-.13-.1a1,1,0,0,0-.89,0l-1.5-1.42a1,1,0,0,1,.89,0Z"/></clipPath><clipPath id="clip-path-27" transform="translate(-80.06 -20)"><path class="cls-1" d="M221.65,170.46l-1.5-1.42a1.49,1.49,0,0,1,.33-.93,1.74,1.74,0,0,1,.81-.61l1.5,1.42a1.74,1.74,0,0,0-.81.61A1.49,1.49,0,0,0,221.65,170.46Z"/></clipPath><clipPath id="clip-path-28" transform="translate(-80.06 -20)"><path class="cls-1" d="M245.07,171.83l1.5,1.42-.15-.11a1,1,0,0,0-.87-.05l-1.5-1.42a1,1,0,0,1,.87.05Z"/></clipPath><clipPath id="clip-path-29" transform="translate(-80.06 -20)"><path class="cls-1" d="M237,177.82l-1.5-1.42a.79.79,0,0,1-.23-.58l1.5,1.42A.79.79,0,0,0,237,177.82Z"/></clipPath><clipPath id="clip-path-30" transform="translate(-80.06 -20)"><path class="cls-1" d="M243.14,166.51l1.5,1.42-.15-.11a1.07,1.07,0,0,0-.88,0l-1.5-1.42a1.07,1.07,0,0,1,.88,0Z"/></clipPath><clipPath id="clip-path-31" transform="translate(-80.06 -20)"><path class="cls-1" d="M244.72,160l1.5,1.42-.14-.1a1,1,0,0,0-.88-.06l-1.5-1.42a1,1,0,0,1,.88.06Z"/></clipPath><clipPath id="clip-path-32" transform="translate(-80.06 -20)"><path class="cls-1" d="M236.47,165.42,235,164a1.44,1.44,0,0,1,.33-.95l1.5,1.42A1.44,1.44,0,0,0,236.47,165.42Z"/></clipPath><clipPath id="clip-path-33" transform="translate(-80.06 -20)"><path class="cls-1" d="M236.8,164.47l-1.5-1.42a1.72,1.72,0,0,1,.83-.63l1.5,1.42A1.72,1.72,0,0,0,236.8,164.47Z"/></clipPath><clipPath id="clip-path-34" transform="translate(-80.06 -20)"><path class="cls-1" d="M255.06,165.15l1.5,1.42a.87.87,0,0,1,.26.67,2.67,2.67,0,0,1-.71,1.68,3.68,3.68,0,0,1-1.66,1.15,4.27,4.27,0,0,1-1.71.26l-1.5-1.42a4.27,4.27,0,0,0,1.71-.26,3.68,3.68,0,0,0,1.66-1.15,2.67,2.67,0,0,0,.71-1.68A.88.88,0,0,0,255.06,165.15Z"/></clipPath><clipPath id="clip-path-35" transform="translate(-80.06 -20)"><path class="cls-1" d="M251.92,170l-1.5-1.42a1.37,1.37,0,0,0,.82.32l1.5,1.42A1.37,1.37,0,0,1,251.92,170Z"/></clipPath><clipPath id="clip-path-36" transform="translate(-80.06 -20)"><path class="cls-1" d="M250,172l-1.5-1.42a2.47,2.47,0,0,1-.64-1,1.18,1.18,0,0,1,.1-.92,1.89,1.89,0,0,1,1-.93,1.12,1.12,0,0,1,.61,0,.79.79,0,0,1,.38.19l1.5,1.42a.79.79,0,0,0-.38-.19,1.12,1.12,0,0,0-.61,0,1.89,1.89,0,0,0-1,.93,1.18,1.18,0,0,0-.1.92A2.47,2.47,0,0,0,250,172Z"/></clipPath><clipPath id="clip-path-37" transform="translate(-80.06 -20)"><path class="cls-1" d="M257,163.13l1.5,1.42a2.63,2.63,0,0,0-.37-.29c-.93-.6-2.24-.62-3.95-.06l-1.5-1.42c1.7-.56,3-.53,3.95.06A2.63,2.63,0,0,1,257,163.13Z"/></clipPath><clipPath id="clip-path-38" transform="translate(-80.06 -20)"><path class="cls-1" d="M256.88,161.41l-1.5-1.42a.75.75,0,0,1-.2-.32.88.88,0,0,0-.23-.36l1.5,1.42a.88.88,0,0,1,.23.36A.75.75,0,0,0,256.88,161.41Z"/></clipPath><clipPath id="clip-path-39" transform="translate(-80.06 -20)"><path class="cls-1" d="M251.82,164.17l-1.5-1.42.14.11a2.71,2.71,0,0,0,2.19-.08l1.5,1.42a2.71,2.71,0,0,1-2.19.08Z"/></clipPath><clipPath id="clip-path-40" transform="translate(-80.06 -20)"><path class="cls-1" d="M256.9,157.27l1.5,1.42a2.78,2.78,0,0,0-1.49-.69,6.17,6.17,0,0,0-3.06.35l-.07,0-1.5-1.42.07,0a6.17,6.17,0,0,1,3.06-.35A2.78,2.78,0,0,1,256.9,157.27Z"/></clipPath><clipPath id="clip-path-41" transform="translate(-80.06 -20)"><path class="cls-1" d="M249.85,166.18l-1.5-1.42a2.51,2.51,0,0,1-.74-2,5.74,5.74,0,0,1,1.4-3.51,7.23,7.23,0,0,1,3.27-2.34l1.5,1.42a7.23,7.23,0,0,0-3.27,2.34,5.74,5.74,0,0,0-1.4,3.51A2.51,2.51,0,0,0,249.85,166.18Z"/></clipPath><clipPath id="clip-path-42" transform="translate(-80.06 -20)"><path class="cls-1" d="M280.65,156.43l1.5,1.42a.85.85,0,0,1,.27.67,2.63,2.63,0,0,1-.71,1.68l-1.5-1.42a2.63,2.63,0,0,0,.71-1.68A.85.85,0,0,0,280.65,156.43Z"/></clipPath><clipPath id="clip-path-43" transform="translate(-80.06 -20)"><path class="cls-1" d="M277.51,161.28l-1.5-1.42a1.39,1.39,0,0,0,.82.32,4.17,4.17,0,0,0,1.72-.25,3.69,3.69,0,0,0,1.65-1.15l1.5,1.42a3.69,3.69,0,0,1-1.65,1.15,4.17,4.17,0,0,1-1.72.25A1.39,1.39,0,0,1,277.51,161.28Z"/></clipPath><clipPath id="clip-path-44" transform="translate(-80.06 -20)"><path class="cls-1" d="M275.58,159.17l1.5,1.42a.78.78,0,0,0-.38-.19L275.2,159A.78.78,0,0,1,275.58,159.17Z"/></clipPath><clipPath id="clip-path-45" transform="translate(-80.06 -20)"><path class="cls-1" d="M275.57,163.32l-1.5-1.42a2.46,2.46,0,0,1-.63-1,1.24,1.24,0,0,1,.1-.92l1.5,1.42a1.24,1.24,0,0,0-.1.92A2.46,2.46,0,0,0,275.57,163.32Z"/></clipPath><clipPath id="clip-path-46" transform="translate(-80.06 -20)"><path class="cls-1" d="M275,161.38l-1.5-1.42a1.85,1.85,0,0,1,.74-.79,1.76,1.76,0,0,1,.3-.14,1.21,1.21,0,0,1,.63-.06l1.5,1.42a1.21,1.21,0,0,0-.63.06,1.76,1.76,0,0,0-.3.14A1.85,1.85,0,0,0,275,161.38Z"/></clipPath><clipPath id="clip-path-47" transform="translate(-80.06 -20)"><path class="cls-1" d="M282.62,154.42l1.5,1.42a2.54,2.54,0,0,0-.39-.3q-1.39-.9-3.94-.07l-1.5-1.42q2.55-.82,3.94.07A2.54,2.54,0,0,1,282.62,154.42Z"/></clipPath><clipPath id="clip-path-48" transform="translate(-80.06 -20)"><path class="cls-1" d="M282.47,152.7l-1.5-1.42a.81.81,0,0,1-.2-.33.87.87,0,0,0-.23-.36L282,152a.87.87,0,0,1,.23.36A.81.81,0,0,0,282.47,152.7Z"/></clipPath><clipPath id="clip-path-49" transform="translate(-80.06 -20)"><path class="cls-1" d="M277.41,155.45l-1.5-1.42.14.11a2.7,2.7,0,0,0,2.19-.08l1.5,1.42a2.7,2.7,0,0,1-2.19.08Z"/></clipPath><clipPath id="clip-path-50" transform="translate(-80.06 -20)"><path class="cls-1" d="M282.49,148.55,284,150a2.8,2.8,0,0,0-1.49-.69,6.25,6.25,0,0,0-3.06.35l-.07,0-1.5-1.42.07,0a6.25,6.25,0,0,1,3.06-.35A2.8,2.8,0,0,1,282.49,148.55Z"/></clipPath><clipPath id="clip-path-51" transform="translate(-80.06 -20)"><path class="cls-1" d="M275.44,157.46l-1.5-1.42a2.48,2.48,0,0,1-.74-2,5.74,5.74,0,0,1,1.4-3.51,7.15,7.15,0,0,1,3.26-2.34l1.5,1.42a7.15,7.15,0,0,0-3.26,2.34,5.74,5.74,0,0,0-1.4,3.51A2.48,2.48,0,0,0,275.44,157.46Z"/></clipPath><clipPath id="clip-path-52" transform="translate(-80.06 -20)"><path class="cls-1" d="M266.38,167.84l-1.5-1.42a.83.83,0,0,1-.24-.6l1.5,1.42A.83.83,0,0,0,266.38,167.84Z"/></clipPath><clipPath id="clip-path-53" transform="translate(-80.06 -20)"><path class="cls-1" d="M270.83,151.1l1.5,1.42-.14-.1a1,1,0,0,0-.88,0l-1.5-1.42a1,1,0,0,1,.88,0Z"/></clipPath><clipPath id="clip-path-54" transform="translate(-80.06 -20)"><path class="cls-1" d="M261.7,157.48l-1.5-1.42a.81.81,0,0,1-.24-.58l1.5,1.42A.81.81,0,0,0,261.7,157.48Z"/></clipPath><clipPath id="clip-path-55" transform="translate(-80.06 -20)"><path class="cls-1" d="M261.47,156.9l-1.5-1.42a1.47,1.47,0,0,1,.33-.94l1.5,1.42A1.47,1.47,0,0,0,261.47,156.9Z"/></clipPath><clipPath id="clip-path-56" transform="translate(-80.06 -20)"><path class="cls-1" d="M261.8,156l-1.5-1.42a1.74,1.74,0,0,1,.83-.63l1.5,1.42A1.74,1.74,0,0,0,261.8,156Z"/></clipPath></defs><title>requests</title><polygon class="cls-3" points="1.5 101.37 150.35 50.27 235.46 148.58 87.04 200.19 1.5 101.37"/><polygon class="cls-4" points="235.46 100.32 86.61 151.42 1.5 53.1 149.93 1.5 235.46 100.32"/><polygon class="cls-5" points="1.5 53.38 86.61 151.7 235.46 100.6 235.46 148.86 87.04 200.47 1.5 101.65 1.5 53.38"/><g class="cls-2"><g class="cls-2"><g class="cls-6"><g class="cls-2"><path d="M185,195.61l-1.5-1.42a.9.9,0,0,1-.13-.16l1.5,1.42a.9.9,0,0,0,.13.16" transform="translate(-80.06 -20)"/></g></g></g><g class="cls-2"><g class="cls-7"><g class="cls-2"><path d="M177.83,197.94l-1.5-1.42a.8.8,0,0,1-.24-.6l1.5,1.42a.8.8,0,0,0,.24.6" transform="translate(-80.06 -20)"/></g></g></g><polygon points="104.85 175.45 103.36 174.04 100.44 169.68 101.94 171.1 104.85 175.45"/><g class="cls-2"><g class="cls-8"><g class="cls-2"><path d="M183,188.42l-1.5-1.42.32-.14,1.5,1.42-.32.14" transform="translate(-80.06 -20)"/><path d="M183.31,188.28l-1.5-1.42.28-.15,1.5,1.42-.28.15" transform="translate(-80.06 -20)"/><path d="M183.59,188.12l-1.5-1.42.21-.14,1.5,1.42-.21.14" transform="translate(-80.06 -20)"/><path d="M183.8,188l-1.5-1.42.17-.13,1.5,1.42-.17.13" transform="translate(-80.06 -20)"/><path d="M184,187.86l-1.5-1.42.15-.13,1.5,1.42-.15.13" transform="translate(-80.06 -20)"/><path d="M184.12,187.73l-1.5-1.42.14-.13,1.5,1.42-.14.13" transform="translate(-80.06 -20)"/><path d="M184.26,187.6l-1.5-1.42.13-.14,1.5,1.42-.13.14" transform="translate(-80.06 -20)"/><path d="M184.39,187.46l-1.5-1.42L183,186l1.5,1.42-.08.09" transform="translate(-80.06 -20)"/></g></g></g><g class="cls-2"><g class="cls-9"><g class="cls-2"><path d="M184.47,187.37,183,186v0l1.5,1.42v0" transform="translate(-80.06 -20)"/><path d="M184.48,187.35l-1.5-1.42.11-.14,1.5,1.42-.11.14" transform="translate(-80.06 -20)"/><path d="M184.59,187.21l-1.5-1.42.1-.14,1.5,1.42-.1.14" transform="translate(-80.06 -20)"/><path d="M184.69,187.07l-1.5-1.42.09-.15,1.5,1.42-.09.15" transform="translate(-80.06 -20)"/><path d="M184.78,186.92l-1.5-1.42.08-.16,1.5,1.42-.08.16" transform="translate(-80.06 -20)"/><path d="M184.86,186.76l-1.5-1.42.08-.19,1.5,1.42-.08.19" transform="translate(-80.06 -20)"/><path d="M184.94,186.57l-1.5-1.42a1.84,1.84,0,0,0,.11-.66,1.12,1.12,0,0,0-.34-.82l1.5,1.42a1.12,1.12,0,0,1,.34.82,1.84,1.84,0,0,1-.11.66" transform="translate(-80.06 -20)"/></g></g></g><polygon points="99.76 169.5 98.26 168.08 101.43 167 102.92 168.42 99.76 169.5"/><g class="cls-2"><g class="cls-10"><g class="cls-2"><path d="M182.73,182.55l-1.5-1.42.44-.13,1.5,1.42-.44.13" transform="translate(-80.06 -20)"/><path d="M183.17,182.42l-1.5-1.42.49-.11,1.5,1.42-.49.11" transform="translate(-80.06 -20)"/><path d="M183.66,182.31l-1.5-1.42a4.35,4.35,0,0,1,1-.06l1.5,1.42a4.35,4.35,0,0,0-1,.06" transform="translate(-80.06 -20)"/><path d="M184.67,182.25l-1.5-1.42a3.54,3.54,0,0,1,.47.06l1.5,1.42a3.54,3.54,0,0,0-.47-.06" transform="translate(-80.06 -20)"/><path d="M185.14,182.31l-1.5-1.42.36.09,1.5,1.42-.36-.09" transform="translate(-80.06 -20)"/><path d="M185.5,182.41,184,181l.32.12,1.5,1.42-.32-.12" transform="translate(-80.06 -20)"/><path d="M185.82,182.53l-1.5-1.42.22.11.09,0,1.5,1.42-.09,0-.22-.11" transform="translate(-80.06 -20)"/><path d="M186.13,182.69l-1.5-1.42.25.16,1.5,1.42-.25-.16" transform="translate(-80.06 -20)"/><path d="M186.38,182.85l-1.5-1.42.21.16,1.5,1.42-.21-.16" transform="translate(-80.06 -20)"/><path d="M186.59,183l-1.5-1.42.08.08,1.5,1.42-.08-.08" transform="translate(-80.06 -20)"/></g></g></g><polygon points="97.52 177.35 96.03 175.94 95.68 164.19 97.18 165.6 97.52 177.35"/><polygon points="98.33 164.04 96.83 162.62 101.17 161.14 102.67 162.56 98.33 164.04"/><g class="cls-2"><g class="cls-11"><g class="cls-2"><path d="M177.24,185.6l-1.5-1.42a1.27,1.27,0,0,1,.07-.48l1.5,1.42a1.27,1.27,0,0,0-.07.48" transform="translate(-80.06 -20)"/><path d="M177.32,185.12l-1.5-1.42.05-.13,1.5,1.42-.05.13" transform="translate(-80.06 -20)"/><path d="M177.37,185l-1.5-1.42.06-.11,1.5,1.42-.06.11" transform="translate(-80.06 -20)"/><path d="M177.43,184.88l-1.5-1.42.06-.1,1.5,1.42-.06.1" transform="translate(-80.06 -20)"/><path d="M177.49,184.78l-1.5-1.42.06-.09,1.5,1.42-.06.09" transform="translate(-80.06 -20)"/><path d="M177.55,184.69l-1.5-1.42,0,0,0-.06,1.5,1.42,0,.06,0,0" transform="translate(-80.06 -20)"/><path d="M177.61,184.6l-1.5-1.42.07-.09,1.5,1.42-.07.09" transform="translate(-80.06 -20)"/><path d="M177.69,184.52l-1.5-1.42.07-.08,1.5,1.42-.07.08" transform="translate(-80.06 -20)"/><path d="M177.76,184.44l-1.5-1.42.08-.07,1.5,1.42-.08.07" transform="translate(-80.06 -20)"/><path d="M177.83,184.37l-1.5-1.42.08-.07,1.5,1.42-.08.07" transform="translate(-80.06 -20)"/><path d="M177.91,184.3l-1.5-1.42.09-.07,1.5,1.42-.09.07" transform="translate(-80.06 -20)"/><path d="M178,184.24l-1.5-1.42.1-.07,1.5,1.42-.1.07" transform="translate(-80.06 -20)"/><path d="M178.1,184.17l-1.5-1.42.13-.07,1.5,1.42-.13.07" transform="translate(-80.06 -20)"/><path d="M178.23,184.1l-1.5-1.42.16-.07,1.5,1.42-.16.07" transform="translate(-80.06 -20)"/></g></g></g><path d="M184.59,190l2.49,3.73a1,1,0,0,1,.07.86,1.73,1.73,0,0,1-.59.88,1.86,1.86,0,0,1-.54.3.86.86,0,0,1-1.11-.28L182,191.1l-2.11.72.14,4.7a1.48,1.48,0,0,1-.33.94,1.84,1.84,0,0,1-.86.63,1.06,1.06,0,0,1-.87,0,.78.78,0,0,1-.38-.7l-.34-11.75a1.47,1.47,0,0,1,.33-.94,1.79,1.79,0,0,1,.82-.63l4.34-1.48a4.06,4.06,0,0,1,3.31.09,2.65,2.65,0,0,1,1.45,2.44,4.77,4.77,0,0,1-.79,2.65A7,7,0,0,1,184.59,190Zm-1.6-1.54a3.53,3.53,0,0,0,1.48-1,2.21,2.21,0,0,0,.57-1.46,1.11,1.11,0,0,0-.68-1.05,2.09,2.09,0,0,0-1.56,0l-3.08,1,.1,3.58,3.17-1.08" transform="translate(-80.06 -20)"/></g><g class="cls-2"><g class="cls-2"><g class="cls-12"><g class="cls-2"><path d="M200.71,188.71l-1.5-1.42.06,0,1.5,1.42-.06,0" transform="translate(-80.06 -20)"/><path d="M200.78,188.75l-1.5-1.42.06,0,1.5,1.42-.06,0" transform="translate(-80.06 -20)"/><path d="M200.84,188.8l-1.5-1.42,0,0,1.5,1.42,0,0" transform="translate(-80.06 -20)"/></g></g></g><g class="cls-2"><g class="cls-13"><g class="cls-2"><path d="M199.84,188.65l-1.5-1.42.09,0,1.5,1.42-.09,0" transform="translate(-80.06 -20)"/><path d="M199.94,188.63l-1.5-1.42.12,0,1.5,1.42-.12,0" transform="translate(-80.06 -20)"/><path d="M200.06,188.6l-1.5-1.42a1.1,1.1,0,0,1,.26,0l1.5,1.42a1.1,1.1,0,0,0-.26,0" transform="translate(-80.06 -20)"/><path d="M200.32,188.58l-1.5-1.42.12,0,1.5,1.42-.12,0" transform="translate(-80.06 -20)"/><path d="M200.43,188.6l-1.5-1.42.09,0,1.5,1.42-.09,0" transform="translate(-80.06 -20)"/><path d="M200.52,188.62l-1.5-1.42.08,0,1.5,1.42-.08,0" transform="translate(-80.06 -20)"/><path d="M200.6,188.65l-1.5-1.42.07,0,1.5,1.42-.07,0" transform="translate(-80.06 -20)"/><path d="M200.68,188.69l-1.5-1.42,0,0,1.5,1.42,0,0" transform="translate(-80.06 -20)"/></g></g></g><polygon points="113.48 170.81 111.98 169.39 118.28 167.24 119.78 168.66 113.48 170.81"/><g class="cls-2"><g class="cls-14"><g class="cls-2"><path d="M191.35,193.4l-1.5-1.42a.8.8,0,0,1-.24-.58l1.5,1.42a.8.8,0,0,0,.24.58" transform="translate(-80.06 -20)"/></g></g></g><g class="cls-2"><g class="cls-15"><g class="cls-2"><path d="M197.91,183.35l-1.5-1.42.12,0,1.5,1.42-.12,0" transform="translate(-80.06 -20)"/><path d="M198,183.32l-1.5-1.42.11,0,1.5,1.42-.11,0" transform="translate(-80.06 -20)"/><path d="M198.15,183.29l-1.5-1.42.25,0,1.5,1.42-.25,0" transform="translate(-80.06 -20)"/><path d="M198.4,183.28l-1.5-1.42.12,0,1.5,1.42-.12,0" transform="translate(-80.06 -20)"/><path d="M198.52,183.29l-1.5-1.42.1,0,1.5,1.42-.1,0" transform="translate(-80.06 -20)"/><path d="M198.62,183.32l-1.5-1.42.08,0,1.5,1.42-.08,0" transform="translate(-80.06 -20)"/><path d="M198.7,183.35l-1.5-1.42.08,0,1.5,1.42-.08,0" transform="translate(-80.06 -20)"/><path d="M198.78,183.39l-1.5-1.42h0l.06,0,1.5,1.42-.06,0h0" transform="translate(-80.06 -20)"/><path d="M198.85,183.43l-1.5-1.42.06,0,1.5,1.42-.06,0" transform="translate(-80.06 -20)"/><path d="M198.91,183.48l-1.5-1.42,0,0,1.5,1.42,0,0" transform="translate(-80.06 -20)"/></g></g></g><polygon points="113.31 164.9 111.81 163.49 116.35 161.94 117.85 163.36 113.31 164.9"/><g class="cls-2"><g class="cls-16"><g class="cls-2"><path d="M199.5,176.86l-1.5-1.42.12,0,1.5,1.42-.12,0" transform="translate(-80.06 -20)"/><path d="M199.61,176.83l-1.5-1.42.11,0,1.5,1.42-.11,0" transform="translate(-80.06 -20)"/><path d="M199.72,176.8l-1.5-1.42a1.07,1.07,0,0,1,.25,0l1.5,1.42a1.07,1.07,0,0,0-.25,0" transform="translate(-80.06 -20)"/><path d="M200,176.79l-1.5-1.42.12,0,1.5,1.42-.12,0" transform="translate(-80.06 -20)"/><path d="M200.1,176.8l-1.5-1.42.1,0,1.5,1.42-.1,0" transform="translate(-80.06 -20)"/><path d="M200.19,176.83l-1.5-1.42.09,0,1.5,1.42-.09,0" transform="translate(-80.06 -20)"/><path d="M200.28,176.86l-1.5-1.42.07,0,1.5,1.42-.07,0" transform="translate(-80.06 -20)"/><path d="M200.36,176.9l-1.5-1.42h0l0,0,1.5,1.42,0,0h0" transform="translate(-80.06 -20)"/><path d="M200.42,176.94l-1.5-1.42.06,0,1.5,1.42-.06,0" transform="translate(-80.06 -20)"/><path d="M200.49,177l-1.5-1.42,0,0,1.5,1.42,0,0" transform="translate(-80.06 -20)"/></g></g></g><polygon points="111.05 172.82 109.55 171.41 109.2 159.59 110.7 161 111.05 172.82"/><polygon points="111.89 159.41 110.4 158 117.94 155.45 119.43 156.87 111.89 159.41"/><g class="cls-2"><g class="cls-17"><g class="cls-2"><path d="M190.76,181l-1.5-1.42a1.35,1.35,0,0,1,.08-.47l1.5,1.42a1.35,1.35,0,0,0-.08.47" transform="translate(-80.06 -20)"/><path d="M190.84,180.52l-1.5-1.42.05-.13,1.5,1.42-.05.13" transform="translate(-80.06 -20)"/><path d="M190.89,180.39,189.4,179l.06-.11,1.5,1.42-.06.11" transform="translate(-80.06 -20)"/><path d="M191,180.28l-1.5-1.42.06-.1,1.5,1.42-.06.1" transform="translate(-80.06 -20)"/><path d="M191,180.18l-1.5-1.42.07-.1,1.5,1.42-.07.1" transform="translate(-80.06 -20)"/><path d="M191.08,180.08l-1.5-1.42,0,0,0-.06,1.5,1.42,0,.06,0,0" transform="translate(-80.06 -20)"/><path d="M191.15,180l-1.5-1.42.07-.08,1.5,1.42-.07.08" transform="translate(-80.06 -20)"/><path d="M191.22,179.9l-1.5-1.42.07-.08,1.5,1.42-.07.08" transform="translate(-80.06 -20)"/><path d="M191.29,179.83l-1.5-1.42.07-.07,1.5,1.42-.07.07" transform="translate(-80.06 -20)"/><path d="M191.37,179.76l-1.5-1.42.08-.07,1.5,1.42-.08.07" transform="translate(-80.06 -20)"/><path d="M191.44,179.69l-1.5-1.42.09-.07,1.5,1.42-.09.07" transform="translate(-80.06 -20)"/><path d="M191.53,179.63l-1.5-1.42.1-.07,1.5,1.42-.1.07" transform="translate(-80.06 -20)"/><path d="M191.63,179.56l-1.5-1.42.14-.07,1.5,1.42-.14.07" transform="translate(-80.06 -20)"/><path d="M191.77,179.49l-1.5-1.42.19-.08,1.5,1.42-.19.08" transform="translate(-80.06 -20)"/></g></g></g><path d="M192,179.41l7.54-2.55a1,1,0,0,1,.88,0,.81.81,0,0,1,.38.7,1.51,1.51,0,0,1-.34.94,1.8,1.8,0,0,1-.85.64l-6.3,2.13.11,3.57,4.54-1.54a1,1,0,0,1,.88,0,.79.79,0,0,1,.39.7,1.49,1.49,0,0,1-.34,1,1.81,1.81,0,0,1-.86.63l-4.54,1.54.1,3.58,6.3-2.15a1,1,0,0,1,.87.06.79.79,0,0,1,.39.7,1.51,1.51,0,0,1-.34.94,1.8,1.8,0,0,1-.85.64l-7.54,2.57a1,1,0,0,1-.87-.05.78.78,0,0,1-.39-.69L190.76,181a1.51,1.51,0,0,1,.34-1A1.8,1.8,0,0,1,192,179.41Z" transform="translate(-80.06 -20)"/></g><g class="cls-2"><g class="cls-2"><g class="cls-18"><g class="cls-2"><polyline points="138.09 162.78 136.59 161.37 136.6 161.37 138.1 162.79 138.09 162.78"/><path d="M218.16,182.78l-1.5-1.42.07,0,1.5,1.42-.07,0" transform="translate(-80.06 -20)"/><path d="M218.23,182.83l-1.5-1.42.06,0,1.5,1.42-.06,0" transform="translate(-80.06 -20)"/><path d="M218.29,182.88l-1.5-1.42,0,0,1.5,1.42,0,0" transform="translate(-80.06 -20)"/></g></g></g><polygon points="136.89 162.06 135.39 160.65 136.59 161.37 138.09 162.78 136.89 162.06"/><polygon points="134.21 160.47 132.72 159.06 133.56 159.57 135.05 160.99 134.21 160.47"/><g class="cls-2"><g class="cls-19"><g class="cls-2"><path d="M206.64,184.31l-1.5-1.42.1.09,1.5,1.42-.1-.09" transform="translate(-80.06 -20)"/><path d="M206.74,184.4l-1.5-1.42.25.19,1.5,1.42-.25-.19" transform="translate(-80.06 -20)"/><path d="M207,184.59l-1.5-1.42.24.16.05,0,1.5,1.42-.05,0-.24-.16" transform="translate(-80.06 -20)"/><path d="M207.28,184.78l-1.5-1.42.32.16,1.5,1.42-.32-.16" transform="translate(-80.06 -20)"/><path d="M207.6,184.94l-1.5-1.42.34.13,1.5,1.42-.34-.13" transform="translate(-80.06 -20)"/><path d="M207.94,185.07l-1.5-1.42.39.1,1.5,1.42-.39-.1" transform="translate(-80.06 -20)"/><path d="M208.33,185.17l-1.5-1.42a3.74,3.74,0,0,0,.5.06l1.5,1.42a3.74,3.74,0,0,1-.5-.06" transform="translate(-80.06 -20)"/><path d="M208.83,185.24l-1.5-1.42a4.51,4.51,0,0,0,1.06-.07l1.5,1.42a4.51,4.51,0,0,1-1.06.07" transform="translate(-80.06 -20)"/><path d="M209.89,185.17l-1.5-1.42.48-.11,1.5,1.42-.48.11" transform="translate(-80.06 -20)"/><path d="M210.37,185.06l-1.5-1.42.43-.13,0,0a6.69,6.69,0,0,0,.72-.3l1.5,1.42a6.69,6.69,0,0,1-.72.3l0,0-.43.13" transform="translate(-80.06 -20)"/><path d="M211.57,184.62l-1.5-1.42q.28-.14.55-.3l1.5,1.42q-.27.16-.55.3" transform="translate(-80.06 -20)"/><path d="M212.12,184.31l-1.5-1.42.43-.28,1.5,1.42-.43.28" transform="translate(-80.06 -20)"/><path d="M212.55,184l-1.5-1.42.37-.28,1.5,1.42-.37.28" transform="translate(-80.06 -20)"/><path d="M212.92,183.75l-1.5-1.42.34-.29,1.5,1.42-.34.29" transform="translate(-80.06 -20)"/><path d="M213.27,183.46l-1.5-1.42.22-.21,1.5,1.42-.22.21" transform="translate(-80.06 -20)"/></g></g></g><g class="cls-2"><g class="cls-20"><g class="cls-2"><path d="M212.44,182.6l-1.5-1.42a.81.81,0,0,1-.24-.58l1.5,1.42a.81.81,0,0,0,.24.58" transform="translate(-80.06 -20)"/></g></g></g><g class="cls-2"><g class="cls-21"><g class="cls-2"><path d="M213.39,180.43,211.9,179l.1,0,1.5,1.42-.1,0" transform="translate(-80.06 -20)"/><path d="M213.49,180.4,212,179l.13,0,1.5,1.42-.13,0" transform="translate(-80.06 -20)"/><path d="M213.62,180.37l-1.5-1.42a1.15,1.15,0,0,1,.27,0l1.5,1.42a1.15,1.15,0,0,0-.27,0" transform="translate(-80.06 -20)"/><path d="M213.89,180.36l-1.5-1.42.12,0,1.5,1.42-.12,0" transform="translate(-80.06 -20)"/><path d="M214,180.37l-1.5-1.42.09,0,1.5,1.42-.09,0" transform="translate(-80.06 -20)"/><path d="M214.11,180.4l-1.5-1.42.08,0,1.5,1.42-.08,0" transform="translate(-80.06 -20)"/><path d="M214.19,180.43l-1.5-1.42.08,0,1.5,1.42-.08,0" transform="translate(-80.06 -20)"/><polyline points="134.2 160.47 132.71 159.05 132.72 159.06 134.21 160.47 134.2 160.47"/></g></g></g><g class="cls-2"><g class="cls-22"><g class="cls-2"><path d="M212.2,182l-1.5-1.42a1.4,1.4,0,0,1,.08-.49l1.5,1.42a1.4,1.4,0,0,0-.08.49" transform="translate(-80.06 -20)"/><path d="M212.28,181.53l-1.5-1.42.06-.14,1.5,1.42-.06.14" transform="translate(-80.06 -20)"/><path d="M212.34,181.39l-1.5-1.42.06-.11,1.5,1.42-.06.11" transform="translate(-80.06 -20)"/><path d="M212.4,181.28l-1.5-1.42.06-.1,1.5,1.42-.06.1" transform="translate(-80.06 -20)"/><path d="M212.46,181.18l-1.5-1.42.07-.1,1.5,1.42-.07.1" transform="translate(-80.06 -20)"/><path d="M212.52,181.08l-1.5-1.42h0l1.5,1.42h0" transform="translate(-80.06 -20)"/></g></g></g><g class="cls-2"><g class="cls-23"><g class="cls-2"><path d="M212.53,181.06l-1.5-1.42,0,0,1.5,1.42,0,0" transform="translate(-80.06 -20)"/><path d="M212.56,181l-1.5-1.42.07-.08,1.5,1.42-.07.08" transform="translate(-80.06 -20)"/><path d="M212.63,180.94l-1.5-1.42.07-.08,1.5,1.42-.07.08" transform="translate(-80.06 -20)"/><path d="M212.71,180.87l-1.5-1.42.08-.07,1.5,1.42-.08.07" transform="translate(-80.06 -20)"/><path d="M212.78,180.79l-1.5-1.42.08-.07,1.5,1.42-.08.07" transform="translate(-80.06 -20)"/><path d="M212.86,180.73l-1.5-1.42.09-.07,1.5,1.42-.09.07" transform="translate(-80.06 -20)"/><path d="M213,180.66l-1.5-1.42.11-.07,1.5,1.42-.11.07" transform="translate(-80.06 -20)"/><path d="M213.06,180.59l-1.5-1.42.14-.08,1.5,1.42-.14.08" transform="translate(-80.06 -20)"/><path d="M213.21,180.51l-1.5-1.42.19-.08,1.5,1.42-.19.08" transform="translate(-80.06 -20)"/></g></g></g><g class="cls-2"><g class="cls-24"><g class="cls-2"><path d="M215.12,181l-1.5-1.42q.14-.3.24-.59l1.5,1.42q-.1.29-.24.59" transform="translate(-80.06 -20)"/><path d="M215.36,180.39l-1.5-1.42a5.23,5.23,0,0,0,.32-1.91,3.29,3.29,0,0,0-1-2.41l1.5,1.42a3.29,3.29,0,0,1,1,2.41,5.23,5.23,0,0,1-.32,1.91" transform="translate(-80.06 -20)"/></g></g></g><path d="M218.15,182.78a.74.74,0,0,1,.39.69,1.4,1.4,0,0,1-.34.94,1.73,1.73,0,0,1-.85.65,1.05,1.05,0,0,1-.89-.05l-1.15-.68a10.79,10.79,0,0,1-4.36,2.91l-.08,0a6.23,6.23,0,0,1-5.34-.27,4.77,4.77,0,0,1-2.33-4.25,9,9,0,0,1,2-5.75,10.88,10.88,0,0,1,5.12-3.83l.1,0a6.18,6.18,0,0,1,5.34.27,4.75,4.75,0,0,1,2.33,4.25,8.5,8.5,0,0,1-1.18,4.41Zm-3-1.79a5.55,5.55,0,0,0,.56-2.5,3.18,3.18,0,0,0-1.57-2.85,4.13,4.13,0,0,0-3.58-.18l-.07,0A7.26,7.26,0,0,0,207,178a6.06,6.06,0,0,0-1.37,3.86,3.2,3.2,0,0,0,1.57,2.85,4.15,4.15,0,0,0,3.58.18l0,0a7.2,7.2,0,0,0,2.64-1.66l-.91-.54a.77.77,0,0,1-.38-.69,1.54,1.54,0,0,1,.33-1,1.86,1.86,0,0,1,.86-.63,1,1,0,0,1,.88,0l.84.51" transform="translate(-80.06 -20)"/><g class="cls-2"><g class="cls-25"><g class="cls-2"><path d="M204.66,186.33l-1.5-1.42a4.94,4.94,0,0,1-1.46-3.6,8,8,0,0,1,.46-2.89l1.5,1.42a8,8,0,0,0-.46,2.89,4.94,4.94,0,0,0,1.46,3.6" transform="translate(-80.06 -20)"/><path d="M203.67,179.84l-1.5-1.42q.14-.4.33-.8L204,179q-.19.4-.33.8" transform="translate(-80.06 -20)"/><path d="M204,179l-1.5-1.42q.15-.33.34-.66l1.5,1.42q-.18.33-.34.66" transform="translate(-80.06 -20)"/><path d="M204.33,178.38l-1.5-1.42q.17-.3.36-.6l1.5,1.42q-.19.3-.36.6" transform="translate(-80.06 -20)"/><path d="M204.69,177.78l-1.5-1.42q.19-.29.4-.58l1.5,1.42q-.21.29-.4.58" transform="translate(-80.06 -20)"/><path d="M205.09,177.2l-1.5-1.42.16-.21.26-.33,1.5,1.42-.26.33-.16.21" transform="translate(-80.06 -20)"/><path d="M205.51,176.66l-1.5-1.42.43-.51,1.5,1.42-.43.51" transform="translate(-80.06 -20)"/><path d="M205.94,176.15l-1.5-1.42.43-.46,1.5,1.42-.43.46" transform="translate(-80.06 -20)"/><path d="M206.37,175.69l-1.5-1.42.44-.42,1.5,1.42-.44.42" transform="translate(-80.06 -20)"/><path d="M206.82,175.27l-1.5-1.42.47-.4,1.5,1.42-.47.4" transform="translate(-80.06 -20)"/><path d="M207.29,174.87l-1.5-1.42.52-.39,1.5,1.42-.52.39" transform="translate(-80.06 -20)"/><path d="M207.81,174.47l-1.5-1.42q.3-.21.62-.41l1.5,1.42q-.32.19-.62.41" transform="translate(-80.06 -20)"/><path d="M208.43,174.07l-1.5-1.42q.4-.24.82-.45l1.5,1.42q-.42.21-.82.45" transform="translate(-80.06 -20)"/><path d="M209.25,173.62l-1.5-1.42a10.31,10.31,0,0,1,1.11-.46l.1,0,.67-.2,1.5,1.42-.67.2-.1,0a10.31,10.31,0,0,0-1.11.46" transform="translate(-80.06 -20)"/><path d="M211.13,172.92l-1.5-1.42q.36-.09.7-.15l1.5,1.42q-.34.06-.7.15" transform="translate(-80.06 -20)"/><path d="M211.83,172.76l-1.5-1.42a6.67,6.67,0,0,1,1.57-.1l1.5,1.42a6.67,6.67,0,0,0-1.57.1" transform="translate(-80.06 -20)"/><path d="M213.41,172.67l-1.5-1.42a5.57,5.57,0,0,1,.74.1l1.5,1.42a5.57,5.57,0,0,0-.74-.1" transform="translate(-80.06 -20)"/><path d="M214.15,172.76l-1.5-1.42a5.27,5.27,0,0,1,.58.15l1.5,1.42a5.27,5.27,0,0,0-.58-.15" transform="translate(-80.06 -20)"/><path d="M214.73,172.92l-1.5-1.42a5.22,5.22,0,0,1,.51.2l1.5,1.42a5.22,5.22,0,0,0-.51-.2" transform="translate(-80.06 -20)"/><path d="M215.24,173.11l-1.5-1.42a5.34,5.34,0,0,1,.48.24l1.5,1.42a5.34,5.34,0,0,0-.48-.24" transform="translate(-80.06 -20)"/><path d="M215.72,173.35l-1.5-1.42.07,0,.36.23,1.5,1.42-.36-.23-.07,0" transform="translate(-80.06 -20)"/><path d="M216.16,173.63l-1.5-1.42.37.29,1.5,1.42-.37-.29" transform="translate(-80.06 -20)"/><path d="M216.53,173.92,215,172.5l.15.13,1.5,1.42-.15-.13" transform="translate(-80.06 -20)"/></g></g></g></g><g class="cls-2"><g class="cls-2"><g class="cls-26"><g class="cls-2"><path d="M224.86,179l-1.5-1.42.06.05,1.5,1.42-.06-.05" transform="translate(-80.06 -20)"/><path d="M224.91,179l-1.5-1.42.14.11,1.5,1.42-.14-.11" transform="translate(-80.06 -20)"/><path d="M225.05,179.14l-1.5-1.42.16.1,0,0,1.5,1.42,0,0-.16-.1" transform="translate(-80.06 -20)"/><path d="M225.25,179.27l-1.5-1.42.19.09,1.5,1.42-.19-.09" transform="translate(-80.06 -20)"/><path d="M225.43,179.36l-1.5-1.42.2.08,1.5,1.42-.2-.08" transform="translate(-80.06 -20)"/><path d="M225.63,179.43l-1.5-1.42.22.06,1.5,1.42-.22-.06" transform="translate(-80.06 -20)"/><path d="M225.86,179.49l-1.5-1.42.29,0,1.5,1.42-.29,0" transform="translate(-80.06 -20)"/><path d="M226.14,179.53l-1.5-1.42a2.61,2.61,0,0,0,.62,0l1.5,1.42a2.61,2.61,0,0,1-.62,0" transform="translate(-80.06 -20)"/><path d="M226.76,179.49l-1.5-1.42.28-.06,1.5,1.42-.28.06" transform="translate(-80.06 -20)"/><path d="M227,179.43l-1.5-1.42.26-.08a4.27,4.27,0,0,0,.46-.19l1.5,1.42a4.27,4.27,0,0,1-.46.19l-.26.08" transform="translate(-80.06 -20)"/><path d="M227.75,179.16l-1.5-1.42.33-.18,1.5,1.42-.33.18" transform="translate(-80.06 -20)"/><path d="M228.08,179l-1.5-1.42.24-.16,1.5,1.42-.24.16" transform="translate(-80.06 -20)"/><path d="M228.32,178.83l-1.5-1.42.2-.15,1.5,1.42-.2.15" transform="translate(-80.06 -20)"/><path d="M228.52,178.67l-1.5-1.42.18-.15,1.5,1.42-.18.15" transform="translate(-80.06 -20)"/><path d="M228.7,178.52l-1.5-1.42.17-.16,1.5,1.42-.17.16" transform="translate(-80.06 -20)"/><path d="M228.87,178.36l-1.5-1.42.17-.17,1.5,1.42-.17.17" transform="translate(-80.06 -20)"/><path d="M229,178.18l-1.5-1.42.17-.2,1.5,1.42-.17.2" transform="translate(-80.06 -20)"/><path d="M229.21,178l-1.5-1.42.11-.14.06-.08,1.5,1.42-.06.08-.11.14" transform="translate(-80.06 -20)"/><path d="M229.37,177.77l-1.5-1.42.16-.23,1.5,1.42-.16.23" transform="translate(-80.06 -20)"/><path d="M229.53,177.54l-1.5-1.42.14-.24,1.5,1.42-.14.24" transform="translate(-80.06 -20)"/><path d="M229.67,177.3l-1.5-1.42.13-.26,1.5,1.42-.13.26" transform="translate(-80.06 -20)"/><path d="M229.8,177l-1.5-1.42q.07-.16.13-.32l1.5,1.42q-.06.16-.13.32" transform="translate(-80.06 -20)"/><path d="M229.93,176.73l-1.5-1.42a3.09,3.09,0,0,0,.18-1.13l1.5,1.42a3.09,3.09,0,0,1-.18,1.13" transform="translate(-80.06 -20)"/></g></g></g><g class="cls-2"><g class="cls-27"><g class="cls-2"><path d="M222.92,181l-1.5-1.42a3.5,3.5,0,0,1-1-2.56l1.5,1.42a3.5,3.5,0,0,0,1,2.56" transform="translate(-80.06 -20)"/></g></g></g><polygon points="150.05 155.6 148.56 154.19 148.32 146.25 149.82 147.66 150.05 155.6"/><g class="cls-2"><g class="cls-28"><g class="cls-2"><path d="M231.05,166.1l-1.5-1.42.09,0,1.5,1.42-.09,0" transform="translate(-80.06 -20)"/><path d="M231.15,166.07l-1.5-1.42.12,0,1.5,1.42-.12,0" transform="translate(-80.06 -20)"/><path d="M231.27,166l-1.5-1.42a1.11,1.11,0,0,1,.26,0l1.5,1.42a1.11,1.11,0,0,0-.26,0" transform="translate(-80.06 -20)"/><path d="M231.53,166l-1.5-1.42.12,0,1.5,1.42-.12,0" transform="translate(-80.06 -20)"/><path d="M231.65,166l-1.5-1.42.09,0,1.5,1.42-.09,0" transform="translate(-80.06 -20)"/><path d="M231.74,166.07l-1.5-1.42.08,0,1.5,1.42-.08,0" transform="translate(-80.06 -20)"/><path d="M231.83,166.1l-1.5-1.42.08,0,1.5,1.42-.08,0" transform="translate(-80.06 -20)"/><path d="M231.91,166.14l-1.5-1.42h0l.06,0,1.5,1.42-.06,0h0" transform="translate(-80.06 -20)"/><path d="M232,166.19l-1.5-1.42.06,0,1.5,1.42-.06,0" transform="translate(-80.06 -20)"/><path d="M232,166.23l-1.5-1.42,0,0,1.5,1.42,0,0" transform="translate(-80.06 -20)"/></g></g></g><g class="cls-2"><g class="cls-29"><g class="cls-2"><path d="M229.88,167.66l-1.5-1.42a1.24,1.24,0,0,1,.07-.47l1.5,1.42a1.24,1.24,0,0,0-.07.47" transform="translate(-80.06 -20)"/><path d="M230,167.19l-1.5-1.42.05-.13,1.5,1.42-.05.13" transform="translate(-80.06 -20)"/><path d="M230,167.06l-1.5-1.42.06-.11,1.5,1.42-.06.11" transform="translate(-80.06 -20)"/><path d="M230.07,166.95l-1.5-1.42.06-.1,1.5,1.42-.06.1" transform="translate(-80.06 -20)"/><path d="M230.13,166.85l-1.5-1.42.07-.1,1.5,1.42-.07.1" transform="translate(-80.06 -20)"/><path d="M230.2,166.74l-1.5-1.42v0l1.5,1.42v0" transform="translate(-80.06 -20)"/></g></g></g><g class="cls-2"><g class="cls-30"><g class="cls-2"><path d="M230.21,166.73l-1.5-1.42,0,0,1.5,1.42,0,0" transform="translate(-80.06 -20)"/><path d="M230.24,166.69l-1.5-1.42.08-.09,1.5,1.42-.08.09" transform="translate(-80.06 -20)"/><path d="M230.31,166.6l-1.5-1.42.07-.08,1.5,1.42-.07.08" transform="translate(-80.06 -20)"/><path d="M230.39,166.52l-1.5-1.42L229,165l1.5,1.42-.08.07" transform="translate(-80.06 -20)"/><path d="M230.46,166.45,229,165,229,165l1.5,1.42-.08.07" transform="translate(-80.06 -20)"/><path d="M230.54,166.38,229,165l.09-.07,1.5,1.42-.09.07" transform="translate(-80.06 -20)"/><path d="M230.63,166.32l-1.5-1.42.1-.07,1.5,1.42-.1.07" transform="translate(-80.06 -20)"/><path d="M230.73,166.25l-1.5-1.42.14-.07,1.5,1.42-.14.07" transform="translate(-80.06 -20)"/><path d="M230.87,166.18l-1.5-1.42.19-.08,1.5,1.42-.19.08" transform="translate(-80.06 -20)"/></g></g></g><polygon points="141.82 158.41 140.32 157 140.09 149.05 141.59 150.47 141.82 158.41"/><g class="cls-2"><g class="cls-31"><g class="cls-2"><path d="M222.79,168.92l-1.5-1.42.14,0,1.5,1.42-.14,0" transform="translate(-80.06 -20)"/><path d="M222.93,168.88l-1.5-1.42.13,0,1.5,1.42-.13,0" transform="translate(-80.06 -20)"/><path d="M223.06,168.85l-1.5-1.42a1.11,1.11,0,0,1,.26,0l1.5,1.42a1.11,1.11,0,0,0-.26,0" transform="translate(-80.06 -20)"/><path d="M223.31,168.84l-1.5-1.42.12,0,1.5,1.42-.12,0" transform="translate(-80.06 -20)"/><path d="M223.43,168.85l-1.5-1.42.09,0,1.5,1.42-.09,0" transform="translate(-80.06 -20)"/><path d="M223.52,168.88l-1.5-1.42.08,0,1.5,1.42-.08,0" transform="translate(-80.06 -20)"/><path d="M223.61,168.91l-1.5-1.42.07,0,1.5,1.42-.07,0" transform="translate(-80.06 -20)"/><path d="M223.67,168.94l-1.5-1.42h0l0,0,1.5,1.42,0,0h0" transform="translate(-80.06 -20)"/><path d="M223.74,169l-1.5-1.42.06,0,1.5,1.42-.06,0" transform="translate(-80.06 -20)"/><path d="M223.8,169l-1.5-1.42,0,0,1.5,1.42,0,0" transform="translate(-80.06 -20)"/></g></g></g><g class="cls-2"><g class="cls-32"><g class="cls-2"><path d="M221.65,170.46l-1.5-1.42a1.33,1.33,0,0,1,.08-.47l1.5,1.42a1.33,1.33,0,0,0-.08.47" transform="translate(-80.06 -20)"/><path d="M221.72,170l-1.5-1.42.05-.13,1.5,1.42-.05.13" transform="translate(-80.06 -20)"/><path d="M221.78,169.87l-1.5-1.42.05-.11,1.5,1.42-.05.11" transform="translate(-80.06 -20)"/><path d="M221.83,169.76l-1.5-1.42.06-.1,1.5,1.42-.06.1" transform="translate(-80.06 -20)"/><path d="M221.89,169.66l-1.5-1.42.06-.09,1.5,1.42-.06.09" transform="translate(-80.06 -20)"/><path d="M222,169.57l-1.5-1.42,0,0,0-.05,1.5,1.42,0,.05,0,0" transform="translate(-80.06 -20)"/><path d="M222,169.48l-1.5-1.42.07-.08,1.5,1.42-.07.08" transform="translate(-80.06 -20)"/><path d="M222.09,169.4l-1.5-1.42.07-.07,1.5,1.42-.07.07" transform="translate(-80.06 -20)"/><path d="M222.16,169.33l-1.5-1.42.07-.07,1.5,1.42-.07.07" transform="translate(-80.06 -20)"/><path d="M222.23,169.26l-1.5-1.42.08-.06,1.5,1.42-.08.06" transform="translate(-80.06 -20)"/><path d="M222.31,169.19l-1.5-1.42.08-.06,1.5,1.42-.08.06" transform="translate(-80.06 -20)"/><path d="M222.39,169.13l-1.5-1.42.1-.06,1.5,1.42-.1.06" transform="translate(-80.06 -20)"/><path d="M222.49,169.07l-1.5-1.42.13-.07,1.5,1.42-.13.07" transform="translate(-80.06 -20)"/><path d="M222.62,169l-1.5-1.42.17-.07,1.5,1.42-.17.07" transform="translate(-80.06 -20)"/></g></g></g><path d="M222.79,168.92a1,1,0,0,1,.89,0,.79.79,0,0,1,.37.69l.23,7.94a1.83,1.83,0,0,0,.91,1.66,2.4,2.4,0,0,0,2.08.11,4.23,4.23,0,0,0,2-1.51,3.53,3.53,0,0,0,.8-2.24l-.23-7.94a1.47,1.47,0,0,1,.33-.93,1.81,1.81,0,0,1,.84-.63,1,1,0,0,1,.86,0,.78.78,0,0,1,.38.69l.23,7.94a6.4,6.4,0,0,1-1.45,4.1,7.7,7.7,0,0,1-3.65,2.74l-.07,0a4.38,4.38,0,0,1-3.81-.19,3.38,3.38,0,0,1-1.67-3l-.23-7.94a1.49,1.49,0,0,1,.33-.93A1.74,1.74,0,0,1,222.79,168.92Z" transform="translate(-80.06 -20)"/></g><g class="cls-2"><g class="cls-2"><g class="cls-33"><g class="cls-2"><path d="M245.54,173.08l-1.5-1.42.12,0,1.5,1.42-.12,0" transform="translate(-80.06 -20)"/><path d="M245.66,173l-1.5-1.42.11,0,1.5,1.42-.11,0" transform="translate(-80.06 -20)"/><path d="M245.77,173l-1.5-1.42a1.06,1.06,0,0,1,.25,0L246,173a1.06,1.06,0,0,0-.25,0" transform="translate(-80.06 -20)"/><path d="M246,173l-1.5-1.42.12,0,1.5,1.42-.12,0" transform="translate(-80.06 -20)"/><path d="M246.14,173l-1.5-1.42.09,0,1.5,1.42-.09,0" transform="translate(-80.06 -20)"/><path d="M246.23,173l-1.5-1.42.08,0,1.5,1.42-.08,0" transform="translate(-80.06 -20)"/><path d="M246.31,173.08l-1.5-1.42.09,0,1.5,1.42-.09,0" transform="translate(-80.06 -20)"/><path d="M246.4,173.12l-1.5-1.42h0l.06,0,1.5,1.42-.06,0h0" transform="translate(-80.06 -20)"/><path d="M246.48,173.17l-1.5-1.42.06,0,1.5,1.42-.06,0" transform="translate(-80.06 -20)"/><path d="M246.54,173.22l-1.5-1.42,0,0,1.5,1.42,0,0" transform="translate(-80.06 -20)"/></g></g></g><polygon points="159.18 155.23 157.68 153.81 163.98 151.67 165.48 153.09 159.18 155.23"/><g class="cls-2"><g class="cls-34"><g class="cls-2"><path d="M237,177.82l-1.5-1.42a.79.79,0,0,1-.23-.58l1.5,1.42a.79.79,0,0,0,.23.58" transform="translate(-80.06 -20)"/></g></g></g><g class="cls-2"><g class="cls-35"><g class="cls-2"><path d="M243.61,167.77l-1.5-1.42.09,0,1.5,1.42-.09,0" transform="translate(-80.06 -20)"/><path d="M243.7,167.75l-1.5-1.42.13,0,1.5,1.42-.13,0" transform="translate(-80.06 -20)"/><path d="M243.83,167.72l-1.5-1.42a1.15,1.15,0,0,1,.27,0l1.5,1.42a1.15,1.15,0,0,0-.27,0" transform="translate(-80.06 -20)"/><path d="M244.1,167.7l-1.5-1.42.13,0,1.5,1.42-.13,0" transform="translate(-80.06 -20)"/><path d="M244.23,167.72l-1.5-1.42.1,0,1.5,1.42-.1,0" transform="translate(-80.06 -20)"/><path d="M244.33,167.74l-1.5-1.42.09,0,1.5,1.42-.09,0" transform="translate(-80.06 -20)"/><path d="M244.42,167.78l-1.5-1.42.07,0,1.5,1.42-.07,0" transform="translate(-80.06 -20)"/><path d="M244.48,167.81,243,166.4h0l.06,0,1.5,1.42-.06,0h0" transform="translate(-80.06 -20)"/><path d="M244.55,167.86l-1.5-1.42.06,0,1.5,1.42-.06,0" transform="translate(-80.06 -20)"/><path d="M244.61,167.9l-1.5-1.42,0,0,1.5,1.42,0,0" transform="translate(-80.06 -20)"/></g></g></g><polygon points="159.01 149.33 157.51 147.91 162.05 146.36 163.55 147.78 159.01 149.33"/><g class="cls-2"><g class="cls-36"><g class="cls-2"><path d="M245.2,161.28l-1.5-1.42.09,0,1.5,1.42-.09,0" transform="translate(-80.06 -20)"/><path d="M245.29,161.25l-1.5-1.42.12,0,1.5,1.42-.12,0" transform="translate(-80.06 -20)"/><path d="M245.41,161.23l-1.5-1.42a1.13,1.13,0,0,1,.27,0l1.5,1.42a1.13,1.13,0,0,0-.27,0" transform="translate(-80.06 -20)"/><path d="M245.68,161.21l-1.5-1.42.12,0,1.5,1.42-.12,0" transform="translate(-80.06 -20)"/><path d="M245.8,161.23l-1.5-1.42.09,0,1.5,1.42-.09,0" transform="translate(-80.06 -20)"/><path d="M245.89,161.25l-1.5-1.42.08,0,1.5,1.42-.08,0" transform="translate(-80.06 -20)"/><path d="M246,161.28l-1.5-1.42.07,0,1.5,1.42-.07,0" transform="translate(-80.06 -20)"/><path d="M246,161.31l-1.5-1.42,0,0,0,0,1.5,1.42,0,0,0,0" transform="translate(-80.06 -20)"/><path d="M246.12,161.37l-1.5-1.42.06,0,1.5,1.42-.06,0" transform="translate(-80.06 -20)"/><path d="M246.19,161.42l-1.5-1.42,0,0,1.5,1.42,0,0" transform="translate(-80.06 -20)"/></g></g></g><polygon points="156.75 157.24 155.26 155.83 154.91 144.01 156.41 145.43 156.75 157.24"/><polygon points="157.57 143.85 156.07 142.43 163.64 139.87 165.13 141.29 157.57 143.85"/><g class="cls-2"><g class="cls-37"><g class="cls-2"><path d="M236.47,165.42,235,164a1.29,1.29,0,0,1,.07-.48l1.5,1.42a1.29,1.29,0,0,0-.07.48" transform="translate(-80.06 -20)"/><path d="M236.54,164.94l-1.5-1.42.05-.13,1.5,1.42-.05.13" transform="translate(-80.06 -20)"/><path d="M236.6,164.81l-1.5-1.42.05-.1,1.5,1.42-.05.1" transform="translate(-80.06 -20)"/><path d="M236.65,164.71l-1.5-1.42.06-.09,1.5,1.42-.06.09" transform="translate(-80.06 -20)"/><path d="M236.7,164.61l-1.5-1.42.06-.09,1.5,1.42-.06.09" transform="translate(-80.06 -20)"/><path d="M236.76,164.53l-1.5-1.42,0-.05,1.5,1.42,0,.05" transform="translate(-80.06 -20)"/></g></g></g><g class="cls-2"><g class="cls-38"><g class="cls-2"><path d="M236.8,164.47l-1.5-1.42.06-.08,1.5,1.42-.06.08" transform="translate(-80.06 -20)"/><path d="M236.86,164.4l-1.5-1.42.07-.08,1.5,1.42-.07.08" transform="translate(-80.06 -20)"/><path d="M236.93,164.32l-1.5-1.42.07-.07,1.5,1.42-.07.07" transform="translate(-80.06 -20)"/><path d="M237,164.24l-1.5-1.42.07-.07,1.5,1.42-.07.07" transform="translate(-80.06 -20)"/><path d="M237.07,164.18l-1.5-1.42.07-.06,1.5,1.42-.07.06" transform="translate(-80.06 -20)"/><path d="M237.14,164.11l-1.5-1.42.08-.06,1.5,1.42-.08.06" transform="translate(-80.06 -20)"/><path d="M237.23,164.05l-1.5-1.42.1-.06,1.5,1.42-.1.06" transform="translate(-80.06 -20)"/><path d="M237.32,164l-1.5-1.42.13-.07,1.5,1.42-.13.07" transform="translate(-80.06 -20)"/><path d="M237.45,163.92,236,162.5l.18-.07,1.5,1.42-.18.07" transform="translate(-80.06 -20)"/></g></g></g><path d="M237.63,163.84l7.56-2.56a1,1,0,0,1,.88.06.81.81,0,0,1,.38.7,1.51,1.51,0,0,1-.34.94,1.8,1.8,0,0,1-.85.64l-6.3,2.13.11,3.57,4.54-1.55a1.07,1.07,0,0,1,.88,0,.79.79,0,0,1,.39.7,1.48,1.48,0,0,1-.34,1,1.81,1.81,0,0,1-.83.62l-4.57,1.56.1,3.58,6.3-2.14a1,1,0,0,1,.87.05.79.79,0,0,1,.39.7,1.49,1.49,0,0,1-.34.94,1.72,1.72,0,0,1-.82.63L238.08,178a1,1,0,0,1-.88,0,.75.75,0,0,1-.38-.7l-.35-11.82a1.44,1.44,0,0,1,.33-.95A1.72,1.72,0,0,1,237.63,163.84Z" transform="translate(-80.06 -20)"/></g><g class="cls-2"><g class="cls-2"><g class="cls-39"><g class="cls-2"><path d="M252.74,170.32l-1.5-1.42h.05l1.5,1.42h-.05" transform="translate(-80.06 -20)"/><path d="M252.8,170.33l-1.5-1.42a3.6,3.6,0,0,0,.84-.05l1.5,1.42a3.6,3.6,0,0,1-.84.05" transform="translate(-80.06 -20)"/><path d="M253.64,170.27l-1.5-1.42.44-.1,1.5,1.42-.44.1" transform="translate(-80.06 -20)"/><path d="M254.07,170.18l-1.5-1.42.38-.12.43-.18,1.5,1.42-.43.18-.38.12" transform="translate(-80.06 -20)"/><path d="M254.89,169.88l-1.5-1.42.3-.16,1.5,1.42-.3.16" transform="translate(-80.06 -20)"/><path d="M255.19,169.72l-1.5-1.42.21-.14,1.5,1.42-.21.14" transform="translate(-80.06 -20)"/><path d="M255.4,169.58l-1.5-1.42.18-.13,1.5,1.42-.18.13" transform="translate(-80.06 -20)"/><path d="M255.58,169.45l-1.5-1.42.16-.13,1.5,1.42-.16.13" transform="translate(-80.06 -20)"/><path d="M255.73,169.32l-1.5-1.42.14-.14,1.5,1.42-.14.14" transform="translate(-80.06 -20)"/><path d="M255.88,169.18l-1.5-1.42.14-.15L256,169l-.14.15" transform="translate(-80.06 -20)"/><path d="M256,169l-1.5-1.42.1-.12.05-.06,1.5,1.42-.05.06-.1.12" transform="translate(-80.06 -20)"/><path d="M256.17,168.85l-1.5-1.42.13-.17,1.5,1.42-.13.17" transform="translate(-80.06 -20)"/><path d="M256.3,168.68l-1.5-1.42.11-.16,1.5,1.42-.11.16" transform="translate(-80.06 -20)"/><path d="M256.41,168.52l-1.5-1.42.1-.17,1.5,1.42-.1.17" transform="translate(-80.06 -20)"/><path d="M256.51,168.35l-1.5-1.42.09-.18,1.5,1.42-.09.18" transform="translate(-80.06 -20)"/><path d="M256.6,168.17l-1.5-1.42q.05-.11.09-.23l1.5,1.42q0,.11-.09.23" transform="translate(-80.06 -20)"/><path d="M256.7,167.94l-1.5-1.42a2.21,2.21,0,0,0,.13-.7.87.87,0,0,0-.26-.67l1.5,1.42a.87.87,0,0,1,.26.67,2.21,2.21,0,0,1-.13.7" transform="translate(-80.06 -20)"/></g></g></g><g class="cls-2"><g class="cls-40"><g class="cls-2"><path d="M251.92,170l-1.5-1.42,0,0L252,170l0,0" transform="translate(-80.06 -20)"/><path d="M252,170l-1.5-1.42.07.06,1.5,1.42L252,170" transform="translate(-80.06 -20)"/><path d="M252,170.08l-1.5-1.42.09.06,1.5,1.42-.09-.06" transform="translate(-80.06 -20)"/><path d="M252.12,170.14l-1.5-1.42.11.05,1.5,1.42-.11-.05" transform="translate(-80.06 -20)"/><path d="M252.22,170.19l-1.5-1.42.14.05,1.5,1.42-.14-.05" transform="translate(-80.06 -20)"/><path d="M252.36,170.24l-1.5-1.42.19,0,1.5,1.42-.19,0" transform="translate(-80.06 -20)"/><path d="M252.55,170.29l-1.5-1.42.2,0,1.5,1.42-.2,0" transform="translate(-80.06 -20)"/></g></g></g><g class="cls-2"><g class="cls-41"><g class="cls-2"><path d="M250,172l-1.5-1.42a2.47,2.47,0,0,1-.64-1,1.08,1.08,0,0,1,0-.74l1.5,1.42a1.08,1.08,0,0,0,0,.74,2.47,2.47,0,0,0,.64,1" transform="translate(-80.06 -20)"/><path d="M249.37,170.28l-1.5-1.42.06-.16,1.5,1.42-.06.16" transform="translate(-80.06 -20)"/><path d="M249.44,170.12l-1.5-1.42v0l.05-.1,1.5,1.42-.05.1v0" transform="translate(-80.06 -20)"/><path d="M249.5,170l-1.5-1.42.06-.09,1.5,1.42-.06.09" transform="translate(-80.06 -20)"/><path d="M249.56,169.91l-1.5-1.42.06-.08,1.5,1.42-.06.08" transform="translate(-80.06 -20)"/><path d="M249.61,169.82l-1.5-1.42.06-.07,1.5,1.42-.06.07" transform="translate(-80.06 -20)"/><path d="M249.67,169.75l-1.5-1.42.06-.07,1.5,1.42-.06.07" transform="translate(-80.06 -20)"/><path d="M249.73,169.68l-1.5-1.42.06-.07,1.5,1.42-.06.07" transform="translate(-80.06 -20)"/><path d="M249.79,169.61l-1.5-1.42.07-.07,1.5,1.42-.07.07" transform="translate(-80.06 -20)"/><path d="M249.86,169.55l-1.5-1.42.08-.07,1.5,1.42-.08.07" transform="translate(-80.06 -20)"/><path d="M249.94,169.48l-1.5-1.42.09-.07,1.5,1.42-.09.07" transform="translate(-80.06 -20)"/><path d="M250,169.41l-1.5-1.42.12-.08,1.5,1.42-.12.08" transform="translate(-80.06 -20)"/><path d="M250.15,169.33l-1.5-1.42,0,0,.13-.07,1.5,1.42-.13.07,0,0" transform="translate(-80.06 -20)"/><path d="M250.32,169.24l-1.5-1.42.18-.07.1,0,1.5,1.42-.1,0-.18.07" transform="translate(-80.06 -20)"/><path d="M250.6,169.14l-1.5-1.42.11,0,1.5,1.42-.11,0" transform="translate(-80.06 -20)"/><path d="M250.7,169.11l-1.5-1.42a1.08,1.08,0,0,1,.25,0l1.5,1.42a1.08,1.08,0,0,0-.25,0" transform="translate(-80.06 -20)"/><path d="M251,169.1l-1.5-1.42.14,0,1.5,1.42-.14,0" transform="translate(-80.06 -20)"/><path d="M251.09,169.12l-1.5-1.42h0l.1,0,1.5,1.42-.1,0h0" transform="translate(-80.06 -20)"/><path d="M251.2,169.14l-1.5-1.42.08,0,1.5,1.42-.08,0" transform="translate(-80.06 -20)"/><path d="M251.29,169.18l-1.5-1.42.07,0,1.5,1.42-.07,0" transform="translate(-80.06 -20)"/><path d="M251.36,169.21l-1.5-1.42.06,0,1.5,1.42-.06,0" transform="translate(-80.06 -20)"/><path d="M251.42,169.25l-1.5-1.42.05,0,1.5,1.42-.05,0" transform="translate(-80.06 -20)"/><path d="M251.47,169.29l-1.5-1.42,0,0,1.5,1.42,0,0" transform="translate(-80.06 -20)"/></g></g></g><g class="cls-2"><g class="cls-42"><g class="cls-2"><path d="M254.2,164.19l-1.5-1.42.55-.16,1.5,1.42-.55.16" transform="translate(-80.06 -20)"/><path d="M254.75,164l-1.5-1.42q.35-.09.68-.15l1.5,1.42q-.33.06-.68.15" transform="translate(-80.06 -20)"/><path d="M255.43,163.88l-1.5-1.42a5.27,5.27,0,0,1,1.23-.08l1.5,1.42a5.27,5.27,0,0,0-1.23.08" transform="translate(-80.06 -20)"/><path d="M256.66,163.8l-1.5-1.42a3.69,3.69,0,0,1,.49.06l1.5,1.42a3.69,3.69,0,0,0-.49-.06" transform="translate(-80.06 -20)"/><path d="M257.15,163.86l-1.5-1.42.35.09,1.5,1.42-.35-.09" transform="translate(-80.06 -20)"/><path d="M257.5,164l-1.5-1.42.28.11,1.5,1.42-.28-.11" transform="translate(-80.06 -20)"/><path d="M257.78,164.06l-1.5-1.42.24.12,1.5,1.42-.24-.12" transform="translate(-80.06 -20)"/><path d="M258,164.18l-1.5-1.42.12.07.09.06,1.5,1.42-.09-.06-.12-.07" transform="translate(-80.06 -20)"/><path d="M258.24,164.31l-1.5-1.42.2.16,1.5,1.42-.2-.16" transform="translate(-80.06 -20)"/><path d="M258.44,164.47l-1.5-1.42.08.07,1.5,1.42-.08-.07" transform="translate(-80.06 -20)"/></g></g></g><polygon points="174.09 144.21 172.59 142.8 172.64 142.78 174.14 144.19 174.09 144.21"/><g class="cls-2"><g class="cls-43"><g class="cls-2"><path d="M256.88,161.41l-1.5-1.42a.75.75,0,0,1-.2-.32.88.88,0,0,0-.23-.36l1.5,1.42a.88.88,0,0,1,.23.36.75.75,0,0,0,.2.32" transform="translate(-80.06 -20)"/></g></g></g><g class="cls-2"><g class="cls-44"><g class="cls-2"><path d="M251.82,164.17l-1.5-1.42,0,0,1.5,1.42,0,0" transform="translate(-80.06 -20)"/><path d="M251.86,164.2l-1.5-1.42.08.06,1.5,1.42-.08-.06" transform="translate(-80.06 -20)"/><path d="M251.93,164.26l-1.5-1.42,0,0,0,0,1.5,1.42,0,0,0,0" transform="translate(-80.06 -20)"/><path d="M252,164.31l-1.5-1.42.1,0,1.5,1.42-.1,0" transform="translate(-80.06 -20)"/><path d="M252.1,164.36l-1.5-1.42.12,0,1.5,1.42-.12,0" transform="translate(-80.06 -20)"/><path d="M252.22,164.4l-1.5-1.42.15,0,1.5,1.42-.15,0" transform="translate(-80.06 -20)"/><path d="M252.38,164.44l-1.5-1.42.24,0,1.5,1.42-.24,0" transform="translate(-80.06 -20)"/><path d="M252.61,164.47l-1.5-1.42a3,3,0,0,0,.69,0l1.5,1.42a3,3,0,0,1-.69,0" transform="translate(-80.06 -20)"/><path d="M253.31,164.42l-1.5-1.42.45-.1,1.5,1.42-.45.1" transform="translate(-80.06 -20)"/><path d="M253.76,164.32l-1.5-1.42.39-.12,1.5,1.42-.39.12" transform="translate(-80.06 -20)"/></g></g></g><g class="cls-2"><g class="cls-45"><g class="cls-2"><path d="M253.78,158.37l-1.5-1.42.07,0,.6-.18,1.5,1.42-.6.18-.07,0" transform="translate(-80.06 -20)"/><path d="M254.45,158.16l-1.5-1.42.64-.14,1.5,1.42-.64.14" transform="translate(-80.06 -20)"/><path d="M255.09,158l-1.5-1.42a5.65,5.65,0,0,1,1.32-.08l1.5,1.42a5.65,5.65,0,0,0-1.32.08" transform="translate(-80.06 -20)"/><path d="M256.41,157.94l-1.5-1.42.5.06.11,0L257,158l-.11,0-.5-.06" transform="translate(-80.06 -20)"/><path d="M257,158l-1.5-1.42.39.1,1.5,1.42L257,158" transform="translate(-80.06 -20)"/><path d="M257.41,158.12l-1.5-1.42.29.11,1.5,1.42-.29-.11" transform="translate(-80.06 -20)"/><path d="M257.71,158.23l-1.5-1.42.24.12,1.5,1.42-.24-.12" transform="translate(-80.06 -20)"/><path d="M257.95,158.35l-1.5-1.42.2.13,1.5,1.42-.2-.13" transform="translate(-80.06 -20)"/><path d="M258.15,158.48l-1.5-1.42.18.14,1.5,1.42-.18-.14" transform="translate(-80.06 -20)"/><path d="M258.33,158.62l-1.5-1.42.07.07,1.5,1.42-.07-.07" transform="translate(-80.06 -20)"/></g></g></g><g class="cls-2"><g class="cls-46"><g class="cls-2"><path d="M249.85,166.18l-1.5-1.42a2.51,2.51,0,0,1-.74-2,5,5,0,0,1,.29-1.56l1.5,1.42a5,5,0,0,0-.29,1.56,2.51,2.51,0,0,0,.74,2" transform="translate(-80.06 -20)"/><path d="M249.4,162.65l-1.5-1.42q.09-.25.2-.5l1.5,1.42q-.11.25-.2.5" transform="translate(-80.06 -20)"/><path d="M249.6,162.16l-1.5-1.42q.09-.2.21-.4l1.5,1.42q-.11.2-.21.4" transform="translate(-80.06 -20)"/><path d="M249.81,161.75l-1.5-1.42.22-.36,1.5,1.42-.22.36" transform="translate(-80.06 -20)"/><path d="M250,161.39l-1.5-1.42.24-.35,1.5,1.42-.24.35" transform="translate(-80.06 -20)"/><path d="M250.27,161l-1.5-1.42.25-.33,0,0,1.5,1.42,0,0-.25.33" transform="translate(-80.06 -20)"/><path d="M250.53,160.69l-1.5-1.42.27-.31,1.5,1.42-.27.31" transform="translate(-80.06 -20)"/><path d="M250.8,160.38l-1.5-1.42.29-.3,1.5,1.42-.29.3" transform="translate(-80.06 -20)"/><path d="M251.09,160.07l-1.5-1.42.3-.28,1.5,1.42-.3.28" transform="translate(-80.06 -20)"/><path d="M251.38,159.79l-1.5-1.42.32-.27,1.5,1.42-.32.27" transform="translate(-80.06 -20)"/><path d="M251.7,159.53l-1.5-1.42.35-.27,1.5,1.42-.35.27" transform="translate(-80.06 -20)"/><path d="M252.05,159.26l-1.5-1.42.42-.27,1.5,1.42-.42.27" transform="translate(-80.06 -20)"/><path d="M252.47,159l-1.5-1.42q.27-.16.56-.3l1.5,1.42q-.29.14-.56.3" transform="translate(-80.06 -20)"/><path d="M253,158.68l-1.5-1.42a7,7,0,0,1,.76-.32l1.5,1.42a7,7,0,0,0-.76.32" transform="translate(-80.06 -20)"/></g></g></g><path d="M253.78,158.37l.07,0a6.17,6.17,0,0,1,3.06-.35A2.49,2.49,0,0,1,259,159.7a1.2,1.2,0,0,1-.11.92,1.75,1.75,0,0,1-.72.78,1.67,1.67,0,0,1-.31.15,1.13,1.13,0,0,1-.62,0,.73.73,0,0,1-.58-.51,1.11,1.11,0,0,0-1.06-.69,4.08,4.08,0,0,0-1.7.26,3.73,3.73,0,0,0-1.67,1.15,2.7,2.7,0,0,0-.69,1.67.87.87,0,0,0,.41.8,2.71,2.71,0,0,0,2.19-.08l0,0c1.7-.56,3-.53,3.95.06a2.46,2.46,0,0,1,1.12,2.26,5.74,5.74,0,0,1-1.4,3.5,7.25,7.25,0,0,1-3.27,2.34l-.07,0a6.14,6.14,0,0,1-3.05.34,2.48,2.48,0,0,1-2.12-1.71,1.18,1.18,0,0,1,.1-.92,1.89,1.89,0,0,1,1-.93,1.12,1.12,0,0,1,.61,0,.73.73,0,0,1,.58.51,1.12,1.12,0,0,0,1.05.69,4.27,4.27,0,0,0,1.71-.26,3.68,3.68,0,0,0,1.66-1.15,2.67,2.67,0,0,0,.71-1.68.86.86,0,0,0-.41-.79,2.65,2.65,0,0,0-2.19.06c-1.76.58-3.07.55-4,0a2.45,2.45,0,0,1-1.12-2.26,5.74,5.74,0,0,1,1.4-3.51A7.23,7.23,0,0,1,253.78,158.37Z" transform="translate(-80.06 -20)"/></g><g class="cls-2"><g class="cls-2"><g class="cls-47"><g class="cls-2"><path d="M281.7,160.19l-1.5-1.42.07-.08,1.5,1.42-.07.08" transform="translate(-80.06 -20)"/><path d="M281.77,160.11l-1.5-1.42.12-.16,1.5,1.42-.12.16" transform="translate(-80.06 -20)"/><path d="M281.89,160l-1.5-1.42.11-.16,1.5,1.42-.11.16" transform="translate(-80.06 -20)"/><path d="M282,159.79l-1.5-1.42.1-.16,1.5,1.42-.1.16" transform="translate(-80.06 -20)"/><path d="M282.1,159.63l-1.5-1.42.09-.18,1.5,1.42-.09.18" transform="translate(-80.06 -20)"/><path d="M282.19,159.45l-1.5-1.42q.05-.11.09-.22l1.5,1.42q0,.11-.09.22" transform="translate(-80.06 -20)"/><path d="M282.28,159.22l-1.5-1.42a2.22,2.22,0,0,0,.13-.71.85.85,0,0,0-.27-.67l1.5,1.42a.85.85,0,0,1,.27.67,2.22,2.22,0,0,1-.13.71" transform="translate(-80.06 -20)"/></g></g></g><g class="cls-2"><g class="cls-48"><g class="cls-2"><path d="M277.51,161.28l-1.5-1.42,0,0,1.5,1.42,0,0" transform="translate(-80.06 -20)"/><path d="M277.54,161.3l-1.5-1.42.07.06,1.5,1.42-.07-.06" transform="translate(-80.06 -20)"/><path d="M277.61,161.36l-1.5-1.42.09.05,1.5,1.42-.09-.05" transform="translate(-80.06 -20)"/><path d="M277.7,161.41,276.2,160l.11.05,1.5,1.42-.11-.05" transform="translate(-80.06 -20)"/><path d="M277.8,161.47l-1.5-1.42.14.05,1.5,1.42-.14-.05" transform="translate(-80.06 -20)"/><path d="M277.94,161.52l-1.5-1.42.2.05,1.5,1.42-.2-.05" transform="translate(-80.06 -20)"/><path d="M278.14,161.57l-1.5-1.42.19,0h.09l1.5,1.42h-.09l-.19,0" transform="translate(-80.06 -20)"/><path d="M278.42,161.61l-1.5-1.42a3.49,3.49,0,0,0,.81,0l1.5,1.42a3.49,3.49,0,0,1-.81,0" transform="translate(-80.06 -20)"/><path d="M279.23,161.56l-1.5-1.42.43-.1,1.5,1.42-.43.1" transform="translate(-80.06 -20)"/><path d="M279.66,161.46l-1.5-1.42.38-.12.42-.17,1.5,1.42-.42.17-.38.12" transform="translate(-80.06 -20)"/><path d="M280.46,161.17l-1.5-1.42.29-.16,1.5,1.42-.29.16" transform="translate(-80.06 -20)"/><path d="M280.76,161l-1.5-1.42.21-.14,1.5,1.42-.21.14" transform="translate(-80.06 -20)"/><path d="M281,160.87l-1.5-1.42.18-.13,1.5,1.42-.18.13" transform="translate(-80.06 -20)"/><path d="M281.15,160.74l-1.5-1.42.16-.13,1.5,1.42-.16.13" transform="translate(-80.06 -20)"/><path d="M281.31,160.6l-1.5-1.42L280,159l1.5,1.42-.15.14" transform="translate(-80.06 -20)"/><path d="M281.45,160.46,280,159l.14-.15,1.5,1.42-.14.15" transform="translate(-80.06 -20)"/><path d="M281.6,160.31l-1.5-1.42.1-.12,1.5,1.42-.1.12" transform="translate(-80.06 -20)"/></g></g></g><g class="cls-2"><g class="cls-49"><g class="cls-2"><path d="M276.7,160.39,275.2,159l.09,0,1.5,1.42-.09,0" transform="translate(-80.06 -20)"/><path d="M276.79,160.42,275.3,159l.08,0,1.5,1.42-.08,0" transform="translate(-80.06 -20)"/><path d="M276.88,160.45l-1.5-1.42.07,0,1.5,1.42-.07,0" transform="translate(-80.06 -20)"/><path d="M276.95,160.48l-1.5-1.42.06,0,1.5,1.42-.06,0" transform="translate(-80.06 -20)"/><path d="M277,160.52l-1.5-1.42.05,0,1.5,1.42-.05,0" transform="translate(-80.06 -20)"/><path d="M277.06,160.56l-1.5-1.42,0,0,1.5,1.42,0,0" transform="translate(-80.06 -20)"/></g></g></g><g class="cls-2"><g class="cls-50"><g class="cls-2"><path d="M275.57,163.32l-1.5-1.42a2.46,2.46,0,0,1-.63-1,1.16,1.16,0,0,1,0-.75l1.5,1.42a1.16,1.16,0,0,0,0,.75,2.46,2.46,0,0,0,.63,1" transform="translate(-80.06 -20)"/><path d="M275,161.55l-1.5-1.42.06-.16,1.5,1.42-.06.16" transform="translate(-80.06 -20)"/><polyline points="194.96 141.4 193.47 139.98 193.47 139.97 194.97 141.39 194.96 141.4"/></g></g></g><g class="cls-2"><g class="cls-51"><g class="cls-2"><path d="M275,161.38l-1.5-1.42,0-.09,1.5,1.42,0,.09" transform="translate(-80.06 -20)"/><path d="M275.08,161.3l-1.5-1.42.06-.11,1.5,1.42-.06.11" transform="translate(-80.06 -20)"/><path d="M275.14,161.19l-1.5-1.42.06-.09,1.5,1.42-.06.09" transform="translate(-80.06 -20)"/><path d="M275.2,161.1l-1.5-1.42.06-.08,1.5,1.42-.06.08" transform="translate(-80.06 -20)"/><path d="M275.26,161l-1.5-1.42.06-.07,1.5,1.42-.06.07" transform="translate(-80.06 -20)"/><path d="M275.32,160.95l-1.5-1.42.06-.07,1.5,1.42-.06.07" transform="translate(-80.06 -20)"/><path d="M275.39,160.88l-1.5-1.42.07-.07,1.5,1.42-.07.07" transform="translate(-80.06 -20)"/><path d="M275.46,160.81,274,159.4l.08-.07,1.5,1.42-.08.07" transform="translate(-80.06 -20)"/><path d="M275.54,160.75l-1.5-1.42.09-.07,1.5,1.42-.09.07" transform="translate(-80.06 -20)"/><path d="M275.62,160.68l-1.5-1.42.11-.07,1.5,1.42-.11.07" transform="translate(-80.06 -20)"/><path d="M275.74,160.61l-1.5-1.42,0,0,.13-.07,1.5,1.42-.13.07,0,0" transform="translate(-80.06 -20)"/><path d="M275.89,160.52l-1.5-1.42.18-.07.11,0,1.5,1.42-.11,0-.18.07" transform="translate(-80.06 -20)"/><path d="M276.18,160.42l-1.5-1.42.11,0,1.5,1.42-.11,0" transform="translate(-80.06 -20)"/><path d="M276.29,160.39l-1.5-1.42a1.17,1.17,0,0,1,.27,0l1.5,1.42a1.17,1.17,0,0,0-.27,0" transform="translate(-80.06 -20)"/><path d="M276.56,160.38l-1.5-1.42.14,0,1.5,1.42-.14,0" transform="translate(-80.06 -20)"/></g></g></g><g class="cls-2"><g class="cls-52"><g class="cls-2"><path d="M279.79,155.46l-1.5-1.42.51-.15,1.5,1.42-.51.15" transform="translate(-80.06 -20)"/><path d="M280.3,155.31l-1.5-1.42q.37-.1.71-.16l1.5,1.42q-.34.06-.71.16" transform="translate(-80.06 -20)"/><path d="M281,155.16l-1.5-1.42a5.31,5.31,0,0,1,1.24-.08l1.5,1.42a5.31,5.31,0,0,0-1.24.08" transform="translate(-80.06 -20)"/><path d="M282.25,155.08l-1.5-1.42a3.69,3.69,0,0,1,.48.06l1.5,1.42a3.69,3.69,0,0,0-.48-.06" transform="translate(-80.06 -20)"/><path d="M282.73,155.14l-1.5-1.42.35.09,1.5,1.42-.35-.09" transform="translate(-80.06 -20)"/><path d="M283.08,155.23l-1.5-1.42.28.11,1.5,1.42-.28-.11" transform="translate(-80.06 -20)"/><path d="M283.36,155.34l-1.5-1.42.25.12,1.5,1.42-.25-.12" transform="translate(-80.06 -20)"/><path d="M283.6,155.46l-1.5-1.42.13.08.12.08,1.5,1.42-.12-.08-.13-.08" transform="translate(-80.06 -20)"/><path d="M283.85,155.62l-1.5-1.42.19.15,1.5,1.42-.19-.15" transform="translate(-80.06 -20)"/><path d="M284,155.77l-1.5-1.42.08.07,1.5,1.42-.08-.07" transform="translate(-80.06 -20)"/></g></g></g><polygon points="199.68 135.49 198.18 134.07 198.23 134.05 199.73 135.47 199.68 135.49"/><g class="cls-2"><g class="cls-53"><g class="cls-2"><path d="M282.47,152.7l-1.5-1.42a.81.81,0,0,1-.2-.33.87.87,0,0,0-.23-.36L282,152a.87.87,0,0,1,.23.36.81.81,0,0,0,.2.33" transform="translate(-80.06 -20)"/></g></g></g><g class="cls-2"><g class="cls-54"><g class="cls-2"><path d="M277.41,155.45l-1.5-1.42,0,0,1.5,1.42,0,0" transform="translate(-80.06 -20)"/><path d="M277.44,155.48l-1.5-1.42.08.06,1.5,1.42-.08-.06" transform="translate(-80.06 -20)"/><path d="M277.52,155.54l-1.5-1.42,0,0,0,0,1.5,1.42,0,0,0,0" transform="translate(-80.06 -20)"/><path d="M277.59,155.59l-1.5-1.42.1,0,1.5,1.42-.1,0" transform="translate(-80.06 -20)"/><path d="M277.69,155.64l-1.5-1.42.12,0,1.5,1.42-.12,0" transform="translate(-80.06 -20)"/><path d="M277.81,155.68l-1.5-1.42.16,0,1.5,1.42-.16,0" transform="translate(-80.06 -20)"/><path d="M278,155.72l-1.5-1.42.23,0,1.5,1.42-.23,0" transform="translate(-80.06 -20)"/><path d="M278.2,155.75l-1.5-1.42a3,3,0,0,0,.69,0l1.5,1.42a3,3,0,0,1-.69,0" transform="translate(-80.06 -20)"/><path d="M278.88,155.7l-1.5-1.42.45-.1,1.5,1.42-.45.1" transform="translate(-80.06 -20)"/><path d="M279.34,155.6l-1.5-1.42.4-.12,1.5,1.42-.4.12" transform="translate(-80.06 -20)"/></g></g></g><g class="cls-2"><g class="cls-55"><g class="cls-2"><path d="M279.36,149.65l-1.5-1.42.07,0,.61-.19,1.5,1.42-.61.19-.07,0" transform="translate(-80.06 -20)"/><path d="M280,149.44l-1.5-1.42.64-.14,1.5,1.42-.64.14" transform="translate(-80.06 -20)"/><path d="M280.69,149.3l-1.5-1.42a5.7,5.7,0,0,1,1.33-.08l1.5,1.42a5.7,5.7,0,0,0-1.33.08" transform="translate(-80.06 -20)"/><path d="M282,149.22l-1.5-1.42.48.05.1,0,1.5,1.42-.1,0-.48-.05" transform="translate(-80.06 -20)"/><path d="M282.6,149.29l-1.5-1.42.4.1,1.5,1.42-.4-.1" transform="translate(-80.06 -20)"/><path d="M283,149.4,281.5,148l.3.11,1.5,1.42-.3-.11" transform="translate(-80.06 -20)"/><path d="M283.29,149.51l-1.5-1.42.24.12,1.5,1.42-.24-.12" transform="translate(-80.06 -20)"/><path d="M283.53,149.63l-1.5-1.42.2.13,1.5,1.42-.2-.13" transform="translate(-80.06 -20)"/><path d="M283.73,149.76l-1.5-1.42.18.14,1.5,1.42-.18-.14" transform="translate(-80.06 -20)"/><path d="M283.91,149.9l-1.5-1.42.07.07L284,150l-.07-.07" transform="translate(-80.06 -20)"/></g></g></g><g class="cls-2"><g class="cls-56"><g class="cls-2"><path d="M275.44,157.46l-1.5-1.42a2.48,2.48,0,0,1-.74-2,5,5,0,0,1,.29-1.56l1.5,1.42a5,5,0,0,0-.29,1.56,2.48,2.48,0,0,0,.74,2" transform="translate(-80.06 -20)"/><path d="M275,153.93l-1.5-1.42q.09-.25.2-.5l1.5,1.42q-.11.25-.2.5" transform="translate(-80.06 -20)"/><path d="M275.19,153.44,273.7,152q.09-.2.21-.4l1.5,1.42q-.11.2-.21.4" transform="translate(-80.06 -20)"/><path d="M275.4,153l-1.5-1.42.22-.36,1.5,1.42-.22.36" transform="translate(-80.06 -20)"/><path d="M275.62,152.67l-1.5-1.42.24-.35,1.5,1.42-.24.35" transform="translate(-80.06 -20)"/><path d="M275.86,152.32l-1.5-1.42.25-.33,0,0,1.5,1.42,0,0-.25.33" transform="translate(-80.06 -20)"/><path d="M276.13,152l-1.5-1.42.28-.33,1.5,1.42-.28.33" transform="translate(-80.06 -20)"/><path d="M276.41,151.64l-1.5-1.42.28-.3,1.5,1.42-.28.3" transform="translate(-80.06 -20)"/><path d="M276.69,151.34l-1.5-1.42.29-.28,1.5,1.42-.29.28" transform="translate(-80.06 -20)"/><path d="M277,151.07l-1.5-1.42.31-.26,1.5,1.42-.31.26" transform="translate(-80.06 -20)"/><path d="M277.29,150.8l-1.5-1.42.35-.26,1.5,1.42-.35.26" transform="translate(-80.06 -20)"/><path d="M277.64,150.54l-1.5-1.42.41-.27,1.5,1.42-.41.27" transform="translate(-80.06 -20)"/><path d="M278,150.27l-1.5-1.42q.27-.16.55-.3l1.5,1.42q-.28.14-.55.3" transform="translate(-80.06 -20)"/><path d="M278.6,150l-1.5-1.42a7.08,7.08,0,0,1,.76-.32l1.5,1.42a7.08,7.08,0,0,0-.76.32" transform="translate(-80.06 -20)"/></g></g></g><path d="M279.36,149.65l.07,0a6.25,6.25,0,0,1,3.06-.35,2.5,2.5,0,0,1,2.12,1.71,1.24,1.24,0,0,1-.11.93,1.86,1.86,0,0,1-1,.93,1.12,1.12,0,0,1-.61,0,.74.74,0,0,1-.59-.52,1.11,1.11,0,0,0-1.05-.68,4.09,4.09,0,0,0-1.7.25,3.77,3.77,0,0,0-1.67,1.16,2.68,2.68,0,0,0-.7,1.67.88.88,0,0,0,.41.79,2.7,2.7,0,0,0,2.19-.08l.05,0q2.55-.82,3.94.07a2.41,2.41,0,0,1,1.12,2.26,5.66,5.66,0,0,1-1.4,3.49,7.28,7.28,0,0,1-3.3,2.36,6.4,6.4,0,0,1-3.1.36,2.49,2.49,0,0,1-2.12-1.71,1.24,1.24,0,0,1,.1-.92,1.85,1.85,0,0,1,.74-.79,1.76,1.76,0,0,1,.3-.14,1.21,1.21,0,0,1,.63-.06.73.73,0,0,1,.58.52,1.1,1.1,0,0,0,1,.68,4.17,4.17,0,0,0,1.72-.25,3.69,3.69,0,0,0,1.65-1.15,2.63,2.63,0,0,0,.71-1.68.86.86,0,0,0-.41-.79,2.69,2.69,0,0,0-2.19.07c-1.75.57-3.06.55-4,0a2.43,2.43,0,0,1-1.12-2.25,5.74,5.74,0,0,1,1.4-3.51A7.15,7.15,0,0,1,279.36,149.65Z" transform="translate(-80.06 -20)"/></g><g class="cls-2"><g class="cls-2"><g class="cls-57"><g class="cls-2"><path d="M266.38,167.84l-1.5-1.42a.83.83,0,0,1-.24-.6l1.5,1.42a.83.83,0,0,0,.24.6" transform="translate(-80.06 -20)"/></g></g></g><g class="cls-2"><g class="cls-58"><g class="cls-2"><path d="M271.31,152.37l-1.5-1.42.12,0,1.5,1.42-.12,0" transform="translate(-80.06 -20)"/><path d="M271.42,152.33l-1.5-1.42.11,0,1.5,1.42-.11,0" transform="translate(-80.06 -20)"/><path d="M271.53,152.31l-1.5-1.42a1.07,1.07,0,0,1,.25,0l1.5,1.42a1.07,1.07,0,0,0-.25,0" transform="translate(-80.06 -20)"/><path d="M271.79,152.29l-1.5-1.42.12,0,1.5,1.42-.12,0" transform="translate(-80.06 -20)"/><path d="M271.91,152.31l-1.5-1.42.1,0,1.5,1.42-.1,0" transform="translate(-80.06 -20)"/><path d="M272,152.33l-1.5-1.42.09,0,1.5,1.42-.09,0" transform="translate(-80.06 -20)"/><path d="M272.09,152.37,270.6,151l.08,0,1.5,1.42-.08,0" transform="translate(-80.06 -20)"/><path d="M272.18,152.41l-1.5-1.42h0l.06,0,1.5,1.42-.06,0h0" transform="translate(-80.06 -20)"/><path d="M272.25,152.45l-1.5-1.42.06,0,1.5,1.42-.06,0" transform="translate(-80.06 -20)"/><path d="M272.3,152.49l-1.5-1.42,0,0,1.5,1.42,0,0" transform="translate(-80.06 -20)"/></g></g></g><polygon points="186.07 147.25 184.58 145.84 184.27 135.17 185.76 136.59 186.07 147.25"/><g class="cls-2"><g class="cls-59"><g class="cls-2"><path d="M261.7,157.48l-1.5-1.42a.81.81,0,0,1-.24-.58l1.5,1.42a.81.81,0,0,0,.24.58" transform="translate(-80.06 -20)"/></g></g></g><polygon points="182.57 135.33 181.07 133.91 189.75 130.96 191.25 132.37 182.57 135.33"/><g class="cls-2"><g class="cls-60"><g class="cls-2"><path d="M261.47,156.9l-1.5-1.42a1.38,1.38,0,0,1,.08-.48l1.5,1.42a1.38,1.38,0,0,0-.08.48" transform="translate(-80.06 -20)"/><path d="M261.55,156.41l-1.5-1.42.05-.13,1.5,1.42-.05.13" transform="translate(-80.06 -20)"/><path d="M261.6,156.28l-1.5-1.42.05-.1,1.5,1.42-.05.1" transform="translate(-80.06 -20)"/><path d="M261.65,156.18l-1.5-1.42.05-.09,1.5,1.42-.05.09" transform="translate(-80.06 -20)"/><path d="M261.71,156.09l-1.5-1.42.06-.09,1.5,1.42-.06.09" transform="translate(-80.06 -20)"/><path d="M261.76,156l-1.5-1.42,0-.05,1.5,1.42,0,.05" transform="translate(-80.06 -20)"/></g></g></g><g class="cls-2"><g class="cls-61"><g class="cls-2"><path d="M261.8,156l-1.5-1.42.06-.08,1.5,1.42-.06.08" transform="translate(-80.06 -20)"/><path d="M261.86,155.88l-1.5-1.42.07-.08,1.5,1.42-.07.08" transform="translate(-80.06 -20)"/><path d="M261.93,155.8l-1.5-1.42.07-.07,1.5,1.42-.07.07" transform="translate(-80.06 -20)"/><path d="M262,155.73l-1.5-1.42.07-.07,1.5,1.42-.07.07" transform="translate(-80.06 -20)"/><path d="M262.07,155.66l-1.5-1.42.08-.06,1.5,1.42-.08.06" transform="translate(-80.06 -20)"/><path d="M262.14,155.6l-1.5-1.42.08-.06,1.5,1.42-.08.06" transform="translate(-80.06 -20)"/><path d="M262.23,155.53l-1.5-1.42.1-.06,1.5,1.42-.1.06" transform="translate(-80.06 -20)"/><path d="M262.32,155.47l-1.5-1.42L261,154l1.5,1.42-.13.07" transform="translate(-80.06 -20)"/><path d="M262.46,155.4,261,154l.17-.07,1.5,1.42-.17.07" transform="translate(-80.06 -20)"/></g></g></g><path d="M262.63,155.33l8.68-3a1,1,0,0,1,.88,0,.78.78,0,0,1,.38.7,1.47,1.47,0,0,1-.33.94,1.85,1.85,0,0,1-.86.64l-3.1,1.05.31,10.67a1.48,1.48,0,0,1-.34,1,1.74,1.74,0,0,1-.82.61,1,1,0,0,1-.9,0,.79.79,0,0,1-.39-.71l-.31-10.67-3.1,1.06a1,1,0,0,1-.88-.06.77.77,0,0,1-.38-.69,1.47,1.47,0,0,1,.33-.94A1.74,1.74,0,0,1,262.63,155.33Z" transform="translate(-80.06 -20)"/></g><polygon class="cls-62" points="112.1 185.93 92.29 192.82 92.13 199.56 100.42 209.03 120.23 202.14 120.23 195.4 112.1 185.93"/><text class="cls-63" transform="translate(250.05 140.87) scale(1.01 1)">requests[]</text><text class="cls-64" transform="translate(527.67 140.86) scale(1.01 1)">addRequest(address,string,bytes32,address)<tspan x="0" y="21.75">getRequest(bytes32)</tspan><tspan x="0" y="43.51">getCombiner(bytes32)</tspan></text><polyline class="cls-65" points="500.61 153.52 248.24 152.95 247.66 153.38 121.47 197.57"/></svg>