<svg id="Layer_1" data-name="Layer 1" xmlns="http://www.w3.org/2000/svg" xmlns:xlink="http://www.w3.org/1999/xlink" viewBox="0 0 782.34 210.53"><defs><style>.cls-1,.cls-2,.cls-83{fill:none;}.cls-2,.cls-3,.cls-4,.cls-80{stroke-linejoin:round;}.cls-2,.cls-3,.cls-4,.cls-80,.cls-83{stroke-width:3px;}.cls-2{stroke:url(#linear-gradient);}.cls-3,.cls-4,.cls-80{fill:#fff;}.cls-3{stroke:url(#linear-gradient-2);}.cls-4{stroke:url(#linear-gradient-3);}.cls-5{isolation:isolate;}.cls-6{clip-path:url(#clip-path);}.cls-7{clip-path:url(#clip-path-2);}.cls-8{clip-path:url(#clip-path-3);}.cls-9{clip-path:url(#clip-path-4);}.cls-10{clip-path:url(#clip-path-5);}.cls-11{clip-path:url(#clip-path-6);}.cls-12{clip-path:url(#clip-path-7);}.cls-13{clip-path:url(#clip-path-8);}.cls-14{clip-path:url(#clip-path-9);}.cls-15{clip-path:url(#clip-path-10);}.cls-16{clip-path:url(#clip-path-11);}.cls-17{clip-path:url(#clip-path-12);}.cls-18{clip-path:url(#clip-path-13);}.cls-19{clip-path:url(#clip-path-14);}.cls-20{clip-path:url(#clip-path-15);}.cls-21{clip-path:url(#clip-path-16);}.cls-22{clip-path:url(#clip-path-17);}.cls-23{clip-path:url(#clip-path-18);}.cls-24{clip-path:url(#clip-path-19);}.cls-25{clip-path:url(#clip-path-20);}.cls-26{clip-path:url(#clip-path-21);}.cls-27{clip-path:url(#clip-path-22);}.cls-28{clip-path:url(#clip-path-23);}.cls-29{clip-path:url(#clip-path-24);}.cls-30{clip-path:url(#clip-path-25);}.cls-31{clip-path:url(#clip-path-26);}.cls-32{clip-path:url(#clip-path-27);}.cls-33{clip-path:url(#clip-path-28);}.cls-34{clip-path:url(#clip-path-29);}.cls-35{clip-path:url(#clip-path-30);}.cls-36{clip-path:url(#clip-path-31);}.cls-37{clip-path:url(#clip-path-32);}.cls-38{clip-path:url(#clip-path-33);}.cls-39{clip-path:url(#clip-path-34);}.cls-40{clip-path:url(#clip-path-35);}.cls-41{clip-path:url(#clip-path-36);}.cls-42{clip-path:url(#clip-path-37);}.cls-43{clip-path:url(#clip-path-38);}.cls-44{clip-path:url(#clip-path-39);}.cls-45{clip-path:url(#clip-path-40);}.cls-46{clip-path:url(#clip-path-41);}.cls-47{clip-path:url(#clip-path-42);}.cls-48{clip-path:url(#clip-path-43);}.cls-49{clip-path:url(#clip-path-44);}.cls-50{clip-path:url(#clip-path-45);}.cls-51{clip-path:url(#clip-path-46);}.cls-52{clip-path:url(#clip-path-47);}.cls-53{clip-path:url(#clip-path-48);}.cls-54{clip-path:url(#clip-path-49);}.cls-55{clip-path:url(#clip-path-50);}.cls-56{clip-path:url(#clip-path-51);}.cls-57{clip-path:url(#clip-path-52);}.cls-58{clip-path:url(#clip-path-53);}.cls-59{clip-path:url(#clip-path-54);}.cls-60{clip-path:url(#clip-path-55);}.cls-61{clip-path:url(#clip-path-56);}.cls-62{clip-path:url(#clip-path-57);}.cls-63{clip-path:url(#clip-path-58);}.cls-64{clip-path:url(#clip-path-59);}.cls-65{clip-path:url(#clip-path-60);}.cls-66{clip-path:url(#clip-path-61);}.cls-67{clip-path:url(#clip-path-62);}.cls-68{clip-path:url(#clip-path-63);}.cls-69{clip-path:url(#clip-path-64);}.cls-70{clip-path:url(#clip-path-65);}.cls-71{clip-path:url(#clip-path-66);}.cls-72{clip-path:url(#clip-path-67);}.cls-73{clip-path:url(#clip-path-68);}.cls-74{clip-path:url(#clip-path-69);}.cls-75{clip-path:url(#clip-path-70);}.cls-76{clip-path:url(#clip-path-71);}.cls-77{clip-path:url(#clip-path-72);}.cls-78{clip-path:url(#clip-path-73);}.cls-79{clip-path:url(#clip-path-74);}.cls-80{stroke:gray;}.cls-81{font-size:40.79px;stroke:#000;opacity:0.15;}.cls-81,.cls-83{stroke-miterlimit:10;}.cls-81,.cls-82{font-family:InconsolataForPowerline, Inconsolata for Powerline;}.cls-82{font-size:18.13px;fill:#3d3d3d;}.cls-83{stroke:#3d3d3d;opacity:0.2;}</style><linearGradient id="linear-gradient" x1="104.36" y1="106.54" x2="341.32" y2="106.54" gradientTransform="matrix(1, 0, 0, -1, -104.36, 231.77)" gradientUnits="userSpaceOnUse"><stop offset="0" stop-color="#00d5a7"/><stop offset="1" stop-color="#4847db"/></linearGradient><linearGradient id="linear-gradient-2" x1="104.36" y1="155.31" x2="341.32" y2="155.31" xlink:href="#linear-gradient"/><linearGradient id="linear-gradient-3" x1="0" y1="126.93" x2="236.96" y2="126.93" gradientTransform="matrix(1, 0, 0, 1, 0, 0)" xlink:href="#linear-gradient"/><clipPath id="clip-path" transform="translate(-104.36 -20.23)"><path class="cls-1" d="M208,196.46l-1.5-1.42a.92.92,0,0,1-.13-.16l1.5,1.42A.92.92,0,0,0,208,196.46Z"/></clipPath><clipPath id="clip-path-2" transform="translate(-104.36 -20.23)"><path class="cls-1" d="M200.81,198.8l-1.5-1.42a.8.8,0,0,1-.24-.6l1.5,1.42A.8.8,0,0,0,200.81,198.8Z"/></clipPath><clipPath id="clip-path-3" transform="translate(-104.36 -20.23)"><path class="cls-1" d="M206,189.28l-1.5-1.42a3.55,3.55,0,0,0,1.48-1.06l1.5,1.42A3.55,3.55,0,0,1,206,189.28Z"/></clipPath><clipPath id="clip-path-4" transform="translate(-104.36 -20.23)"><path class="cls-1" d="M206.2,184.53l1.5,1.42a1.12,1.12,0,0,1,.33.83,2.16,2.16,0,0,1-.58,1.45l-1.5-1.42a2.16,2.16,0,0,0,.58-1.45A1.12,1.12,0,0,0,206.2,184.53Z"/></clipPath><clipPath id="clip-path-5" transform="translate(-104.36 -20.23)"><path class="cls-1" d="M208.16,182.53l1.5,1.42a2.87,2.87,0,0,0-.63-.45,4.08,4.08,0,0,0-3.31-.09l-1.5-1.42a4.08,4.08,0,0,1,3.31.09A2.87,2.87,0,0,1,208.16,182.53Z"/></clipPath><clipPath id="clip-path-6" transform="translate(-104.36 -20.23)"><path class="cls-1" d="M200.22,186.45l-1.5-1.42a1.47,1.47,0,0,1,.33-.94l1.5,1.42A1.47,1.47,0,0,0,200.22,186.45Z"/></clipPath><clipPath id="clip-path-7" transform="translate(-104.36 -20.23)"><path class="cls-1" d="M200.55,185.52l-1.5-1.42a1.84,1.84,0,0,1,.85-.64l1.5,1.42A1.84,1.84,0,0,0,200.55,185.52Z"/></clipPath><clipPath id="clip-path-8" transform="translate(-104.36 -20.23)"><path class="cls-1" d="M222.54,188.19l1.5,1.42-.15-.11a1,1,0,0,0-.87-.05l-1.5-1.42a1,1,0,0,1,.87.05Z"/></clipPath><clipPath id="clip-path-9" transform="translate(-104.36 -20.23)"><path class="cls-1" d="M214.52,194.18l-1.5-1.42a.78.78,0,0,1-.23-.58l1.5,1.42A.78.78,0,0,0,214.52,194.18Z"/></clipPath><clipPath id="clip-path-10" transform="translate(-104.36 -20.23)"><path class="cls-1" d="M220.62,182.87l1.5,1.42-.14-.11-1.5-1.42Z"/></clipPath><clipPath id="clip-path-11" transform="translate(-104.36 -20.23)"><path class="cls-1" d="M221.09,184.14l-1.5-1.42a1.07,1.07,0,0,1,.89,0l1.5,1.42A1.07,1.07,0,0,0,221.09,184.14Z"/></clipPath><clipPath id="clip-path-12" transform="translate(-104.36 -20.23)"><path class="cls-1" d="M222.19,176.37l1.5,1.42-.13-.1a1,1,0,0,0-.89,0l-1.5-1.42a1,1,0,0,1,.89,0Z"/></clipPath><clipPath id="clip-path-13" transform="translate(-104.36 -20.23)"><path class="cls-1" d="M213.95,181.79l-1.5-1.42a1.42,1.42,0,0,1,.34-1l1.5,1.42A1.42,1.42,0,0,0,213.95,181.79Z"/></clipPath><clipPath id="clip-path-14" transform="translate(-104.36 -20.23)"><path class="cls-1" d="M214.29,180.84l-1.5-1.42a1.68,1.68,0,0,1,.82-.63l1.5,1.42A1.68,1.68,0,0,0,214.29,180.84Z"/></clipPath><clipPath id="clip-path-15" transform="translate(-104.36 -20.23)"><path class="cls-1" d="M232.54,181.52l1.5,1.42a.87.87,0,0,1,.26.67,2.67,2.67,0,0,1-.71,1.68,3.68,3.68,0,0,1-1.65,1.15,4.32,4.32,0,0,1-1.72.26l-1.5-1.42a4.32,4.32,0,0,0,1.72-.26,3.68,3.68,0,0,0,1.65-1.15,2.67,2.67,0,0,0,.71-1.68A.87.87,0,0,0,232.54,181.52Z"/></clipPath><clipPath id="clip-path-16" transform="translate(-104.36 -20.23)"><path class="cls-1" d="M229.41,186.37l-1.5-1.42a1.36,1.36,0,0,0,.81.32l1.5,1.42A1.36,1.36,0,0,1,229.41,186.37Z"/></clipPath><clipPath id="clip-path-17" transform="translate(-104.36 -20.23)"><path class="cls-1" d="M227.47,184.25l1.5,1.42a.81.81,0,0,0-.38-.19l-1.5-1.42A.81.81,0,0,1,227.47,184.25Z"/></clipPath><clipPath id="clip-path-18" transform="translate(-104.36 -20.23)"><path class="cls-1" d="M227.46,188.4,226,187a2.46,2.46,0,0,1-.63-1,1.25,1.25,0,0,1,.1-.92l1.5,1.42a1.25,1.25,0,0,0-.1.92A2.46,2.46,0,0,0,227.46,188.4Z"/></clipPath><clipPath id="clip-path-19" transform="translate(-104.36 -20.23)"><path class="cls-1" d="M227.66,185.68l-1.5-1.42a1.68,1.68,0,0,1,.32-.15,1.2,1.2,0,0,1,.62-.05l1.5,1.42a1.2,1.2,0,0,0-.62.05A1.68,1.68,0,0,0,227.66,185.68Z"/></clipPath><clipPath id="clip-path-20" transform="translate(-104.36 -20.23)"><path class="cls-1" d="M226.92,186.47l-1.5-1.42a1.83,1.83,0,0,1,.74-.79l1.5,1.42A1.83,1.83,0,0,0,226.92,186.47Z"/></clipPath><clipPath id="clip-path-21" transform="translate(-104.36 -20.23)"><path class="cls-1" d="M234.5,179.5l1.5,1.42a2.66,2.66,0,0,0-.38-.3c-.92-.6-2.24-.62-3.94-.07l-1.5-1.42c1.69-.55,3-.53,3.94.07A2.66,2.66,0,0,1,234.5,179.5Z"/></clipPath><clipPath id="clip-path-22" transform="translate(-104.36 -20.23)"><path class="cls-1" d="M234.36,177.78l-1.5-1.42a.8.8,0,0,1-.2-.32.88.88,0,0,0-.23-.37l1.5,1.42a.88.88,0,0,1,.23.37A.8.8,0,0,0,234.36,177.78Z"/></clipPath><clipPath id="clip-path-23" transform="translate(-104.36 -20.23)"><path class="cls-1" d="M229.44,180.65l-1.5-1.42a2.73,2.73,0,0,0,2.19-.08l1.5,1.42A2.73,2.73,0,0,1,229.44,180.65Z"/></clipPath><clipPath id="clip-path-24" transform="translate(-104.36 -20.23)"><path class="cls-1" d="M229.31,180.55l-1.5-1.42.13.11,1.5,1.42Z"/></clipPath><clipPath id="clip-path-25" transform="translate(-104.36 -20.23)"><path class="cls-1" d="M234.38,173.64l1.5,1.42a2.78,2.78,0,0,0-1.49-.69,6.17,6.17,0,0,0-3.06.35l-.07,0-1.5-1.42.07,0a6.17,6.17,0,0,1,3.06-.35A2.78,2.78,0,0,1,234.38,173.64Z"/></clipPath><clipPath id="clip-path-26" transform="translate(-104.36 -20.23)"><path class="cls-1" d="M227.34,182.55l-1.5-1.42a2.49,2.49,0,0,1-.74-2,5.68,5.68,0,0,1,1.39-3.5,7.19,7.19,0,0,1,3.26-2.34l1.5,1.42a7.19,7.19,0,0,0-3.26,2.34,5.68,5.68,0,0,0-1.39,3.5A2.49,2.49,0,0,0,227.34,182.55Z"/></clipPath><clipPath id="clip-path-27" transform="translate(-104.36 -20.23)"><path class="cls-1" d="M241,185.18l-1.5-1.42a.81.81,0,0,1-.24-.58l1.5,1.42A.81.81,0,0,0,241,185.18Z"/></clipPath><clipPath id="clip-path-28" transform="translate(-104.36 -20.23)"><path class="cls-1" d="M246.17,175.61l-1.5-1.42a3.45,3.45,0,0,0,1.5-1.06l1.5,1.42A3.45,3.45,0,0,1,246.17,175.61Z"/></clipPath><clipPath id="clip-path-29" transform="translate(-104.36 -20.23)"><path class="cls-1" d="M246.42,170.83l1.5,1.42a1.12,1.12,0,0,1,.34.82,2.2,2.2,0,0,1-.58,1.47l-1.5-1.42a2.2,2.2,0,0,0,.58-1.47A1.12,1.12,0,0,0,246.42,170.83Z"/></clipPath><clipPath id="clip-path-30" transform="translate(-104.36 -20.23)"><path class="cls-1" d="M248.41,168.82l1.5,1.42a2.87,2.87,0,0,0-.65-.46l-1.5-1.42A2.87,2.87,0,0,1,248.41,168.82Z"/></clipPath><clipPath id="clip-path-31" transform="translate(-104.36 -20.23)"><path class="cls-1" d="M245.93,169.69l-1.5-1.42a4.08,4.08,0,0,1,3.33.09l1.5,1.42A4.08,4.08,0,0,0,245.93,169.69Z"/></clipPath><clipPath id="clip-path-32" transform="translate(-104.36 -20.23)"><path class="cls-1" d="M240.39,172.76l-1.5-1.42a1.51,1.51,0,0,1,.34-.94,1.72,1.72,0,0,1,.82-.63l1.5,1.42a1.72,1.72,0,0,0-.82.63A1.51,1.51,0,0,0,240.39,172.76Z"/></clipPath><clipPath id="clip-path-33" transform="translate(-104.36 -20.23)"><path class="cls-1" d="M263.13,166.31l1.5,1.42a3.33,3.33,0,0,1,1,2.42,6,6,0,0,1-1.37,3.85l-1.5-1.42a6,6,0,0,0,1.37-3.85A3.33,3.33,0,0,0,263.13,166.31Z"/></clipPath><clipPath id="clip-path-34" transform="translate(-104.36 -20.23)"><path class="cls-1" d="M256.54,176l-1.5-1.42a3.3,3.3,0,0,0,.61.45,4.11,4.11,0,0,0,3.58.19l.07,0a7.27,7.27,0,0,0,3.44-2.59l1.5,1.42a7.27,7.27,0,0,1-3.44,2.59l-.07,0a4.11,4.11,0,0,1-3.58-.19A3.3,3.3,0,0,1,256.54,176Z"/></clipPath><clipPath id="clip-path-35" transform="translate(-104.36 -20.23)"><path class="cls-1" d="M265.11,164.29l1.5,1.42a4.91,4.91,0,0,0-.87-.65l-1.5-1.42A4.92,4.92,0,0,1,265.11,164.29Z"/></clipPath><clipPath id="clip-path-36" transform="translate(-104.36 -20.23)"><path class="cls-1" d="M254.57,178l-1.5-1.42a4.93,4.93,0,0,1-1.45-3.59,9.07,9.07,0,0,1,2-5.76,10.81,10.81,0,0,1,5.11-3.83l.1,0a6.21,6.21,0,0,1,5.35.27l1.5,1.42a6.21,6.21,0,0,0-5.35-.27l-.1,0a10.81,10.81,0,0,0-5.11,3.83,9.07,9.07,0,0,0-2,5.76A4.93,4.93,0,0,0,254.57,178Z"/></clipPath><clipPath id="clip-path-37" transform="translate(-104.36 -20.23)"><path class="cls-1" d="M272.15,174.55l-1.5-1.42a.81.81,0,0,1-.24-.58l1.5,1.42A.81.81,0,0,0,272.15,174.55Z"/></clipPath><clipPath id="clip-path-38" transform="translate(-104.36 -20.23)"><path class="cls-1" d="M282,156l1.5,1.42-.15-.11-1.5-1.42Z"/></clipPath><clipPath id="clip-path-39" transform="translate(-104.36 -20.23)"><path class="cls-1" d="M281.24,158.87l-1.5-1.42a1.47,1.47,0,0,1,.33-.94l1.5,1.42A1.47,1.47,0,0,0,281.24,158.87Z"/></clipPath><clipPath id="clip-path-40" transform="translate(-104.36 -20.23)"><path class="cls-1" d="M281.58,157.92l-1.5-1.42a1.74,1.74,0,0,1,.83-.63,1,1,0,0,1,.91,0l1.5,1.42a1,1,0,0,0-.91,0A1.74,1.74,0,0,0,281.58,157.92Z"/></clipPath><clipPath id="clip-path-41" transform="translate(-104.36 -20.23)"><path class="cls-1" d="M272.77,160.58l-1.5-1.42a1.31,1.31,0,0,1,.36-.07.83.83,0,0,1,.62.2l1.5,1.42a.83.83,0,0,0-.62-.2A1.31,1.31,0,0,0,272.77,160.58Z"/></clipPath><clipPath id="clip-path-42" transform="translate(-104.36 -20.23)"><path class="cls-1" d="M271.57,162.16l-1.5-1.42a1.42,1.42,0,0,1,.22-.75l1.5,1.42A1.42,1.42,0,0,0,271.57,162.16Z"/></clipPath><clipPath id="clip-path-43" transform="translate(-104.36 -20.23)"><path class="cls-1" d="M272.38,160.78l-1.5-1.42a1.62,1.62,0,0,1,.39-.2l1.5,1.42A1.62,1.62,0,0,0,272.38,160.78Z"/></clipPath><clipPath id="clip-path-44" transform="translate(-104.36 -20.23)"><path class="cls-1" d="M271.78,161.41l-1.5-1.42a1.76,1.76,0,0,1,.59-.63l1.5,1.42A1.76,1.76,0,0,0,271.78,161.41Z"/></clipPath><clipPath id="clip-path-45" transform="translate(-104.36 -20.23)"><path class="cls-1" d="M293.57,160.71l1.5,1.42a.88.88,0,0,1,.27.68,2.63,2.63,0,0,1-.71,1.68l-1.5-1.42a2.63,2.63,0,0,0,.71-1.68A.88.88,0,0,0,293.57,160.71Z"/></clipPath><clipPath id="clip-path-46" transform="translate(-104.36 -20.23)"><path class="cls-1" d="M291.26,165.89l-1.5-1.42a4.32,4.32,0,0,0,1.72-.26,3.63,3.63,0,0,0,1.65-1.15l1.5,1.42a3.63,3.63,0,0,1-1.65,1.15A4.32,4.32,0,0,1,291.26,165.89Z"/></clipPath><clipPath id="clip-path-47" transform="translate(-104.36 -20.23)"><path class="cls-1" d="M290.44,165.56l-1.5-1.42a1.38,1.38,0,0,0,.81.32l1.5,1.42A1.38,1.38,0,0,1,290.44,165.56Z"/></clipPath><clipPath id="clip-path-48" transform="translate(-104.36 -20.23)"><path class="cls-1" d="M288.51,163.45l1.5,1.42a.82.82,0,0,0-.38-.2l-1.5-1.42A.82.82,0,0,1,288.51,163.45Z"/></clipPath><clipPath id="clip-path-49" transform="translate(-104.36 -20.23)"><path class="cls-1" d="M288.5,167.6l-1.5-1.42a2.46,2.46,0,0,1-.63-1,1.25,1.25,0,0,1,.1-.92l1.5,1.42a1.25,1.25,0,0,0-.1.92A2.46,2.46,0,0,0,288.5,167.6Z"/></clipPath><clipPath id="clip-path-50" transform="translate(-104.36 -20.23)"><path class="cls-1" d="M288.7,164.88l-1.5-1.42a1.69,1.69,0,0,1,.32-.15,1.18,1.18,0,0,1,.62-.05l1.5,1.42a1.18,1.18,0,0,0-.62.05A1.69,1.69,0,0,0,288.7,164.88Z"/></clipPath><clipPath id="clip-path-51" transform="translate(-104.36 -20.23)"><path class="cls-1" d="M288,165.66l-1.5-1.42a1.83,1.83,0,0,1,.74-.79l1.5,1.42A1.83,1.83,0,0,0,288,165.66Z"/></clipPath><clipPath id="clip-path-52" transform="translate(-104.36 -20.23)"><path class="cls-1" d="M295.55,158.7l1.5,1.42a2.61,2.61,0,0,0-.39-.3q-1.39-.9-3.94-.07l-1.5-1.42q2.55-.84,3.94.07A2.61,2.61,0,0,1,295.55,158.7Z"/></clipPath><clipPath id="clip-path-53" transform="translate(-104.36 -20.23)"><path class="cls-1" d="M295.4,157l-1.5-1.42a.79.79,0,0,1-.2-.32.88.88,0,0,0-.23-.37l1.5,1.42a.88.88,0,0,1,.23.37A.79.79,0,0,0,295.4,157Z"/></clipPath><clipPath id="clip-path-54" transform="translate(-104.36 -20.23)"><path class="cls-1" d="M290.48,159.85l-1.5-1.42a2.7,2.7,0,0,0,2.19-.08l1.5,1.42A2.7,2.7,0,0,1,290.48,159.85Z"/></clipPath><clipPath id="clip-path-55" transform="translate(-104.36 -20.23)"><path class="cls-1" d="M290.35,159.74l-1.5-1.42.13.11,1.5,1.42Z"/></clipPath><clipPath id="clip-path-56" transform="translate(-104.36 -20.23)"><path class="cls-1" d="M295.41,152.83l1.5,1.42a2.76,2.76,0,0,0-1.49-.68,6.14,6.14,0,0,0-3.05.34l-.07,0-1.5-1.42.07,0a6.14,6.14,0,0,1,3.05-.34A2.76,2.76,0,0,1,295.41,152.83Z"/></clipPath><clipPath id="clip-path-57" transform="translate(-104.36 -20.23)"><path class="cls-1" d="M288.38,161.75l-1.5-1.42a2.49,2.49,0,0,1-.74-2,5.7,5.7,0,0,1,1.4-3.51,7.15,7.15,0,0,1,3.26-2.34l1.5,1.42a7.15,7.15,0,0,0-3.26,2.34,5.7,5.7,0,0,0-1.4,3.51A2.49,2.49,0,0,0,288.38,161.75Z"/></clipPath><clipPath id="clip-path-58" transform="translate(-104.36 -20.23)"><path class="cls-1" d="M310,158.39l1.5,1.42-.15-.11-1.5-1.42Z"/></clipPath><clipPath id="clip-path-59" transform="translate(-104.36 -20.23)"><path class="cls-1" d="M310.5,159.64l-1.5-1.42a1,1,0,0,1,.87.05l1.5,1.42A1,1,0,0,0,310.5,159.64Z"/></clipPath><clipPath id="clip-path-60" transform="translate(-104.36 -20.23)"><path class="cls-1" d="M302,164.38l-1.5-1.42a.81.81,0,0,1-.24-.58l1.5,1.42A.81.81,0,0,0,302,164.38Z"/></clipPath><clipPath id="clip-path-61" transform="translate(-104.36 -20.23)"><path class="cls-1" d="M308.1,153.06l1.5,1.42-.15-.11a1,1,0,0,0-.89,0l-1.5-1.42a1,1,0,0,1,.89,0Z"/></clipPath><clipPath id="clip-path-62" transform="translate(-104.36 -20.23)"><path class="cls-1" d="M309.68,146.57l1.5,1.42-.14-.1a1,1,0,0,0-.89,0l-1.5-1.42a1,1,0,0,1,.89,0Z"/></clipPath><clipPath id="clip-path-63" transform="translate(-104.36 -20.23)"><path class="cls-1" d="M301.42,152l-1.5-1.42a1.49,1.49,0,0,1,.34-1l1.5,1.42A1.49,1.49,0,0,0,301.42,152Z"/></clipPath><clipPath id="clip-path-64" transform="translate(-104.36 -20.23)"><path class="cls-1" d="M301.77,151l-1.5-1.42a1.76,1.76,0,0,1,.85-.64l1.5,1.42A1.76,1.76,0,0,0,301.77,151Z"/></clipPath><clipPath id="clip-path-65" transform="translate(-104.36 -20.23)"><path class="cls-1" d="M320,151.7l1.5,1.42a.87.87,0,0,1,.26.67,2.63,2.63,0,0,1-.71,1.68l-1.5-1.42a2.63,2.63,0,0,0,.71-1.68A.87.87,0,0,0,320,151.7Z"/></clipPath><clipPath id="clip-path-66" transform="translate(-104.36 -20.23)"><path class="cls-1" d="M316.88,156.55l-1.5-1.42a1.39,1.39,0,0,0,.82.32,4.17,4.17,0,0,0,1.72-.25,3.69,3.69,0,0,0,1.65-1.15l1.5,1.42a3.69,3.69,0,0,1-1.65,1.15,4.17,4.17,0,0,1-1.72.25A1.39,1.39,0,0,1,316.88,156.55Z"/></clipPath><clipPath id="clip-path-67" transform="translate(-104.36 -20.23)"><path class="cls-1" d="M315,154.44l1.5,1.42a.78.78,0,0,0-.38-.19l-1.5-1.42A.78.78,0,0,1,315,154.44Z"/></clipPath><clipPath id="clip-path-68" transform="translate(-104.36 -20.23)"><path class="cls-1" d="M314.94,158.59l-1.5-1.42a2.46,2.46,0,0,1-.63-1,1.26,1.26,0,0,1,.1-.93l1.5,1.42a1.26,1.26,0,0,0-.1.93A2.46,2.46,0,0,0,314.94,158.59Z"/></clipPath><clipPath id="clip-path-69" transform="translate(-104.36 -20.23)"><path class="cls-1" d="M314.4,156.65l-1.5-1.42a1.87,1.87,0,0,1,.74-.79,1.76,1.76,0,0,1,.3-.14,1.21,1.21,0,0,1,.63-.06l1.5,1.42a1.21,1.21,0,0,0-.63.06,1.76,1.76,0,0,0-.3.14A1.87,1.87,0,0,0,314.4,156.65Z"/></clipPath><clipPath id="clip-path-70" transform="translate(-104.36 -20.23)"><path class="cls-1" d="M322,149.7l1.5,1.42a2.54,2.54,0,0,0-.39-.3q-1.39-.9-3.94-.07l-1.5-1.42q2.55-.82,3.94.07A2.54,2.54,0,0,1,322,149.7Z"/></clipPath><clipPath id="clip-path-71" transform="translate(-104.36 -20.23)"><path class="cls-1" d="M321.84,148l-1.5-1.42a.8.8,0,0,1-.2-.33.87.87,0,0,0-.23-.36l1.5,1.42a.87.87,0,0,1,.23.36A.8.8,0,0,0,321.84,148Z"/></clipPath><clipPath id="clip-path-72" transform="translate(-104.36 -20.23)"><path class="cls-1" d="M316.78,150.72l-1.5-1.42.14.11a2.7,2.7,0,0,0,2.19-.08l1.5,1.42a2.7,2.7,0,0,1-2.19.08Z"/></clipPath><clipPath id="clip-path-73" transform="translate(-104.36 -20.23)"><path class="cls-1" d="M321.85,143.82l1.5,1.42a2.76,2.76,0,0,0-1.48-.68,6.37,6.37,0,0,0-3.09.36l-1.5-1.42a6.37,6.37,0,0,1,3.09-.36A2.76,2.76,0,0,1,321.85,143.82Z"/></clipPath><clipPath id="clip-path-74" transform="translate(-104.36 -20.23)"><path class="cls-1" d="M314.82,152.73l-1.5-1.42a2.49,2.49,0,0,1-.74-2,5.7,5.7,0,0,1,1.4-3.51,7.22,7.22,0,0,1,3.3-2.36l1.5,1.42a7.22,7.22,0,0,0-3.3,2.36,5.7,5.7,0,0,0-1.4,3.51A2.49,2.49,0,0,0,314.82,152.73Z"/></clipPath></defs><title>responses</title><polygon class="cls-2" points="1.5 101.37 150.35 50.27 235.46 148.58 87.04 200.19 1.5 101.37"/><polygon class="cls-3" points="235.46 100.32 86.61 151.42 1.5 53.1 149.93 1.5 235.46 100.32"/><polygon class="cls-4" points="1.5 53.38 86.61 151.7 235.46 100.6 235.46 148.86 87.04 200.47 1.5 101.65 1.5 53.38"/><g class="cls-5"><g class="cls-5"><g class="cls-6"><g class="cls-5"><path d="M208,196.46l-1.5-1.42a.92.92,0,0,1-.13-.16l1.5,1.42a.92.92,0,0,0,.13.16" transform="translate(-104.36 -20.23)"/></g></g></g><g class="cls-5"><g class="cls-7"><g class="cls-5"><path d="M200.81,198.8l-1.5-1.42a.8.8,0,0,1-.24-.6l1.5,1.42a.8.8,0,0,0,.24.6" transform="translate(-104.36 -20.23)"/></g></g></g><polygon points="103.54 176.07 102.04 174.66 99.13 170.3 100.63 171.72 103.54 176.07"/><g class="cls-5"><g class="cls-8"><g class="cls-5"><path d="M206,189.28l-1.5-1.42.31-.13,1.5,1.42-.31.13" transform="translate(-104.36 -20.23)"/><path d="M206.28,189.15l-1.5-1.42.28-.15,1.5,1.42-.28.15" transform="translate(-104.36 -20.23)"/><path d="M206.56,189l-1.5-1.42.21-.13,1.5,1.42-.21.13" transform="translate(-104.36 -20.23)"/><path d="M206.76,188.86l-1.5-1.42.17-.13,1.5,1.42-.17.13" transform="translate(-104.36 -20.23)"/><path d="M206.94,188.73l-1.5-1.42.15-.13,1.5,1.42-.15.13" transform="translate(-104.36 -20.23)"/><path d="M207.09,188.6l-1.5-1.42.14-.14,1.5,1.42-.14.14" transform="translate(-104.36 -20.23)"/><path d="M207.23,188.46l-1.5-1.42.14-.15,1.5,1.42-.14.15" transform="translate(-104.36 -20.23)"/><path d="M207.37,188.32l-1.5-1.42.08-.09,1.5,1.42-.08.09" transform="translate(-104.36 -20.23)"/></g></g></g><g class="cls-5"><g class="cls-9"><g class="cls-5"><path d="M207.45,188.22l-1.5-1.42v0l1.5,1.42v0" transform="translate(-104.36 -20.23)"/><path d="M207.47,188.21l-1.5-1.42.11-.15,1.5,1.42-.11.15" transform="translate(-104.36 -20.23)"/><path d="M207.58,188.06l-1.5-1.42.1-.15,1.5,1.42-.1.15" transform="translate(-104.36 -20.23)"/><path d="M207.68,187.91l-1.5-1.42.09-.15,1.5,1.42-.09.15" transform="translate(-104.36 -20.23)"/><path d="M207.77,187.76l-1.5-1.42.08-.16,1.5,1.42-.08.16" transform="translate(-104.36 -20.23)"/><path d="M207.85,187.61l-1.5-1.42.08-.19,1.5,1.42-.08.19" transform="translate(-104.36 -20.23)"/><path d="M207.92,187.42l-1.5-1.42a1.72,1.72,0,0,0,.1-.64,1.12,1.12,0,0,0-.33-.83l1.5,1.42a1.12,1.12,0,0,1,.33.83,1.72,1.72,0,0,1-.1.64" transform="translate(-104.36 -20.23)"/></g></g></g><polygon points="98.45 170.13 96.95 168.71 100.11 167.63 101.61 169.05 98.45 170.13"/><g class="cls-5"><g class="cls-10"><g class="cls-5"><path d="M205.71,183.41l-1.5-1.42.43-.13,1.5,1.42-.43.13" transform="translate(-104.36 -20.23)"/><path d="M206.14,183.28l-1.5-1.42.48-.11,1.5,1.42-.48.11" transform="translate(-104.36 -20.23)"/><path d="M206.62,183.17l-1.5-1.42a4.37,4.37,0,0,1,1-.06l1.5,1.42a4.37,4.37,0,0,0-1,.06" transform="translate(-104.36 -20.23)"/><path d="M207.65,183.11l-1.5-1.42a3.59,3.59,0,0,1,.48.06l1.5,1.42a3.59,3.59,0,0,0-.48-.06" transform="translate(-104.36 -20.23)"/><path d="M208.12,183.17l-1.5-1.42.37.1,1.5,1.42-.37-.1" transform="translate(-104.36 -20.23)"/><path d="M208.49,183.27l-1.5-1.42.32.12,1.5,1.42-.32-.12" transform="translate(-104.36 -20.23)"/><path d="M208.82,183.39l-1.5-1.42.21.1.09,0,1.5,1.42-.09,0-.21-.1" transform="translate(-104.36 -20.23)"/><path d="M209.11,183.54l-1.5-1.42.25.16,1.5,1.42-.25-.16" transform="translate(-104.36 -20.23)"/><path d="M209.37,183.7l-1.5-1.42.21.16,1.5,1.42-.21-.16" transform="translate(-104.36 -20.23)"/><path d="M209.58,183.87l-1.5-1.42.08.08,1.5,1.42-.08-.08" transform="translate(-104.36 -20.23)"/></g></g></g><polygon points="96.21 177.97 94.71 176.56 94.37 164.81 95.87 166.22 96.21 177.97"/><polygon points="97.04 164.65 95.55 163.23 99.86 161.76 101.36 163.18 97.04 164.65"/><g class="cls-5"><g class="cls-11"><g class="cls-5"><path d="M200.22,186.45l-1.5-1.42a1.27,1.27,0,0,1,.07-.48l1.5,1.42a1.27,1.27,0,0,0-.07.48" transform="translate(-104.36 -20.23)"/><path d="M200.3,186l-1.5-1.42.05-.13,1.5,1.42-.05.13" transform="translate(-104.36 -20.23)"/><path d="M200.35,185.85l-1.5-1.42.06-.11,1.5,1.42-.06.11" transform="translate(-104.36 -20.23)"/><path d="M200.41,185.73l-1.5-1.42.06-.1,1.5,1.42-.06.1" transform="translate(-104.36 -20.23)"/><path d="M200.47,185.63l-1.5-1.42.07-.1,1.5,1.42-.07.1" transform="translate(-104.36 -20.23)"/><path d="M200.54,185.53l-1.5-1.42v0l1.5,1.42v0" transform="translate(-104.36 -20.23)"/></g></g></g><g class="cls-5"><g class="cls-12"><g class="cls-5"><path d="M200.55,185.52l-1.5-1.42,0,0,1.5,1.42,0,0" transform="translate(-104.36 -20.23)"/><path d="M200.58,185.48l-1.5-1.42.08-.09,1.5,1.42-.08.09" transform="translate(-104.36 -20.23)"/><path d="M200.66,185.38l-1.5-1.42.08-.08,1.5,1.42-.08.08" transform="translate(-104.36 -20.23)"/><path d="M200.73,185.3l-1.5-1.42.08-.07,1.5,1.42-.08.07" transform="translate(-104.36 -20.23)"/><path d="M200.81,185.23l-1.5-1.42.08-.07,1.5,1.42-.08.07" transform="translate(-104.36 -20.23)"/><path d="M200.89,185.16l-1.5-1.42.09-.07,1.5,1.42-.09.07" transform="translate(-104.36 -20.23)"/><path d="M201,185.09l-1.5-1.42.1-.07,1.5,1.42-.1.07" transform="translate(-104.36 -20.23)"/><path d="M201.09,185l-1.5-1.42.14-.07,1.5,1.42-.14.07" transform="translate(-104.36 -20.23)"/><path d="M201.22,185l-1.5-1.42.18-.08,1.5,1.42-.18.08" transform="translate(-104.36 -20.23)"/></g></g></g><path d="M207.57,190.81l2.49,3.73a1,1,0,0,1,.08.86,1.76,1.76,0,0,1-.6.88,1.58,1.58,0,0,1-.49.29l0,0a.85.85,0,0,1-1.11-.28L205,192l-2.11.72.14,4.7a1.47,1.47,0,0,1-.33.94,1.79,1.79,0,0,1-.86.63,1,1,0,0,1-.87,0,.78.78,0,0,1-.38-.7l-.34-11.75a1.47,1.47,0,0,1,.33-.94,1.84,1.84,0,0,1,.85-.64l4.31-1.47a4.08,4.08,0,0,1,3.31.09,2.65,2.65,0,0,1,1.45,2.44,4.77,4.77,0,0,1-.79,2.65A7,7,0,0,1,207.57,190.81Zm-1.6-1.53a3.55,3.55,0,0,0,1.48-1.06,2.16,2.16,0,0,0,.58-1.45,1.1,1.1,0,0,0-.68-1.05,2.09,2.09,0,0,0-1.56,0l-3.08,1,.1,3.58,3.17-1.08" transform="translate(-104.36 -20.23)"/></g><g class="cls-5"><g class="cls-5"><g class="cls-13"><g class="cls-5"><path d="M223,189.45l-1.5-1.42.12,0,1.5,1.42-.12,0" transform="translate(-104.36 -20.23)"/><path d="M223.14,189.41l-1.5-1.42.11,0,1.5,1.42-.11,0" transform="translate(-104.36 -20.23)"/><path d="M223.25,189.39l-1.5-1.42.25,0,1.5,1.42-.25,0" transform="translate(-104.36 -20.23)"/><path d="M223.49,189.37,222,188l.12,0,1.5,1.42-.12,0" transform="translate(-104.36 -20.23)"/><path d="M223.61,189.39l-1.5-1.42.09,0,1.5,1.42-.09,0" transform="translate(-104.36 -20.23)"/><path d="M223.7,189.41l-1.5-1.42.08,0,1.5,1.42-.08,0" transform="translate(-104.36 -20.23)"/><path d="M223.79,189.44l-1.5-1.42.09,0,1.5,1.42-.09,0" transform="translate(-104.36 -20.23)"/><path d="M223.87,189.49l-1.5-1.42h0l.06,0,1.5,1.42-.06,0h0" transform="translate(-104.36 -20.23)"/><path d="M224,189.54l-1.5-1.42.06,0,1.5,1.42-.06,0" transform="translate(-104.36 -20.23)"/><path d="M224,189.59l-1.5-1.42,0,0,1.5,1.42,0,0" transform="translate(-104.36 -20.23)"/></g></g></g><polygon points="112.37 171.36 110.87 169.94 117.17 167.8 118.66 169.22 112.37 171.36"/><g class="cls-5"><g class="cls-14"><g class="cls-5"><path d="M214.52,194.18l-1.5-1.42a.78.78,0,0,1-.23-.58l1.5,1.42a.78.78,0,0,0,.23.58" transform="translate(-104.36 -20.23)"/></g></g></g><g class="cls-5"><g class="cls-15"><g class="cls-5"><path d="M222,184.18l-1.5-1.42,0,0,1.5,1.42,0,0" transform="translate(-104.36 -20.23)"/><path d="M222,184.21l-1.5-1.42.07.05,1.5,1.42-.07-.05" transform="translate(-104.36 -20.23)"/><path d="M222.09,184.26l-1.5-1.42,0,0,1.5,1.42,0,0" transform="translate(-104.36 -20.23)"/></g></g></g><g class="cls-5"><g class="cls-16"><g class="cls-5"><path d="M221.09,184.14l-1.5-1.42.1,0,1.5,1.42-.1,0" transform="translate(-104.36 -20.23)"/><path d="M221.19,184.11l-1.5-1.42.13,0,1.5,1.42-.13,0" transform="translate(-104.36 -20.23)"/><path d="M221.31,184.08l-1.5-1.42a1.16,1.16,0,0,1,.27,0l1.5,1.42a1.16,1.16,0,0,0-.27,0" transform="translate(-104.36 -20.23)"/><path d="M221.59,184.07l-1.5-1.42.13,0,1.5,1.42-.13,0" transform="translate(-104.36 -20.23)"/><path d="M221.71,184.08l-1.5-1.42.1,0,1.5,1.42-.1,0" transform="translate(-104.36 -20.23)"/><path d="M221.81,184.11l-1.5-1.42.09,0,1.5,1.42-.09,0" transform="translate(-104.36 -20.23)"/><path d="M221.9,184.14l-1.5-1.42.07,0,1.5,1.42-.07,0" transform="translate(-104.36 -20.23)"/></g></g></g><polygon points="112.19 165.46 110.7 164.04 115.23 162.49 116.73 163.91 112.19 165.46"/><g class="cls-5"><g class="cls-17"><g class="cls-5"><path d="M222.67,177.65l-1.5-1.42.1,0,1.5,1.42-.1,0" transform="translate(-104.36 -20.23)"/><path d="M222.77,177.62l-1.5-1.42.13,0,1.5,1.42-.13,0" transform="translate(-104.36 -20.23)"/><path d="M222.9,177.59l-1.5-1.42a1.14,1.14,0,0,1,.27,0l1.5,1.42a1.14,1.14,0,0,0-.27,0" transform="translate(-104.36 -20.23)"/><path d="M223.17,177.57l-1.5-1.42.12,0,1.5,1.42-.12,0" transform="translate(-104.36 -20.23)"/><path d="M223.29,177.59l-1.5-1.42.1,0,1.5,1.42-.1,0" transform="translate(-104.36 -20.23)"/><path d="M223.39,177.62l-1.5-1.42.08,0,1.5,1.42-.08,0" transform="translate(-104.36 -20.23)"/><path d="M223.47,177.65l-1.5-1.42.07,0,1.5,1.42-.07,0" transform="translate(-104.36 -20.23)"/><path d="M223.54,177.68l-1.5-1.42h0l0,0,1.5,1.42,0,0h0" transform="translate(-104.36 -20.23)"/><path d="M223.6,177.72l-1.5-1.42.06,0,1.5,1.42-.06,0" transform="translate(-104.36 -20.23)"/><path d="M223.66,177.77l-1.5-1.42,0,0,1.5,1.42,0,0" transform="translate(-104.36 -20.23)"/></g></g></g><polygon points="109.94 173.37 108.44 171.96 108.09 160.14 109.59 161.56 109.94 173.37"/><polygon points="110.75 159.98 109.25 158.56 116.82 156 118.32 157.42 110.75 159.98"/><g class="cls-5"><g class="cls-18"><g class="cls-5"><path d="M213.95,181.79l-1.5-1.42a1.27,1.27,0,0,1,.07-.48l1.5,1.42a1.27,1.27,0,0,0-.07.48" transform="translate(-104.36 -20.23)"/><path d="M214,181.31l-1.5-1.42.05-.13,1.5,1.42-.05.13" transform="translate(-104.36 -20.23)"/><path d="M214.07,181.19l-1.5-1.42.05-.1,1.5,1.42-.05.1" transform="translate(-104.36 -20.23)"/><path d="M214.12,181.08l-1.5-1.42.05-.09,1.5,1.42-.05.09" transform="translate(-104.36 -20.23)"/><path d="M214.18,181l-1.5-1.42.06-.09,1.5,1.42-.06.09" transform="translate(-104.36 -20.23)"/><path d="M214.23,180.91l-1.5-1.42.05-.07,1.5,1.42-.05.07" transform="translate(-104.36 -20.23)"/></g></g></g><g class="cls-5"><g class="cls-19"><g class="cls-5"><polyline points="109.93 160.61 108.44 159.19 108.44 159.19 109.94 160.6 109.93 160.61"/><path d="M214.29,180.83l-1.5-1.42.07-.09,1.5,1.42-.07.09" transform="translate(-104.36 -20.23)"/><path d="M214.36,180.75l-1.5-1.42.06-.08,1.5,1.42-.06.08" transform="translate(-104.36 -20.23)"/><path d="M214.42,180.67l-1.5-1.42.06-.07,1.5,1.42-.06.07" transform="translate(-104.36 -20.23)"/><path d="M214.49,180.6l-1.5-1.42.07-.06,1.5,1.42-.07.06" transform="translate(-104.36 -20.23)"/><path d="M214.55,180.54l-1.5-1.42.07-.06,1.5,1.42-.07.06" transform="translate(-104.36 -20.23)"/><path d="M214.63,180.48l-1.5-1.42.08-.06,1.5,1.42-.08.06" transform="translate(-104.36 -20.23)"/><path d="M214.71,180.42l-1.5-1.42.1-.06,1.5,1.42-.1.06" transform="translate(-104.36 -20.23)"/><path d="M214.8,180.36l-1.5-1.42.13-.07,1.5,1.42-.13.07" transform="translate(-104.36 -20.23)"/><path d="M214.93,180.29l-1.5-1.42.18-.07,1.5,1.42-.18.07" transform="translate(-104.36 -20.23)"/></g></g></g><path d="M215.11,180.21l7.56-2.56a1,1,0,0,1,.89,0,.82.82,0,0,1,.38.71,1.4,1.4,0,0,1-.34.94,1.73,1.73,0,0,1-.85.65l-6.29,2.12.1,3.58,4.54-1.55a1.07,1.07,0,0,1,.89,0,.79.79,0,0,1,.38.7,1.5,1.5,0,0,1-.33,1,1.83,1.83,0,0,1-.84.62L216.62,188l.11,3.57,6.29-2.14a1,1,0,0,1,.87.05.79.79,0,0,1,.39.7,1.42,1.42,0,0,1-.34.94,1.68,1.68,0,0,1-.82.63l-7.56,2.58a1,1,0,0,1-.87-.05.75.75,0,0,1-.39-.69l-.35-11.82a1.42,1.42,0,0,1,.34-1A1.68,1.68,0,0,1,215.11,180.21Z" transform="translate(-104.36 -20.23)"/></g><g class="cls-5"><g class="cls-5"><g class="cls-20"><g class="cls-5"><path d="M230.22,186.69l-1.5-1.42h.05l1.5,1.42h-.05" transform="translate(-104.36 -20.23)"/><path d="M230.27,186.69l-1.5-1.42a3.61,3.61,0,0,0,.84-.05l1.5,1.42a3.61,3.61,0,0,1-.84.05" transform="translate(-104.36 -20.23)"/><path d="M231.11,186.64l-1.5-1.42.44-.1,1.5,1.42-.44.1" transform="translate(-104.36 -20.23)"/><path d="M231.55,186.54l-1.5-1.42.39-.12.43-.18,1.5,1.42-.43.18-.39.12" transform="translate(-104.36 -20.23)"/><path d="M232.37,186.25l-1.5-1.42.3-.16,1.5,1.42-.3.16" transform="translate(-104.36 -20.23)"/><path d="M232.66,186.09l-1.5-1.42.21-.14,1.5,1.42-.21.14" transform="translate(-104.36 -20.23)"/><path d="M232.88,185.95l-1.5-1.42.18-.13,1.5,1.42-.18.13" transform="translate(-104.36 -20.23)"/><path d="M233.05,185.82l-1.5-1.42.16-.13,1.5,1.42-.16.13" transform="translate(-104.36 -20.23)"/><path d="M233.21,185.68l-1.5-1.42.14-.14,1.5,1.42-.14.14" transform="translate(-104.36 -20.23)"/><path d="M233.35,185.55l-1.5-1.42L232,184l1.5,1.42-.14.15" transform="translate(-104.36 -20.23)"/><path d="M233.49,185.4,232,184l.1-.12.05-.06,1.5,1.42-.05.06-.1.12" transform="translate(-104.36 -20.23)"/><path d="M233.65,185.22l-1.5-1.42.13-.17,1.5,1.42-.13.17" transform="translate(-104.36 -20.23)"/><path d="M233.77,185.05l-1.5-1.42.11-.16,1.5,1.42-.11.16" transform="translate(-104.36 -20.23)"/><path d="M233.89,184.89l-1.5-1.42.1-.17,1.5,1.42-.1.17" transform="translate(-104.36 -20.23)"/><path d="M234,184.72l-1.5-1.42.09-.18,1.5,1.42-.09.18" transform="translate(-104.36 -20.23)"/><path d="M234.08,184.53l-1.5-1.42q.05-.11.09-.23l1.5,1.42q0,.11-.09.23" transform="translate(-104.36 -20.23)"/><path d="M234.17,184.31l-1.5-1.42a2.21,2.21,0,0,0,.13-.7.87.87,0,0,0-.26-.67l1.5,1.42a.87.87,0,0,1,.26.67,2.21,2.21,0,0,1-.13.7" transform="translate(-104.36 -20.23)"/></g></g></g><g class="cls-5"><g class="cls-21"><g class="cls-5"><path d="M229.41,186.37l-1.5-1.42,0,0,1.5,1.42,0,0" transform="translate(-104.36 -20.23)"/><path d="M229.44,186.39l-1.5-1.42.07.06,1.5,1.42-.07-.06" transform="translate(-104.36 -20.23)"/><path d="M229.51,186.45,228,185l.09.05,1.5,1.42-.09-.05" transform="translate(-104.36 -20.23)"/><path d="M229.6,186.51l-1.5-1.42.1.05,1.5,1.42-.1-.05" transform="translate(-104.36 -20.23)"/><path d="M229.7,186.56l-1.5-1.42.13.05,1.5,1.42-.13-.05" transform="translate(-104.36 -20.23)"/><path d="M229.84,186.61l-1.5-1.42.19,0,1.5,1.42-.19,0" transform="translate(-104.36 -20.23)"/><path d="M230,186.66l-1.5-1.42.2,0,1.5,1.42-.2,0" transform="translate(-104.36 -20.23)"/></g></g></g><g class="cls-5"><g class="cls-22"><g class="cls-5"><path d="M228.59,185.47l-1.5-1.42.07,0,1.5,1.42-.07,0" transform="translate(-104.36 -20.23)"/><path d="M228.67,185.5l-1.5-1.42.09,0,1.5,1.42-.09,0" transform="translate(-104.36 -20.23)"/><path d="M228.75,185.53l-1.5-1.42.07,0,1.5,1.42-.07,0" transform="translate(-104.36 -20.23)"/><path d="M228.83,185.57l-1.5-1.42.06,0,1.5,1.42-.06,0" transform="translate(-104.36 -20.23)"/><path d="M228.89,185.6l-1.5-1.42.06,0,1.5,1.42-.06,0" transform="translate(-104.36 -20.23)"/><path d="M228.94,185.65l-1.5-1.42,0,0,1.5,1.42,0,0" transform="translate(-104.36 -20.23)"/></g></g></g><g class="cls-5"><g class="cls-23"><g class="cls-5"><path d="M227.46,188.4,226,187a2.46,2.46,0,0,1-.63-1,1.16,1.16,0,0,1,0-.76l1.5,1.42a1.16,1.16,0,0,0,0,.76,2.46,2.46,0,0,0,.63,1" transform="translate(-104.36 -20.23)"/><path d="M226.86,186.63l-1.5-1.42.06-.16,1.5,1.42-.06.16" transform="translate(-104.36 -20.23)"/></g></g></g><g class="cls-5"><g class="cls-24"><g class="cls-5"><polyline points="123.3 165.45 121.81 164.03 121.81 164.03 123.3 165.45 123.3 165.45"/><path d="M227.66,185.68l-1.5-1.42.15-.08,1.5,1.42-.15.08" transform="translate(-104.36 -20.23)"/><path d="M227.81,185.6l-1.5-1.42.17-.07.1,0,1.5,1.42-.1,0-.17.07" transform="translate(-104.36 -20.23)"/><path d="M228.07,185.5l-1.5-1.42.11,0,1.5,1.42-.11,0" transform="translate(-104.36 -20.23)"/><path d="M228.18,185.47l-1.5-1.42a1.18,1.18,0,0,1,.28,0l1.5,1.42a1.18,1.18,0,0,0-.28,0" transform="translate(-104.36 -20.23)"/><path d="M228.46,185.46,227,184l.13,0,1.5,1.42-.13,0" transform="translate(-104.36 -20.23)"/></g></g></g><g class="cls-5"><g class="cls-25"><g class="cls-5"><path d="M226.92,186.47l-1.5-1.42,0-.08,1.5,1.42,0,.08" transform="translate(-104.36 -20.23)"/><path d="M227,186.38l-1.5-1.42.06-.1,1.5,1.42-.06.1" transform="translate(-104.36 -20.23)"/><path d="M227,186.28l-1.5-1.42.06-.09,1.5,1.42-.06.09" transform="translate(-104.36 -20.23)"/><path d="M227.09,186.19l-1.5-1.42.06-.08,1.5,1.42-.06.08" transform="translate(-104.36 -20.23)"/><path d="M227.15,186.11l-1.5-1.42.06-.07,1.5,1.42-.06.07" transform="translate(-104.36 -20.23)"/><path d="M227.21,186l-1.5-1.42.06-.07,1.5,1.42-.06.07" transform="translate(-104.36 -20.23)"/><path d="M227.27,186l-1.5-1.42.07-.07,1.5,1.42-.07.07" transform="translate(-104.36 -20.23)"/><path d="M227.34,185.91l-1.5-1.42.08-.07,1.5,1.42-.08.07" transform="translate(-104.36 -20.23)"/><path d="M227.42,185.84l-1.5-1.42.09-.07,1.5,1.42-.09.07" transform="translate(-104.36 -20.23)"/><path d="M227.51,185.77l-1.5-1.42.12-.08,1.5,1.42-.12.08" transform="translate(-104.36 -20.23)"/><path d="M227.63,185.7l-1.5-1.42,0,0,1.5,1.42,0,0" transform="translate(-104.36 -20.23)"/></g></g></g><g class="cls-5"><g class="cls-26"><g class="cls-5"><path d="M231.68,180.55l-1.5-1.42.55-.16,1.5,1.42-.55.16" transform="translate(-104.36 -20.23)"/><path d="M232.23,180.39l-1.5-1.42q.35-.09.68-.15l1.5,1.42q-.33.06-.68.15" transform="translate(-104.36 -20.23)"/><path d="M232.91,180.24l-1.5-1.42a5.28,5.28,0,0,1,1.23-.08l1.5,1.42a5.28,5.28,0,0,0-1.23.08" transform="translate(-104.36 -20.23)"/><path d="M234.14,180.16l-1.5-1.42a3.68,3.68,0,0,1,.48.06l1.5,1.42a3.68,3.68,0,0,0-.48-.06" transform="translate(-104.36 -20.23)"/><path d="M234.63,180.23l-1.5-1.42.35.09,1.5,1.42-.35-.09" transform="translate(-104.36 -20.23)"/><path d="M235,180.31l-1.5-1.42.28.11,1.5,1.42-.28-.11" transform="translate(-104.36 -20.23)"/><path d="M235.25,180.42l-1.5-1.42.24.12,1.5,1.42-.24-.12" transform="translate(-104.36 -20.23)"/><path d="M235.49,180.54l-1.5-1.42.13.08.09.06,1.5,1.42-.09-.06-.13-.08" transform="translate(-104.36 -20.23)"/><path d="M235.71,180.68l-1.5-1.42.21.16,1.5,1.42-.21-.16" transform="translate(-104.36 -20.23)"/><path d="M235.92,180.84l-1.5-1.42.08.07,1.5,1.42-.08-.07" transform="translate(-104.36 -20.23)"/></g></g></g><polygon points="127.27 160.34 125.78 158.93 125.83 158.91 127.33 160.32 127.27 160.34"/><g class="cls-5"><g class="cls-27"><g class="cls-5"><path d="M234.36,177.78l-1.5-1.42a.8.8,0,0,1-.2-.32.88.88,0,0,0-.23-.37l1.5,1.42a.88.88,0,0,1,.23.37.8.8,0,0,0,.2.32" transform="translate(-104.36 -20.23)"/></g></g></g><g class="cls-5"><g class="cls-28"><g class="cls-5"><path d="M229.44,180.65l-1.5-1.42,0,0,1.5,1.42,0,0" transform="translate(-104.36 -20.23)"/><path d="M229.48,180.67l-1.5-1.42.1,0,1.5,1.42-.1,0" transform="translate(-104.36 -20.23)"/><path d="M229.58,180.72l-1.5-1.42.12,0,1.5,1.42-.12,0" transform="translate(-104.36 -20.23)"/><path d="M229.7,180.77l-1.5-1.42.16,0,1.5,1.42-.16,0" transform="translate(-104.36 -20.23)"/><path d="M229.86,180.81l-1.5-1.42.24,0,1.5,1.42-.24,0" transform="translate(-104.36 -20.23)"/><path d="M230.09,180.84l-1.5-1.42a3,3,0,0,0,.69,0l1.5,1.42a3,3,0,0,1-.69,0" transform="translate(-104.36 -20.23)"/><path d="M230.79,180.79l-1.5-1.42.45-.1,1.5,1.42-.45.1" transform="translate(-104.36 -20.23)"/><path d="M231.24,180.69l-1.5-1.42.39-.12,1.5,1.42-.39.12" transform="translate(-104.36 -20.23)"/></g></g></g><g class="cls-5"><g class="cls-29"><g class="cls-5"><path d="M229.31,180.55l-1.5-1.42,0,0,1.5,1.42,0,0" transform="translate(-104.36 -20.23)"/><path d="M229.35,180.58l-1.5-1.42.09.07,1.5,1.42-.09-.07" transform="translate(-104.36 -20.23)"/><path d="M229.43,180.64l-1.5-1.42h0l1.5,1.42h0" transform="translate(-104.36 -20.23)"/></g></g></g><g class="cls-5"><g class="cls-30"><g class="cls-5"><path d="M231.26,174.74l-1.5-1.42.07,0,.6-.18,1.5,1.42-.6.18-.07,0" transform="translate(-104.36 -20.23)"/><path d="M231.93,174.53l-1.5-1.42.64-.14,1.5,1.42-.64.14" transform="translate(-104.36 -20.23)"/><path d="M232.57,174.39l-1.5-1.42a5.65,5.65,0,0,1,1.32-.08l1.5,1.42a5.65,5.65,0,0,0-1.32.08" transform="translate(-104.36 -20.23)"/><path d="M233.89,174.31l-1.5-1.42.5.06.11,0,1.5,1.42-.11,0-.5-.06" transform="translate(-104.36 -20.23)"/><path d="M234.5,174.39,233,173l.39.1,1.5,1.42-.39-.1" transform="translate(-104.36 -20.23)"/><path d="M234.89,174.49l-1.5-1.42.29.11,1.5,1.42-.29-.11" transform="translate(-104.36 -20.23)"/><path d="M235.18,174.6l-1.5-1.42.24.12,1.5,1.42-.24-.12" transform="translate(-104.36 -20.23)"/><path d="M235.42,174.72l-1.5-1.42.2.13,1.5,1.42-.2-.13" transform="translate(-104.36 -20.23)"/><path d="M235.62,174.85l-1.5-1.42.18.14,1.5,1.42-.18-.14" transform="translate(-104.36 -20.23)"/><path d="M235.8,175l-1.5-1.42.07.07,1.5,1.42-.07-.07" transform="translate(-104.36 -20.23)"/></g></g></g><g class="cls-5"><g class="cls-31"><g class="cls-5"><path d="M227.34,182.55l-1.5-1.42a2.49,2.49,0,0,1-.74-2,4.89,4.89,0,0,1,.28-1.57l1.5,1.42a4.89,4.89,0,0,0-.28,1.57,2.49,2.49,0,0,0,.74,2" transform="translate(-104.36 -20.23)"/><path d="M226.88,179l-1.5-1.42q.09-.25.2-.49l1.5,1.42q-.11.24-.2.49" transform="translate(-104.36 -20.23)"/><path d="M227.08,178.52l-1.5-1.42q.09-.2.2-.4l1.5,1.42q-.11.2-.2.4" transform="translate(-104.36 -20.23)"/><path d="M227.29,178.12l-1.5-1.42.22-.36,1.5,1.42-.22.36" transform="translate(-104.36 -20.23)"/><path d="M227.5,177.76l-1.5-1.42.24-.35,1.5,1.42-.24.35" transform="translate(-104.36 -20.23)"/><path d="M227.74,177.41l-1.5-1.42.25-.33,0,0,1.5,1.42,0,0-.25.33" transform="translate(-104.36 -20.23)"/><path d="M228,177.06l-1.5-1.42.27-.32,1.5,1.42-.27.32" transform="translate(-104.36 -20.23)"/><path d="M228.28,176.74l-1.5-1.42.29-.3,1.5,1.42-.29.3" transform="translate(-104.36 -20.23)"/><path d="M228.57,176.44l-1.5-1.42.29-.28,1.5,1.42-.29.28" transform="translate(-104.36 -20.23)"/><path d="M228.86,176.16l-1.5-1.42.31-.27,1.5,1.42-.31.27" transform="translate(-104.36 -20.23)"/><path d="M229.18,175.89l-1.5-1.42.35-.26,1.5,1.42-.35.26" transform="translate(-104.36 -20.23)"/><path d="M229.53,175.63l-1.5-1.42.41-.27,1.5,1.42-.41.27" transform="translate(-104.36 -20.23)"/><path d="M229.94,175.36l-1.5-1.42q.27-.16.55-.3l1.5,1.42q-.28.14-.55.3" transform="translate(-104.36 -20.23)"/><path d="M230.49,175.05l-1.5-1.42a7.08,7.08,0,0,1,.76-.32l1.5,1.42a7.08,7.08,0,0,0-.76.32" transform="translate(-104.36 -20.23)"/></g></g></g><path d="M231.26,174.74l.07,0a6.17,6.17,0,0,1,3.06-.35,2.49,2.49,0,0,1,2.12,1.71,1.22,1.22,0,0,1-.11.92,1.77,1.77,0,0,1-.73.78,1.81,1.81,0,0,1-.31.15,1.12,1.12,0,0,1-.61,0,.74.74,0,0,1-.59-.51,1.11,1.11,0,0,0-1.05-.69,4.12,4.12,0,0,0-1.71.26,3.75,3.75,0,0,0-1.67,1.15,2.7,2.7,0,0,0-.69,1.67.9.9,0,0,0,.41.8,2.73,2.73,0,0,0,2.19-.08l.05,0c1.69-.55,3-.53,3.94.07a2.44,2.44,0,0,1,1.12,2.26,5.68,5.68,0,0,1-1.4,3.49,7.32,7.32,0,0,1-3.3,2.36,6.22,6.22,0,0,1-3.1.36,2.49,2.49,0,0,1-2.12-1.71,1.25,1.25,0,0,1,.1-.92,1.83,1.83,0,0,1,.74-.79,1.68,1.68,0,0,1,.32-.15,1.2,1.2,0,0,1,.62-.05.77.77,0,0,1,.58.52,1.1,1.1,0,0,0,1,.69,4.32,4.32,0,0,0,1.72-.26,3.68,3.68,0,0,0,1.65-1.15,2.67,2.67,0,0,0,.71-1.68.86.86,0,0,0-.41-.79,2.65,2.65,0,0,0-2.19.06c-1.75.57-3.07.55-4,0a2.44,2.44,0,0,1-1.12-2.26,5.68,5.68,0,0,1,1.39-3.5A7.19,7.19,0,0,1,231.26,174.74Z" transform="translate(-104.36 -20.23)"/></g><g class="cls-5"><g class="cls-5"><g class="cls-32"><g class="cls-5"><path d="M241,185.18l-1.5-1.42a.81.81,0,0,1-.24-.58l1.5,1.42a.81.81,0,0,0,.24.58" transform="translate(-104.36 -20.23)"/></g></g></g><g class="cls-5"><g class="cls-33"><g class="cls-5"><path d="M246.17,175.61l-1.5-1.42L245,174l1.5,1.42-.34.14" transform="translate(-104.36 -20.23)"/><path d="M246.51,175.46,245,174l.27-.15,1.5,1.42-.27.15" transform="translate(-104.36 -20.23)"/><path d="M246.79,175.31l-1.5-1.42.2-.13,1.5,1.42-.2.13" transform="translate(-104.36 -20.23)"/><path d="M247,175.18l-1.5-1.42.17-.13,1.5,1.42-.17.13" transform="translate(-104.36 -20.23)"/><path d="M247.15,175.06l-1.5-1.42.15-.13,1.5,1.42-.15.13" transform="translate(-104.36 -20.23)"/><path d="M247.3,174.93l-1.5-1.42.14-.13,1.5,1.42-.14.13" transform="translate(-104.36 -20.23)"/><path d="M247.44,174.8l-1.5-1.42.13-.14,1.5,1.42-.13.14" transform="translate(-104.36 -20.23)"/><path d="M247.57,174.66l-1.5-1.42.1-.11,1.5,1.42-.1.11" transform="translate(-104.36 -20.23)"/></g></g></g><g class="cls-5"><g class="cls-34"><g class="cls-5"><path d="M247.67,174.55l-1.5-1.42v0l1.5,1.42v0" transform="translate(-104.36 -20.23)"/><path d="M247.68,174.53l-1.5-1.42.12-.15,1.5,1.42-.12.15" transform="translate(-104.36 -20.23)"/><path d="M247.8,174.38,246.3,173l.1-.15,1.5,1.42-.1.15" transform="translate(-104.36 -20.23)"/><path d="M247.9,174.23l-1.5-1.42.09-.15,1.5,1.42-.09.15" transform="translate(-104.36 -20.23)"/><path d="M248,174.08l-1.5-1.42.08-.16,1.5,1.42-.08.16" transform="translate(-104.36 -20.23)"/><path d="M248.07,173.92l-1.5-1.42.08-.19,1.5,1.42-.08.19" transform="translate(-104.36 -20.23)"/><path d="M248.15,173.73l-1.5-1.42a1.76,1.76,0,0,0,.1-.66,1.12,1.12,0,0,0-.34-.82l1.5,1.42a1.12,1.12,0,0,1,.34.82,1.76,1.76,0,0,1-.1.66" transform="translate(-104.36 -20.23)"/></g></g></g><polygon points="138.63 156.46 137.14 155.04 140.32 153.96 141.81 155.38 138.63 156.46"/><g class="cls-5"><g class="cls-35"><g class="cls-5"><path d="M249.26,169.78l-1.5-1.42.1.06,1.5,1.42-.1-.06" transform="translate(-104.36 -20.23)"/><path d="M249.36,169.84l-1.5-1.42.25.16,1.5,1.42-.25-.16" transform="translate(-104.36 -20.23)"/><path d="M249.61,170l-1.5-1.42.21.16,1.5,1.42-.21-.16" transform="translate(-104.36 -20.23)"/><path d="M249.83,170.16l-1.5-1.42.08.08,1.5,1.42-.08-.08" transform="translate(-104.36 -20.23)"/></g></g></g><g class="cls-5"><g class="cls-36"><g class="cls-5"><path d="M245.93,169.69l-1.5-1.42.43-.13,1.5,1.42-.43.13" transform="translate(-104.36 -20.23)"/><path d="M246.36,169.56l-1.5-1.42.49-.11,1.5,1.42-.49.11" transform="translate(-104.36 -20.23)"/><path d="M246.85,169.45l-1.5-1.42a4.38,4.38,0,0,1,1-.06l1.5,1.42a4.38,4.38,0,0,0-1,.06" transform="translate(-104.36 -20.23)"/><path d="M247.88,169.39l-1.5-1.42a3.58,3.58,0,0,1,.47.06l1.5,1.42a3.58,3.58,0,0,0-.47-.06" transform="translate(-104.36 -20.23)"/><path d="M248.35,169.46l-1.5-1.42.37.1,1.5,1.42-.37-.1" transform="translate(-104.36 -20.23)"/><path d="M248.72,169.55l-1.5-1.42.32.12,1.5,1.42-.32-.12" transform="translate(-104.36 -20.23)"/><path d="M249,169.67l-1.5-1.42.23.11,1.5,1.42-.23-.11" transform="translate(-104.36 -20.23)"/></g></g></g><polygon points="136.38 164.36 134.89 162.95 134.54 151.11 136.04 152.53 136.38 164.36"/><polygon points="137.2 150.95 135.7 149.54 140.08 148.05 141.57 149.46 137.2 150.95"/><path d="M249.26,169.78a2.66,2.66,0,0,1,1.46,2.45,5.18,5.18,0,0,1-1.24,3.33,7.06,7.06,0,0,1-3.14,2.34l-.17.07h-.06l-3,1,.14,4.74a1.47,1.47,0,0,1-.33.94,1.85,1.85,0,0,1-.87.64,1,1,0,0,1-.87-.05.77.77,0,0,1-.39-.69l-.35-11.84a1.51,1.51,0,0,1,.34-.94,1.72,1.72,0,0,1,.82-.63l4.37-1.49A4.08,4.08,0,0,1,249.26,169.78Zm-1.59,4.76a2.2,2.2,0,0,0,.58-1.47,1.11,1.11,0,0,0-.68-1.05,2,2,0,0,0-1.57,0l-3.11,1.06.1,3.61,3.18-1.08a3.45,3.45,0,0,0,1.5-1.06" transform="translate(-104.36 -20.23)"/><g class="cls-5"><g class="cls-37"><g class="cls-5"><path d="M240.39,172.76l-1.5-1.42a1.32,1.32,0,0,1,.08-.46l1.5,1.42a1.32,1.32,0,0,0-.08.46" transform="translate(-104.36 -20.23)"/><path d="M240.47,172.29l-1.5-1.42.05-.13,1.5,1.42-.05.13" transform="translate(-104.36 -20.23)"/><path d="M240.53,172.16l-1.5-1.42.06-.11,1.5,1.42-.06.11" transform="translate(-104.36 -20.23)"/><path d="M240.58,172l-1.5-1.42.06-.1,1.5,1.42-.06.1" transform="translate(-104.36 -20.23)"/><path d="M240.64,171.95l-1.5-1.42.07-.11,1.5,1.42-.07.11" transform="translate(-104.36 -20.23)"/><path d="M240.71,171.84l-1.5-1.42,0,0,.06-.08,1.5,1.42-.06.08,0,0" transform="translate(-104.36 -20.23)"/><path d="M240.8,171.73l-1.5-1.42.07-.08,1.5,1.42-.07.08" transform="translate(-104.36 -20.23)"/><path d="M240.86,171.65l-1.5-1.42.07-.07,1.5,1.42-.07.07" transform="translate(-104.36 -20.23)"/><path d="M240.93,171.58l-1.5-1.42.07-.07,1.5,1.42-.07.07" transform="translate(-104.36 -20.23)"/><path d="M241,171.51l-1.5-1.42.07-.06,1.5,1.42-.07.06" transform="translate(-104.36 -20.23)"/><path d="M241.08,171.45l-1.5-1.42.08-.06,1.5,1.42-.08.06" transform="translate(-104.36 -20.23)"/><path d="M241.16,171.39l-1.5-1.42.1-.06,1.5,1.42-.1.06" transform="translate(-104.36 -20.23)"/><path d="M241.26,171.33l-1.5-1.42.13-.07,1.5,1.42-.13.07" transform="translate(-104.36 -20.23)"/><path d="M241.38,171.26l-1.5-1.42.17-.07,1.5,1.42-.17.07" transform="translate(-104.36 -20.23)"/></g></g></g></g><g class="cls-5"><g class="cls-5"><g class="cls-38"><g class="cls-5"><path d="M264.24,174l-1.5-1.42.12-.16,1.5,1.42-.12.16" transform="translate(-104.36 -20.23)"/><path d="M264.36,173.83l-1.5-1.42.26-.38,1.5,1.42-.26.38" transform="translate(-104.36 -20.23)"/><path d="M264.62,173.45l-1.5-1.42.24-.4,1.5,1.42-.24.4" transform="translate(-104.36 -20.23)"/><path d="M264.86,173.05l-1.5-1.42q.12-.22.22-.44l1.5,1.42q-.1.22-.22.44" transform="translate(-104.36 -20.23)"/><path d="M265.08,172.61l-1.5-1.42q.12-.27.22-.54l1.5,1.42q-.1.27-.22.54" transform="translate(-104.36 -20.23)"/><path d="M265.3,172.08l-1.5-1.42a5.32,5.32,0,0,0,.31-1.93,3.33,3.33,0,0,0-1-2.42l1.5,1.42a3.33,3.33,0,0,1,1,2.42,5.32,5.32,0,0,1-.31,1.93" transform="translate(-104.36 -20.23)"/></g></g></g><g class="cls-5"><g class="cls-39"><g class="cls-5"><path d="M256.54,176l-1.5-1.42.1.09,1.5,1.42-.1-.09" transform="translate(-104.36 -20.23)"/><path d="M256.64,176.05l-1.5-1.42.25.19,1.5,1.42-.25-.19" transform="translate(-104.36 -20.23)"/><path d="M256.89,176.25l-1.5-1.42.26.17,0,0,1.5,1.42,0,0-.26-.17" transform="translate(-104.36 -20.23)"/><path d="M257.19,176.44l-1.5-1.42.34.17,1.5,1.42-.34-.17" transform="translate(-104.36 -20.23)"/><path d="M257.53,176.61,256,175.2l.35.13,1.5,1.42-.35-.13" transform="translate(-104.36 -20.23)"/><path d="M257.88,176.74l-1.5-1.42.39.1,1.5,1.42-.39-.1" transform="translate(-104.36 -20.23)"/><path d="M258.27,176.85l-1.5-1.42a3.72,3.72,0,0,0,.49.06l1.5,1.42a3.72,3.72,0,0,1-.49-.06" transform="translate(-104.36 -20.23)"/><path d="M258.76,176.91l-1.5-1.42a4.41,4.41,0,0,0,1-.06l1.5,1.42a4.41,4.41,0,0,1-1,.06" transform="translate(-104.36 -20.23)"/><path d="M259.81,176.85l-1.5-1.42.46-.1,1.5,1.42-.46.1" transform="translate(-104.36 -20.23)"/><path d="M260.27,176.74l-1.5-1.42.46-.14.07,0a6.94,6.94,0,0,0,.75-.31l1.5,1.42a6.94,6.94,0,0,1-.75.31l-.07,0-.46.14" transform="translate(-104.36 -20.23)"/><path d="M261.54,176.27l-1.5-1.42q.28-.14.55-.3l1.5,1.42q-.27.16-.55.3" transform="translate(-104.36 -20.23)"/><path d="M262.09,176l-1.5-1.42.41-.27,1.5,1.42-.41.27" transform="translate(-104.36 -20.23)"/><path d="M262.51,175.7l-1.5-1.42.35-.26,1.5,1.42-.35.26" transform="translate(-104.36 -20.23)"/><path d="M262.85,175.44l-1.5-1.42.31-.27,1.5,1.42-.31.27" transform="translate(-104.36 -20.23)"/><path d="M263.17,175.17l-1.5-1.42.3-.28,1.5,1.42-.3.28" transform="translate(-104.36 -20.23)"/><path d="M263.46,174.89l-1.5-1.42.29-.3,1.5,1.42-.29.3" transform="translate(-104.36 -20.23)"/><path d="M263.75,174.59l-1.5-1.42.29-.34,1.5,1.42-.29.34" transform="translate(-104.36 -20.23)"/><path d="M264,174.25l-1.5-1.42.2-.26,1.5,1.42-.2.26" transform="translate(-104.36 -20.23)"/></g></g></g><g class="cls-5"><g class="cls-40"><g class="cls-5"><path d="M265.73,165l-1.5-1.42.35.23,1.5,1.42-.35-.23" transform="translate(-104.36 -20.23)"/><path d="M266.08,165.28l-1.5-1.42.37.29,1.5,1.42-.37-.29" transform="translate(-104.36 -20.23)"/><path d="M266.45,165.57l-1.5-1.42.15.13,1.5,1.42-.15-.13" transform="translate(-104.36 -20.23)"/></g></g></g><path d="M265.73,165a4.75,4.75,0,0,1,2.33,4.26,9,9,0,0,1-2,5.74,10.9,10.9,0,0,1-5.13,3.84l-.1,0a6.15,6.15,0,0,1-5.34-.28,4.74,4.74,0,0,1-2.34-4.25,9.07,9.07,0,0,1,2-5.76,10.81,10.81,0,0,1,5.11-3.83l.1,0A6.21,6.21,0,0,1,265.73,165Zm-1.5,8.95a6,6,0,0,0,1.37-3.85,3.22,3.22,0,0,0-1.57-2.86,4.19,4.19,0,0,0-3.59-.18l-.07,0A7.26,7.26,0,0,0,257,169.7a6.07,6.07,0,0,0-1.38,3.87,3.16,3.16,0,0,0,1.57,2.85,4.11,4.11,0,0,0,3.58.19l.07,0a7.27,7.27,0,0,0,3.44-2.59" transform="translate(-104.36 -20.23)"/><g class="cls-5"><g class="cls-41"><g class="cls-5"><path d="M254.57,178l-1.5-1.42a4.93,4.93,0,0,1-1.45-3.59,7.94,7.94,0,0,1,.46-2.88l1.5,1.42a7.94,7.94,0,0,0-.46,2.88,4.93,4.93,0,0,0,1.45,3.59" transform="translate(-104.36 -20.23)"/><path d="M253.58,171.52l-1.5-1.42q.14-.41.33-.81l1.5,1.42q-.19.4-.33.81" transform="translate(-104.36 -20.23)"/><path d="M253.91,170.71l-1.5-1.42q.15-.33.34-.67l1.5,1.42q-.18.33-.34.67" transform="translate(-104.36 -20.23)"/><path d="M254.25,170l-1.5-1.42q.17-.3.36-.61l1.5,1.42q-.19.3-.36.61" transform="translate(-104.36 -20.23)"/><path d="M254.62,169.43l-1.5-1.42q.19-.3.4-.59l1.5,1.42q-.21.3-.4.59" transform="translate(-104.36 -20.23)"/><path d="M255,168.84l-1.5-1.42.15-.2.28-.35,1.5,1.42-.28.35-.15.2" transform="translate(-104.36 -20.23)"/><path d="M255.44,168.29l-1.5-1.42.43-.5,1.5,1.42-.43.5" transform="translate(-104.36 -20.23)"/><path d="M255.87,167.79l-1.5-1.42.43-.45,1.5,1.42-.43.45" transform="translate(-104.36 -20.23)"/><path d="M256.3,167.34l-1.5-1.42.44-.42,1.5,1.42-.44.42" transform="translate(-104.36 -20.23)"/><path d="M256.74,166.92l-1.5-1.42.47-.4,1.5,1.42-.47.4" transform="translate(-104.36 -20.23)"/><path d="M257.2,166.52l-1.5-1.42.52-.39,1.5,1.42-.52.39" transform="translate(-104.36 -20.23)"/><path d="M257.72,166.13l-1.5-1.42q.3-.21.61-.4l1.5,1.42q-.31.19-.61.4" transform="translate(-104.36 -20.23)"/><path d="M258.34,165.73l-1.5-1.42q.4-.24.82-.45l1.5,1.42q-.42.21-.82.45" transform="translate(-104.36 -20.23)"/><path d="M259.16,165.28l-1.5-1.42a10.41,10.41,0,0,1,1.12-.47l.1,0,.68-.21,1.5,1.42-.68.21-.1,0a10.41,10.41,0,0,0-1.12.47" transform="translate(-104.36 -20.23)"/><path d="M261.06,164.58l-1.5-1.42q.36-.09.7-.16l1.5,1.42q-.35.06-.7.16" transform="translate(-104.36 -20.23)"/><path d="M261.76,164.42l-1.5-1.42a6.69,6.69,0,0,1,1.58-.1l1.5,1.42a6.69,6.69,0,0,0-1.58.1" transform="translate(-104.36 -20.23)"/><path d="M263.34,164.32l-1.5-1.42a5.6,5.6,0,0,1,.74.1l1.5,1.42a5.6,5.6,0,0,0-.74-.1" transform="translate(-104.36 -20.23)"/><path d="M264.08,164.42l-1.5-1.42a5.31,5.31,0,0,1,.59.15l1.5,1.42a5.31,5.31,0,0,0-.59-.15" transform="translate(-104.36 -20.23)"/><path d="M264.67,164.57l-1.5-1.42a5.27,5.27,0,0,1,.52.2l1.5,1.42a5.27,5.27,0,0,0-.52-.2" transform="translate(-104.36 -20.23)"/><path d="M265.19,164.77l-1.5-1.42a5.41,5.41,0,0,1,.49.25l1.5,1.42a5.41,5.41,0,0,0-.49-.25" transform="translate(-104.36 -20.23)"/><path d="M265.68,165l-1.5-1.42.06,0,1.5,1.42-.06,0" transform="translate(-104.36 -20.23)"/></g></g></g></g><g class="cls-5"><polygon points="177.56 151.1 176.06 149.68 176.03 149.65 177.53 151.06 177.56 151.1"/><g class="cls-5"><g class="cls-42"><g class="cls-5"><path d="M272.15,174.55l-1.5-1.42a.81.81,0,0,1-.24-.58l1.5,1.42a.81.81,0,0,0,.24.58" transform="translate(-104.36 -20.23)"/></g></g></g><g class="cls-5"><g class="cls-43"><g class="cls-5"><polyline points="178.96 137.1 177.47 135.69 177.47 135.69 178.97 137.1 178.96 137.1"/><path d="M283.33,157.34l-1.5-1.42.07,0,1.5,1.42-.07,0" transform="translate(-104.36 -20.23)"/><path d="M283.39,157.38,281.9,156l.06,0,1.5,1.42-.06,0" transform="translate(-104.36 -20.23)"/><path d="M283.45,157.42,282,156l0,0,1.5,1.42,0,0" transform="translate(-104.36 -20.23)"/></g></g></g><polygon points="177.14 147.04 175.64 145.63 175.39 137.22 176.89 138.63 177.14 147.04"/><g class="cls-5"><g class="cls-44"><g class="cls-5"><path d="M281.24,158.87l-1.5-1.42a1.38,1.38,0,0,1,.08-.48l1.5,1.42a1.38,1.38,0,0,0-.08.48" transform="translate(-104.36 -20.23)"/><path d="M281.32,158.38l-1.5-1.42.05-.13,1.5,1.42-.05.13" transform="translate(-104.36 -20.23)"/><path d="M281.38,158.25l-1.5-1.42.05-.1,1.5,1.42-.05.1" transform="translate(-104.36 -20.23)"/><path d="M281.43,158.15l-1.5-1.42.05-.09,1.5,1.42-.05.09" transform="translate(-104.36 -20.23)"/><path d="M281.48,158.06l-1.5-1.42.06-.08,1.5,1.42-.06.08" transform="translate(-104.36 -20.23)"/><path d="M281.54,158l-1.5-1.42,0-.05,1.5,1.42,0,.05" transform="translate(-104.36 -20.23)"/></g></g></g><g class="cls-5"><g class="cls-45"><g class="cls-5"><path d="M281.58,157.92l-1.5-1.42.06-.08,1.5,1.42-.06.08" transform="translate(-104.36 -20.23)"/><path d="M281.64,157.85l-1.5-1.42.07-.08,1.5,1.42-.07.08" transform="translate(-104.36 -20.23)"/><path d="M281.7,157.77l-1.5-1.42.07-.07,1.5,1.42-.07.07" transform="translate(-104.36 -20.23)"/><path d="M281.77,157.7l-1.5-1.42.07-.07,1.5,1.42-.07.07" transform="translate(-104.36 -20.23)"/><path d="M281.84,157.63l-1.5-1.42.08-.06,1.5,1.42-.08.06" transform="translate(-104.36 -20.23)"/><path d="M281.92,157.57l-1.5-1.42.08-.06,1.5,1.42-.08.06" transform="translate(-104.36 -20.23)"/><path d="M282,157.5l-1.5-1.42.1-.06,1.5,1.42-.1.06" transform="translate(-104.36 -20.23)"/><path d="M282.1,157.44l-1.5-1.42.13-.07,1.5,1.42-.13.07" transform="translate(-104.36 -20.23)"/><path d="M282.23,157.37l-1.5-1.42.17-.07.14,0,1.5,1.42-.14,0-.17.07" transform="translate(-104.36 -20.23)"/><path d="M282.55,157.25l-1.5-1.42.13,0,1.5,1.42-.13,0" transform="translate(-104.36 -20.23)"/><path d="M282.67,157.22l-1.5-1.42a1.1,1.1,0,0,1,.26,0l1.5,1.42a1.1,1.1,0,0,0-.26,0" transform="translate(-104.36 -20.23)"/><path d="M282.93,157.21l-1.5-1.42.12,0,1.5,1.42-.12,0" transform="translate(-104.36 -20.23)"/><path d="M283,157.22l-1.5-1.42.09,0,1.5,1.42-.09,0" transform="translate(-104.36 -20.23)"/><path d="M283.14,157.25l-1.5-1.42.08,0,1.5,1.42-.08,0" transform="translate(-104.36 -20.23)"/><path d="M283.22,157.28l-1.5-1.42.08,0,1.5,1.42-.08,0" transform="translate(-104.36 -20.23)"/><path d="M283.29,157.32l-1.5-1.42h0l1.5,1.42h0" transform="translate(-104.36 -20.23)"/></g></g></g><polygon points="169.39 140.47 167.89 139.06 175.64 145.63 177.14 147.04 169.39 140.47"/><polygon points="167.56 153.74 166.06 152.32 165.72 140.51 167.21 141.93 167.56 153.74"/><g class="cls-5"><g class="cls-46"><g class="cls-5"><path d="M272.77,160.58l-1.5-1.42.1,0,1.5,1.42-.1,0" transform="translate(-104.36 -20.23)"/><path d="M272.87,160.55l-1.5-1.42.12,0,1.5,1.42-.12,0" transform="translate(-104.36 -20.23)"/><path d="M273,160.52l-1.5-1.42.14,0h.13l1.5,1.42h-.13l-.14,0" transform="translate(-104.36 -20.23)"/><path d="M273.26,160.51l-1.5-1.42.13,0,1.5,1.42-.13,0" transform="translate(-104.36 -20.23)"/><path d="M273.38,160.52l-1.5-1.42.09,0,1.5,1.42-.09,0" transform="translate(-104.36 -20.23)"/><path d="M273.47,160.55l-1.5-1.42.08,0,1.5,1.42-.08,0" transform="translate(-104.36 -20.23)"/><path d="M273.55,160.57l-1.5-1.42.07,0,1.5,1.42-.07,0" transform="translate(-104.36 -20.23)"/><path d="M273.62,160.61l-1.5-1.42.06,0,1.5,1.42-.06,0" transform="translate(-104.36 -20.23)"/><path d="M273.68,160.65l-1.5-1.42.06,0,1.5,1.42-.06,0" transform="translate(-104.36 -20.23)"/><polyline points="169.38 140.46 167.88 139.05 167.89 139.06 169.39 140.47 169.38 140.46"/></g></g></g><g class="cls-5"><g class="cls-47"><g class="cls-5"><path d="M271.57,162.16l-1.5-1.42a1.34,1.34,0,0,1,.08-.46l1.5,1.42a1.34,1.34,0,0,0-.08.46" transform="translate(-104.36 -20.23)"/><path d="M271.65,161.7l-1.5-1.42.05-.13,1.5,1.42-.05.13" transform="translate(-104.36 -20.23)"/><path d="M271.7,161.57l-1.5-1.42.06-.11,1.5,1.42-.06.11" transform="translate(-104.36 -20.23)"/><path d="M271.76,161.46l-1.5-1.42,0,0,1.5,1.42,0,0" transform="translate(-104.36 -20.23)"/></g></g></g><g class="cls-5"><g class="cls-48"><g class="cls-5"><path d="M272.38,160.78l-1.5-1.42.1-.07,1.5,1.42-.1.07" transform="translate(-104.36 -20.23)"/><path d="M272.48,160.72,271,159.3l.13-.07,1.5,1.42-.13.07" transform="translate(-104.36 -20.23)"/><path d="M272.61,160.64l-1.5-1.42.16-.07,1.5,1.42-.16.07" transform="translate(-104.36 -20.23)"/></g></g></g><g class="cls-5"><g class="cls-49"><g class="cls-5"><polyline points="167.43 141.18 165.93 139.76 165.93 139.76 167.43 141.18 167.43 141.18"/><path d="M271.79,161.41l-1.5-1.42.06-.1,1.5,1.42-.06.1" transform="translate(-104.36 -20.23)"/><path d="M271.84,161.31l-1.5-1.42.06-.08,1.5,1.42-.06.08" transform="translate(-104.36 -20.23)"/><path d="M271.9,161.23l-1.5-1.42.06-.07,1.5,1.42-.06.07" transform="translate(-104.36 -20.23)"/><path d="M272,161.16l-1.5-1.42.06-.07,1.5,1.42-.06.07" transform="translate(-104.36 -20.23)"/><path d="M272,161.09l-1.5-1.42.06-.07,1.5,1.42-.06.07" transform="translate(-104.36 -20.23)"/><path d="M272.08,161l-1.5-1.42.07-.06,1.5,1.42-.07.06" transform="translate(-104.36 -20.23)"/><path d="M272.14,161l-1.5-1.42.08-.07,1.5,1.42-.08.07" transform="translate(-104.36 -20.23)"/><path d="M272.22,160.89l-1.5-1.42.09-.07,1.5,1.42-.09.07" transform="translate(-104.36 -20.23)"/><path d="M272.31,160.83l-1.5-1.42.06,0,1.5,1.42-.06,0" transform="translate(-104.36 -20.23)"/></g></g></g><path d="M272.77,160.58a1.31,1.31,0,0,1,.36-.07.83.83,0,0,1,.62.2l7.75,6.57-.25-8.41a1.47,1.47,0,0,1,.33-.94,1.74,1.74,0,0,1,.83-.63,1,1,0,0,1,.91,0,.75.75,0,0,1,.38.7l.35,11.82v.29l0,.07,0,.06,0,.07v.05l0,.06,0,.07-.07.11,0,.06,0,.05,0,.05,0,.05-.05.06-.17.18-.17.13-.2.12-.21.1-.13,0-.13,0h-.41l-.07,0,0,0-.1,0-.06,0,0,0-7.76-6.57.24,8.41a1.44,1.44,0,0,1-.33.94,1.77,1.77,0,0,1-.83.63,1,1,0,0,1-.9,0,.77.77,0,0,1-.39-.69l-.35-11.81a1.42,1.42,0,0,1,.22-.75,1.76,1.76,0,0,1,.59-.63A1.62,1.62,0,0,1,272.77,160.58Z" transform="translate(-104.36 -20.23)"/></g><g class="cls-5"><g class="cls-5"><g class="cls-50"><g class="cls-5"><path d="M294.63,164.47l-1.5-1.42.07-.08,1.5,1.42-.07.08" transform="translate(-104.36 -20.23)"/><path d="M294.7,164.39,293.2,163l.12-.16,1.5,1.42-.12.16" transform="translate(-104.36 -20.23)"/><path d="M294.82,164.23l-1.5-1.42.11-.16,1.5,1.42-.11.16" transform="translate(-104.36 -20.23)"/><path d="M294.93,164.07l-1.5-1.42.1-.16,1.5,1.42-.1.16" transform="translate(-104.36 -20.23)"/><path d="M295,163.91l-1.5-1.42.09-.18,1.5,1.42-.09.18" transform="translate(-104.36 -20.23)"/><path d="M295.12,163.73l-1.5-1.42q.05-.11.09-.22l1.5,1.42q0,.11-.09.22" transform="translate(-104.36 -20.23)"/><path d="M295.21,163.51l-1.5-1.42a2.22,2.22,0,0,0,.13-.71.88.88,0,0,0-.27-.68l1.5,1.42a.88.88,0,0,1,.27.68,2.22,2.22,0,0,1-.13.71" transform="translate(-104.36 -20.23)"/></g></g></g><g class="cls-5"><g class="cls-51"><g class="cls-5"><path d="M291.26,165.89l-1.5-1.42h.05l1.5,1.42h-.05" transform="translate(-104.36 -20.23)"/><path d="M291.31,165.89l-1.5-1.42a3.61,3.61,0,0,0,.84-.05l1.5,1.42a3.61,3.61,0,0,1-.84.05" transform="translate(-104.36 -20.23)"/><path d="M292.15,165.84l-1.5-1.42.44-.1,1.5,1.42-.44.1" transform="translate(-104.36 -20.23)"/><path d="M292.59,165.74l-1.5-1.42.39-.12.43-.18,1.5,1.42-.43.18-.39.12" transform="translate(-104.36 -20.23)"/><path d="M293.4,165.45l-1.5-1.42.29-.16,1.5,1.42-.29.16" transform="translate(-104.36 -20.23)"/><path d="M293.7,165.29l-1.5-1.42.21-.14,1.5,1.42-.21.14" transform="translate(-104.36 -20.23)"/><path d="M293.91,165.15l-1.5-1.42.17-.13,1.5,1.42-.17.13" transform="translate(-104.36 -20.23)"/><path d="M294.08,165l-1.5-1.42.15-.13,1.5,1.42-.15.13" transform="translate(-104.36 -20.23)"/><path d="M294.23,164.89l-1.5-1.42.14-.14,1.5,1.42-.14.14" transform="translate(-104.36 -20.23)"/><path d="M294.38,164.75l-1.5-1.42.14-.14,1.5,1.42-.14.14" transform="translate(-104.36 -20.23)"/><path d="M294.51,164.61l-1.5-1.42.12-.14,1.5,1.42-.12.14" transform="translate(-104.36 -20.23)"/></g></g></g><g class="cls-5"><g class="cls-52"><g class="cls-5"><path d="M290.44,165.56l-1.5-1.42,0,0,1.5,1.42,0,0" transform="translate(-104.36 -20.23)"/><path d="M290.47,165.59l-1.5-1.42.07.06,1.5,1.42-.07-.06" transform="translate(-104.36 -20.23)"/><path d="M290.55,165.65l-1.5-1.42.09.06,1.5,1.42-.09-.06" transform="translate(-104.36 -20.23)"/><path d="M290.63,165.7l-1.5-1.42.11.05,1.5,1.42-.11-.05" transform="translate(-104.36 -20.23)"/><path d="M290.74,165.76l-1.5-1.42.14.05,1.5,1.42-.14-.05" transform="translate(-104.36 -20.23)"/><path d="M290.88,165.81l-1.5-1.42.19,0,1.5,1.42-.19,0" transform="translate(-104.36 -20.23)"/><path d="M291.07,165.86l-1.5-1.42.19,0,1.5,1.42-.19,0" transform="translate(-104.36 -20.23)"/></g></g></g><g class="cls-5"><g class="cls-53"><g class="cls-5"><path d="M289.63,164.67l-1.5-1.42.08,0,1.5,1.42-.08,0" transform="translate(-104.36 -20.23)"/><path d="M289.71,164.7l-1.5-1.42.09,0,1.5,1.42-.09,0" transform="translate(-104.36 -20.23)"/><path d="M289.8,164.73l-1.5-1.42.07,0,1.5,1.42-.07,0" transform="translate(-104.36 -20.23)"/><path d="M289.87,164.77l-1.5-1.42.06,0,1.5,1.42-.06,0" transform="translate(-104.36 -20.23)"/><path d="M289.93,164.81l-1.5-1.42.05,0,1.5,1.42-.05,0" transform="translate(-104.36 -20.23)"/><path d="M290,164.85l-1.5-1.42,0,0,1.5,1.42,0,0" transform="translate(-104.36 -20.23)"/></g></g></g><g class="cls-5"><g class="cls-54"><g class="cls-5"><path d="M288.5,167.6l-1.5-1.42a2.46,2.46,0,0,1-.63-1,1.16,1.16,0,0,1,0-.76l1.5,1.42a1.16,1.16,0,0,0,0,.76,2.46,2.46,0,0,0,.63,1" transform="translate(-104.36 -20.23)"/><path d="M287.9,165.82l-1.5-1.42.06-.16,1.5,1.42-.06.16" transform="translate(-104.36 -20.23)"/></g></g></g><g class="cls-5"><g class="cls-55"><g class="cls-5"><polyline points="184.34 144.65 182.84 143.23 182.84 143.23 184.34 144.65 184.34 144.65"/><path d="M288.7,164.88l-1.5-1.42.15-.08,1.5,1.42-.15.08" transform="translate(-104.36 -20.23)"/><path d="M288.84,164.8l-1.5-1.42.17-.07.1,0,1.5,1.42-.1,0-.17.07" transform="translate(-104.36 -20.23)"/><path d="M289.12,164.7l-1.5-1.42.11,0,1.5,1.42-.11,0" transform="translate(-104.36 -20.23)"/><path d="M289.23,164.67l-1.5-1.42a1.15,1.15,0,0,1,.27,0l1.5,1.42a1.15,1.15,0,0,0-.27,0" transform="translate(-104.36 -20.23)"/><path d="M289.49,164.66l-1.5-1.42.13,0,1.5,1.42-.13,0" transform="translate(-104.36 -20.23)"/></g></g></g><g class="cls-5"><g class="cls-56"><g class="cls-5"><path d="M288,165.66l-1.5-1.42,0-.08,1.5,1.42,0,.08" transform="translate(-104.36 -20.23)"/><path d="M288,165.58l-1.5-1.42.06-.1,1.5,1.42-.06.1" transform="translate(-104.36 -20.23)"/><path d="M288.07,165.48l-1.5-1.42.06-.09,1.5,1.42-.06.09" transform="translate(-104.36 -20.23)"/><path d="M288.13,165.39l-1.5-1.42.06-.08,1.5,1.42-.06.08" transform="translate(-104.36 -20.23)"/><path d="M288.19,165.31l-1.5-1.42.06-.07,1.5,1.42-.06.07" transform="translate(-104.36 -20.23)"/><path d="M288.25,165.24l-1.5-1.42.06-.07,1.5,1.42-.06.07" transform="translate(-104.36 -20.23)"/><path d="M288.31,165.17l-1.5-1.42.07-.07,1.5,1.42-.07.07" transform="translate(-104.36 -20.23)"/><path d="M288.38,165.11l-1.5-1.42.08-.07,1.5,1.42-.08.07" transform="translate(-104.36 -20.23)"/><path d="M288.46,165l-1.5-1.42.09-.07,1.5,1.42-.09.07" transform="translate(-104.36 -20.23)"/><path d="M288.55,165l-1.5-1.42.12-.08,1.5,1.42-.12.08" transform="translate(-104.36 -20.23)"/><path d="M288.67,164.9l-1.5-1.42,0,0,1.5,1.42,0,0" transform="translate(-104.36 -20.23)"/></g></g></g><g class="cls-5"><g class="cls-57"><g class="cls-5"><path d="M292.72,159.75l-1.5-1.42.55-.16,1.5,1.42-.55.16" transform="translate(-104.36 -20.23)"/><path d="M293.27,159.59l-1.5-1.42q.35-.09.68-.15l1.5,1.42q-.33.06-.68.15" transform="translate(-104.36 -20.23)"/><path d="M294,159.44l-1.5-1.42a5.25,5.25,0,0,1,1.23-.08l1.5,1.42a5.25,5.25,0,0,0-1.23.08" transform="translate(-104.36 -20.23)"/><path d="M295.18,159.36l-1.5-1.42a3.67,3.67,0,0,1,.48.06l1.5,1.42a3.67,3.67,0,0,0-.48-.06" transform="translate(-104.36 -20.23)"/><path d="M295.66,159.42l-1.5-1.42.35.09,1.5,1.42-.35-.09" transform="translate(-104.36 -20.23)"/><path d="M296,159.51l-1.5-1.42.28.11,1.5,1.42-.28-.11" transform="translate(-104.36 -20.23)"/><path d="M296.29,159.62l-1.5-1.42.24.12,1.5,1.42-.24-.12" transform="translate(-104.36 -20.23)"/><path d="M296.53,159.74l-1.5-1.42.13.08.11.07,1.5,1.42-.11-.07-.13-.08" transform="translate(-104.36 -20.23)"/><path d="M296.77,159.89l-1.5-1.42.2.16L297,160l-.2-.16" transform="translate(-104.36 -20.23)"/><path d="M297,160l-1.5-1.42.08.07,1.5,1.42L297,160" transform="translate(-104.36 -20.23)"/></g></g></g><polygon points="188.31 139.53 186.81 138.12 186.87 138.11 188.37 139.52 188.31 139.53"/><g class="cls-5"><g class="cls-58"><g class="cls-5"><path d="M295.4,157l-1.5-1.42a.79.79,0,0,1-.2-.32.88.88,0,0,0-.23-.37l1.5,1.42a.88.88,0,0,1,.23.37.79.79,0,0,0,.2.32" transform="translate(-104.36 -20.23)"/></g></g></g><g class="cls-5"><g class="cls-59"><g class="cls-5"><path d="M290.48,159.85l-1.5-1.42,0,0,1.5,1.42,0,0" transform="translate(-104.36 -20.23)"/><path d="M290.51,159.87l-1.5-1.42.1,0,1.5,1.42-.1,0" transform="translate(-104.36 -20.23)"/><path d="M290.61,159.92l-1.5-1.42.12,0,1.5,1.42-.12,0" transform="translate(-104.36 -20.23)"/><path d="M290.73,160l-1.5-1.42.16,0,1.5,1.42-.16,0" transform="translate(-104.36 -20.23)"/><path d="M290.89,160l-1.5-1.42.24,0,1.5,1.42-.24,0" transform="translate(-104.36 -20.23)"/><path d="M291.13,160l-1.5-1.42a3,3,0,0,0,.68,0l1.5,1.42a3,3,0,0,1-.68,0" transform="translate(-104.36 -20.23)"/><path d="M291.81,160l-1.5-1.42.44-.1,1.5,1.42-.44.1" transform="translate(-104.36 -20.23)"/><path d="M292.25,159.89l-1.5-1.42.42-.13,1.5,1.42-.42.13" transform="translate(-104.36 -20.23)"/></g></g></g><g class="cls-5"><g class="cls-60"><g class="cls-5"><path d="M290.35,159.74l-1.5-1.42,0,0,1.5,1.42,0,0" transform="translate(-104.36 -20.23)"/><path d="M290.38,159.77l-1.5-1.42.09.07,1.5,1.42-.09-.07" transform="translate(-104.36 -20.23)"/><path d="M290.47,159.84l-1.5-1.42h0l1.5,1.42h0" transform="translate(-104.36 -20.23)"/></g></g></g><g class="cls-5"><g class="cls-61"><g class="cls-5"><path d="M292.3,153.93l-1.5-1.42.07,0,.6-.18,1.5,1.42-.6.18-.07,0" transform="translate(-104.36 -20.23)"/><path d="M293,153.72l-1.5-1.42.64-.14,1.5,1.42-.64.14" transform="translate(-104.36 -20.23)"/><path d="M293.61,153.58l-1.5-1.42a5.62,5.62,0,0,1,1.32-.08l1.5,1.42a5.62,5.62,0,0,0-1.32.08" transform="translate(-104.36 -20.23)"/><path d="M294.92,153.51l-1.5-1.42.5.06.13,0,1.5,1.42-.13,0-.5-.06" transform="translate(-104.36 -20.23)"/><path d="M295.55,153.59l-1.5-1.42.39.1,1.5,1.42-.39-.1" transform="translate(-104.36 -20.23)"/><path d="M295.94,153.69l-1.5-1.42.29.11,1.5,1.42-.29-.11" transform="translate(-104.36 -20.23)"/><path d="M296.23,153.8l-1.5-1.42.24.12,1.5,1.42-.24-.12" transform="translate(-104.36 -20.23)"/><path d="M296.46,153.91,295,152.5l.2.13,1.5,1.42-.2-.13" transform="translate(-104.36 -20.23)"/><path d="M296.66,154l-1.5-1.42.18.14,1.5,1.42-.18-.14" transform="translate(-104.36 -20.23)"/><path d="M296.84,154.18l-1.5-1.42.07.07,1.5,1.42-.07-.07" transform="translate(-104.36 -20.23)"/></g></g></g><g class="cls-5"><g class="cls-62"><g class="cls-5"><path d="M288.38,161.75l-1.5-1.42a2.49,2.49,0,0,1-.74-2,5,5,0,0,1,.29-1.57l1.5,1.42a5,5,0,0,0-.29,1.57,2.49,2.49,0,0,0,.74,2" transform="translate(-104.36 -20.23)"/><path d="M287.92,158.21l-1.5-1.42q.09-.25.2-.49l1.5,1.42q-.11.24-.2.49" transform="translate(-104.36 -20.23)"/><path d="M288.12,157.72l-1.5-1.42q.09-.2.2-.4l1.5,1.42q-.11.2-.2.4" transform="translate(-104.36 -20.23)"/><path d="M288.33,157.32l-1.5-1.42.21-.36,1.5,1.42-.21.36" transform="translate(-104.36 -20.23)"/><path d="M288.54,157l-1.5-1.42.24-.34,1.5,1.42-.24.34" transform="translate(-104.36 -20.23)"/><path d="M288.78,156.62l-1.5-1.42.26-.34h0l1.5,1.42h0l-.26.34" transform="translate(-104.36 -20.23)"/><path d="M289,156.27l-1.5-1.42.3-.35,1.5,1.42-.3.35" transform="translate(-104.36 -20.23)"/><path d="M289.34,155.92l-1.5-1.42.28-.3,1.5,1.42-.28.3" transform="translate(-104.36 -20.23)"/><path d="M289.62,155.62l-1.5-1.42.29-.28,1.5,1.42-.29.28" transform="translate(-104.36 -20.23)"/><path d="M289.91,155.35l-1.5-1.42.31-.26,1.5,1.42-.31.26" transform="translate(-104.36 -20.23)"/><path d="M290.22,155.09l-1.5-1.42.35-.26,1.5,1.42-.35.26" transform="translate(-104.36 -20.23)"/><path d="M290.56,154.82l-1.5-1.42.41-.27,1.5,1.42-.41.27" transform="translate(-104.36 -20.23)"/><path d="M291,154.55l-1.5-1.42q.27-.16.56-.3l1.5,1.42q-.29.14-.56.3" transform="translate(-104.36 -20.23)"/><path d="M291.53,154.25l-1.5-1.42a7.14,7.14,0,0,1,.77-.32l1.5,1.42a7.14,7.14,0,0,0-.77.32" transform="translate(-104.36 -20.23)"/></g></g></g><path d="M292.3,153.93l.07,0a6.14,6.14,0,0,1,3.05-.34,2.48,2.48,0,0,1,2.12,1.71,1.22,1.22,0,0,1-.11.92,1.77,1.77,0,0,1-.73.78,1.81,1.81,0,0,1-.31.15,1.12,1.12,0,0,1-.61,0,.75.75,0,0,1-.59-.51,1.11,1.11,0,0,0-1.05-.69,4.11,4.11,0,0,0-1.7.26,3.73,3.73,0,0,0-1.67,1.15,2.72,2.72,0,0,0-.7,1.67.9.9,0,0,0,.41.8,2.7,2.7,0,0,0,2.19-.08h.05q2.55-.84,3.94.07a2.42,2.42,0,0,1,1.12,2.26,5.68,5.68,0,0,1-1.4,3.49,7.32,7.32,0,0,1-3.3,2.36,6.31,6.31,0,0,1-3.1.36,2.49,2.49,0,0,1-2.12-1.71,1.25,1.25,0,0,1,.1-.92,1.83,1.83,0,0,1,.74-.79,1.69,1.69,0,0,1,.32-.15,1.18,1.18,0,0,1,.62-.05.75.75,0,0,1,.58.52,1.11,1.11,0,0,0,1,.69,4.32,4.32,0,0,0,1.72-.26,3.63,3.63,0,0,0,1.65-1.15,2.63,2.63,0,0,0,.71-1.68.88.88,0,0,0-.41-.79,2.68,2.68,0,0,0-2.19.07c-1.75.57-3.06.55-4,0a2.44,2.44,0,0,1-1.12-2.26,5.7,5.7,0,0,1,1.4-3.51A7.15,7.15,0,0,1,292.3,153.93Z" transform="translate(-104.36 -20.23)"/></g><g class="cls-5"><g class="cls-5"><g class="cls-63"><g class="cls-5"><path d="M311.37,159.69l-1.5-1.42.07,0,1.5,1.42-.07,0" transform="translate(-104.36 -20.23)"/><path d="M311.43,159.73l-1.5-1.42.06,0,1.5,1.42-.06,0" transform="translate(-104.36 -20.23)"/><path d="M311.5,159.78l-1.5-1.42,0,0,1.5,1.42,0,0" transform="translate(-104.36 -20.23)"/></g></g></g><g class="cls-5"><g class="cls-64"><g class="cls-5"><path d="M310.5,159.64l-1.5-1.42.12,0,1.5,1.42-.12,0" transform="translate(-104.36 -20.23)"/><path d="M310.62,159.6l-1.5-1.42.11,0,1.5,1.42-.11,0" transform="translate(-104.36 -20.23)"/><path d="M310.73,159.58l-1.5-1.42.25,0,1.5,1.42-.25,0" transform="translate(-104.36 -20.23)"/><path d="M311,159.56l-1.5-1.42h.11l1.5,1.42H311" transform="translate(-104.36 -20.23)"/><path d="M311.09,159.58l-1.5-1.42.09,0,1.5,1.42-.09,0" transform="translate(-104.36 -20.23)"/><path d="M311.18,159.6l-1.5-1.42.08,0,1.5,1.42-.08,0" transform="translate(-104.36 -20.23)"/><path d="M311.26,159.63l-1.5-1.42.07,0,1.5,1.42-.07,0" transform="translate(-104.36 -20.23)"/><path d="M311.33,159.67l-1.5-1.42,0,0,1.5,1.42,0,0" transform="translate(-104.36 -20.23)"/></g></g></g><polygon points="199.85 141.55 198.35 140.13 204.64 137.99 206.14 139.41 199.85 141.55"/><g class="cls-5"><g class="cls-65"><g class="cls-5"><path d="M302,164.38l-1.5-1.42a.81.81,0,0,1-.24-.58l1.5,1.42a.81.81,0,0,0,.24.58" transform="translate(-104.36 -20.23)"/></g></g></g><g class="cls-5"><g class="cls-66"><g class="cls-5"><path d="M308.57,154.33l-1.5-1.42.12,0,1.5,1.42-.12,0" transform="translate(-104.36 -20.23)"/><path d="M308.69,154.29l-1.5-1.42.11,0,1.5,1.42-.11,0" transform="translate(-104.36 -20.23)"/><path d="M308.8,154.27l-1.5-1.42a1.1,1.1,0,0,1,.26,0l1.5,1.42a1.1,1.1,0,0,0-.26,0" transform="translate(-104.36 -20.23)"/><path d="M309.06,154.25l-1.5-1.42.13,0,1.5,1.42-.13,0" transform="translate(-104.36 -20.23)"/><path d="M309.18,154.27l-1.5-1.42.1,0,1.5,1.42-.1,0" transform="translate(-104.36 -20.23)"/><path d="M309.28,154.3l-1.5-1.42.09,0,1.5,1.42-.09,0" transform="translate(-104.36 -20.23)"/><path d="M309.37,154.33l-1.5-1.42.07,0,1.5,1.42-.07,0" transform="translate(-104.36 -20.23)"/><path d="M309.45,154.37l-1.5-1.42h0l.06,0,1.5,1.42-.06,0h0" transform="translate(-104.36 -20.23)"/><path d="M309.52,154.41,308,153l.06,0,1.5,1.42-.06,0" transform="translate(-104.36 -20.23)"/><path d="M309.58,154.46l-1.5-1.42,0,0,1.5,1.42,0,0" transform="translate(-104.36 -20.23)"/></g></g></g><polygon points="199.67 135.64 198.17 134.23 202.71 132.69 204.21 134.1 199.67 135.64"/><g class="cls-5"><g class="cls-67"><g class="cls-5"><path d="M310.15,147.84l-1.5-1.42.12,0,1.5,1.42-.12,0" transform="translate(-104.36 -20.23)"/><path d="M310.27,147.8l-1.5-1.42.11,0,1.5,1.42-.11,0" transform="translate(-104.36 -20.23)"/><path d="M310.38,147.78l-1.5-1.42a1.08,1.08,0,0,1,.26,0l1.5,1.42a1.08,1.08,0,0,0-.26,0" transform="translate(-104.36 -20.23)"/><path d="M310.64,147.76l-1.5-1.42.12,0,1.5,1.42-.12,0" transform="translate(-104.36 -20.23)"/><path d="M310.76,147.78l-1.5-1.42.1,0,1.5,1.42-.1,0" transform="translate(-104.36 -20.23)"/><path d="M310.86,147.8l-1.5-1.42.09,0,1.5,1.42-.09,0" transform="translate(-104.36 -20.23)"/><path d="M310.94,147.84l-1.5-1.42.07,0,1.5,1.42-.07,0" transform="translate(-104.36 -20.23)"/><path d="M311,147.87l-1.5-1.42h0l0,0,1.5,1.42,0,0h0" transform="translate(-104.36 -20.23)"/><path d="M311.08,147.92l-1.5-1.42.06,0,1.5,1.42-.06,0" transform="translate(-104.36 -20.23)"/><path d="M311.15,148l-1.5-1.42,0,0,1.5,1.42,0,0" transform="translate(-104.36 -20.23)"/></g></g></g><polygon points="197.41 143.56 195.92 142.15 195.57 130.33 197.07 131.75 197.41 143.56"/><polygon points="198.26 130.15 196.76 128.74 204.3 126.19 205.79 127.61 198.26 130.15"/><g class="cls-5"><g class="cls-68"><g class="cls-5"><path d="M301.42,152l-1.5-1.42a1.39,1.39,0,0,1,.08-.49l1.5,1.42a1.39,1.39,0,0,0-.08.49" transform="translate(-104.36 -20.23)"/><path d="M301.5,151.49l-1.5-1.42.05-.13,1.5,1.42-.05.13" transform="translate(-104.36 -20.23)"/><path d="M301.56,151.36l-1.5-1.42.05-.1,1.5,1.42-.05.1" transform="translate(-104.36 -20.23)"/><path d="M301.61,151.26l-1.5-1.42.06-.09,1.5,1.42-.06.09" transform="translate(-104.36 -20.23)"/><path d="M301.67,151.16l-1.5-1.42.06-.09,1.5,1.42-.06.09" transform="translate(-104.36 -20.23)"/><path d="M301.73,151.07l-1.5-1.42,0-.05,1.5,1.42,0,.05" transform="translate(-104.36 -20.23)"/></g></g></g><g class="cls-5"><g class="cls-69"><g class="cls-5"><path d="M301.77,151l-1.5-1.42.06-.07,1.5,1.42-.06.07" transform="translate(-104.36 -20.23)"/><path d="M301.82,150.95l-1.5-1.42.07-.08,1.5,1.42-.07.08" transform="translate(-104.36 -20.23)"/><path d="M301.89,150.87l-1.5-1.42.07-.07,1.5,1.42-.07.07" transform="translate(-104.36 -20.23)"/><path d="M302,150.8l-1.5-1.42.07-.07,1.5,1.42-.07.07" transform="translate(-104.36 -20.23)"/><path d="M302,150.73l-1.5-1.42.08-.06,1.5,1.42-.08.06" transform="translate(-104.36 -20.23)"/><path d="M302.1,150.67l-1.5-1.42.08-.06,1.5,1.42-.08.06" transform="translate(-104.36 -20.23)"/><path d="M302.18,150.61l-1.5-1.42.1-.07,1.5,1.42-.1.07" transform="translate(-104.36 -20.23)"/><path d="M302.29,150.54l-1.5-1.42.14-.08,1.5,1.42-.14.08" transform="translate(-104.36 -20.23)"/><path d="M302.42,150.46l-1.5-1.42.19-.08,1.5,1.42-.19.08" transform="translate(-104.36 -20.23)"/></g></g></g><path d="M302.62,150.38l7.53-2.54a1,1,0,0,1,.89,0,.79.79,0,0,1,.38.71,1.43,1.43,0,0,1-.34.94,1.68,1.68,0,0,1-.82.63l-6.33,2.14.1,3.58,4.54-1.54a1,1,0,0,1,.89,0,.77.77,0,0,1,.38.7,1.47,1.47,0,0,1-.33.95,1.84,1.84,0,0,1-.87.64l-4.54,1.55.11,3.57,6.29-2.14a1,1,0,0,1,.87.05.77.77,0,0,1,.39.7,1.43,1.43,0,0,1-.34.94,1.76,1.76,0,0,1-.85.64L303,164.54a1,1,0,0,1-.87-.05.77.77,0,0,1-.39-.69L301.42,152a1.49,1.49,0,0,1,.34-1A1.76,1.76,0,0,1,302.62,150.38Z" transform="translate(-104.36 -20.23)"/></g><g class="cls-5"><g class="cls-5"><g class="cls-70"><g class="cls-5"><path d="M321.07,155.46l-1.5-1.42.07-.08,1.5,1.42-.07.08" transform="translate(-104.36 -20.23)"/><path d="M321.14,155.38l-1.5-1.42.12-.16,1.5,1.42-.12.16" transform="translate(-104.36 -20.23)"/><path d="M321.26,155.22l-1.5-1.42.11-.16,1.5,1.42-.11.16" transform="translate(-104.36 -20.23)"/><path d="M321.37,155.07l-1.5-1.42.1-.16,1.5,1.42-.1.16" transform="translate(-104.36 -20.23)"/><path d="M321.47,154.9l-1.5-1.42.09-.18,1.5,1.42-.09.18" transform="translate(-104.36 -20.23)"/><path d="M321.56,154.72l-1.5-1.42q.05-.11.09-.22l1.5,1.42q0,.11-.09.22" transform="translate(-104.36 -20.23)"/><path d="M321.65,154.5l-1.5-1.42a2.22,2.22,0,0,0,.13-.71.87.87,0,0,0-.26-.67l1.5,1.42a.87.87,0,0,1,.26.67,2.22,2.22,0,0,1-.13.71" transform="translate(-104.36 -20.23)"/></g></g></g><g class="cls-5"><g class="cls-71"><g class="cls-5"><path d="M316.88,156.55l-1.5-1.42,0,0,1.5,1.42,0,0" transform="translate(-104.36 -20.23)"/><path d="M316.91,156.58l-1.5-1.42.07.06,1.5,1.42-.07-.06" transform="translate(-104.36 -20.23)"/><path d="M317,156.63l-1.5-1.42.09.05,1.5,1.42-.09-.05" transform="translate(-104.36 -20.23)"/><path d="M317.07,156.69l-1.5-1.42.11.05,1.5,1.42-.11-.05" transform="translate(-104.36 -20.23)"/><path d="M317.17,156.74l-1.5-1.42.14.05,1.5,1.42-.14-.05" transform="translate(-104.36 -20.23)"/><path d="M317.31,156.79l-1.5-1.42.2.05,1.5,1.42-.2-.05" transform="translate(-104.36 -20.23)"/><path d="M317.51,156.84l-1.5-1.42.19,0h.09l1.5,1.42h-.09l-.19,0" transform="translate(-104.36 -20.23)"/><path d="M317.79,156.88l-1.5-1.42a3.49,3.49,0,0,0,.81,0l1.5,1.42a3.49,3.49,0,0,1-.81,0" transform="translate(-104.36 -20.23)"/><path d="M318.6,156.83l-1.5-1.42.43-.1,1.5,1.42-.43.1" transform="translate(-104.36 -20.23)"/><path d="M319,156.73l-1.5-1.42.38-.12.42-.17,1.5,1.42-.42.17-.38.12" transform="translate(-104.36 -20.23)"/><path d="M319.83,156.44l-1.5-1.42.29-.16,1.5,1.42-.29.16" transform="translate(-104.36 -20.23)"/><path d="M320.13,156.28l-1.5-1.42.21-.14,1.5,1.42-.21.14" transform="translate(-104.36 -20.23)"/><path d="M320.34,156.14l-1.5-1.42.18-.13,1.5,1.42-.18.13" transform="translate(-104.36 -20.23)"/><path d="M320.52,156,319,154.6l.16-.13,1.5,1.42-.16.13" transform="translate(-104.36 -20.23)"/><path d="M320.68,155.88l-1.5-1.42.15-.14,1.5,1.42-.15.14" transform="translate(-104.36 -20.23)"/><path d="M320.82,155.74l-1.5-1.42.14-.15,1.5,1.42-.14.15" transform="translate(-104.36 -20.23)"/><path d="M321,155.59l-1.5-1.42.1-.12,1.5,1.42-.1.12" transform="translate(-104.36 -20.23)"/></g></g></g><g class="cls-5"><g class="cls-72"><g class="cls-5"><path d="M316.07,155.67l-1.5-1.42.09,0,1.5,1.42-.09,0" transform="translate(-104.36 -20.23)"/><path d="M316.16,155.69l-1.5-1.42.08,0,1.5,1.42-.08,0" transform="translate(-104.36 -20.23)"/><path d="M316.25,155.72l-1.5-1.42.07,0,1.5,1.42-.07,0" transform="translate(-104.36 -20.23)"/><path d="M316.32,155.76l-1.5-1.42.06,0,1.5,1.42-.06,0" transform="translate(-104.36 -20.23)"/><path d="M316.38,155.79l-1.5-1.42.05,0,1.5,1.42-.05,0" transform="translate(-104.36 -20.23)"/><path d="M316.43,155.84l-1.5-1.42,0,0,1.5,1.42,0,0" transform="translate(-104.36 -20.23)"/></g></g></g><g class="cls-5"><g class="cls-73"><g class="cls-5"><path d="M314.94,158.59l-1.5-1.42a2.46,2.46,0,0,1-.63-1,1.18,1.18,0,0,1,0-.77l1.5,1.42a1.18,1.18,0,0,0,0,.77,2.46,2.46,0,0,0,.63,1" transform="translate(-104.36 -20.23)"/><path d="M314.34,156.81l-1.5-1.42.06-.16,1.5,1.42-.06.16" transform="translate(-104.36 -20.23)"/></g></g></g><g class="cls-5"><g class="cls-74"><g class="cls-5"><path d="M314.4,156.65l-1.5-1.42,0-.07,1.5,1.42,0,.07" transform="translate(-104.36 -20.23)"/><path d="M314.44,156.58l-1.5-1.42.07-.11,1.5,1.42-.07.11" transform="translate(-104.36 -20.23)"/><path d="M314.5,156.47l-1.5-1.42.06-.09,1.5,1.42-.06.09" transform="translate(-104.36 -20.23)"/><path d="M314.57,156.38l-1.5-1.42.06-.08,1.5,1.42-.06.08" transform="translate(-104.36 -20.23)"/><path d="M314.63,156.3l-1.5-1.42.06-.07,1.5,1.42-.06.07" transform="translate(-104.36 -20.23)"/><path d="M314.69,156.23l-1.5-1.42.07-.07,1.5,1.42-.07.07" transform="translate(-104.36 -20.23)"/><path d="M314.76,156.16l-1.5-1.42.07-.07,1.5,1.42-.07.07" transform="translate(-104.36 -20.23)"/><path d="M314.83,156.09l-1.5-1.42.08-.07,1.5,1.42-.08.07" transform="translate(-104.36 -20.23)"/><path d="M314.9,156l-1.5-1.42.09-.07L315,156l-.09.07" transform="translate(-104.36 -20.23)"/><path d="M315,156l-1.5-1.42.11-.07,1.5,1.42L315,156" transform="translate(-104.36 -20.23)"/><path d="M315.11,155.88l-1.5-1.42,0,0,.13-.07,1.5,1.42-.13.07,0,0" transform="translate(-104.36 -20.23)"/><path d="M315.26,155.8l-1.5-1.42.18-.07.11,0,1.5,1.42-.11,0-.18.07" transform="translate(-104.36 -20.23)"/><path d="M315.55,155.69l-1.5-1.42.11,0,1.5,1.42-.11,0" transform="translate(-104.36 -20.23)"/><path d="M315.66,155.66l-1.5-1.42a1.17,1.17,0,0,1,.27,0l1.5,1.42a1.17,1.17,0,0,0-.27,0" transform="translate(-104.36 -20.23)"/><path d="M315.93,155.65l-1.5-1.42.14,0,1.5,1.42-.14,0" transform="translate(-104.36 -20.23)"/></g></g></g><g class="cls-5"><g class="cls-75"><g class="cls-5"><path d="M319.16,150.74l-1.5-1.42.51-.15,1.5,1.42-.51.15" transform="translate(-104.36 -20.23)"/><path d="M319.67,150.59l-1.5-1.42q.37-.1.71-.16l1.5,1.42q-.34.06-.71.16" transform="translate(-104.36 -20.23)"/><path d="M320.38,150.43l-1.5-1.42a5.31,5.31,0,0,1,1.24-.08l1.5,1.42a5.31,5.31,0,0,0-1.24.08" transform="translate(-104.36 -20.23)"/><path d="M321.62,150.35l-1.5-1.42a3.69,3.69,0,0,1,.48.06l1.5,1.42a3.69,3.69,0,0,0-.48-.06" transform="translate(-104.36 -20.23)"/><path d="M322.1,150.41,320.6,149l.35.09,1.5,1.42-.35-.09" transform="translate(-104.36 -20.23)"/><path d="M322.45,150.5l-1.5-1.42.28.11,1.5,1.42-.28-.11" transform="translate(-104.36 -20.23)"/><path d="M322.73,150.61l-1.5-1.42.25.12,1.5,1.42-.25-.12" transform="translate(-104.36 -20.23)"/><path d="M323,150.73l-1.5-1.42.13.08.12.08,1.5,1.42-.12-.08-.13-.08" transform="translate(-104.36 -20.23)"/><path d="M323.22,150.89l-1.5-1.42.19.15,1.5,1.42-.19-.15" transform="translate(-104.36 -20.23)"/><path d="M323.41,151l-1.5-1.42.08.07,1.5,1.42-.08-.07" transform="translate(-104.36 -20.23)"/></g></g></g><polygon points="214.75 130.53 213.25 129.11 213.31 129.09 214.81 130.51 214.75 130.53"/><g class="cls-5"><g class="cls-76"><g class="cls-5"><path d="M321.84,148l-1.5-1.42a.8.8,0,0,1-.2-.33.87.87,0,0,0-.23-.36l1.5,1.42a.87.87,0,0,1,.23.36.8.8,0,0,0,.2.33" transform="translate(-104.36 -20.23)"/></g></g></g><g class="cls-5"><g class="cls-77"><g class="cls-5"><path d="M316.78,150.72l-1.5-1.42,0,0,1.5,1.42,0,0" transform="translate(-104.36 -20.23)"/><path d="M316.81,150.75l-1.5-1.42.08.06,1.5,1.42-.08-.06" transform="translate(-104.36 -20.23)"/><path d="M316.89,150.82l-1.5-1.42,0,0,0,0,1.5,1.42,0,0,0,0" transform="translate(-104.36 -20.23)"/><path d="M317,150.86l-1.5-1.42.09,0,1.5,1.42-.09,0" transform="translate(-104.36 -20.23)"/><path d="M317.06,150.91l-1.5-1.42.12,0,1.5,1.42-.12,0" transform="translate(-104.36 -20.23)"/><path d="M317.18,151l-1.5-1.42.16,0,1.5,1.42-.16,0" transform="translate(-104.36 -20.23)"/><path d="M317.34,151l-1.5-1.42.23,0,1.5,1.42-.23,0" transform="translate(-104.36 -20.23)"/><path d="M317.57,151l-1.5-1.42a3,3,0,0,0,.69,0l1.5,1.42a3,3,0,0,1-.69,0" transform="translate(-104.36 -20.23)"/><path d="M318.26,151l-1.5-1.42.45-.1,1.5,1.42-.45.1" transform="translate(-104.36 -20.23)"/><path d="M318.71,150.88l-1.5-1.42.4-.12,1.5,1.42-.4.12" transform="translate(-104.36 -20.23)"/></g></g></g><g class="cls-5"><g class="cls-78"><g class="cls-5"><path d="M318.78,144.9l-1.5-1.42.6-.18,1.5,1.42-.6.18" transform="translate(-104.36 -20.23)"/><path d="M319.37,144.72l-1.5-1.42q.34-.09.67-.15l1.5,1.42q-.33.06-.67.15" transform="translate(-104.36 -20.23)"/><path d="M320,144.58l-1.5-1.42a5.75,5.75,0,0,1,1.35-.08l1.5,1.42a5.75,5.75,0,0,0-1.35.08" transform="translate(-104.36 -20.23)"/><path d="M321.39,144.49l-1.5-1.42.48.05.12,0,1.5,1.42-.12,0-.48-.05" transform="translate(-104.36 -20.23)"/><path d="M322,144.57l-1.5-1.42.38.1,1.5,1.42-.38-.1" transform="translate(-104.36 -20.23)"/><path d="M322.37,144.67l-1.5-1.42.29.11,1.5,1.42-.29-.11" transform="translate(-104.36 -20.23)"/><path d="M322.66,144.78l-1.5-1.42.24.12,1.5,1.42-.24-.12" transform="translate(-104.36 -20.23)"/><path d="M322.9,144.9l-1.5-1.42.2.13,1.5,1.42-.2-.13" transform="translate(-104.36 -20.23)"/><path d="M323.1,145l-1.5-1.42.18.14,1.5,1.42-.18-.14" transform="translate(-104.36 -20.23)"/><path d="M323.28,145.17l-1.5-1.42.07.07,1.5,1.42-.07-.07" transform="translate(-104.36 -20.23)"/></g></g></g><g class="cls-5"><g class="cls-79"><g class="cls-5"><path d="M314.82,152.73l-1.5-1.42a2.49,2.49,0,0,1-.74-2,5,5,0,0,1,.29-1.57l1.5,1.42a5,5,0,0,0-.29,1.57,2.49,2.49,0,0,0,.74,2" transform="translate(-104.36 -20.23)"/><path d="M314.36,149.2l-1.5-1.42q.09-.25.2-.49l1.5,1.42q-.11.24-.2.49" transform="translate(-104.36 -20.23)"/><path d="M314.56,148.71l-1.5-1.42q.09-.2.2-.4l1.5,1.42q-.11.2-.2.4" transform="translate(-104.36 -20.23)"/><path d="M314.77,148.31l-1.5-1.42.21-.36L315,148l-.21.36" transform="translate(-104.36 -20.23)"/><path d="M315,148l-1.5-1.42.24-.34,1.5,1.42L315,148" transform="translate(-104.36 -20.23)"/><path d="M315.22,147.61l-1.5-1.42.26-.34h0l1.5,1.42h0l-.26.34" transform="translate(-104.36 -20.23)"/><path d="M315.48,147.26l-1.5-1.42.3-.35,1.5,1.42-.3.35" transform="translate(-104.36 -20.23)"/><path d="M315.78,146.91l-1.5-1.42.28-.3,1.5,1.42-.28.3" transform="translate(-104.36 -20.23)"/><path d="M316.06,146.62l-1.5-1.42.29-.28,1.5,1.42-.29.28" transform="translate(-104.36 -20.23)"/><path d="M316.35,146.34l-1.5-1.42.31-.27,1.5,1.42-.31.27" transform="translate(-104.36 -20.23)"/><path d="M316.66,146.07l-1.5-1.42.35-.26,1.5,1.42-.35.26" transform="translate(-104.36 -20.23)"/><path d="M317,145.81l-1.5-1.42.42-.27,1.5,1.42-.42.27" transform="translate(-104.36 -20.23)"/><path d="M317.43,145.54l-1.5-1.42q.27-.17.56-.31l1.5,1.42q-.29.14-.56.31" transform="translate(-104.36 -20.23)"/><path d="M318,145.23l-1.5-1.42a7.28,7.28,0,0,1,.79-.33l1.5,1.42a7.28,7.28,0,0,0-.79.33" transform="translate(-104.36 -20.23)"/></g></g></g><path d="M318.78,144.9a6.37,6.37,0,0,1,3.09-.36,2.49,2.49,0,0,1,2.12,1.71,1.24,1.24,0,0,1-.11.93,1.82,1.82,0,0,1-.73.78,1.75,1.75,0,0,1-.3.14,1.19,1.19,0,0,1-.62.05.75.75,0,0,1-.59-.52,1.1,1.1,0,0,0-1.05-.68,4.09,4.09,0,0,0-1.7.25,3.75,3.75,0,0,0-1.67,1.16,2.69,2.69,0,0,0-.7,1.67.88.88,0,0,0,.41.79,2.7,2.7,0,0,0,2.19-.08l.05,0q2.55-.82,3.94.07a2.41,2.41,0,0,1,1.12,2.25,5.66,5.66,0,0,1-1.4,3.49,7.22,7.22,0,0,1-3.27,2.34l-.07,0a6.27,6.27,0,0,1-3.06.35,2.49,2.49,0,0,1-2.12-1.71,1.26,1.26,0,0,1,.1-.93,1.87,1.87,0,0,1,.74-.79,1.76,1.76,0,0,1,.3-.14,1.21,1.21,0,0,1,.63-.06.73.73,0,0,1,.58.52,1.1,1.1,0,0,0,1,.68,4.17,4.17,0,0,0,1.72-.25,3.69,3.69,0,0,0,1.65-1.15,2.63,2.63,0,0,0,.71-1.68.86.86,0,0,0-.41-.79,2.68,2.68,0,0,0-2.19.07c-1.75.57-3.06.55-4,0a2.44,2.44,0,0,1-1.12-2.25,5.7,5.7,0,0,1,1.4-3.51A7.22,7.22,0,0,1,318.78,144.9Z" transform="translate(-104.36 -20.23)"/></g><polygon class="cls-80" points="112.1 185.93 92.29 192.82 92.13 199.56 100.42 209.03 120.23 202.14 120.23 195.4 112.1 185.93"/><text class="cls-81" transform="translate(246.8 140.77) scale(1.01 1)">responses[]</text><text class="cls-82" transform="translate(525.37 140.77) scale(1.01 1)">addResponse(bytes32,bytes32)<tspan x="0" y="21.75">getResponse(bytes32)</tspan></text><polyline class="cls-83" points="498.22 154.55 245.85 153.99 245.27 154.42 119.08 198.61"/></svg>