<svg id="Layer_1" data-name="Layer 1" xmlns="http://www.w3.org/2000/svg" xmlns:xlink="http://www.w3.org/1999/xlink" viewBox="0 0 903.94 210.53"><defs><style>.cls-1,.cls-4,.cls-40{fill:none;}.cls-2{isolation:isolate;}.cls-3,.cls-37,.cls-5,.cls-6{fill:#fff;}.cls-3{stroke:#4d4d4d;opacity:0.5;}.cls-3,.cls-37,.cls-4,.cls-5,.cls-6{stroke-linejoin:round;}.cls-3,.cls-37,.cls-4,.cls-40,.cls-5,.cls-6{stroke-width:3px;}.cls-4{stroke:url(#linear-gradient);}.cls-5{stroke:url(#linear-gradient-2);}.cls-6{stroke:url(#linear-gradient-3);}.cls-7{clip-path:url(#clip-path);}.cls-8{clip-path:url(#clip-path-2);}.cls-9{clip-path:url(#clip-path-3);}.cls-10{clip-path:url(#clip-path-4);}.cls-11{clip-path:url(#clip-path-5);}.cls-12{clip-path:url(#clip-path-6);}.cls-13{clip-path:url(#clip-path-7);}.cls-14{clip-path:url(#clip-path-8);}.cls-15{clip-path:url(#clip-path-9);}.cls-16{clip-path:url(#clip-path-10);}.cls-17{clip-path:url(#clip-path-11);}.cls-18{clip-path:url(#clip-path-12);}.cls-19{clip-path:url(#clip-path-13);}.cls-20{clip-path:url(#clip-path-14);}.cls-21{clip-path:url(#clip-path-15);}.cls-22{clip-path:url(#clip-path-16);}.cls-23{clip-path:url(#clip-path-17);}.cls-24{clip-path:url(#clip-path-18);}.cls-25{clip-path:url(#clip-path-19);}.cls-26{clip-path:url(#clip-path-20);}.cls-27{clip-path:url(#clip-path-21);}.cls-28{clip-path:url(#clip-path-22);}.cls-29{clip-path:url(#clip-path-23);}.cls-30{clip-path:url(#clip-path-24);}.cls-31{clip-path:url(#clip-path-25);}.cls-32{clip-path:url(#clip-path-26);}.cls-33{clip-path:url(#clip-path-27);}.cls-34{clip-path:url(#clip-path-28);}.cls-35{clip-path:url(#clip-path-29);}.cls-36{clip-path:url(#clip-path-30);}.cls-37{stroke:gray;}.cls-38{font-size:18.13px;fill:#3d3d3d;}.cls-38,.cls-39{font-family:InconsolataForPowerline, Inconsolata for Powerline;}.cls-39{font-size:40.79px;stroke:#000;opacity:0.15;}.cls-39,.cls-40{stroke-miterlimit:10;}.cls-40{stroke:#3d3d3d;opacity:0.2;}</style><linearGradient id="linear-gradient" x1="43.06" y1="107.01" x2="280.03" y2="107.01" gradientTransform="matrix(1, 0, 0, -1, -43.06, 232.24)" gradientUnits="userSpaceOnUse"><stop offset="0" stop-color="#00d5a7"/><stop offset="1" stop-color="#4847db"/></linearGradient><linearGradient id="linear-gradient-2" x1="43.06" y1="155.78" x2="280.03" y2="155.78" xlink:href="#linear-gradient"/><linearGradient id="linear-gradient-3" x1="0" y1="126.93" x2="236.96" y2="126.93" gradientTransform="matrix(1, 0, 0, 1, 0, 0)" xlink:href="#linear-gradient"/><clipPath id="clip-path" transform="translate(-43.06 -19.76)"><path class="cls-1" d="M157.72,190.63l-1.5-1.42h0a7.33,7.33,0,0,0,3.47-2.6l1.5,1.42a7.33,7.33,0,0,1-3.47,2.6Z"/></clipPath><clipPath id="clip-path-2" transform="translate(-43.06 -19.76)"><path class="cls-1" d="M160.11,180.33l1.5,1.42a3.32,3.32,0,0,1,1,2.43,6.06,6.06,0,0,1-1.37,3.85l-1.5-1.42a6.06,6.06,0,0,0,1.37-3.85A3.32,3.32,0,0,0,160.11,180.33Z"/></clipPath><clipPath id="clip-path-3" transform="translate(-43.06 -19.76)"><path class="cls-1" d="M153.54,190l-1.5-1.42a3.36,3.36,0,0,0,.6.45,4.15,4.15,0,0,0,3.58.19l1.5,1.42a4.15,4.15,0,0,1-3.58-.19A3.35,3.35,0,0,1,153.54,190Z"/></clipPath><clipPath id="clip-path-4" transform="translate(-43.06 -19.76)"><path class="cls-1" d="M162.08,178.31l1.5,1.42a5,5,0,0,0-.87-.65l-1.5-1.42A5,5,0,0,1,162.08,178.31Z"/></clipPath><clipPath id="clip-path-5" transform="translate(-43.06 -19.76)"><path class="cls-1" d="M151.55,192l-1.5-1.42a4.89,4.89,0,0,1-1.45-3.58,9,9,0,0,1,2-5.76,10.85,10.85,0,0,1,5.15-3.85l.07,0a6.23,6.23,0,0,1,5.34.27l1.5,1.42a6.23,6.23,0,0,0-5.34-.27l-.07,0a10.85,10.85,0,0,0-5.15,3.85,9,9,0,0,0-2,5.76A4.89,4.89,0,0,0,151.55,192Z"/></clipPath><clipPath id="clip-path-6" transform="translate(-43.06 -19.76)"><path class="cls-1" d="M142.12,197.8l-1.5-1.42a.84.84,0,0,1-.25-.6l1.5,1.42A.84.84,0,0,0,142.12,197.8Z"/></clipPath><clipPath id="clip-path-7" transform="translate(-43.06 -19.76)"><path class="cls-1" d="M146.57,181.05l1.5,1.42-.14-.1a1,1,0,0,0-.88,0l-1.5-1.42a1,1,0,0,1,.88,0Z"/></clipPath><clipPath id="clip-path-8" transform="translate(-43.06 -19.76)"><path class="cls-1" d="M137.45,187.43,136,186a.81.81,0,0,1-.24-.58l1.5,1.42A.81.81,0,0,0,137.45,187.43Z"/></clipPath><clipPath id="clip-path-9" transform="translate(-43.06 -19.76)"><path class="cls-1" d="M137.21,186.85l-1.5-1.42a1.47,1.47,0,0,1,.33-.94l1.5,1.42A1.47,1.47,0,0,0,137.21,186.85Z"/></clipPath><clipPath id="clip-path-10" transform="translate(-43.06 -19.76)"><path class="cls-1" d="M137.54,185.91l-1.5-1.42a1.74,1.74,0,0,1,.83-.63l1.5,1.42A1.74,1.74,0,0,0,137.54,185.91Z"/></clipPath><clipPath id="clip-path-11" transform="translate(-43.06 -19.76)"><path class="cls-1" d="M177.82,182.36l1.5,1.42-.11-.09-1.5-1.42Z"/></clipPath><clipPath id="clip-path-12" transform="translate(-43.06 -19.76)"><path class="cls-1" d="M169.13,188.5l-1.5-1.42a.79.79,0,0,1-.23-.59l1.5,1.42A.79.79,0,0,0,169.13,188.5Z"/></clipPath><clipPath id="clip-path-13" transform="translate(-43.06 -19.76)"><path class="cls-1" d="M177.3,170.69l1.5,1.42a.83.83,0,0,0-.17-.12,1,1,0,0,0-.87,0l-1.5-1.42a1,1,0,0,1,.87,0A.83.83,0,0,1,177.3,170.69Z"/></clipPath><clipPath id="clip-path-14" transform="translate(-43.06 -19.76)"><path class="cls-1" d="M176.91,172.62l-1.5-1.42a1.78,1.78,0,0,1,.84-.66l1.5,1.42A1.78,1.78,0,0,0,176.91,172.62Z"/></clipPath><clipPath id="clip-path-15" transform="translate(-43.06 -19.76)"><path class="cls-1" d="M169.24,173.38l1.5,1.42-.13-.1a1,1,0,0,0-.91,0l-1.5-1.42a1,1,0,0,1,.91,0Z"/></clipPath><clipPath id="clip-path-16" transform="translate(-43.06 -19.76)"><path class="cls-1" d="M168.55,176.2l-1.5-1.42a1.4,1.4,0,0,1,.33-.92l1.5,1.42A1.4,1.4,0,0,0,168.55,176.2Z"/></clipPath><clipPath id="clip-path-17" transform="translate(-43.06 -19.76)"><path class="cls-1" d="M168.88,175.28l-1.5-1.42a1.72,1.72,0,0,1,.82-.63l1.5,1.42A1.72,1.72,0,0,0,168.88,175.28Z"/></clipPath><clipPath id="clip-path-18" transform="translate(-43.06 -19.76)"><path class="cls-1" d="M191.08,177.83l1.5,1.42-.15-.11a1,1,0,0,0-.87-.05l-1.5-1.42a1,1,0,0,1,.87.05Z"/></clipPath><clipPath id="clip-path-19" transform="translate(-43.06 -19.76)"><path class="cls-1" d="M183.06,183.83l-1.5-1.42a.81.81,0,0,1-.24-.58l1.5,1.42A.81.81,0,0,0,183.06,183.83Z"/></clipPath><clipPath id="clip-path-20" transform="translate(-43.06 -19.76)"><path class="cls-1" d="M189.15,172.52l1.5,1.42-.15-.11a1.07,1.07,0,0,0-.88,0l-1.5-1.42a1.07,1.07,0,0,1,.88,0Z"/></clipPath><clipPath id="clip-path-21" transform="translate(-43.06 -19.76)"><path class="cls-1" d="M190.73,166l1.5,1.42-.14-.1a1,1,0,0,0-.88-.06l-1.5-1.42a1,1,0,0,1,.88.06Z"/></clipPath><clipPath id="clip-path-22" transform="translate(-43.06 -19.76)"><path class="cls-1" d="M182.47,171.43,181,170a1.49,1.49,0,0,1,.34-1l1.5,1.42A1.49,1.49,0,0,0,182.47,171.43Z"/></clipPath><clipPath id="clip-path-23" transform="translate(-43.06 -19.76)"><path class="cls-1" d="M182.82,170.48l-1.5-1.42a1.72,1.72,0,0,1,.82-.63l1.5,1.42A1.72,1.72,0,0,0,182.82,170.48Z"/></clipPath><clipPath id="clip-path-24" transform="translate(-43.06 -19.76)"><path class="cls-1" d="M196.29,179.31l-1.5-1.42a.78.78,0,0,1-.23-.58l1.5,1.42A.78.78,0,0,0,196.29,179.31Z"/></clipPath><clipPath id="clip-path-25" transform="translate(-43.06 -19.76)"><path class="cls-1" d="M206.11,160.8l1.5,1.42-.16-.11-1.5-1.42Z"/></clipPath><clipPath id="clip-path-26" transform="translate(-43.06 -19.76)"><path class="cls-1" d="M205.39,163.63l-1.5-1.42a1.46,1.46,0,0,1,.33-.94,1.76,1.76,0,0,1,.84-.63,1,1,0,0,1,.9,0l1.5,1.42a1,1,0,0,0-.9,0,1.76,1.76,0,0,0-.84.63A1.46,1.46,0,0,0,205.39,163.63Z"/></clipPath><clipPath id="clip-path-27" transform="translate(-43.06 -19.76)"><path class="cls-1" d="M196.91,165.35l-1.5-1.42a1.31,1.31,0,0,1,.36-.07.83.83,0,0,1,.62.2l1.5,1.42a.83.83,0,0,0-.62-.2A1.31,1.31,0,0,0,196.91,165.35Z"/></clipPath><clipPath id="clip-path-28" transform="translate(-43.06 -19.76)"><path class="cls-1" d="M195.71,166.93l-1.5-1.42a1.34,1.34,0,0,1,.21-.75l1.5,1.42A1.34,1.34,0,0,0,195.71,166.93Z"/></clipPath><clipPath id="clip-path-29" transform="translate(-43.06 -19.76)"><path class="cls-1" d="M196.51,165.55l-1.5-1.42a1.62,1.62,0,0,1,.39-.2l1.5,1.42A1.62,1.62,0,0,0,196.51,165.55Z"/></clipPath><clipPath id="clip-path-30" transform="translate(-43.06 -19.76)"><path class="cls-1" d="M195.92,166.18l-1.5-1.42a1.85,1.85,0,0,1,.59-.63l1.5,1.42A1.85,1.85,0,0,0,195.92,166.18Z"/></clipPath></defs><title>token</title><polygon class="cls-3" points="76.54 43.17 56.73 50.06 56.56 56.8 64.86 66.28 84.67 59.38 84.67 52.64 76.54 43.17"/><polygon class="cls-4" points="1.5 101.37 150.35 50.27 235.46 148.58 87.04 200.19 1.5 101.37"/><polygon class="cls-5" points="235.46 100.32 86.61 151.42 1.5 53.1 149.93 1.5 235.46 100.32"/><polygon class="cls-6" points="1.5 53.38 86.61 151.7 235.46 100.6 235.46 148.86 87.04 200.47 1.5 101.65 1.5 53.38"/><g class="cls-2"><g class="cls-2"><g class="cls-7"><g class="cls-2"><path d="M157.72,190.63l-1.5-1.42h0a7.13,7.13,0,0,0,.77-.32l1.5,1.42a7.13,7.13,0,0,1-.77.32h0" transform="translate(-43.06 -19.76)"/><path d="M158.52,190.3l-1.5-1.42q.29-.14.56-.3l1.5,1.42q-.27.17-.56.3" transform="translate(-43.06 -19.76)"/><path d="M159.08,190l-1.5-1.42.42-.27,1.5,1.42-.42.27" transform="translate(-43.06 -19.76)"/><path d="M159.49,189.72l-1.5-1.42.35-.26,1.5,1.42-.35.26" transform="translate(-43.06 -19.76)"/><path d="M159.84,189.46l-1.5-1.42.32-.27,1.5,1.42-.32.27" transform="translate(-43.06 -19.76)"/><path d="M160.16,189.19l-1.5-1.42.3-.28,1.5,1.42-.3.28" transform="translate(-43.06 -19.76)"/><path d="M160.46,188.91l-1.5-1.42.29-.31,1.5,1.42-.29.31" transform="translate(-43.06 -19.76)"/><path d="M160.75,188.6l-1.5-1.42.29-.34,1.5,1.42-.29.34" transform="translate(-43.06 -19.76)"/><path d="M161,188.26l-1.5-1.42.19-.24,1.5,1.42-.19.24" transform="translate(-43.06 -19.76)"/></g></g></g><g class="cls-2"><g class="cls-8"><g class="cls-2"><path d="M161.22,188l-1.5-1.42.09-.12,1.5,1.42-.09.12" transform="translate(-43.06 -19.76)"/><path d="M161.32,187.9l-1.5-1.42.27-.4,1.5,1.42-.27.4" transform="translate(-43.06 -19.76)"/><path d="M161.59,187.5l-1.5-1.42.24-.41,1.5,1.42-.24.41" transform="translate(-43.06 -19.76)"/><path d="M161.83,187.09l-1.5-1.42q.12-.22.23-.45l1.5,1.42q-.1.22-.23.45" transform="translate(-43.06 -19.76)"/><path d="M162.06,186.65l-1.5-1.42q.13-.27.22-.54l1.5,1.42q-.1.27-.22.54" transform="translate(-43.06 -19.76)"/><path d="M162.28,186.11l-1.5-1.42a5.32,5.32,0,0,0,.31-1.93,3.32,3.32,0,0,0-1-2.43l1.5,1.42a3.32,3.32,0,0,1,1,2.43,5.32,5.32,0,0,1-.31,1.93" transform="translate(-43.06 -19.76)"/></g></g></g><g class="cls-2"><g class="cls-9"><g class="cls-2"><path d="M153.54,190l-1.5-1.42.1.09,1.5,1.42-.1-.09" transform="translate(-43.06 -19.76)"/><path d="M153.64,190.08l-1.5-1.42.25.2,1.5,1.42-.25-.2" transform="translate(-43.06 -19.76)"/><path d="M153.89,190.28l-1.5-1.42.25.16.05,0,1.5,1.42-.05,0-.25-.16" transform="translate(-43.06 -19.76)"/><path d="M154.19,190.47l-1.5-1.42.32.16,1.5,1.42-.32-.16" transform="translate(-43.06 -19.76)"/><path d="M154.51,190.64l-1.5-1.42.35.13,1.5,1.42-.35-.13" transform="translate(-43.06 -19.76)"/><path d="M154.86,190.77l-1.5-1.42.39.1,1.5,1.42-.39-.1" transform="translate(-43.06 -19.76)"/><path d="M155.25,190.87l-1.5-1.42a3.75,3.75,0,0,0,.5.06l1.5,1.42a3.75,3.75,0,0,1-.5-.06" transform="translate(-43.06 -19.76)"/><path d="M155.75,190.93l-1.5-1.42a4.5,4.5,0,0,0,1.06-.06l1.5,1.42a4.5,4.5,0,0,1-1.06.06" transform="translate(-43.06 -19.76)"/><path d="M156.81,190.87l-1.5-1.42.48-.11,1.5,1.42-.48.11" transform="translate(-43.06 -19.76)"/><path d="M157.29,190.76l-1.5-1.42.43-.13,1.5,1.42-.43.13" transform="translate(-43.06 -19.76)"/></g></g></g><g class="cls-2"><g class="cls-10"><g class="cls-2"><path d="M162.71,179.07l-1.5-1.42.34.22,1.5,1.42-.34-.22" transform="translate(-43.06 -19.76)"/><path d="M163.05,179.29l-1.5-1.42.38.29,1.5,1.42-.38-.29" transform="translate(-43.06 -19.76)"/><path d="M163.43,179.59l-1.5-1.42.15.14,1.5,1.42-.15-.14" transform="translate(-43.06 -19.76)"/></g></g></g><path d="M162.71,179.07a4.79,4.79,0,0,1,2.33,4.26,9,9,0,0,1-2,5.75,10.86,10.86,0,0,1-5.15,3.86l-.07,0a6.18,6.18,0,0,1-5.34-.28,4.72,4.72,0,0,1-2.34-4.25,9,9,0,0,1,2-5.76,10.85,10.85,0,0,1,5.15-3.85l.07,0A6.23,6.23,0,0,1,162.71,179.07Zm-1.49,9a6.06,6.06,0,0,0,1.37-3.85,3.21,3.21,0,0,0-1.57-2.87,4.18,4.18,0,0,0-3.59-.18h0a7.32,7.32,0,0,0-3.47,2.59,6,6,0,0,0-1.37,3.86,3.18,3.18,0,0,0,1.57,2.85,4.15,4.15,0,0,0,3.58.19h0a7.33,7.33,0,0,0,3.47-2.6" transform="translate(-43.06 -19.76)"/><g class="cls-2"><g class="cls-11"><g class="cls-2"><path d="M151.55,192l-1.5-1.42a4.89,4.89,0,0,1-1.45-3.58,7.86,7.86,0,0,1,.46-2.89l1.5,1.42a7.86,7.86,0,0,0-.46,2.89,4.89,4.89,0,0,0,1.45,3.58" transform="translate(-43.06 -19.76)"/><path d="M150.57,185.54l-1.5-1.42q.14-.4.33-.8l1.5,1.42q-.19.4-.33.8" transform="translate(-43.06 -19.76)"/><path d="M150.89,184.74l-1.5-1.42q.15-.33.34-.66l1.5,1.42q-.18.33-.34.66" transform="translate(-43.06 -19.76)"/><path d="M151.23,184.08l-1.5-1.42q.17-.3.36-.6l1.5,1.42q-.19.3-.36.6" transform="translate(-43.06 -19.76)"/><path d="M151.59,183.49l-1.5-1.42q.19-.29.39-.58l1.5,1.42q-.21.29-.39.58" transform="translate(-43.06 -19.76)"/><path d="M152,182.91l-1.5-1.42.17-.23.29-.37,1.5,1.42-.29.37-.17.23" transform="translate(-43.06 -19.76)"/><path d="M152.44,182.31l-1.5-1.42.42-.5,1.5,1.42-.42.5" transform="translate(-43.06 -19.76)"/><path d="M152.86,181.81l-1.5-1.42.42-.45,1.5,1.42-.42.45" transform="translate(-43.06 -19.76)"/><path d="M153.29,181.36l-1.5-1.42.44-.42,1.5,1.42-.44.42" transform="translate(-43.06 -19.76)"/><path d="M153.72,180.95l-1.5-1.42.47-.4,1.5,1.42-.47.4" transform="translate(-43.06 -19.76)"/><path d="M154.19,180.55l-1.5-1.42.52-.39,1.5,1.42-.52.39" transform="translate(-43.06 -19.76)"/><path d="M154.71,180.16l-1.5-1.42q.3-.21.62-.41l1.5,1.42q-.32.19-.62.41" transform="translate(-43.06 -19.76)"/><path d="M155.33,179.75l-1.5-1.42q.41-.25.83-.45l1.5,1.42q-.43.21-.83.45" transform="translate(-43.06 -19.76)"/><path d="M156.16,179.3l-1.5-1.42a10.55,10.55,0,0,1,1.14-.47l.07,0,.65-.2,1.5,1.42-.65.2-.07,0a10.55,10.55,0,0,0-1.14.47" transform="translate(-43.06 -19.76)"/><path d="M158,178.61l-1.5-1.42q.37-.1.72-.16l1.5,1.42q-.35.06-.72.16" transform="translate(-43.06 -19.76)"/><path d="M158.74,178.45l-1.5-1.42a6.74,6.74,0,0,1,1.59-.1l1.5,1.42a6.74,6.74,0,0,0-1.59.1" transform="translate(-43.06 -19.76)"/><path d="M160.33,178.35l-1.5-1.42a5.61,5.61,0,0,1,.74.1l1.5,1.42a5.61,5.61,0,0,0-.74-.1" transform="translate(-43.06 -19.76)"/><path d="M161.07,178.45l-1.5-1.42a5.3,5.3,0,0,1,.58.15l1.5,1.42a5.3,5.3,0,0,0-.58-.15" transform="translate(-43.06 -19.76)"/><path d="M161.66,178.6l-1.5-1.42a5.25,5.25,0,0,1,.52.2l1.5,1.42a5.25,5.25,0,0,0-.52-.2" transform="translate(-43.06 -19.76)"/><path d="M162.17,178.79l-1.5-1.42a5.37,5.37,0,0,1,.48.24l1.5,1.42a5.37,5.37,0,0,0-.48-.24" transform="translate(-43.06 -19.76)"/><path d="M162.66,179l-1.5-1.42.06,0,1.5,1.42-.06,0" transform="translate(-43.06 -19.76)"/></g></g></g></g><g class="cls-2"><g class="cls-2"><g class="cls-12"><g class="cls-2"><path d="M142.12,197.8l-1.5-1.42a.84.84,0,0,1-.25-.6l1.5,1.42a.84.84,0,0,0,.25.6" transform="translate(-43.06 -19.76)"/></g></g></g><g class="cls-2"><g class="cls-13"><g class="cls-2"><path d="M147.05,182.32l-1.5-1.42.12,0,1.5,1.42-.12,0" transform="translate(-43.06 -19.76)"/><path d="M147.17,182.28l-1.5-1.42.11,0,1.5,1.42-.11,0" transform="translate(-43.06 -19.76)"/><path d="M147.28,182.26l-1.5-1.42a1.07,1.07,0,0,1,.25,0l1.5,1.42a1.07,1.07,0,0,0-.25,0" transform="translate(-43.06 -19.76)"/><path d="M147.53,182.25l-1.5-1.42.12,0,1.5,1.42-.12,0" transform="translate(-43.06 -19.76)"/><path d="M147.65,182.26l-1.5-1.42.1,0,1.5,1.42-.1,0" transform="translate(-43.06 -19.76)"/><path d="M147.75,182.29l-1.5-1.42.09,0,1.5,1.42-.09,0" transform="translate(-43.06 -19.76)"/><path d="M147.84,182.32l-1.5-1.42.08,0,1.5,1.42-.08,0" transform="translate(-43.06 -19.76)"/><path d="M147.92,182.36l-1.5-1.42h0l.06,0,1.5,1.42-.06,0h0" transform="translate(-43.06 -19.76)"/><path d="M148,182.4l-1.5-1.42.06,0,1.5,1.42-.06,0" transform="translate(-43.06 -19.76)"/><path d="M148,182.45l-1.5-1.42,0,0,1.5,1.42,0,0" transform="translate(-43.06 -19.76)"/></g></g></g><polygon points="98.82 177.44 97.32 176.03 97.01 165.36 98.51 166.78 98.82 177.44"/><g class="cls-2"><g class="cls-14"><g class="cls-2"><path d="M137.45,187.43,136,186a.81.81,0,0,1-.24-.58l1.5,1.42a.81.81,0,0,0,.24.58" transform="translate(-43.06 -19.76)"/></g></g></g><polygon points="95.31 165.52 93.81 164.1 102.49 161.15 103.99 162.56 95.31 165.52"/><g class="cls-2"><g class="cls-15"><g class="cls-2"><path d="M137.21,186.85l-1.5-1.42a1.38,1.38,0,0,1,.08-.48l1.5,1.42a1.38,1.38,0,0,0-.08.48" transform="translate(-43.06 -19.76)"/><path d="M137.29,186.37l-1.5-1.42.05-.13,1.5,1.42-.05.13" transform="translate(-43.06 -19.76)"/><path d="M137.34,186.24l-1.5-1.42.05-.1,1.5,1.42-.05.1" transform="translate(-43.06 -19.76)"/><path d="M137.4,186.14l-1.5-1.42.05-.09,1.5,1.42-.05.09" transform="translate(-43.06 -19.76)"/><path d="M137.45,186l-1.5-1.42.06-.08,1.5,1.42-.06.08" transform="translate(-43.06 -19.76)"/><path d="M137.51,186l-1.5-1.42,0-.05,1.5,1.42,0,.05" transform="translate(-43.06 -19.76)"/></g></g></g><g class="cls-2"><g class="cls-16"><g class="cls-2"><path d="M137.54,185.91l-1.5-1.42.06-.08,1.5,1.42-.06.08" transform="translate(-43.06 -19.76)"/><path d="M137.6,185.84l-1.5-1.42.07-.08,1.5,1.42-.07.08" transform="translate(-43.06 -19.76)"/><path d="M137.67,185.76l-1.5-1.42.07-.07,1.5,1.42-.07.07" transform="translate(-43.06 -19.76)"/><path d="M137.74,185.68l-1.5-1.42.07-.07,1.5,1.42-.07.07" transform="translate(-43.06 -19.76)"/><path d="M137.81,185.62l-1.5-1.42.08-.06,1.5,1.42-.08.06" transform="translate(-43.06 -19.76)"/><path d="M137.89,185.55l-1.5-1.42.08-.06,1.5,1.42-.08.06" transform="translate(-43.06 -19.76)"/><path d="M138,185.49l-1.5-1.42.1-.06,1.5,1.42-.1.06" transform="translate(-43.06 -19.76)"/><path d="M138.07,185.42l-1.5-1.42.13-.07,1.5,1.42-.13.07" transform="translate(-43.06 -19.76)"/><path d="M138.2,185.35l-1.5-1.42.17-.07,1.5,1.42-.17.07" transform="translate(-43.06 -19.76)"/></g></g></g><path d="M138.37,185.28l8.68-3a1,1,0,0,1,.88,0,.78.78,0,0,1,.38.7,1.47,1.47,0,0,1-.33.94,1.85,1.85,0,0,1-.86.64L144,185.7l.31,10.67a1.48,1.48,0,0,1-.34,1,1.74,1.74,0,0,1-.82.61,1,1,0,0,1-.9,0,.8.8,0,0,1-.39-.71l-.31-10.67-3.1,1.06a1,1,0,0,1-.88-.06.77.77,0,0,1-.38-.69,1.47,1.47,0,0,1,.33-.94A1.74,1.74,0,0,1,138.37,185.28Z" transform="translate(-43.06 -19.76)"/></g><g class="cls-2"><g class="cls-2"><g class="cls-17"><g class="cls-2"><path d="M179.21,183.69l-1.5-1.42h0l1.5,1.42h0" transform="translate(-43.06 -19.76)"/><path d="M179.23,183.7l-1.5-1.42.07.05,1.5,1.42-.07-.05" transform="translate(-43.06 -19.76)"/><path d="M179.29,183.75l-1.5-1.42,0,0,1.5,1.42,0,0" transform="translate(-43.06 -19.76)"/></g></g></g><g class="cls-2"><g class="cls-18"><g class="cls-2"><path d="M169.13,188.5l-1.5-1.42a.79.79,0,0,1-.23-.59l1.5,1.42a.79.79,0,0,0,.23.59" transform="translate(-43.06 -19.76)"/></g></g></g><polygon points="130.81 160.52 129.31 159.11 134.65 162.51 136.15 163.93 130.81 160.52"/><g class="cls-2"><g class="cls-19"><g class="cls-2"><path d="M177.75,172l-1.5-1.42.13,0,1.5,1.42-.13,0" transform="translate(-43.06 -19.76)"/><path d="M177.89,171.92l-1.5-1.42.12,0,1.5,1.42-.12,0" transform="translate(-43.06 -19.76)"/><path d="M178,171.89l-1.5-1.42h.25l1.5,1.42H178" transform="translate(-43.06 -19.76)"/><path d="M178.25,171.88l-1.5-1.42.12,0,1.5,1.42-.12,0" transform="translate(-43.06 -19.76)"/><path d="M178.37,171.89l-1.5-1.42.09,0,1.5,1.42-.09,0" transform="translate(-43.06 -19.76)"/><path d="M178.46,171.92,177,170.5l.09,0,1.5,1.42-.09,0" transform="translate(-43.06 -19.76)"/><path d="M178.55,171.95l-1.5-1.42.08,0h0l1.5,1.42h0l-.08,0" transform="translate(-43.06 -19.76)"/><path d="M178.63,172l-1.5-1.42.08,0,1.5,1.42-.08,0" transform="translate(-43.06 -19.76)"/><path d="M178.71,172l-1.5-1.42.06,0,1.5,1.42-.06,0" transform="translate(-43.06 -19.76)"/><path d="M178.77,172.09l-1.5-1.42,0,0,1.5,1.42,0,0" transform="translate(-43.06 -19.76)"/></g></g></g><polygon points="128.07 160.81 126.57 159.39 132.35 151.44 133.85 152.85 128.07 160.81"/><g class="cls-2"><g class="cls-20"><g class="cls-2"><polyline points="133.85 152.85 132.35 151.44 132.36 151.43 133.85 152.85 133.85 152.85"/><path d="M176.92,172.61l-1.5-1.42.07-.09,1.5,1.42-.07.09" transform="translate(-43.06 -19.76)"/><path d="M177,172.52l-1.5-1.42.07-.08,1.5,1.42-.07.08" transform="translate(-43.06 -19.76)"/><path d="M177.06,172.43l-1.5-1.42.07-.07,1.5,1.42-.07.07" transform="translate(-43.06 -19.76)"/><path d="M177.12,172.36l-1.5-1.42.07-.07,1.5,1.42-.07.07" transform="translate(-43.06 -19.76)"/><path d="M177.19,172.3l-1.5-1.42.08-.06,1.5,1.42-.08.06" transform="translate(-43.06 -19.76)"/><path d="M177.27,172.23l-1.5-1.42.08-.06,1.5,1.42-.08.06" transform="translate(-43.06 -19.76)"/><path d="M177.35,172.17l-1.5-1.42.1-.07,1.5,1.42-.1.07" transform="translate(-43.06 -19.76)"/><path d="M177.46,172.1l-1.5-1.42.14-.08,1.5,1.42-.14.08" transform="translate(-43.06 -19.76)"/><path d="M177.59,172l-1.5-1.42.16-.07,1.5,1.42-.16.07" transform="translate(-43.06 -19.76)"/></g></g></g><polygon points="125.83 168.16 124.33 166.74 123.99 155.03 125.49 156.44 125.83 168.16"/><g class="cls-2"><g class="cls-21"><g class="cls-2"><path d="M169.7,174.65l-1.5-1.42.13,0,1.5,1.42-.13,0" transform="translate(-43.06 -19.76)"/><path d="M169.83,174.61l-1.5-1.42.12,0,1.5,1.42-.12,0" transform="translate(-43.06 -19.76)"/><path d="M170,174.59l-1.5-1.42a1.11,1.11,0,0,1,.26,0l1.5,1.42a1.11,1.11,0,0,0-.26,0" transform="translate(-43.06 -19.76)"/><path d="M170.21,174.57l-1.5-1.42.12,0,1.5,1.42-.12,0" transform="translate(-43.06 -19.76)"/><path d="M170.33,174.59l-1.5-1.42.1,0,1.5,1.42-.1,0" transform="translate(-43.06 -19.76)"/><path d="M170.43,174.61l-1.5-1.42.09,0,1.5,1.42-.09,0" transform="translate(-43.06 -19.76)"/><path d="M170.52,174.64l-1.5-1.42.07,0,1.5,1.42-.07,0" transform="translate(-43.06 -19.76)"/><path d="M170.59,174.68l-1.5-1.42h0l0,0,1.5,1.42,0,0h0" transform="translate(-43.06 -19.76)"/><path d="M170.65,174.72l-1.5-1.42.06,0,1.5,1.42-.06,0" transform="translate(-43.06 -19.76)"/><path d="M170.72,174.77l-1.5-1.42,0,0,1.5,1.42,0,0" transform="translate(-43.06 -19.76)"/></g></g></g><g class="cls-2"><g class="cls-22"><g class="cls-2"><path d="M168.55,176.2l-1.5-1.42a1.25,1.25,0,0,1,.07-.47l1.5,1.42a1.25,1.25,0,0,0-.07.47" transform="translate(-43.06 -19.76)"/><path d="M168.62,175.74l-1.5-1.42.05-.12,1.5,1.42-.05.12" transform="translate(-43.06 -19.76)"/><path d="M168.67,175.61l-1.5-1.42.05-.1,1.5,1.42-.05.1" transform="translate(-43.06 -19.76)"/><path d="M168.72,175.51l-1.5-1.42.05-.09,1.5,1.42-.05.09" transform="translate(-43.06 -19.76)"/><path d="M168.78,175.42l-1.5-1.42.06-.09,1.5,1.42-.06.09" transform="translate(-43.06 -19.76)"/><path d="M168.84,175.33l-1.5-1.42,0-.05,1.5,1.42,0,.05" transform="translate(-43.06 -19.76)"/></g></g></g><g class="cls-2"><g class="cls-23"><g class="cls-2"><path d="M168.88,175.28l-1.5-1.42.06-.08,1.5,1.42-.06.08" transform="translate(-43.06 -19.76)"/><path d="M168.94,175.2l-1.5-1.42.07-.08,1.5,1.42-.07.08" transform="translate(-43.06 -19.76)"/><path d="M169,175.12l-1.5-1.42.07-.07,1.5,1.42-.07.07" transform="translate(-43.06 -19.76)"/><path d="M169.07,175.05l-1.5-1.42.07-.07,1.5,1.42-.07.07" transform="translate(-43.06 -19.76)"/><path d="M169.14,175l-1.5-1.42.07-.06,1.5,1.42-.07.06" transform="translate(-43.06 -19.76)"/><path d="M169.22,174.92l-1.5-1.42.08-.06,1.5,1.42-.08.06" transform="translate(-43.06 -19.76)"/><path d="M169.3,174.86l-1.5-1.42.1-.06,1.5,1.42-.1.06" transform="translate(-43.06 -19.76)"/><path d="M169.4,174.8l-1.5-1.42.13-.07,1.5,1.42-.13.07" transform="translate(-43.06 -19.76)"/><path d="M169.52,174.73l-1.5-1.42.17-.07,1.5,1.42-.17.07" transform="translate(-43.06 -19.76)"/></g></g></g><path d="M169.7,174.65a1,1,0,0,1,.91,0,.79.79,0,0,1,.37.68l.15,5.19,5.78-8a1.78,1.78,0,0,1,.84-.66,1,1,0,0,1,.87,0,.75.75,0,0,1,.4.68,1.38,1.38,0,0,1-.3.94l-4.85,6.68,5.34,3.4a.82.82,0,0,1,.36.71,1.53,1.53,0,0,1-.35.93,1.83,1.83,0,0,1-.84.61,1,1,0,0,1-.9-.06l-5.26-3.35-1,1.38.09,3.17a1.49,1.49,0,0,1-.33.93,1.8,1.8,0,0,1-.85.64,1,1,0,0,1-.87-.05.76.76,0,0,1-.37-.69l-.34-11.71a1.4,1.4,0,0,1,.33-.92A1.72,1.72,0,0,1,169.7,174.65Z" transform="translate(-43.06 -19.76)"/></g><g class="cls-2"><g class="cls-2"><g class="cls-24"><g class="cls-2"><path d="M191.56,179.09l-1.5-1.42.12,0,1.5,1.42-.12,0" transform="translate(-43.06 -19.76)"/><path d="M191.67,179.05l-1.5-1.42.11,0,1.5,1.42-.11,0" transform="translate(-43.06 -19.76)"/><path d="M191.78,179l-1.5-1.42a1.06,1.06,0,0,1,.25,0L192,179a1.06,1.06,0,0,0-.25,0" transform="translate(-43.06 -19.76)"/><path d="M192,179l-1.5-1.42.12,0,1.5,1.42-.12,0" transform="translate(-43.06 -19.76)"/><path d="M192.15,179l-1.5-1.42.09,0,1.5,1.42-.09,0" transform="translate(-43.06 -19.76)"/><path d="M192.24,179.05l-1.5-1.42.08,0,1.5,1.42-.08,0" transform="translate(-43.06 -19.76)"/><path d="M192.32,179.09l-1.5-1.42.09,0,1.5,1.42-.09,0" transform="translate(-43.06 -19.76)"/><path d="M192.41,179.13l-1.5-1.42h0l.06,0,1.5,1.42-.06,0h0" transform="translate(-43.06 -19.76)"/><path d="M192.49,179.18l-1.5-1.42.06,0,1.5,1.42-.06,0" transform="translate(-43.06 -19.76)"/><path d="M192.55,179.23l-1.5-1.42,0,0,1.5,1.42,0,0" transform="translate(-43.06 -19.76)"/></g></g></g><polygon points="142.19 161.48 140.7 160.06 147 157.91 148.49 159.33 142.19 161.48"/><g class="cls-2"><g class="cls-25"><g class="cls-2"><path d="M183.06,183.83l-1.5-1.42a.81.81,0,0,1-.24-.58l1.5,1.42a.81.81,0,0,0,.24.58" transform="translate(-43.06 -19.76)"/></g></g></g><g class="cls-2"><g class="cls-26"><g class="cls-2"><path d="M189.62,173.78l-1.5-1.42.09,0,1.5,1.42-.09,0" transform="translate(-43.06 -19.76)"/><path d="M189.72,173.75l-1.5-1.42.13,0,1.5,1.42-.13,0" transform="translate(-43.06 -19.76)"/><path d="M189.84,173.73l-1.5-1.42a1.15,1.15,0,0,1,.27,0l1.5,1.42a1.15,1.15,0,0,0-.27,0" transform="translate(-43.06 -19.76)"/><path d="M190.11,173.71l-1.5-1.42.13,0,1.5,1.42-.13,0" transform="translate(-43.06 -19.76)"/><path d="M190.24,173.73l-1.5-1.42.1,0,1.5,1.42-.1,0" transform="translate(-43.06 -19.76)"/><path d="M190.34,173.75l-1.5-1.42.09,0,1.5,1.42-.09,0" transform="translate(-43.06 -19.76)"/><path d="M190.43,173.78l-1.5-1.42.07,0,1.5,1.42-.07,0" transform="translate(-43.06 -19.76)"/><path d="M190.5,173.82,189,172.4h0l.06,0,1.5,1.42-.06,0h0" transform="translate(-43.06 -19.76)"/><path d="M190.57,173.86l-1.5-1.42.06,0,1.5,1.42-.06,0" transform="translate(-43.06 -19.76)"/><path d="M190.63,173.91l-1.5-1.42,0,0,1.5,1.42,0,0" transform="translate(-43.06 -19.76)"/></g></g></g><polygon points="142.02 155.57 140.53 154.16 145.06 152.61 146.56 154.02 142.02 155.57"/><g class="cls-2"><g class="cls-27"><g class="cls-2"><path d="M191.21,167.29l-1.5-1.42.09,0,1.5,1.42-.09,0" transform="translate(-43.06 -19.76)"/><path d="M191.3,167.26l-1.5-1.42.12,0,1.5,1.42-.12,0" transform="translate(-43.06 -19.76)"/><path d="M191.42,167.24l-1.5-1.42a1.12,1.12,0,0,1,.26,0l1.5,1.42a1.12,1.12,0,0,0-.26,0" transform="translate(-43.06 -19.76)"/><path d="M191.68,167.22l-1.5-1.42.13,0,1.5,1.42-.13,0" transform="translate(-43.06 -19.76)"/><path d="M191.81,167.24l-1.5-1.42.1,0,1.5,1.42-.1,0" transform="translate(-43.06 -19.76)"/><path d="M191.91,167.26l-1.5-1.42.09,0,1.5,1.42-.09,0" transform="translate(-43.06 -19.76)"/><path d="M192,167.3l-1.5-1.42.07,0,1.5,1.42-.07,0" transform="translate(-43.06 -19.76)"/><path d="M192.07,167.33l-1.5-1.42h0l0,0,1.5,1.42,0,0h0" transform="translate(-43.06 -19.76)"/><path d="M192.14,167.37l-1.5-1.42.06,0,1.5,1.42-.06,0" transform="translate(-43.06 -19.76)"/><path d="M192.2,167.42,190.7,166l0,0,1.5,1.42,0,0" transform="translate(-43.06 -19.76)"/></g></g></g><polygon points="139.76 163.49 138.26 162.07 137.91 150.26 139.41 151.67 139.76 163.49"/><polygon points="140.57 150.09 139.08 148.68 146.65 146.11 148.15 147.53 140.57 150.09"/><g class="cls-2"><g class="cls-28"><g class="cls-2"><path d="M182.47,171.43,181,170a1.37,1.37,0,0,1,.08-.48l1.5,1.42a1.37,1.37,0,0,0-.08.48" transform="translate(-43.06 -19.76)"/><path d="M182.55,171l-1.5-1.42.05-.13,1.5,1.42-.05.13" transform="translate(-43.06 -19.76)"/><path d="M182.61,170.82l-1.5-1.42.05-.11,1.5,1.42-.05.11" transform="translate(-43.06 -19.76)"/><path d="M182.66,170.72l-1.5-1.42.06-.09,1.5,1.42-.06.09" transform="translate(-43.06 -19.76)"/><path d="M182.72,170.62l-1.5-1.42.06-.09,1.5,1.42-.06.09" transform="translate(-43.06 -19.76)"/><path d="M182.78,170.53l-1.5-1.42,0-.05,1.5,1.42,0,.05" transform="translate(-43.06 -19.76)"/></g></g></g><g class="cls-2"><g class="cls-29"><g class="cls-2"><path d="M182.82,170.48l-1.5-1.42.06-.08,1.5,1.42-.06.08" transform="translate(-43.06 -19.76)"/><path d="M182.88,170.4l-1.5-1.42.07-.08,1.5,1.42-.07.08" transform="translate(-43.06 -19.76)"/><path d="M182.95,170.32l-1.5-1.42.07-.07,1.5,1.42-.07.07" transform="translate(-43.06 -19.76)"/><path d="M183,170.25l-1.5-1.42.07-.07,1.5,1.42-.07.07" transform="translate(-43.06 -19.76)"/><path d="M183.08,170.18l-1.5-1.42.07-.06,1.5,1.42-.07.06" transform="translate(-43.06 -19.76)"/><path d="M183.16,170.12l-1.5-1.42.08-.06,1.5,1.42-.08.06" transform="translate(-43.06 -19.76)"/><path d="M183.24,170.06l-1.5-1.42.1-.06,1.5,1.42-.1.06" transform="translate(-43.06 -19.76)"/><path d="M183.34,170l-1.5-1.42.13-.07,1.5,1.42-.13.07" transform="translate(-43.06 -19.76)"/><path d="M183.46,169.93l-1.5-1.42.17-.07,1.5,1.42-.17.07" transform="translate(-43.06 -19.76)"/></g></g></g><path d="M183.64,169.85l7.57-2.57a1,1,0,0,1,.88.06.81.81,0,0,1,.38.7,1.51,1.51,0,0,1-.34.94,1.8,1.8,0,0,1-.85.64l-6.3,2.13.11,3.57,4.54-1.55a1.07,1.07,0,0,1,.88,0,.79.79,0,0,1,.39.7,1.56,1.56,0,0,1-.34,1,1.86,1.86,0,0,1-.86.63l-4.54,1.54.1,3.58,6.3-2.15a1,1,0,0,1,.87.05.79.79,0,0,1,.39.7,1.49,1.49,0,0,1-.34.94,1.72,1.72,0,0,1-.82.63L184.08,184a1,1,0,0,1-.87-.05.77.77,0,0,1-.39-.69l-.35-11.82a1.49,1.49,0,0,1,.34-1A1.72,1.72,0,0,1,183.64,169.85Z" transform="translate(-43.06 -19.76)"/></g><g class="cls-2"><polygon points="163 156.34 161.5 154.92 161.47 154.89 162.97 156.31 163 156.34"/><g class="cls-2"><g class="cls-30"><g class="cls-2"><path d="M196.29,179.31l-1.5-1.42a.78.78,0,0,1-.23-.58l1.5,1.42a.78.78,0,0,0,.23.58" transform="translate(-43.06 -19.76)"/></g></g></g><g class="cls-2"><g class="cls-31"><g class="cls-2"><polyline points="164.39 142.34 162.9 140.93 162.91 140.93 164.4 142.35 164.39 142.34"/><path d="M207.46,162.11l-1.5-1.42.07,0,1.5,1.42-.07,0" transform="translate(-43.06 -19.76)"/><path d="M207.53,162.15l-1.5-1.42.06,0,1.5,1.42-.06,0" transform="translate(-43.06 -19.76)"/><path d="M207.59,162.19l-1.5-1.42,0,0,1.5,1.42,0,0" transform="translate(-43.06 -19.76)"/></g></g></g><polygon points="162.57 152.29 161.08 150.87 160.83 142.46 162.33 143.87 162.57 152.29"/><g class="cls-2"><g class="cls-32"><g class="cls-2"><path d="M205.39,163.63l-1.5-1.42a1.28,1.28,0,0,1,.08-.48l1.5,1.42a1.28,1.28,0,0,0-.08.48" transform="translate(-43.06 -19.76)"/><path d="M205.47,163.15l-1.5-1.42.05-.13,1.5,1.42-.05.13" transform="translate(-43.06 -19.76)"/><path d="M205.52,163l-1.5-1.42.05-.11,1.5,1.42-.05.11" transform="translate(-43.06 -19.76)"/><path d="M205.57,162.92l-1.5-1.42.06-.1,1.5,1.42-.06.1" transform="translate(-43.06 -19.76)"/><path d="M205.63,162.82l-1.5-1.42.06-.09,1.5,1.42-.06.09" transform="translate(-43.06 -19.76)"/><path d="M205.69,162.73l-1.5-1.42,0,0,0-.06,1.5,1.42,0,.06,0,0" transform="translate(-43.06 -19.76)"/><path d="M205.77,162.63l-1.5-1.42.07-.09,1.5,1.42-.07.09" transform="translate(-43.06 -19.76)"/><path d="M205.84,162.55l-1.5-1.42.07-.08,1.5,1.42-.07.08" transform="translate(-43.06 -19.76)"/><path d="M205.91,162.47l-1.5-1.42.07-.07,1.5,1.42-.07.07" transform="translate(-43.06 -19.76)"/><path d="M206,162.4l-1.5-1.42.08-.07,1.5,1.42-.08.07" transform="translate(-43.06 -19.76)"/><path d="M206.06,162.34l-1.5-1.42.08-.06,1.5,1.42-.08.06" transform="translate(-43.06 -19.76)"/><path d="M206.15,162.27l-1.5-1.42.1-.06,1.5,1.42-.1.06" transform="translate(-43.06 -19.76)"/><path d="M206.24,162.21l-1.5-1.42.13-.07,1.5,1.42-.13.07" transform="translate(-43.06 -19.76)"/><path d="M206.37,162.14l-1.5-1.42.18-.07.14,0,1.5,1.42-.14,0-.18.07" transform="translate(-43.06 -19.76)"/><path d="M206.69,162l-1.5-1.42.12,0,1.5,1.42-.12,0" transform="translate(-43.06 -19.76)"/><path d="M206.81,162l-1.5-1.42.25,0,1.5,1.42-.25,0" transform="translate(-43.06 -19.76)"/><path d="M207.07,162l-1.5-1.42h.12l1.5,1.42h-.12" transform="translate(-43.06 -19.76)"/><path d="M207.18,162l-1.5-1.42.09,0,1.5,1.42-.09,0" transform="translate(-43.06 -19.76)"/><path d="M207.27,162l-1.5-1.42.08,0,1.5,1.42-.08,0" transform="translate(-43.06 -19.76)"/><path d="M207.35,162l-1.5-1.42.08,0,1.5,1.42-.08,0" transform="translate(-43.06 -19.76)"/><path d="M207.43,162.09l-1.5-1.42,0,0,1.5,1.42,0,0" transform="translate(-43.06 -19.76)"/></g></g></g><polygon points="154.82 145.71 153.33 144.3 161.08 150.87 162.57 152.29 154.82 145.71"/><polygon points="153 158.98 151.5 157.56 151.16 145.75 152.65 147.17 153 158.98"/><g class="cls-2"><g class="cls-33"><g class="cls-2"><path d="M196.91,165.35l-1.5-1.42.1,0,1.5,1.42-.1,0" transform="translate(-43.06 -19.76)"/><path d="M197,165.32l-1.5-1.42.12,0,1.5,1.42-.12,0" transform="translate(-43.06 -19.76)"/><path d="M197.12,165.29l-1.5-1.42.14,0h.13l1.5,1.42h-.13l-.14,0" transform="translate(-43.06 -19.76)"/><path d="M197.39,165.28l-1.5-1.42.13,0,1.5,1.42-.13,0" transform="translate(-43.06 -19.76)"/><path d="M197.52,165.29l-1.5-1.42.09,0,1.5,1.42-.09,0" transform="translate(-43.06 -19.76)"/><path d="M197.61,165.32l-1.5-1.42.08,0,1.5,1.42-.08,0" transform="translate(-43.06 -19.76)"/><path d="M197.69,165.35l-1.5-1.42.07,0,1.5,1.42-.07,0" transform="translate(-43.06 -19.76)"/><path d="M197.75,165.38l-1.5-1.42.06,0,1.5,1.42-.06,0" transform="translate(-43.06 -19.76)"/><path d="M197.82,165.42l-1.5-1.42.06,0,1.5,1.42-.06,0" transform="translate(-43.06 -19.76)"/><polyline points="154.81 145.71 153.32 144.29 153.33 144.3 154.82 145.71 154.81 145.71"/></g></g></g><g class="cls-2"><g class="cls-34"><g class="cls-2"><path d="M195.71,166.93l-1.5-1.42a1.23,1.23,0,0,1,.07-.46l1.5,1.42a1.23,1.23,0,0,0-.07.46" transform="translate(-43.06 -19.76)"/><path d="M195.79,166.47l-1.5-1.42.05-.13,1.5,1.42-.05.13" transform="translate(-43.06 -19.76)"/><path d="M195.84,166.34l-1.5-1.42.05-.11,1.5,1.42-.05.11" transform="translate(-43.06 -19.76)"/><path d="M195.89,166.23l-1.5-1.42,0,0,1.5,1.42,0,0" transform="translate(-43.06 -19.76)"/></g></g></g><g class="cls-2"><g class="cls-35"><g class="cls-2"><path d="M196.51,165.55l-1.5-1.42.1-.07,1.5,1.42-.1.07" transform="translate(-43.06 -19.76)"/><path d="M196.61,165.49l-1.5-1.42.13-.07,1.5,1.42-.13.07" transform="translate(-43.06 -19.76)"/><path d="M196.75,165.42l-1.5-1.42.16-.07,1.5,1.42-.16.07" transform="translate(-43.06 -19.76)"/></g></g></g><g class="cls-2"><g class="cls-36"><g class="cls-2"><path d="M195.92,166.18l-1.5-1.42,0-.08,1.5,1.42,0,.08" transform="translate(-43.06 -19.76)"/><path d="M196,166.11l-1.5-1.42.06-.09L196,166l-.06.09" transform="translate(-43.06 -19.76)"/><path d="M196,166l-1.5-1.42.06-.08,1.5,1.42L196,166" transform="translate(-43.06 -19.76)"/><path d="M196.09,165.93l-1.5-1.42.06-.07,1.5,1.42-.06.07" transform="translate(-43.06 -19.76)"/><path d="M196.16,165.86l-1.5-1.42.07-.07,1.5,1.42-.07.07" transform="translate(-43.06 -19.76)"/><path d="M196.22,165.79l-1.5-1.42.07-.07,1.5,1.42-.07.07" transform="translate(-43.06 -19.76)"/><path d="M196.29,165.72l-1.5-1.42.08-.07,1.5,1.42-.08.07" transform="translate(-43.06 -19.76)"/><path d="M196.37,165.66l-1.5-1.42.09-.07,1.5,1.42-.09.07" transform="translate(-43.06 -19.76)"/><path d="M196.46,165.59l-1.5-1.42.05,0,1.5,1.42-.05,0" transform="translate(-43.06 -19.76)"/></g></g></g><path d="M196.91,165.35a1.31,1.31,0,0,1,.36-.07.83.83,0,0,1,.62.2l7.75,6.57-.24-8.41a1.46,1.46,0,0,1,.33-.94,1.76,1.76,0,0,1,.84-.63,1,1,0,0,1,.9,0,.77.77,0,0,1,.39.69l.35,11.82v.29l0,.07V175l0,.07,0,.05,0,.06,0,.07-.07.11,0,.06,0,.05,0,.05,0,.05,0,.05-.17.18-.18.13-.19.11-.21.1-.13,0-.13,0h-.37l0,0-.07,0h0l-.1,0,0,0,0,0-7.76-6.57.24,8.41a1.47,1.47,0,0,1-.34.94,1.68,1.68,0,0,1-.82.63,1,1,0,0,1-.9,0,.75.75,0,0,1-.39-.69l-.35-11.81a1.34,1.34,0,0,1,.21-.75,1.85,1.85,0,0,1,.59-.63A1.62,1.62,0,0,1,196.91,165.35Z" transform="translate(-43.06 -19.76)"/></g><polygon class="cls-37" points="112.1 185.93 92.29 192.82 92.13 199.56 100.42 209.03 120.23 202.14 120.23 195.4 112.1 185.93"/><text x="-43.06" y="-19.76"></text><text class="cls-38" transform="translate(527.67 83.08) scale(1.01 1)">reserve(bytes32,uint256)<tspan x="0" y="21.75">reward(bytes32,addresss,uint256)</tspan></text><text class="cls-39" transform="translate(250.05 83.08) scale(1.01 1)">reserved[]</text><text class="cls-38" transform="translate(527.67 139.73) scale(1.01 1)">stake(bytes32,uint256)<tspan x="0" y="21.75">release(bytes32,bytes32,addresss,uint256)</tspan><tspan x="0" y="43.51">punish(bytes32,bytes32,addresss,uint256,)</tspan></text><text class="cls-39" transform="translate(250.05 139.73) scale(1.01 1)">staked[]</text><polyline class="cls-40" points="501.52 153.74 249.14 153.17 248.44 153.74 121.38 197.7"/></svg>